<svg width="34" height="38" viewBox="0 0 34 38" fill="none" xmlns="http://www.w3.org/2000/svg" xmlns:xlink="http://www.w3.org/1999/xlink">
<path d="M17,19C18.961,19 20.879,18.443 22.509,17.399C24.14,16.355 25.411,14.871 26.162,13.136C26.912,11.4 27.109,9.489 26.726,7.647C26.344,5.804 25.399,4.111 24.012,2.782C22.625,1.454 20.858,0.549 18.935,0.183C17.011,-0.184 15.017,0.004 13.205,0.723C11.393,1.442 9.844,2.66 8.755,4.222C7.665,5.784 7.083,7.621 7.083,9.5C7.083,12.02 8.128,14.436 9.988,16.218C11.848,17.999 14.37,19 17,19ZM17,2.714C18.401,2.714 19.77,3.112 20.935,3.858C22.1,4.604 23.008,5.663 23.544,6.903C24.08,8.143 24.221,9.508 23.947,10.824C23.674,12.14 22.999,13.349 22.009,14.298C21.018,15.247 19.756,15.893 18.382,16.155C17.008,16.417 15.584,16.283 14.289,15.769C12.995,15.256 11.889,14.386 11.11,13.27C10.332,12.154 9.917,10.842 9.917,9.5C9.917,7.7 10.663,5.974 11.991,4.702C13.32,3.429 15.121,2.714 17,2.714Z" fill="#A7CB16"/>
<path d="M18.417,21.714L15.583,21.714C11.45,21.714 7.487,23.287 4.564,26.087C1.642,28.886 0,32.684 0,36.643C0,37.003 0.149,37.348 0.415,37.602C0.681,37.857 1.041,38 1.417,38L32.583,38C32.959,38 33.319,37.857 33.585,37.602C33.851,37.348 34,37.003 34,36.643C34,32.684 32.358,28.886 29.436,26.087C26.513,23.287 22.55,21.714 18.417,21.714ZM2.918,35.286C3.267,32.301 4.751,29.544 7.087,27.541C9.423,25.538 12.448,24.43 15.583,24.429L18.417,24.429C21.552,24.43 24.577,25.538 26.913,27.541C29.249,29.544 30.733,32.301 31.082,35.286L2.918,35.286Z" fill="#A7CB16"/>
</svg>
