<svg width="34" height="38" viewBox="0 0 34 38" fill="none" xmlns="http://www.w3.org/2000/svg" xmlns:xlink="http://www.w3.org/1999/xlink">
<path d="M17,18.397C18.961,18.397 20.879,17.84 22.51,16.796C24.14,15.752 25.411,14.268 26.162,12.532C26.913,10.797 27.109,8.886 26.726,7.044C26.344,5.201 25.399,3.508 24.012,2.179C22.625,0.851 20.858,-0.054 18.935,-0.42C17.011,-0.787 15.017,-0.599 13.205,0.12C11.393,0.839 9.844,2.057 8.755,3.619C7.665,5.181 7.083,7.018 7.083,8.897C7.083,11.417 8.128,13.833 9.988,15.614C11.848,17.396 14.37,18.397 17,18.397ZM17,2.111C18.401,2.111 19.771,2.509 20.935,3.255C22.1,4 23.008,5.06 23.544,6.3C24.08,7.54 24.221,8.905 23.947,10.221C23.674,11.537 22.999,12.746 22.009,13.695C21.018,14.644 19.756,15.29 18.382,15.552C17.008,15.814 15.584,15.68 14.289,15.166C12.995,14.653 11.889,13.783 11.111,12.667C10.332,11.551 9.917,10.239 9.917,8.897C9.917,7.097 10.663,5.371 11.991,4.099C13.32,2.826 15.122,2.111 17,2.111Z" fill="#A7CB16"/>
<path d="M18.417,21.111L15.583,21.111C11.45,21.111 7.487,22.684 4.564,25.484C1.642,28.283 0,32.081 0,36.04C0,36.4 0.149,36.745 0.415,37C0.681,37.254 1.041,37.397 1.417,37.397L32.583,37.397C32.959,37.397 33.319,37.254 33.585,37C33.851,36.745 34,36.4 34,36.04C34,32.081 32.358,28.283 29.436,25.484C26.513,22.684 22.55,21.111 18.417,21.111ZM2.918,34.683C3.267,31.698 4.751,28.941 7.087,26.938C9.423,24.935 12.448,23.827 15.583,23.826L18.417,23.826C21.552,23.827 24.577,24.935 26.913,26.938C29.249,28.941 30.733,31.698 31.082,34.683L2.918,34.683Z" fill="#A7CB16"/>
</svg>
