<svg width="24" height="20" viewBox="0 0 24 20" fill="none" xmlns="http://www.w3.org/2000/svg" xmlns:xlink="http://www.w3.org/1999/xlink">
<path d="M1.19,4.13C0.803,3.607 0.575,2.96 0.575,2.26C0.575,0.523 1.983,-0.885 3.72,-0.885C4.343,-0.885 4.924,-0.704 5.412,-0.391C3.649,0.73 2.191,2.288 1.19,4.13ZM22.007,9.991C22.007,15.518 17.526,19.998 12,19.998C6.473,19.998 1.993,15.518 1.993,9.991C1.993,4.465 6.473,-0.016 12,-0.016C17.526,-0.016 22.007,4.465 22.007,9.991ZM12.88,11.409L8.008,11.409L8.008,9.682L11.165,9.682L11.165,3.69L12.88,3.69L12.88,11.409ZM20.302,-0.885C19.675,-0.885 19.09,-0.701 18.599,-0.384C20.362,0.74 21.82,2.302 22.819,4.147C23.214,3.622 23.448,2.968 23.448,2.26C23.448,0.523 22.04,-0.885 20.302,-0.885Z" clip-rule="evenodd" fill-rule="evenodd" fill="#FFFFFF"/>
</svg>
