<svg width="24" height="22" viewBox="0 0 24 22" fill="none" xmlns="http://www.w3.org/2000/svg" xmlns:xlink="http://www.w3.org/1999/xlink">
<path d="M1.19,4.302C0.803,3.779 0.575,3.133 0.575,2.432C0.575,0.696 1.983,-0.713 3.72,-0.713C4.343,-0.713 4.924,-0.531 5.412,-0.219C3.649,0.902 2.191,2.46 1.19,4.302ZM22.007,10.163C22.007,15.69 17.526,20.17 12,20.17C6.473,20.17 1.993,15.69 1.993,10.163C1.993,4.637 6.473,0.157 12,0.157C17.526,0.157 22.007,4.637 22.007,10.163ZM12.88,11.582L8.008,11.582L8.008,9.855L11.165,9.855L11.165,3.862L12.88,3.862L12.88,11.582ZM20.302,-0.713C19.675,-0.713 19.09,-0.528 18.599,-0.211C20.362,0.913 21.82,2.474 22.819,4.32C23.214,3.794 23.448,3.14 23.448,2.432C23.448,0.696 22.04,-0.713 20.302,-0.713Z" clip-rule="evenodd" fill-rule="evenodd" fill="#000000"/>
</svg>
