<svg width="24" height="22" viewBox="0 0 24 22" fill="none" xmlns="http://www.w3.org/2000/svg" xmlns:xlink="http://www.w3.org/1999/xlink">
<path d="M1.19,4.732C0.803,4.21 0.575,3.563 0.575,2.863C0.575,1.126 1.983,-0.282 3.72,-0.282C4.343,-0.282 4.923,-0.101 5.412,0.212C3.649,1.333 2.191,2.89 1.19,4.732ZM22.006,10.594C22.006,16.121 17.526,20.601 12,20.601C6.473,20.601 1.993,16.121 1.993,10.594C1.993,5.068 6.473,0.587 12,0.587C17.526,0.587 22.006,5.068 22.006,10.594ZM12.88,12.012L8.008,12.012L8.008,10.285L11.165,10.285L11.165,4.293L12.88,4.293L12.88,12.012ZM20.302,-0.282C19.674,-0.282 19.089,-0.098 18.598,0.219C20.362,1.343 21.82,2.905 22.819,4.75C23.213,4.225 23.447,3.571 23.447,2.863C23.447,1.126 22.039,-0.282 20.302,-0.282Z" clip-rule="evenodd" fill-rule="evenodd" fill="#000000"/>
</svg>
