<svg width="48" height="38" viewBox="0 0 48 38" fill="none" xmlns="http://www.w3.org/2000/svg" xmlns:xlink="http://www.w3.org/1999/xlink">
<path d="M17.54,30.397C15.883,30.397 14.54,31.74 14.54,33.397C14.54,35.054 15.883,36.397 17.54,36.397L17.54,30.397ZM4,9.094C2.343,9.094 1,10.437 1,12.094C1,13.751 2.343,15.094 4,15.094L4,9.094ZM17.54,36.397L33.734,36.397L33.734,30.397L17.54,30.397L17.54,36.397ZM33.734,36.397C38.039,36.397 41.486,34.713 43.798,32.024C46.059,29.393 47.086,25.976 46.994,22.662C46.902,19.343 45.682,15.946 43.215,13.354C40.705,10.718 37.074,9.094 32.551,9.094L32.551,15.094C35.559,15.094 37.576,16.133 38.869,17.491C40.204,18.893 40.941,20.823 40.997,22.829C41.052,24.841 40.419,26.75 39.247,28.113C38.126,29.418 36.368,30.397 33.734,30.397L33.734,36.397ZM32.551,9.094L11.975,9.094L11.975,15.094L32.551,15.094L32.551,9.094ZM11.975,9.094L4,9.094L4,15.094L11.975,15.094L11.975,9.094Z" fill="#FFFFFF"/>
<path d="M6.104,9.955C4.922,8.793 3.023,8.809 1.861,9.99C0.699,11.172 0.715,13.071 1.896,14.233L6.104,9.955ZM10.74,22.93C11.921,24.092 13.821,24.076 14.983,22.894C16.144,21.713 16.128,19.814 14.947,18.652L10.74,22.93ZM1.896,14.233L10.74,22.93L14.947,18.652L6.104,9.955L1.896,14.233Z" fill="#FFFFFF"/>
<path d="M1.896,9.955C0.715,11.117 0.699,13.016 1.861,14.197C3.023,15.379 4.922,15.395 6.104,14.233L1.896,9.955ZM14.947,5.536C16.128,4.374 16.144,2.475 14.983,1.294C13.821,0.112 11.921,0.096 10.74,1.258L14.947,5.536ZM6.104,14.233L14.947,5.536L10.74,1.258L1.896,9.955L6.104,14.233Z" fill="#FFFFFF"/>
</svg>
