<svg width="48" height="38" viewBox="0 0 48 38" fill="none" xmlns="http://www.w3.org/2000/svg" xmlns:xlink="http://www.w3.org/1999/xlink">
<path d="M17.54,31C15.883,31 14.54,32.343 14.54,34C14.54,35.657 15.883,37 17.54,37L17.54,31ZM4,9.697C2.343,9.697 1,11.04 1,12.697C1,14.354 2.343,15.697 4,15.697L4,9.697ZM17.54,37L33.734,37L33.734,31L17.54,31L17.54,37ZM33.734,37C38.039,37 41.486,35.316 43.798,32.627C46.059,29.995 47.086,26.579 46.994,23.265C46.902,19.945 45.682,16.549 43.215,13.957C40.705,11.321 37.074,9.697 32.551,9.697L32.551,15.697C35.559,15.697 37.576,16.736 38.869,18.094C40.204,19.496 40.941,21.426 40.997,23.432C41.052,25.444 40.419,27.353 39.247,28.716C38.126,30.021 36.368,31 33.734,31L33.734,37ZM32.551,9.697L11.975,9.697L11.975,15.697L32.551,15.697L32.551,9.697ZM11.975,9.697L4,9.697L4,15.697L11.975,15.697L11.975,9.697Z" fill="#FFFFFF"/>
<path d="M6.104,10.558C4.922,9.396 3.023,9.412 1.861,10.593C0.699,11.775 0.715,13.674 1.896,14.836L6.104,10.558ZM10.74,23.533C11.921,24.694 13.821,24.678 14.983,23.497C16.144,22.316 16.128,20.416 14.947,19.255L10.74,23.533ZM1.896,14.836L10.74,23.533L14.947,19.255L6.104,10.558L1.896,14.836Z" fill="#FFFFFF"/>
<path d="M1.896,10.558C0.715,11.72 0.699,13.619 1.861,14.8C3.023,15.982 4.922,15.998 6.104,14.836L1.896,10.558ZM14.947,6.139C16.128,4.977 16.144,3.078 14.983,1.896C13.821,0.715 11.921,0.699 10.74,1.861L14.947,6.139ZM6.104,14.836L14.947,6.139L10.74,1.861L1.896,10.558L6.104,14.836Z" fill="#FFFFFF"/>
</svg>
