<svg width="62" height="26" viewBox="0 0 62 26" fill="none" xmlns="http://www.w3.org/2000/svg" xmlns:xlink="http://www.w3.org/1999/xlink">
<g opacity="0.35">
<path d="M6.104,-1L49.562,-1C52.72,-1 55.28,1.56 55.28,4.718L55.28,19.586C55.28,22.744 52.72,25.304 49.562,25.304L6.104,25.304C2.946,25.304 0.386,22.744 0.386,19.586L0.386,4.718C0.386,1.56 2.946,-1 6.104,-1ZM6.104,1.288C4.209,1.288 2.673,2.824 2.673,4.718L2.673,19.586C2.673,21.481 4.209,23.017 6.104,23.017L49.562,23.017C51.457,23.017 52.993,21.481 52.993,19.586L52.993,4.718C52.993,2.824 51.457,1.288 49.562,1.288L6.104,1.288Z" clip-rule="evenodd" fill-rule="evenodd" fill="#000000"/>
</g>
<g opacity="0.4">
<path d="M57.568,6.548C59.605,7.589 60.999,9.708 60.999,12.152C60.999,14.596 59.605,16.715 57.568,17.756L57.568,6.548Z" clip-rule="evenodd" fill-rule="evenodd" fill="#000000"/>
</g>
<path d="M7.248,3.575L48.419,3.575C49.682,3.575 50.706,4.599 50.706,5.862L50.706,18.442C50.706,19.705 49.682,20.729 48.419,20.729L7.248,20.729C5.984,20.729 4.96,19.705 4.96,18.442L4.96,5.862C4.96,4.599 5.984,3.575 7.248,3.575Z" clip-rule="evenodd" fill-rule="evenodd" fill="#000000"/>
</svg>
