<svg width="62" height="28" viewBox="0 0 62 28" fill="none" xmlns="http://www.w3.org/2000/svg" xmlns:xlink="http://www.w3.org/1999/xlink">
<g opacity="0.35">
<path d="M6.104,0.828L49.562,0.828C52.72,0.828 55.28,3.388 55.28,6.546L55.28,21.414C55.28,24.572 52.72,27.132 49.562,27.132L6.104,27.132C2.946,27.132 0.386,24.572 0.386,21.414L0.386,6.546C0.386,3.388 2.946,0.828 6.104,0.828ZM6.104,3.115C4.209,3.115 2.673,4.651 2.673,6.546L2.673,21.414C2.673,23.308 4.209,24.844 6.104,24.844L49.562,24.844C51.457,24.844 52.993,23.308 52.993,21.414L52.993,6.546C52.993,4.651 51.457,3.115 49.562,3.115L6.104,3.115Z" clip-rule="evenodd" fill-rule="evenodd" fill="#FFFFFF"/>
</g>
<g opacity="0.4">
<path d="M57.568,8.376C59.605,9.417 60.999,11.535 60.999,13.98C60.999,16.424 59.605,18.543 57.568,19.584L57.568,8.376Z" clip-rule="evenodd" fill-rule="evenodd" fill="#FFFFFF"/>
</g>
<path d="M7.248,5.403L48.419,5.403C49.682,5.403 50.706,6.427 50.706,7.69L50.706,20.27C50.706,21.533 49.682,22.557 48.419,22.557L7.248,22.557C5.984,22.557 4.96,21.533 4.96,20.27L4.96,7.69C4.96,6.427 5.984,5.403 7.248,5.403Z" clip-rule="evenodd" fill-rule="evenodd" fill="#FFFFFF"/>
</svg>
