<svg width="62" height="26" viewBox="0 0 62 26" fill="none" xmlns="http://www.w3.org/2000/svg" xmlns:xlink="http://www.w3.org/1999/xlink">
<g opacity="0.35">
<path d="M6.104,-0.569L49.562,-0.569C52.72,-0.569 55.28,1.991 55.28,5.149L55.28,20.017C55.28,23.175 52.72,25.735 49.562,25.735L6.104,25.735C2.946,25.735 0.386,23.175 0.386,20.017L0.386,5.149C0.386,1.991 2.946,-0.569 6.104,-0.569ZM6.104,1.718C4.209,1.718 2.673,3.254 2.673,5.149L2.673,20.017C2.673,21.911 4.209,23.447 6.104,23.447L49.562,23.447C51.457,23.447 52.993,21.911 52.993,20.017L52.993,5.149C52.993,3.254 51.457,1.718 49.562,1.718L6.104,1.718Z" clip-rule="evenodd" fill-rule="evenodd" fill="#FFFFFF"/>
</g>
<g opacity="0.4">
<path d="M57.568,6.979C59.605,8.02 60.999,10.138 60.999,12.583C60.999,15.027 59.605,17.146 57.568,18.187L57.568,6.979Z" clip-rule="evenodd" fill-rule="evenodd" fill="#FFFFFF"/>
</g>
<path d="M7.248,4.005L48.419,4.005C49.682,4.005 50.706,5.03 50.706,6.293L50.706,18.873C50.706,20.136 49.682,21.16 48.419,21.16L7.248,21.16C5.984,21.16 4.96,20.136 4.96,18.873L4.96,6.293C4.96,5.03 5.984,4.005 7.248,4.005Z" clip-rule="evenodd" fill-rule="evenodd" fill="#FFFFFF"/>
</svg>
