<svg width="60" height="60" viewBox="0 0 60 60" fill="none" xmlns="http://www.w3.org/2000/svg" xmlns:xlink="http://www.w3.org/1999/xlink">
<path d="M3.18,50.998C3.094,50.95 3.004,50.913 2.911,50.89C0.681,50.728 -0.336,49.367 0.115,46.869C0.379,45.43 0.798,44.032 1.362,42.709C1.715,41.877 2.442,41.252 2.983,40.557C2.804,39.667 2.454,38.711 2.464,37.758C2.475,36.837 2.857,35.921 3.093,34.929C1.334,33.061 1.285,32.661 2.532,29.421C1.842,28.609 1.766,27.626 1.874,26.508C2.172,23.427 2.527,20.364 3.563,17.473C6.196,10.126 10.865,5.085 17.391,2.458C25.316,-0.731 33.316,-0.779 41.205,2.726C44.85,4.344 48.067,6.758 50.365,10.46C51.274,11.871 52.038,13.397 52.64,15.007C53.438,17.265 54.007,19.632 54.605,21.975C55.021,23.605 55.151,25.255 54.107,26.786C55.082,27.682 55.93,28.575 56.339,29.884C56.762,31.239 56.442,32.418 55.761,33.593C57.008,35.041 57.187,36.738 56.628,38.657C57.684,39.576 58.65,40.632 59.085,42.126C59.337,42.9 59.5,43.709 59.569,44.53C59.701,47.179 58.788,48.354 56.526,48.656C56.472,49.844 56.462,51.028 56.355,52.2C56.138,54.587 54.921,56.136 52.933,56.699C51.041,57.212 49.123,57.59 47.189,57.832C43.564,58.328 39.934,58.79 36.295,59.118C30.301,59.657 24.294,59.902 18.291,59.313C14.938,58.984 11.591,58.565 8.249,58.108C7.287,57.946 6.344,57.666 5.435,57.271C4.889,57.068 4.408,56.685 4.053,56.172C3.698,55.658 3.484,55.037 3.439,54.385C3.314,53.253 3.262,52.109 3.18,50.998ZM52.426,25.447C51.91,22.983 51.491,20.643 50.92,18.351C50.366,15.984 49.415,13.76 48.119,11.803C45.855,8.468 42.837,6.392 39.448,4.945C34.313,2.752 29.001,2.355 23.628,3.366C16.146,4.771 10.168,8.758 6.516,16.627C5.056,19.773 4.375,23.145 3.84,26.693C4.231,26.878 4.636,27.024 5.05,27.131C6.412,27.337 7.783,27.662 9.146,27.636C14.498,27.536 19.849,27.304 25.202,27.151C29.542,27.027 33.882,26.949 38.223,26.844C42.197,26.748 46.173,26.663 50.111,25.952C50.86,25.816 51.601,25.628 52.426,25.447ZM48.745,46.907C48.083,47.489 47.458,47.986 46.884,48.553C45.842,49.582 44.733,49.758 43.519,49.01C43.046,48.745 42.59,48.445 42.153,48.112C41.04,47.19 39.961,47.104 38.789,48.007C38.006,48.582 37.191,49.1 36.35,49.557C35.668,49.975 34.906,50.196 34.131,50.202C33.356,50.207 32.592,49.997 31.905,49.589C31.288,49.243 30.68,48.871 30.093,48.463C29.757,48.2 29.363,48.049 28.956,48.025C28.548,48.001 28.143,48.106 27.784,48.329C27.067,48.753 26.35,49.185 25.668,49.677C25.165,50.073 24.578,50.312 23.968,50.369C23.358,50.426 22.745,50.299 22.191,50.001C21.485,49.655 20.814,49.222 20.189,48.711C19.151,47.83 18.102,47.776 17.005,48.447C16.364,48.839 15.757,49.303 15.142,49.748C13.56,50.895 12.005,50.805 10.477,49.623C10.109,49.338 9.761,49.018 9.411,48.703C8.498,47.882 7.55,47.873 6.596,48.575C6.167,48.891 5.781,49.283 5.438,49.586C5.58,50.618 5.682,51.486 5.819,52.346C6.121,54.232 6.225,54.345 7.85,54.735C7.968,54.764 8.091,54.771 8.211,54.795C13.252,55.762 18.35,56.302 23.461,56.407C31.679,56.636 39.82,55.531 47.953,54.385C49.197,54.21 50.432,53.928 51.658,53.632C52.55,53.416 53.037,52.72 53.124,51.685C53.196,50.834 53.256,49.981 53.326,49.047C51.471,49.279 50.079,48.441 48.745,46.907ZM2.439,48.283C2.993,47.964 3.425,47.746 3.829,47.473C4.246,47.19 4.623,46.832 5.037,46.543C7.039,45.145 8.83,45.272 10.653,46.927C10.906,47.157 11.158,47.39 11.408,47.626C12.227,48.397 13.076,48.462 13.979,47.804C14.617,47.314 15.277,46.864 15.958,46.455C17.774,45.43 19.54,45.442 21.213,46.9C21.637,47.254 22.086,47.569 22.553,47.843C22.885,48.07 23.269,48.18 23.656,48.156C24.043,48.133 24.415,47.978 24.724,47.712C25.391,47.189 26.096,46.732 26.831,46.345C28.286,45.596 29.733,45.59 31.113,46.64C31.482,46.921 31.882,47.15 32.264,47.413C32.773,47.8 33.369,48.012 33.982,48.023C34.594,48.034 35.197,47.844 35.716,47.475C36.489,46.969 37.273,46.484 38.027,45.944C39.64,44.791 41.211,44.849 42.831,45.959C44.821,47.323 44.837,47.293 46.678,45.728C48.22,44.417 49.379,44.373 51.034,45.58C51.496,45.916 51.944,46.281 52.434,46.66C53.074,45.752 53.254,44.266 54.41,44.358C55.312,44.429 56.181,45.043 57.091,45.426C58.001,43.869 57.203,41.235 55.545,40.233C54.196,40.691 52.98,41.228 51.72,41.513C47.016,42.58 42.224,42.764 37.459,43.218C35.13,43.441 32.795,43.115 30.469,43.436C30.028,43.496 29.549,43.18 29.085,43.048C28.631,42.917 28.175,42.691 27.72,42.691C22.893,42.702 18.065,42.825 13.24,42.753C10.939,42.719 8.641,42.317 6.339,42.121C5.9,42.08 5.46,42.145 5.045,42.312C3.349,43.039 2.276,45.411 2.439,48.283L2.439,48.283ZM18.732,29.952C18.746,30.045 18.759,30.137 18.773,30.23C22.034,33.107 25.278,36.008 28.563,38.85C30.259,40.317 30.018,40.838 31.868,38.59C34.027,35.966 36.084,33.236 38.18,30.547C38.358,30.319 38.498,30.052 38.819,29.545L18.732,29.952ZM25.554,39.935C24.305,38.742 23.272,37.787 22.273,36.786C21.813,36.325 21.346,36.226 20.731,36.237C16.233,36.318 11.734,36.835 7.234,36.209C6.686,36.133 6.11,36.283 5.55,36.347C5.006,36.408 4.805,36.829 4.758,37.388C4.696,38.147 4.971,38.684 5.731,38.907C6.665,39.218 7.625,39.413 8.596,39.49C13.825,39.702 19.057,39.845 24.287,40.005C24.601,40.016 24.916,39.973 25.554,39.936L25.554,39.935ZM54.339,34.842C52.832,35.281 51.441,35.842 50.009,36.074C45.88,36.763 41.712,37.1 37.538,37.08C37.27,37.052 37,37.131 36.778,37.306C35.999,38.215 35.271,39.18 34.427,40.248C35.646,40.248 36.651,40.32 37.646,40.235C41.282,39.925 44.921,39.634 48.545,39.19C50.275,38.975 51.983,38.579 53.648,38.007C55.151,37.494 55.346,36.239 54.339,34.843L54.339,34.842ZM39.216,33.977C39.767,33.977 40.091,33.998 40.411,33.974C43.079,33.78 45.759,33.692 48.41,33.337C50.09,33.067 51.745,32.622 53.353,32.008C54.384,31.643 54.586,30.969 54.298,29.993C53.963,28.858 53.239,28.271 52.353,28.46C49.486,29.076 46.576,29.402 43.658,29.435C43.098,29.441 42.538,29.496 42.175,29.516L39.216,33.977ZM4.84,29.467C4.551,30.054 4.292,30.658 4.063,31.278C3.792,32.147 3.892,32.433 4.688,32.738C5.493,33.048 6.322,33.268 7.164,33.397C10.598,33.909 14.046,33.685 17.49,33.572C17.802,33.529 18.11,33.462 18.414,33.371C17.858,32.892 17.484,32.55 17.092,32.237C16.495,31.76 15.772,31.415 15.313,30.807C14.839,30.18 14.345,30.115 13.724,30.114C10.808,30.111 7.882,30.329 4.84,29.467Z" fill="#000000"/>
<path d="M24.738,9.579C24.792,9.043 24.71,8.482 25.272,8.278C25.822,8.078 26.238,8.387 26.465,8.936C26.712,9.511 26.905,10.114 27.042,10.735C27.157,11.295 27.06,11.859 26.505,12.115C26.016,12.341 25.485,12.082 25.227,11.408C25.031,10.81 24.868,10.199 24.738,9.579Z" fill="#000000"/>
<path d="M15.912,17.018C16.092,17.161 16.532,17.328 16.602,17.612C16.645,17.82 16.647,18.037 16.609,18.246C16.57,18.456 16.492,18.654 16.38,18.825C15.778,19.563 14.92,19.797 14.065,19.833C13.446,19.86 13.171,19.054 13.59,18.397C14.11,17.584 14.856,17.145 15.912,17.018Z" fill="#000000"/>
<path d="M45.187,23.248C44.795,22.916 44.358,22.727 44.248,22.396C44.159,22.133 44.383,21.566 44.62,21.367C45.1,20.951 45.644,20.641 46.225,20.455C46.529,20.366 47.101,20.59 47.236,20.871C47.291,21.075 47.298,21.292 47.258,21.501C47.218,21.71 47.132,21.903 47.008,22.064C46.501,22.541 45.856,22.831 45.187,23.248Z" fill="#000000"/>
<path d="M31.999,18.947C31.965,18.049 32.558,17.6 33.207,17.938C33.799,18.246 34.479,19.753 34.366,20.505C34.265,21.179 33.684,21.532 33.199,21.144C32.566,20.614 32.136,19.827 31.999,18.947Z" fill="#000000"/>
<path d="M43.437,12.889C43.432,13.693 42.464,14.798 41.765,14.796C41.324,14.795 40.908,14.239 41.126,13.732C41.393,13.083 41.79,12.515 42.285,12.072C42.813,11.636 43.442,12.152 43.437,12.889Z" fill="#000000"/>
<path d="M22.128,24.896C21.382,24.848 20.509,23.843 20.524,23.147C20.531,23.009 20.563,22.875 20.617,22.751C20.672,22.628 20.747,22.518 20.84,22.429C20.932,22.34 21.04,22.272 21.156,22.231C21.272,22.19 21.394,22.176 21.514,22.19C22.102,22.276 22.775,23.272 22.756,24.032C22.743,24.56 22.584,24.936 22.128,24.896Z" fill="#000000"/>
</svg>
