<svg width="60" height="60" viewBox="0 0 60 60" fill="none" xmlns="http://www.w3.org/2000/svg" xmlns:xlink="http://www.w3.org/1999/xlink">
<path d="M3.18,50.567C3.094,50.519 3.004,50.483 2.911,50.459C0.681,50.297 -0.336,48.936 0.115,46.439C0.379,44.999 0.798,43.602 1.362,42.278C1.715,41.447 2.442,40.822 2.983,40.127C2.804,39.237 2.453,38.28 2.464,37.328C2.475,36.406 2.857,35.49 3.093,34.498C1.334,32.63 1.285,32.23 2.532,28.99C1.842,28.178 1.766,27.195 1.874,26.077C2.172,22.997 2.527,19.933 3.563,17.043C6.196,9.696 10.865,4.654 17.391,2.027C25.316,-1.161 33.316,-1.209 41.205,2.295C44.85,3.914 48.067,6.327 50.365,10.029C51.274,11.441 52.038,12.966 52.64,14.577C53.438,16.834 54.007,19.201 54.605,21.544C55.021,23.174 55.151,24.825 54.107,26.356C55.082,27.252 55.93,28.144 56.339,29.454C56.762,30.808 56.442,31.987 55.761,33.163C57.008,34.611 57.187,36.307 56.628,38.226C57.684,39.146 58.65,40.201 59.085,41.695C59.337,42.47 59.5,43.278 59.569,44.1C59.701,46.748 58.788,47.923 56.526,48.225C56.472,49.413 56.462,50.597 56.355,51.769C56.138,54.156 54.921,55.705 52.933,56.268C51.041,56.781 49.123,57.159 47.189,57.401C43.564,57.897 39.934,58.359 36.295,58.687C30.301,59.226 24.294,59.471 18.291,58.882C14.938,58.553 11.591,58.135 8.249,57.677C7.287,57.515 6.344,57.235 5.435,56.841C4.889,56.637 4.408,56.255 4.053,55.741C3.698,55.227 3.484,54.606 3.439,53.955C3.314,52.822 3.262,51.678 3.18,50.567ZM52.426,25.016C51.91,22.552 51.491,20.212 50.92,17.921C50.366,15.553 49.415,13.33 48.119,11.372C45.855,8.038 42.837,5.961 39.448,4.514C34.313,2.321 29.001,1.925 23.628,2.935C16.146,4.34 10.168,8.327 6.516,16.196C5.056,19.342 4.375,22.714 3.84,26.262C4.231,26.447 4.636,26.594 5.05,26.701C6.412,26.907 7.782,27.231 9.146,27.206C14.498,27.105 19.849,26.873 25.202,26.72C29.542,26.596 33.882,26.518 38.223,26.414C42.197,26.318 46.173,26.233 50.111,25.521C50.86,25.386 51.601,25.198 52.426,25.016ZM48.745,46.476C48.083,47.058 47.458,47.555 46.884,48.123C45.842,49.152 44.733,49.328 43.519,48.579C43.046,48.314 42.59,48.014 42.153,47.681C41.04,46.76 39.961,46.673 38.789,47.577C38.006,48.151 37.191,48.669 36.35,49.127C35.668,49.544 34.906,49.766 34.131,49.771C33.356,49.776 32.592,49.566 31.905,49.158C31.288,48.812 30.68,48.441 30.093,48.033C29.757,47.77 29.363,47.618 28.956,47.595C28.548,47.57 28.143,47.676 27.784,47.898C27.067,48.322 26.35,48.755 25.668,49.247C25.165,49.643 24.578,49.881 23.968,49.938C23.358,49.995 22.745,49.868 22.191,49.57C21.485,49.225 20.814,48.792 20.189,48.281C19.151,47.4 18.102,47.345 17.005,48.016C16.364,48.408 15.757,48.872 15.142,49.318C13.56,50.465 12.005,50.374 10.477,49.192C10.109,48.908 9.761,48.588 9.411,48.273C8.498,47.452 7.549,47.442 6.596,48.145C6.167,48.461 5.781,48.853 5.438,49.156C5.58,50.187 5.682,51.055 5.819,51.915C6.121,53.801 6.225,53.914 7.85,54.304C7.968,54.333 8.091,54.34 8.211,54.364C13.252,55.332 18.35,55.871 23.461,55.976C31.679,56.206 39.82,55.101 47.953,53.955C49.197,53.78 50.432,53.498 51.658,53.201C52.55,52.986 53.037,52.289 53.124,51.254C53.196,50.403 53.256,49.551 53.326,48.616C51.471,48.848 50.079,48.01 48.745,46.476ZM2.439,47.852C2.993,47.533 3.425,47.316 3.829,47.043C4.246,46.76 4.623,46.402 5.037,46.112C7.039,44.715 8.83,44.842 10.653,46.496C10.906,46.726 11.158,46.959 11.408,47.195C12.227,47.967 13.076,48.031 13.979,47.374C14.617,46.884 15.277,46.433 15.958,46.025C17.774,45 19.54,45.011 21.213,46.47C21.637,46.823 22.086,47.138 22.553,47.412C22.885,47.64 23.269,47.749 23.656,47.726C24.043,47.703 24.415,47.548 24.724,47.282C25.391,46.759 26.096,46.301 26.831,45.914C28.286,45.166 29.733,45.159 31.113,46.209C31.482,46.49 31.882,46.72 32.264,46.982C32.773,47.369 33.369,47.582 33.982,47.592C34.594,47.603 35.197,47.413 35.716,47.044C36.489,46.538 37.273,46.053 38.027,45.514C39.64,44.36 41.211,44.419 42.831,45.529C44.821,46.892 44.837,46.862 46.678,45.297C48.22,43.986 49.379,43.943 51.034,45.149C51.496,45.486 51.944,45.85 52.434,46.229C53.074,45.322 53.254,43.836 54.41,43.927C55.312,43.999 56.181,44.612 57.091,44.996C58.001,43.439 57.203,40.805 55.545,39.802C54.196,40.261 52.98,40.797 51.72,41.083C47.016,42.149 42.224,42.333 37.459,42.788C35.13,43.01 32.795,42.685 30.469,43.005C30.028,43.066 29.549,42.75 29.085,42.617C28.631,42.487 28.175,42.26 27.72,42.261C22.893,42.271 18.065,42.394 13.24,42.322C10.938,42.288 8.64,41.887 6.339,41.69C5.9,41.649 5.46,41.715 5.045,41.881C3.349,42.608 2.276,44.98 2.439,47.853L2.439,47.852ZM18.732,29.521C18.746,29.614 18.759,29.707 18.773,29.8C22.034,32.676 25.278,35.578 28.563,38.419C30.259,39.886 30.018,40.407 31.868,38.159C34.027,35.536 36.084,32.805 38.18,30.116C38.358,29.888 38.498,29.621 38.819,29.114L18.732,29.521ZM25.554,39.505C24.305,38.312 23.272,37.356 22.273,36.355C21.813,35.894 21.346,35.795 20.731,35.807C16.233,35.888 11.734,36.405 7.234,35.778C6.686,35.702 6.11,35.853 5.55,35.916C5.006,35.977 4.805,36.398 4.758,36.957C4.696,37.716 4.971,38.253 5.731,38.477C6.665,38.787 7.625,38.983 8.596,39.059C13.825,39.272 19.057,39.414 24.287,39.574C24.601,39.585 24.916,39.543 25.554,39.506L25.554,39.505ZM54.339,34.412C52.832,34.85 51.441,35.411 50.009,35.643C45.88,36.333 41.712,36.669 37.538,36.65C37.27,36.621 37,36.701 36.778,36.875C35.999,37.785 35.271,38.749 34.427,39.817C35.646,39.817 36.651,39.889 37.646,39.804C41.282,39.495 44.921,39.204 48.545,38.76C50.275,38.544 51.983,38.148 53.648,37.577C55.151,37.064 55.346,35.808 54.339,34.413L54.339,34.412ZM39.216,33.547C39.767,33.547 40.091,33.567 40.411,33.544C43.079,33.35 45.759,33.261 48.41,32.906C50.09,32.636 51.745,32.192 53.353,31.578C54.384,31.213 54.586,30.538 54.298,29.563C53.963,28.427 53.239,27.84 52.353,28.03C49.486,28.645 46.576,28.971 43.658,29.005C43.098,29.011 42.538,29.066 42.175,29.086L39.216,33.547ZM4.839,29.036C4.551,29.623 4.292,30.228 4.063,30.847C3.792,31.716 3.892,32.002 4.688,32.307C5.493,32.617 6.322,32.838 7.164,32.966C10.597,33.479 14.046,33.254 17.49,33.141C17.802,33.098 18.11,33.031 18.414,32.94C17.858,32.461 17.484,32.119 17.092,31.806C16.495,31.33 15.772,30.985 15.313,30.377C14.839,29.749 14.345,29.684 13.724,29.683C10.808,29.68 7.882,29.898 4.839,29.036Z" fill="#000000"/>
<path d="M24.738,9.148C24.792,8.612 24.71,8.051 25.272,7.847C25.822,7.647 26.238,7.957 26.465,8.505C26.712,9.08 26.905,9.683 27.042,10.304C27.157,10.865 27.06,11.428 26.505,11.684C26.015,11.91 25.485,11.651 25.227,10.977C25.031,10.379 24.868,9.769 24.738,9.148Z" fill="#000000"/>
<path d="M15.912,16.588C16.092,16.731 16.532,16.897 16.602,17.181C16.645,17.39 16.647,17.606 16.609,17.816C16.57,18.025 16.492,18.223 16.38,18.395C15.778,19.132 14.92,19.366 14.065,19.402C13.446,19.429 13.171,18.623 13.59,17.966C14.11,17.154 14.856,16.714 15.912,16.588Z" fill="#000000"/>
<path d="M45.187,22.817C44.795,22.485 44.358,22.296 44.248,21.966C44.159,21.703 44.383,21.136 44.62,20.937C45.1,20.52 45.644,20.21 46.225,20.024C46.529,19.936 47.101,20.159 47.236,20.44C47.291,20.645 47.298,20.861 47.258,21.07C47.218,21.279 47.132,21.473 47.008,21.633C46.501,22.11 45.856,22.4 45.187,22.817Z" fill="#000000"/>
<path d="M31.999,18.516C31.965,17.619 32.558,17.17 33.207,17.507C33.799,17.815 34.479,19.322 34.366,20.074C34.265,20.748 33.684,21.101 33.199,20.714C32.566,20.183 32.136,19.397 31.999,18.516Z" fill="#000000"/>
<path d="M43.437,12.458C43.432,13.262 42.464,14.368 41.765,14.366C41.324,14.364 40.908,13.808 41.126,13.301C41.393,12.653 41.79,12.084 42.285,11.641C42.813,11.205 43.442,11.721 43.437,12.458Z" fill="#000000"/>
<path d="M22.128,24.465C21.382,24.417 20.509,23.412 20.523,22.716C20.531,22.579 20.563,22.444 20.617,22.321C20.672,22.197 20.747,22.088 20.84,21.998C20.932,21.909 21.04,21.842 21.156,21.801C21.271,21.76 21.393,21.746 21.514,21.76C22.102,21.846 22.775,22.841 22.756,23.602C22.743,24.129 22.584,24.505 22.128,24.465Z" fill="#000000"/>
</svg>
