<svg width="42" height="44" viewBox="0 0 42 44" fill="none" xmlns="http://www.w3.org/2000/svg" xmlns:xlink="http://www.w3.org/1999/xlink">
<path d="M4.611,0.861L0.861,4.611C-0.111,5.583 -0.111,7.25 0.861,8.361L13.639,21.139L0.861,33.917C-0.111,34.889 -0.111,36.556 0.861,37.667L4.472,41.278C5.444,42.25 7.111,42.25 8.222,41.278L21,28.5L33.778,41.278C34.75,42.25 36.417,42.25 37.528,41.278L41.139,37.667C42.111,36.694 42.111,35.028 41.139,33.917L28.361,21L41.139,8.222C42.111,7.25 42.111,5.583 41.139,4.472L37.528,0.861C36.556,-0.111 34.889,-0.111 33.778,0.861L21,13.639L8.222,0.861C7.25,-0.111 5.583,-0.111 4.611,0.861Z" fill="#A7CB16"/>
</svg>
