<svg width="42" height="42" viewBox="0 0 42 42" fill="none" xmlns="http://www.w3.org/2000/svg" xmlns:xlink="http://www.w3.org/1999/xlink">
<path d="M4.611,0.43L0.861,4.18C-0.111,5.153 -0.111,6.819 0.861,7.93L13.639,20.708L0.861,33.486C-0.111,34.458 -0.111,36.125 0.861,37.236L4.472,40.847C5.444,41.819 7.111,41.819 8.222,40.847L21,28.069L33.778,40.847C34.75,41.819 36.417,41.819 37.528,40.847L41.139,37.236C42.111,36.264 42.111,34.597 41.139,33.486L28.361,20.569L41.139,7.792C42.111,6.819 42.111,5.153 41.139,4.042L37.528,0.43C36.555,-0.542 34.889,-0.542 33.778,0.43L21,13.208L8.222,0.43C7.25,-0.542 5.583,-0.542 4.611,0.43Z" fill="#A7CB16"/>
</svg>
