<svg width="816" height="114" viewBox="0 0 816 114" fill="none" xmlns="http://www.w3.org/2000/svg" xmlns:xlink="http://www.w3.org/1999/xlink">
<circle cx="44" cy="44" r="44" fill="#A7CB16" fill-opacity="0.5"/>
<rect  x="252" y="104" width="268" height="10" rx="200" fill="#000000"/>
<path d="M74,35.872L74,38.372C75.039,38.372 75.97,37.729 76.338,36.757C76.706,35.785 76.434,34.686 75.655,33.998L74,35.872ZM14,35.872L12.389,33.96C11.586,34.637 11.291,35.743 11.652,36.73C12.012,37.716 12.95,38.372 14,38.372L14,35.872ZM44.705,10L46.36,8.126C45.431,7.306 44.042,7.29 43.094,8.088L44.705,10ZM37.574,72.5C38.955,72.5 40.074,71.381 40.074,70C40.074,68.619 38.955,67.5 37.574,67.5L37.574,72.5ZM21.706,70L19.206,70C19.206,71.381 20.325,72.5 21.706,72.5L21.706,70ZM21.706,35.872L21.706,33.372C20.325,33.372 19.206,34.491 19.206,35.872L21.706,35.872ZM65.757,35.872L68.257,35.872C68.257,34.491 67.138,33.372 65.757,33.372L65.757,35.872ZM65.757,70L65.757,72.5C67.138,72.5 68.257,71.381 68.257,70L65.757,70ZM49.889,67.5C48.509,67.5 47.389,68.619 47.389,70C47.389,71.381 48.509,72.5 49.889,72.5L49.889,67.5ZM35.074,69.96C35.074,71.34 36.193,72.46 37.574,72.46C38.955,72.46 40.074,71.34 40.074,69.96L35.074,69.96ZM37.574,53.57L37.574,51.07C36.193,51.07 35.074,52.19 35.074,53.57L37.574,53.57ZM49.889,53.57L52.389,53.57C52.389,52.19 51.27,51.07 49.889,51.07L49.889,53.57ZM47.389,69.96C47.389,71.34 48.509,72.46 49.889,72.46C51.27,72.46 52.389,71.34 52.389,69.96L47.389,69.96ZM74,33.372L14,33.372L14,38.372L74,38.372L74,33.372ZM15.611,37.784L46.316,11.912L43.094,8.088L12.389,33.96L15.611,37.784ZM43.05,11.874L72.345,37.746L75.655,33.998L46.36,8.126L43.05,11.874ZM37.574,67.5L21.706,67.5L21.706,72.5L37.574,72.5L37.574,67.5ZM24.206,70L24.206,35.872L19.206,35.872L19.206,70L24.206,70ZM21.706,38.372L65.757,38.372L65.757,33.372L21.706,33.372L21.706,38.372ZM63.257,35.872L63.257,70L68.257,70L68.257,35.872L63.257,35.872ZM65.757,67.5L49.889,67.5L49.889,72.5L65.757,72.5L65.757,67.5ZM40.074,69.96L40.074,53.57L35.074,53.57L35.074,69.96L40.074,69.96ZM37.574,56.07L49.889,56.07L49.889,51.07L37.574,51.07L37.574,56.07ZM47.389,53.57L47.389,69.96L52.389,69.96L52.389,53.57L47.389,53.57Z" fill="#000000"/>
<path d="M247.18,60.998C247.094,60.95 247.004,60.913 246.911,60.89C244.681,60.728 243.664,59.367 244.115,56.869C244.379,55.43 244.798,54.032 245.362,52.709C245.715,51.877 246.442,51.252 246.983,50.557C246.804,49.667 246.453,48.711 246.464,47.758C246.475,46.837 246.857,45.921 247.093,44.929C245.334,43.061 245.285,42.661 246.532,39.421C245.842,38.609 245.766,37.626 245.874,36.508C246.172,33.427 246.527,30.364 247.563,27.473C250.196,20.126 254.865,15.085 261.391,12.458C269.316,9.269 277.316,9.221 285.205,12.726C288.85,14.344 292.067,16.758 294.365,20.46C295.274,21.871 296.038,23.397 296.64,25.007C297.438,27.265 298.007,29.632 298.605,31.975C299.021,33.605 299.151,35.255 298.107,36.786C299.082,37.682 299.93,38.575 300.339,39.884C300.762,41.239 300.442,42.418 299.761,43.593C301.008,45.041 301.187,46.738 300.628,48.657C301.684,49.576 302.65,50.632 303.085,52.126C303.337,52.9 303.5,53.709 303.569,54.53C303.701,57.179 302.788,58.354 300.526,58.656C300.472,59.844 300.462,61.028 300.355,62.2C300.138,64.587 298.921,66.136 296.933,66.699C295.041,67.212 293.123,67.59 291.189,67.832C287.564,68.328 283.934,68.79 280.295,69.118C274.301,69.657 268.294,69.902 262.291,69.313C258.938,68.984 255.591,68.565 252.249,68.108C251.287,67.946 250.344,67.666 249.435,67.271C248.889,67.068 248.408,66.685 248.053,66.172C247.698,65.658 247.484,65.037 247.439,64.385C247.314,63.253 247.262,62.109 247.18,60.998ZM296.426,35.447C295.91,32.983 295.491,30.643 294.92,28.351C294.366,25.984 293.415,23.76 292.119,21.803C289.855,18.468 286.837,16.392 283.448,14.945C278.313,12.752 273.001,12.355 267.628,13.366C260.146,14.771 254.168,18.758 250.516,26.627C249.056,29.773 248.375,33.145 247.84,36.693C248.231,36.878 248.636,37.024 249.05,37.131C250.412,37.337 251.782,37.662 253.146,37.636C258.498,37.536 263.849,37.304 269.202,37.151C273.542,37.027 277.882,36.949 282.223,36.844C286.197,36.748 290.173,36.663 294.111,35.952C294.86,35.816 295.601,35.628 296.426,35.447ZM292.745,56.907C292.083,57.489 291.458,57.986 290.884,58.553C289.842,59.582 288.733,59.758 287.519,59.01C287.046,58.745 286.59,58.445 286.153,58.112C285.04,57.19 283.961,57.104 282.789,58.007C282.006,58.582 281.191,59.1 280.35,59.557C279.668,59.975 278.906,60.196 278.131,60.202C277.356,60.207 276.592,59.997 275.905,59.589C275.288,59.243 274.68,58.871 274.093,58.463C273.757,58.2 273.363,58.049 272.956,58.025C272.548,58.001 272.143,58.106 271.784,58.329C271.067,58.753 270.35,59.185 269.668,59.677C269.165,60.073 268.578,60.312 267.968,60.369C267.358,60.426 266.745,60.299 266.191,60.001C265.485,59.655 264.814,59.222 264.189,58.711C263.151,57.83 262.102,57.776 261.005,58.447C260.364,58.839 259.757,59.303 259.142,59.748C257.56,60.895 256.005,60.805 254.477,59.623C254.109,59.338 253.761,59.018 253.411,58.703C252.498,57.882 251.549,57.873 250.596,58.575C250.167,58.891 249.781,59.283 249.438,59.586C249.58,60.618 249.682,61.486 249.819,62.346C250.121,64.232 250.225,64.345 251.85,64.735C251.968,64.764 252.091,64.771 252.211,64.795C257.252,65.762 262.35,66.302 267.461,66.407C275.679,66.636 283.82,65.531 291.953,64.385C293.197,64.21 294.432,63.928 295.658,63.632C296.55,63.416 297.037,62.72 297.124,61.685C297.196,60.834 297.256,59.981 297.326,59.047C295.471,59.279 294.079,58.441 292.745,56.907ZM246.439,58.283C246.993,57.964 247.425,57.746 247.829,57.473C248.246,57.19 248.623,56.832 249.037,56.543C251.039,55.145 252.83,55.272 254.653,56.927C254.906,57.157 255.158,57.39 255.408,57.626C256.227,58.397 257.076,58.462 257.979,57.804C258.617,57.314 259.277,56.864 259.958,56.455C261.774,55.43 263.54,55.442 265.213,56.9C265.637,57.254 266.086,57.569 266.553,57.843C266.885,58.07 267.269,58.18 267.656,58.156C268.043,58.133 268.415,57.978 268.724,57.712C269.391,57.189 270.096,56.732 270.831,56.345C272.286,55.596 273.733,55.59 275.113,56.64C275.482,56.921 275.882,57.15 276.264,57.413C276.773,57.8 277.369,58.012 277.982,58.023C278.594,58.034 279.197,57.844 279.716,57.475C280.489,56.969 281.273,56.484 282.027,55.944C283.64,54.791 285.211,54.849 286.831,55.959C288.821,57.323 288.837,57.293 290.678,55.728C292.22,54.417 293.379,54.373 295.034,55.58C295.496,55.916 295.944,56.281 296.434,56.66C297.074,55.752 297.254,54.266 298.41,54.358C299.312,54.429 300.181,55.043 301.091,55.426C302.001,53.869 301.203,51.235 299.545,50.233C298.196,50.691 296.98,51.228 295.72,51.513C291.016,52.58 286.224,52.764 281.459,53.218C279.13,53.441 276.795,53.115 274.469,53.436C274.028,53.496 273.549,53.18 273.085,53.048C272.631,52.917 272.175,52.691 271.72,52.691C266.893,52.702 262.065,52.825 257.24,52.753C254.938,52.719 252.64,52.317 250.339,52.121C249.9,52.08 249.46,52.145 249.045,52.312C247.349,53.039 246.276,55.411 246.439,58.283L246.439,58.283ZM262.732,39.952C262.746,40.045 262.759,40.137 262.773,40.23C266.034,43.107 269.278,46.008 272.563,48.85C274.259,50.317 274.018,50.838 275.868,48.59C278.027,45.966 280.084,43.236 282.18,40.547C282.358,40.319 282.498,40.052 282.819,39.545L262.732,39.952ZM269.554,49.935C268.305,48.742 267.272,47.787 266.273,46.786C265.813,46.325 265.346,46.226 264.731,46.237C260.233,46.318 255.734,46.835 251.234,46.209C250.686,46.133 250.11,46.283 249.55,46.347C249.006,46.408 248.805,46.829 248.758,47.388C248.696,48.147 248.971,48.684 249.731,48.907C250.665,49.218 251.625,49.413 252.596,49.49C257.825,49.702 263.057,49.845 268.287,50.005C268.601,50.016 268.916,49.973 269.554,49.936L269.554,49.935ZM298.339,44.842C296.832,45.281 295.441,45.842 294.009,46.074C289.88,46.763 285.712,47.1 281.538,47.08C281.27,47.052 281,47.131 280.778,47.306C279.999,48.215 279.271,49.18 278.427,50.248C279.646,50.248 280.651,50.32 281.646,50.235C285.282,49.925 288.921,49.634 292.545,49.19C294.275,48.975 295.983,48.579 297.648,48.007C299.151,47.494 299.346,46.239 298.339,44.843L298.339,44.842ZM283.216,43.977C283.767,43.977 284.091,43.998 284.411,43.974C287.079,43.78 289.759,43.692 292.41,43.337C294.09,43.067 295.745,42.622 297.353,42.008C298.384,41.643 298.586,40.969 298.298,39.993C297.963,38.858 297.239,38.271 296.353,38.46C293.486,39.076 290.576,39.402 287.658,39.435C287.098,39.441 286.538,39.496 286.175,39.516L283.216,43.977ZM248.839,39.467C248.551,40.054 248.292,40.658 248.063,41.278C247.792,42.147 247.892,42.433 248.688,42.738C249.493,43.048 250.322,43.268 251.164,43.397C254.597,43.909 258.046,43.685 261.49,43.572C261.802,43.529 262.11,43.462 262.414,43.371C261.858,42.892 261.484,42.55 261.092,42.237C260.495,41.76 259.772,41.415 259.313,40.807C258.839,40.18 258.345,40.115 257.724,40.114C254.808,40.111 251.882,40.329 248.839,39.467Z" fill="#000000"/>
<path d="M268.738,19.579C268.792,19.043 268.71,18.482 269.272,18.278C269.822,18.078 270.238,18.387 270.465,18.936C270.712,19.511 270.905,20.114 271.042,20.735C271.157,21.295 271.06,21.859 270.505,22.115C270.015,22.341 269.485,22.082 269.227,21.408C269.031,20.81 268.868,20.199 268.738,19.579Z" fill="#000000"/>
<path d="M259.912,27.018C260.092,27.161 260.532,27.328 260.602,27.612C260.645,27.82 260.647,28.037 260.609,28.246C260.57,28.456 260.492,28.654 260.38,28.825C259.778,29.563 258.92,29.797 258.065,29.833C257.446,29.86 257.171,29.054 257.59,28.397C258.11,27.584 258.856,27.145 259.912,27.018Z" fill="#000000"/>
<path d="M289.187,33.248C288.795,32.916 288.358,32.727 288.248,32.396C288.159,32.133 288.383,31.566 288.62,31.367C289.1,30.951 289.644,30.641 290.225,30.455C290.529,30.366 291.101,30.59 291.236,30.871C291.291,31.075 291.298,31.292 291.258,31.501C291.218,31.71 291.132,31.903 291.008,32.064C290.501,32.541 289.856,32.831 289.187,33.248Z" fill="#000000"/>
<path d="M275.999,28.947C275.965,28.049 276.558,27.6 277.207,27.938C277.799,28.246 278.479,29.753 278.366,30.505C278.265,31.179 277.684,31.532 277.199,31.144C276.566,30.614 276.136,29.827 275.999,28.947Z" fill="#000000"/>
<path d="M287.437,22.889C287.432,23.693 286.464,24.798 285.765,24.796C285.324,24.795 284.908,24.239 285.126,23.732C285.393,23.083 285.79,22.515 286.285,22.072C286.813,21.636 287.442,22.152 287.437,22.889Z" fill="#000000"/>
<path d="M266.128,34.896C265.382,34.848 264.509,33.843 264.523,33.147C264.531,33.009 264.563,32.875 264.617,32.751C264.672,32.628 264.747,32.518 264.84,32.429C264.932,32.34 265.04,32.272 265.156,32.231C265.271,32.19 265.393,32.176 265.514,32.19C266.102,32.276 266.775,33.272 266.756,34.032C266.743,34.56 266.584,34.936 266.128,34.896Z" fill="#000000"/>
<path d="M513.898,23.669C513.898,29.846 508.912,34.837 502.782,34.837L502.782,39.837C511.692,39.837 518.898,32.589 518.898,23.669L513.898,23.669ZM502.782,34.837C496.652,34.837 491.666,29.846 491.666,23.669L486.666,23.669C486.666,32.589 493.872,39.837 502.782,39.837L502.782,34.837ZM491.666,23.669C491.666,17.491 496.652,12.5 502.782,12.5L502.782,7.5C493.872,7.5 486.666,14.748 486.666,23.669L491.666,23.669ZM502.782,12.5C508.912,12.5 513.898,17.491 513.898,23.669L518.898,23.669C518.898,14.748 511.692,7.5 502.782,7.5L502.782,12.5Z" fill="#000000"/>
<path d="M473.87,67.999L471.378,68.198C471.482,69.498 472.567,70.499 473.87,70.499L473.87,67.999ZM531.694,70.499C533.074,70.499 534.194,69.38 534.194,67.999C534.194,66.619 533.074,65.499 531.694,65.499L531.694,70.499ZM473.782,65.782L471.282,65.782L471.282,65.782L473.782,65.782ZM502.782,37.337L502.782,39.837L502.782,39.837L502.782,37.337ZM531.782,65.782L534.282,65.782L534.282,65.782L531.782,65.782ZM529.202,67.801C529.092,69.178 530.119,70.382 531.495,70.492C532.871,70.602 534.076,69.575 534.186,68.199L529.202,67.801ZM473.87,70.499L531.694,70.499L531.694,65.499L473.87,65.499L473.87,70.499ZM476.362,67.801C476.309,67.129 476.282,66.456 476.282,65.782L471.282,65.782C471.282,66.588 471.314,67.394 471.378,68.198L476.362,67.801ZM476.282,65.782C476.282,58.917 479.062,52.323 484.026,47.453L480.525,43.884C474.613,49.683 471.282,57.559 471.282,65.782L476.282,65.782ZM484.026,47.453C488.993,42.582 495.738,39.837 502.782,39.837L502.782,34.837C494.443,34.837 486.436,38.086 480.525,43.884L484.026,47.453ZM502.782,39.837C506.269,39.837 509.72,40.511 512.939,41.818L514.821,37.186C511.003,35.635 506.912,34.837 502.782,34.837L502.782,39.837ZM512.939,41.818C516.157,43.126 519.079,45.042 521.537,47.453L525.039,43.884C522.112,41.012 518.639,38.737 514.821,37.186L512.939,41.818ZM521.537,47.453C523.996,49.865 525.944,52.725 527.271,55.869L531.878,53.924C530.291,50.166 527.966,46.755 525.039,43.884L521.537,47.453ZM527.271,55.869C528.599,59.013 529.282,62.382 529.282,65.782L534.282,65.782C534.282,61.711 533.465,57.682 531.878,53.924L527.271,55.869ZM529.282,65.782C529.282,66.456 529.255,67.129 529.202,67.801L534.186,68.199C534.25,67.395 534.282,66.588 534.282,65.782L529.282,65.782Z" fill="#000000"/>
<path d="M761.236,30.943C757.923,26.539 754.507,22.135 751.194,17.615C749.538,15.529 747.881,13.443 746.328,11.241C745.293,9.85 743.844,10.082 742.291,10.082C735.975,10.082 729.66,10.082 723.345,10.082C721.896,10.082 719.722,9.619 718.583,10.893C717.133,12.516 715.787,14.37 714.338,16.109C710.301,21.092 706.366,26.076 702.329,30.943C700.569,33.145 703.468,36.39 705.228,34.188C706.159,33.029 707.091,31.87 708.023,30.712C708.023,38.477 708.023,46.357 708.023,54.122C708.023,57.831 709.783,61.076 712.889,62.235C713.096,66.523 716.202,70 720.032,70C723.759,70 726.761,66.871 727.176,62.814C732.145,62.814 737.218,62.814 742.187,62.814C742.187,64.205 742.187,65.596 742.187,66.871C742.187,67.103 742.187,67.45 742.187,67.682C742.187,68.841 743.119,70 744.258,70C745.396,70 746.328,68.957 746.328,67.682C746.328,66.06 746.328,64.437 746.328,62.814C746.639,62.814 746.949,62.814 747.26,62.814C749.434,62.814 751.608,62.235 753.161,60.381C754.714,58.642 755.335,56.324 755.335,53.891C755.335,49.255 755.335,44.619 755.335,39.983C755.335,36.738 755.335,33.493 755.335,30.248C755.646,30.712 755.956,31.059 756.267,31.523C756.888,32.334 757.509,33.261 758.234,34.072C760.097,36.506 762.996,33.261 761.236,30.943ZM712.268,31.639C712.268,31.523 712.268,31.523 712.268,31.407C712.682,31.639 713.096,31.87 713.406,31.986C714.752,32.566 716.305,31.291 717.651,30.248C718.272,30.827 718.997,31.291 719.618,31.87C720.239,32.334 721.067,32.218 721.689,31.87C722.62,31.291 723.552,30.712 724.484,30.132C725.312,30.712 726.037,31.291 726.865,31.87C727.486,32.334 728.314,32.218 728.936,31.87C729.867,31.291 730.799,30.712 731.627,30.132C732.455,30.712 733.387,31.291 734.215,31.87C734.837,32.334 735.665,32.334 736.286,31.87C737.114,31.291 737.942,30.712 738.771,30.132C739.495,30.596 740.117,30.943 740.841,31.407C741.359,31.755 741.98,32.102 742.601,32.102C743.429,32.102 744.154,31.407 744.879,30.943C745.189,30.712 745.603,30.48 745.914,30.248C746.639,30.712 747.363,31.291 748.192,31.755C748.813,32.218 749.641,32.102 750.262,31.755C750.573,31.523 750.883,31.407 751.194,31.175C751.194,35.463 751.194,39.751 751.194,44.039L712.268,44.039C712.268,40.099 712.268,35.811 712.268,31.639ZM719.618,16.572C720.136,15.993 720.653,15.297 721.171,14.718C728.004,14.718 734.733,14.718 741.566,14.718C742.291,14.718 742.912,14.718 743.636,14.718C746.432,18.427 749.227,22.135 752.022,25.844C751.194,26.308 750.366,26.887 749.538,27.351C748.813,26.771 747.985,26.308 747.26,25.728C746.639,25.264 745.811,25.264 745.189,25.728C744.465,26.192 743.636,26.771 742.912,27.235C741.98,26.655 741.048,26.076 740.117,25.496C739.495,25.149 738.667,25.033 738.046,25.496C737.218,26.076 736.39,26.655 735.561,27.235C735.251,27.003 734.837,26.771 734.526,26.539C733.698,25.96 732.766,25.149 731.731,25.264C730.903,25.38 729.971,26.076 729.246,26.539C728.936,26.771 728.625,27.003 728.211,27.119C727.486,26.539 726.658,25.96 725.933,25.38C725.312,24.917 724.484,25.033 723.863,25.38C722.931,25.96 721.999,26.539 721.067,27.003C720.343,26.423 719.618,25.844 718.893,25.38C718.272,24.917 717.34,25.033 716.823,25.38C715.995,25.96 715.166,26.539 714.338,27.119C713.613,26.655 712.889,26.308 712.268,25.844C714.545,22.831 717.03,19.701 719.618,16.572ZM720.136,65.48C718.479,65.48 717.133,63.973 717.133,62.119C717.133,60.265 718.376,58.642 720.136,58.642C721.792,58.642 723.138,60.149 723.138,62.003C723.138,63.858 721.792,65.48 720.136,65.48ZM751.298,55.397C750.987,57.483 749.33,58.295 747.674,58.295C743.74,58.295 739.909,58.295 735.975,58.295C732.766,58.295 729.66,58.295 726.451,58.295C725.209,55.745 722.827,54.006 720.136,54.006C717.547,54.006 715.27,55.513 714.028,57.831C712.682,57.02 712.268,55.629 712.268,53.891C712.268,52.152 712.268,50.53 712.268,48.791L751.298,48.791C751.298,49.95 751.298,50.993 751.298,52.152C751.298,53.311 751.401,54.354 751.298,55.397Z" fill="#000000"/>
</svg>
