<svg width="804" height="114" viewBox="0 0 804 114" fill="none" xmlns="http://www.w3.org/2000/svg" xmlns:xlink="http://www.w3.org/1999/xlink">
<circle cx="260" cy="43.397" r="44" fill="#A7CB16" fill-opacity="0.5"/>
<path d="M62,35.269L62,37.769C63.039,37.769 63.97,37.126 64.338,36.154C64.706,35.182 64.434,34.083 63.655,33.395L62,35.269ZM2,35.269L0.389,33.357C-0.414,34.034 -0.708,35.14 -0.348,36.127C0.012,37.113 0.95,37.769 2,37.769L2,35.269ZM32.705,9.397L34.36,7.523C33.431,6.703 32.042,6.687 31.094,7.485L32.705,9.397ZM25.574,71.897C26.955,71.897 28.074,70.778 28.074,69.397C28.074,68.016 26.955,66.897 25.574,66.897L25.574,71.897ZM9.706,69.397L7.206,69.397C7.206,70.778 8.325,71.897 9.706,71.897L9.706,69.397ZM9.706,35.269L9.706,32.769C8.325,32.769 7.206,33.888 7.206,35.269L9.706,35.269ZM53.757,35.269L56.257,35.269C56.257,33.888 55.138,32.769 53.757,32.769L53.757,35.269ZM53.757,69.397L53.757,71.897C55.138,71.897 56.257,70.778 56.257,69.397L53.757,69.397ZM37.889,66.897C36.509,66.897 35.389,68.016 35.389,69.397C35.389,70.778 36.509,71.897 37.889,71.897L37.889,66.897ZM23.074,69.357C23.074,70.737 24.193,71.857 25.574,71.857C26.955,71.857 28.074,70.737 28.074,69.357L23.074,69.357ZM25.574,52.967L25.574,50.467C24.193,50.467 23.074,51.587 23.074,52.967L25.574,52.967ZM37.889,52.967L40.389,52.967C40.389,51.587 39.27,50.467 37.889,50.467L37.889,52.967ZM35.389,69.357C35.389,70.737 36.509,71.857 37.889,71.857C39.27,71.857 40.389,70.737 40.389,69.357L35.389,69.357ZM62,32.769L2,32.769L2,37.769L62,37.769L62,32.769ZM3.611,37.181L34.316,11.309L31.094,7.485L0.389,33.357L3.611,37.181ZM31.05,11.271L60.345,37.143L63.655,33.395L34.36,7.523L31.05,11.271ZM25.574,66.897L9.706,66.897L9.706,71.897L25.574,71.897L25.574,66.897ZM12.206,69.397L12.206,35.269L7.206,35.269L7.206,69.397L12.206,69.397ZM9.706,37.769L53.757,37.769L53.757,32.769L9.706,32.769L9.706,37.769ZM51.257,35.269L51.257,69.397L56.257,69.397L56.257,35.269L51.257,35.269ZM53.757,66.897L37.889,66.897L37.889,71.897L53.757,71.897L53.757,66.897ZM28.074,69.357L28.074,52.967L23.074,52.967L23.074,69.357L28.074,69.357ZM25.574,55.467L37.889,55.467L37.889,50.467L25.574,50.467L25.574,55.467ZM35.389,52.967L35.389,69.357L40.389,69.357L40.389,52.967L35.389,52.967Z" fill="#000000"/>
<path d="M501.898,23.066C501.898,29.243 496.912,34.234 490.782,34.234L490.782,39.234C499.692,39.234 506.898,31.986 506.898,23.066L501.898,23.066ZM490.782,34.234C484.652,34.234 479.666,29.243 479.666,23.066L474.666,23.066C474.666,31.986 481.872,39.234 490.782,39.234L490.782,34.234ZM479.666,23.066C479.666,16.888 484.652,11.897 490.782,11.897L490.782,6.897C481.872,6.897 474.666,14.145 474.666,23.066L479.666,23.066ZM490.782,11.897C496.912,11.897 501.898,16.888 501.898,23.066L506.898,23.066C506.898,14.145 499.692,6.897 490.782,6.897L490.782,11.897Z" fill="#000000"/>
<path d="M461.871,67.396L459.378,67.595C459.482,68.894 460.567,69.896 461.871,69.896L461.871,67.396ZM519.694,69.896C521.075,69.896 522.194,68.777 522.194,67.396C522.194,66.015 521.075,64.896 519.694,64.896L519.694,69.896ZM461.782,65.179L459.282,65.179L459.282,65.179L461.782,65.179ZM490.782,36.734L490.782,39.234L490.782,39.234L490.782,36.734ZM519.782,65.179L522.282,65.179L522.282,65.179L519.782,65.179ZM517.202,67.198C517.092,68.574 518.119,69.779 519.495,69.889C520.871,69.999 522.076,68.972 522.186,67.595L517.202,67.198ZM461.871,69.896L519.694,69.896L519.694,64.896L461.871,64.896L461.871,69.896ZM464.363,67.197C464.309,66.526 464.282,65.852 464.282,65.179L459.282,65.179C459.282,65.985 459.314,66.791 459.378,67.595L464.363,67.197ZM464.282,65.179C464.282,58.313 467.062,51.719 472.027,46.85L468.526,43.28C462.613,49.08 459.282,56.956 459.282,65.179L464.282,65.179ZM472.027,46.85C476.993,41.979 483.739,39.234 490.782,39.234L490.782,34.234C482.443,34.234 474.436,37.483 468.526,43.28L472.027,46.85ZM490.782,39.234C494.269,39.234 497.72,39.908 500.939,41.215L502.821,36.583C499.003,35.032 494.912,34.234 490.782,34.234L490.782,39.234ZM500.939,41.215C504.158,42.523 507.079,44.438 509.538,46.85L513.039,43.28C510.112,40.409 506.639,38.134 502.821,36.583L500.939,41.215ZM509.538,46.85C511.996,49.261 513.944,52.122 515.272,55.266L519.878,53.321C518.291,49.563 515.966,46.152 513.039,43.28L509.538,46.85ZM515.272,55.266C516.599,58.41 517.282,61.778 517.282,65.179L522.282,65.179C522.282,61.108 521.465,57.079 519.878,53.321L515.272,55.266ZM517.282,65.179C517.282,65.852 517.255,66.526 517.202,67.198L522.186,67.595C522.25,66.791 522.282,65.985 522.282,65.179L517.282,65.179Z" fill="#000000"/>
<path d="M749.236,30.34C745.924,25.936 742.507,21.532 739.194,17.012C737.538,14.926 735.881,12.84 734.328,10.638C733.293,9.247 731.844,9.479 730.291,9.479C723.976,9.479 717.66,9.479 711.345,9.479C709.896,9.479 707.722,9.016 706.583,10.29C705.134,11.913 703.788,13.767 702.338,15.506C698.301,20.489 694.367,25.473 690.329,30.34C688.569,32.542 691.468,35.787 693.228,33.585C694.16,32.426 695.091,31.267 696.023,30.109C696.023,37.874 696.023,45.754 696.023,53.519C696.023,57.228 697.783,60.473 700.889,61.632C701.096,65.92 704.202,69.397 708.032,69.397C711.759,69.397 714.762,66.268 715.176,62.211C720.145,62.211 725.218,62.211 730.187,62.211C730.187,63.602 730.187,64.993 730.187,66.268C730.187,66.5 730.187,66.847 730.187,67.079C730.187,68.238 731.119,69.397 732.258,69.397C733.397,69.397 734.328,68.354 734.328,67.079C734.328,65.457 734.328,63.834 734.328,62.211C734.639,62.211 734.95,62.211 735.26,62.211C737.434,62.211 739.608,61.632 741.161,59.778C742.714,58.039 743.335,55.721 743.335,53.288C743.335,48.652 743.335,44.016 743.335,39.38C743.335,36.135 743.335,32.89 743.335,29.645C743.646,30.109 743.956,30.456 744.267,30.92C744.888,31.731 745.509,32.658 746.234,33.469C748.098,35.903 750.996,32.658 749.236,30.34ZM700.268,31.036C700.268,30.92 700.268,30.92 700.268,30.804C700.682,31.036 701.096,31.267 701.407,31.383C702.752,31.963 704.305,30.688 705.651,29.645C706.272,30.224 706.997,30.688 707.618,31.267C708.239,31.731 709.068,31.615 709.689,31.267C710.621,30.688 711.552,30.109 712.484,29.529C713.312,30.109 714.037,30.688 714.865,31.267C715.486,31.731 716.315,31.615 716.936,31.267C717.867,30.688 718.799,30.109 719.627,29.529C720.456,30.109 721.387,30.688 722.216,31.267C722.837,31.731 723.665,31.731 724.286,31.267C725.114,30.688 725.943,30.109 726.771,29.529C727.496,29.993 728.117,30.34 728.841,30.804C729.359,31.152 729.98,31.499 730.601,31.499C731.43,31.499 732.154,30.804 732.879,30.34C733.19,30.109 733.604,29.877 733.914,29.645C734.639,30.109 735.364,30.688 736.192,31.152C736.813,31.615 737.641,31.499 738.262,31.152C738.573,30.92 738.884,30.804 739.194,30.572C739.194,34.86 739.194,39.148 739.194,43.436L700.268,43.436C700.268,39.496 700.268,35.208 700.268,31.036ZM707.618,15.969C708.136,15.39 708.654,14.694 709.171,14.115C716.004,14.115 722.733,14.115 729.566,14.115C730.291,14.115 730.912,14.115 731.637,14.115C734.432,17.824 737.227,21.532 740.022,25.241C739.194,25.704 738.366,26.284 737.538,26.748C736.813,26.168 735.985,25.704 735.26,25.125C734.639,24.661 733.811,24.661 733.19,25.125C732.465,25.589 731.637,26.168 730.912,26.632C729.98,26.052 729.048,25.473 728.117,24.893C727.496,24.546 726.667,24.43 726.046,24.893C725.218,25.473 724.39,26.052 723.562,26.632C723.251,26.4 722.837,26.168 722.526,25.936C721.698,25.357 720.766,24.546 719.731,24.661C718.903,24.777 717.971,25.473 717.246,25.936C716.936,26.168 716.625,26.4 716.211,26.516C715.486,25.936 714.658,25.357 713.933,24.777C713.312,24.314 712.484,24.43 711.863,24.777C710.931,25.357 709.999,25.936 709.068,26.4C708.343,25.82 707.618,25.241 706.894,24.777C706.272,24.314 705.341,24.43 704.823,24.777C703.995,25.357 703.167,25.936 702.338,26.516C701.614,26.052 700.889,25.704 700.268,25.241C702.545,22.228 705.03,19.098 707.618,15.969ZM708.136,64.877C706.479,64.877 705.134,63.37 705.134,61.516C705.134,59.662 706.376,58.039 708.136,58.039C709.792,58.039 711.138,59.546 711.138,61.4C711.138,63.255 709.792,64.877 708.136,64.877ZM739.298,54.794C738.987,56.88 737.331,57.692 735.674,57.692C731.74,57.692 727.91,57.692 723.976,57.692C720.766,57.692 717.66,57.692 714.451,57.692C713.209,55.142 710.828,53.403 708.136,53.403C705.548,53.403 703.27,54.91 702.028,57.228C700.682,56.417 700.268,55.026 700.268,53.288C700.268,51.549 700.268,49.927 700.268,48.188L739.298,48.188C739.298,49.347 739.298,50.39 739.298,51.549C739.298,52.708 739.401,53.751 739.298,54.794Z" fill="#000000"/>
<path d="M235.18,60.395C235.094,60.347 235.004,60.31 234.911,60.287C232.681,60.125 231.664,58.764 232.115,56.266C232.38,54.827 232.799,53.429 233.362,52.106C233.715,51.274 234.442,50.649 234.983,49.954C234.804,49.064 234.454,48.108 234.465,47.155C234.475,46.234 234.857,45.318 235.094,44.326C233.334,42.458 233.285,42.058 234.532,38.818C233.842,38.006 233.766,37.023 233.874,35.905C234.172,32.824 234.527,29.761 235.563,26.87C238.196,19.523 242.865,14.481 249.391,11.855C257.316,8.666 265.316,8.618 273.205,12.123C276.85,13.741 280.068,16.155 282.365,19.857C283.275,21.268 284.038,22.794 284.64,24.404C285.438,26.662 286.007,29.029 286.605,31.372C287.021,33.002 287.151,34.652 286.107,36.183C287.082,37.079 287.93,37.972 288.339,39.281C288.762,40.636 288.443,41.815 287.761,42.99C289.008,44.438 289.187,46.135 288.628,48.054C289.684,48.973 290.65,50.029 291.085,51.523C291.337,52.297 291.5,53.106 291.569,53.927C291.701,56.576 290.788,57.751 288.526,58.053C288.472,59.241 288.462,60.425 288.355,61.597C288.138,63.984 286.921,65.533 284.933,66.096C283.042,66.609 281.123,66.987 279.19,67.229C275.565,67.725 271.934,68.187 268.295,68.515C262.301,69.054 256.295,69.299 250.291,68.71C246.938,68.381 243.591,67.962 240.25,67.505C239.288,67.343 238.344,67.063 237.435,66.668C236.889,66.465 236.408,66.082 236.053,65.569C235.698,65.055 235.484,64.434 235.439,63.782C235.314,62.65 235.262,61.506 235.18,60.395ZM284.427,34.844C283.91,32.38 283.491,30.04 282.92,27.748C282.366,25.381 281.415,23.157 280.119,21.2C277.855,17.865 274.837,15.789 271.448,14.342C266.313,12.149 261.001,11.752 255.629,12.762C248.147,14.168 242.168,18.155 238.516,26.024C237.056,29.17 236.375,32.542 235.84,36.09C236.232,36.275 236.637,36.421 237.05,36.528C238.412,36.734 239.783,37.059 241.146,37.033C246.499,36.933 251.85,36.701 257.202,36.548C261.542,36.424 265.882,36.346 270.223,36.241C274.197,36.145 278.173,36.06 282.111,35.349C282.86,35.213 283.601,35.025 284.427,34.844ZM280.745,56.304C280.083,56.886 279.458,57.383 278.885,57.95C277.842,58.979 276.733,59.155 275.519,58.407C275.047,58.142 274.59,57.842 274.153,57.509C273.041,56.587 271.961,56.501 270.789,57.404C270.006,57.979 269.191,58.497 268.351,58.954C267.668,59.372 266.906,59.593 266.131,59.599C265.357,59.604 264.592,59.394 263.905,58.986C263.289,58.64 262.68,58.268 262.094,57.86C261.757,57.597 261.364,57.446 260.956,57.422C260.549,57.398 260.143,57.503 259.785,57.726C259.067,58.15 258.35,58.582 257.668,59.074C257.165,59.47 256.579,59.709 255.968,59.766C255.358,59.823 254.745,59.696 254.192,59.398C253.485,59.052 252.814,58.619 252.19,58.108C251.151,57.227 250.102,57.173 249.005,57.844C248.364,58.236 247.757,58.7 247.142,59.145C245.561,60.292 244.005,60.202 242.478,59.02C242.109,58.735 241.761,58.415 241.412,58.1C240.499,57.279 239.55,57.27 238.596,57.972C238.167,58.288 237.782,58.68 237.438,58.983C237.58,60.015 237.682,60.883 237.82,61.743C238.121,63.629 238.225,63.742 239.85,64.132C239.969,64.161 240.092,64.168 240.211,64.192C245.252,65.159 250.35,65.699 255.462,65.804C263.679,66.033 271.82,64.928 279.954,63.782C281.197,63.607 282.432,63.325 283.659,63.029C284.55,62.813 285.037,62.117 285.125,61.082C285.196,60.231 285.256,59.378 285.327,58.444C283.471,58.676 282.079,57.838 280.745,56.304ZM234.44,57.68C234.993,57.361 235.425,57.143 235.829,56.87C236.246,56.587 236.623,56.229 237.038,55.94C239.039,54.542 240.83,54.669 242.654,56.324C242.907,56.554 243.158,56.787 243.408,57.023C244.227,57.794 245.076,57.859 245.979,57.201C246.617,56.711 247.278,56.261 247.958,55.852C249.774,54.827 251.541,54.839 253.213,56.297C253.637,56.651 254.086,56.966 254.554,57.24C254.885,57.467 255.27,57.577 255.657,57.553C256.044,57.53 256.416,57.375 256.724,57.109C257.391,56.586 258.096,56.129 258.831,55.742C260.286,54.993 261.733,54.987 263.113,56.037C263.483,56.318 263.883,56.547 264.264,56.81C264.773,57.197 265.37,57.409 265.982,57.42C266.595,57.431 267.197,57.241 267.716,56.872C268.489,56.366 269.273,55.881 270.027,55.341C271.64,54.188 273.212,54.246 274.832,55.356C276.821,56.72 276.837,56.69 278.678,55.125C280.22,53.814 281.379,53.77 283.034,54.977C283.497,55.313 283.944,55.678 284.434,56.057C285.075,55.149 285.254,53.663 286.411,53.755C287.312,53.826 288.182,54.44 289.091,54.823C290.001,53.266 289.203,50.632 287.545,49.63C286.196,50.088 284.98,50.625 283.721,50.91C279.016,51.977 274.224,52.161 269.459,52.615C267.131,52.838 264.795,52.512 262.469,52.833C262.028,52.893 261.549,52.577 261.085,52.445C260.632,52.314 260.175,52.088 259.72,52.088C254.893,52.099 250.065,52.222 245.24,52.15C242.939,52.116 240.641,51.714 238.339,51.518C237.901,51.477 237.46,51.542 237.045,51.709C235.349,52.436 234.276,54.808 234.44,57.68L234.44,57.68ZM250.733,39.349C250.746,39.442 250.76,39.534 250.773,39.627C254.034,42.504 257.278,45.405 260.563,48.247C262.259,49.714 262.019,50.235 263.868,47.987C266.027,45.363 268.084,42.633 270.18,39.944C270.358,39.716 270.498,39.449 270.819,38.942L250.733,39.349ZM257.554,49.332C256.306,48.139 255.272,47.184 254.273,46.183C253.813,45.722 253.346,45.623 252.731,45.634C248.233,45.715 243.734,46.232 239.235,45.606C238.686,45.53 238.11,45.68 237.55,45.744C237.006,45.805 236.805,46.226 236.759,46.785C236.696,47.544 236.971,48.081 237.731,48.304C238.665,48.615 239.625,48.81 240.596,48.887C245.825,49.099 251.058,49.242 256.287,49.402C256.601,49.413 256.917,49.37 257.554,49.333L257.554,49.332ZM286.339,44.239C284.832,44.678 283.441,45.239 282.009,45.471C277.88,46.16 273.712,46.497 269.539,46.477C269.27,46.449 269,46.528 268.778,46.703C268,47.612 267.271,48.577 266.427,49.645C267.646,49.645 268.651,49.717 269.647,49.632C273.282,49.322 276.921,49.031 280.545,48.587C282.275,48.372 283.983,47.976 285.649,47.404C287.152,46.891 287.346,45.636 286.339,44.24L286.339,44.239ZM271.216,43.374C271.767,43.374 272.091,43.395 272.411,43.371C275.08,43.177 277.759,43.089 280.411,42.734C282.09,42.464 283.745,42.019 285.353,41.405C286.384,41.04 286.587,40.366 286.298,39.39C285.963,38.255 285.239,37.668 284.353,37.857C281.486,38.473 278.577,38.799 275.659,38.832C275.098,38.838 274.538,38.893 274.175,38.913L271.216,43.374ZM236.84,38.864C236.551,39.451 236.292,40.055 236.064,40.675C235.792,41.544 235.892,41.83 236.688,42.135C237.493,42.445 238.322,42.665 239.164,42.794C242.598,43.306 246.046,43.082 249.491,42.969C249.802,42.926 250.11,42.859 250.414,42.768C249.858,42.289 249.484,41.947 249.093,41.634C248.496,41.157 247.772,40.812 247.313,40.204C246.839,39.577 246.345,39.512 245.724,39.511C242.808,39.508 239.882,39.726 236.84,38.864Z" fill="#000000"/>
<path d="M256.738,18.976C256.792,18.44 256.71,17.879 257.272,17.675C257.822,17.475 258.238,17.784 258.466,18.333C258.712,18.908 258.905,19.511 259.042,20.132C259.158,20.692 259.06,21.256 258.505,21.512C258.016,21.738 257.485,21.479 257.227,20.805C257.031,20.207 256.868,19.596 256.738,18.976Z" fill="#000000"/>
<path d="M247.912,26.415C248.092,26.558 248.532,26.725 248.602,27.009C248.645,27.217 248.647,27.434 248.609,27.643C248.571,27.853 248.493,28.05 248.381,28.222C247.778,28.96 246.921,29.193 246.065,29.23C245.446,29.257 245.171,28.451 245.591,27.794C246.11,26.981 246.857,26.542 247.912,26.415Z" fill="#000000"/>
<path d="M277.187,32.645C276.795,32.313 276.358,32.124 276.248,31.793C276.159,31.53 276.383,30.964 276.62,30.764C277.1,30.348 277.644,30.038 278.225,29.852C278.529,29.763 279.101,29.987 279.236,30.268C279.291,30.472 279.298,30.689 279.258,30.898C279.218,31.107 279.132,31.3 279.008,31.461C278.501,31.938 277.856,32.228 277.187,32.645Z" fill="#000000"/>
<path d="M263.999,28.344C263.965,27.446 264.558,26.997 265.207,27.335C265.799,27.643 266.479,29.15 266.366,29.902C266.265,30.576 265.685,30.929 265.199,30.541C264.566,30.011 264.136,29.224 263.999,28.344Z" fill="#000000"/>
<path d="M275.437,22.286C275.432,23.09 274.465,24.195 273.765,24.193C273.324,24.192 272.908,23.636 273.126,23.129C273.393,22.48 273.79,21.912 274.286,21.469C274.813,21.033 275.442,21.549 275.437,22.286Z" fill="#000000"/>
<path d="M254.128,34.293C253.382,34.245 252.509,33.24 252.524,32.544C252.531,32.406 252.563,32.272 252.617,32.148C252.672,32.025 252.747,31.915 252.84,31.826C252.932,31.737 253.04,31.669 253.156,31.628C253.272,31.588 253.394,31.574 253.514,31.588C254.102,31.673 254.775,32.669 254.756,33.429C254.743,33.957 254.584,34.333 254.128,34.293Z" fill="#000000"/>
<rect  x="244" y="103.397" width="268" height="10" rx="200" fill="#000000"/>
</svg>
