<svg width="816" height="114" viewBox="0 0 816 114" fill="none" xmlns="http://www.w3.org/2000/svg" xmlns:xlink="http://www.w3.org/1999/xlink">
<circle cx="44" cy="43.569" r="44" fill="#A7CB16" fill-opacity="0.5"/>
<rect  x="254" y="103.569" width="268" height="10" rx="200" fill="#000000"/>
<path d="M74,35.442L74,37.942C75.039,37.942 75.97,37.298 76.338,36.326C76.706,35.354 76.434,34.256 75.655,33.568L74,35.442ZM14,35.442L12.389,33.53C11.586,34.206 11.292,35.313 11.652,36.299C12.012,37.285 12.95,37.942 14,37.942L14,35.442ZM44.705,9.569L46.36,7.695C45.431,6.875 44.042,6.859 43.094,7.658L44.705,9.569ZM37.574,72.069C38.955,72.069 40.074,70.95 40.074,69.569C40.074,68.189 38.955,67.069 37.574,67.069L37.574,72.069ZM21.706,69.569L19.206,69.569C19.206,70.95 20.325,72.069 21.706,72.069L21.706,69.569ZM21.706,35.442L21.706,32.942C20.325,32.942 19.206,34.061 19.206,35.442L21.706,35.442ZM65.757,35.442L68.257,35.442C68.257,34.061 67.138,32.942 65.757,32.942L65.757,35.442ZM65.757,69.569L65.757,72.069C67.138,72.069 68.257,70.95 68.257,69.569L65.757,69.569ZM49.889,67.069C48.509,67.069 47.389,68.189 47.389,69.569C47.389,70.95 48.509,72.069 49.889,72.069L49.889,67.069ZM35.074,69.529C35.074,70.91 36.193,72.029 37.574,72.029C38.955,72.029 40.074,70.91 40.074,69.529L35.074,69.529ZM37.574,53.14L37.574,50.64C36.193,50.64 35.074,51.759 35.074,53.14L37.574,53.14ZM49.889,53.14L52.389,53.14C52.389,51.759 51.27,50.64 49.889,50.64L49.889,53.14ZM47.389,69.529C47.389,70.91 48.509,72.029 49.889,72.029C51.27,72.029 52.389,70.91 52.389,69.529L47.389,69.529ZM74,32.942L14,32.942L14,37.942L74,37.942L74,32.942ZM15.611,37.353L46.316,11.481L43.094,7.658L12.389,33.53L15.611,37.353ZM43.05,11.443L72.345,37.315L75.655,33.568L46.36,7.695L43.05,11.443ZM37.574,67.069L21.706,67.069L21.706,72.069L37.574,72.069L37.574,67.069ZM24.206,69.569L24.206,35.442L19.206,35.442L19.206,69.569L24.206,69.569ZM21.706,37.942L65.757,37.942L65.757,32.942L21.706,32.942L21.706,37.942ZM63.257,35.442L63.257,69.569L68.257,69.569L68.257,35.442L63.257,35.442ZM65.757,67.069L49.889,67.069L49.889,72.069L65.757,72.069L65.757,67.069ZM40.074,69.529L40.074,53.14L35.074,53.14L35.074,69.529L40.074,69.529ZM37.574,55.64L49.889,55.64L49.889,50.64L37.574,50.64L37.574,55.64ZM47.389,53.14L47.389,69.529L52.389,69.529L52.389,53.14L47.389,53.14Z" fill="#000000"/>
<path d="M247.18,60.567C247.094,60.519 247.004,60.483 246.911,60.459C244.681,60.297 243.664,58.936 244.115,56.439C244.38,54.999 244.799,53.602 245.362,52.278C245.715,51.447 246.442,50.822 246.983,50.127C246.804,49.237 246.454,48.28 246.465,47.328C246.475,46.406 246.857,45.49 247.094,44.498C245.334,42.63 245.285,42.23 246.532,38.99C245.842,38.178 245.766,37.195 245.874,36.077C246.172,32.997 246.527,29.933 247.563,27.043C250.196,19.696 254.865,14.654 261.391,12.027C269.316,8.839 277.316,8.791 285.205,12.295C288.85,13.914 292.068,16.327 294.365,20.029C295.275,21.441 296.038,22.966 296.64,24.577C297.438,26.834 298.007,29.201 298.605,31.544C299.021,33.174 299.151,34.825 298.107,36.356C299.082,37.252 299.93,38.144 300.339,39.454C300.762,40.808 300.443,41.987 299.761,43.163C301.008,44.611 301.187,46.307 300.628,48.226C301.684,49.146 302.65,50.201 303.085,51.695C303.337,52.47 303.5,53.278 303.569,54.1C303.701,56.748 302.788,57.923 300.526,58.225C300.472,59.413 300.462,60.597 300.355,61.769C300.138,64.156 298.921,65.705 296.933,66.268C295.042,66.781 293.123,67.159 291.19,67.401C287.565,67.897 283.934,68.359 280.295,68.687C274.301,69.226 268.295,69.471 262.291,68.882C258.938,68.553 255.591,68.135 252.25,67.677C251.288,67.515 250.344,67.235 249.435,66.841C248.889,66.637 248.408,66.255 248.053,65.741C247.698,65.227 247.484,64.606 247.439,63.955C247.314,62.822 247.262,61.678 247.18,60.567ZM296.427,35.016C295.91,32.552 295.491,30.212 294.92,27.921C294.366,25.553 293.415,23.33 292.119,21.372C289.855,18.038 286.837,15.961 283.448,14.514C278.313,12.321 273.001,11.925 267.629,12.935C260.147,14.34 254.168,18.327 250.516,26.196C249.056,29.342 248.375,32.714 247.84,36.262C248.232,36.447 248.637,36.594 249.05,36.701C250.412,36.907 251.783,37.231 253.146,37.206C258.499,37.105 263.85,36.873 269.202,36.72C273.542,36.596 277.882,36.518 282.223,36.414C286.197,36.318 290.173,36.233 294.111,35.521C294.86,35.386 295.601,35.198 296.427,35.016ZM292.745,56.476C292.083,57.058 291.458,57.555 290.885,58.123C289.842,59.152 288.733,59.328 287.519,58.579C287.047,58.314 286.59,58.014 286.153,57.681C285.041,56.76 283.961,56.673 282.789,57.577C282.006,58.151 281.191,58.669 280.351,59.127C279.668,59.544 278.906,59.766 278.131,59.771C277.357,59.776 276.592,59.566 275.905,59.158C275.289,58.812 274.68,58.441 274.094,58.033C273.757,57.77 273.364,57.618 272.956,57.595C272.549,57.57 272.143,57.676 271.785,57.898C271.067,58.322 270.35,58.755 269.668,59.247C269.165,59.643 268.579,59.881 267.968,59.938C267.358,59.995 266.745,59.868 266.192,59.57C265.485,59.225 264.814,58.792 264.19,58.281C263.151,57.4 262.102,57.345 261.005,58.016C260.364,58.408 259.757,58.872 259.142,59.318C257.561,60.465 256.005,60.374 254.478,59.192C254.109,58.908 253.761,58.588 253.412,58.273C252.499,57.452 251.55,57.442 250.596,58.145C250.167,58.461 249.782,58.853 249.438,59.156C249.58,60.187 249.682,61.055 249.82,61.915C250.121,63.801 250.225,63.914 251.85,64.304C251.969,64.333 252.092,64.34 252.211,64.364C257.252,65.332 262.35,65.871 267.462,65.976C275.679,66.206 283.82,65.101 291.954,63.955C293.197,63.78 294.432,63.498 295.659,63.201C296.55,62.986 297.037,62.289 297.125,61.254C297.196,60.403 297.256,59.551 297.327,58.616C295.471,58.848 294.079,58.01 292.745,56.476ZM246.44,57.852C246.993,57.533 247.425,57.316 247.829,57.043C248.246,56.76 248.623,56.402 249.038,56.112C251.039,54.715 252.83,54.842 254.654,56.496C254.907,56.726 255.158,56.959 255.408,57.195C256.227,57.967 257.076,58.031 257.979,57.374C258.617,56.884 259.278,56.433 259.958,56.025C261.774,55 263.541,55.011 265.213,56.47C265.637,56.823 266.086,57.138 266.554,57.412C266.885,57.64 267.27,57.749 267.657,57.726C268.044,57.703 268.416,57.548 268.724,57.282C269.391,56.759 270.096,56.301 270.831,55.914C272.286,55.166 273.733,55.159 275.113,56.209C275.483,56.49 275.883,56.72 276.264,56.982C276.773,57.369 277.37,57.582 277.982,57.592C278.595,57.603 279.197,57.413 279.716,57.044C280.489,56.538 281.273,56.053 282.027,55.514C283.64,54.36 285.212,54.419 286.832,55.529C288.821,56.892 288.837,56.862 290.678,55.297C292.22,53.986 293.379,53.943 295.034,55.149C295.497,55.486 295.944,55.85 296.434,56.229C297.075,55.322 297.254,53.836 298.411,53.927C299.312,53.999 300.182,54.612 301.091,54.996C302.001,53.439 301.203,50.805 299.545,49.802C298.196,50.261 296.98,50.797 295.721,51.083C291.016,52.149 286.224,52.333 281.459,52.788C279.131,53.01 276.795,52.685 274.469,53.005C274.028,53.066 273.549,52.75 273.085,52.617C272.632,52.487 272.175,52.26 271.72,52.261C266.893,52.271 262.065,52.394 257.24,52.322C254.939,52.288 252.641,51.887 250.339,51.69C249.901,51.649 249.46,51.715 249.045,51.881C247.349,52.608 246.276,54.98 246.44,57.853L246.44,57.852ZM262.733,39.521C262.746,39.614 262.76,39.707 262.773,39.8C266.034,42.676 269.278,45.578 272.563,48.419C274.259,49.886 274.019,50.407 275.868,48.159C278.027,45.536 280.084,42.805 282.18,40.116C282.358,39.888 282.498,39.621 282.819,39.114L262.733,39.521ZM269.554,49.505C268.306,48.312 267.272,47.356 266.273,46.355C265.813,45.894 265.346,45.795 264.731,45.807C260.233,45.888 255.734,46.405 251.235,45.778C250.686,45.702 250.11,45.853 249.55,45.916C249.006,45.977 248.805,46.398 248.759,46.957C248.696,47.716 248.971,48.253 249.731,48.477C250.665,48.787 251.625,48.983 252.596,49.059C257.825,49.272 263.058,49.414 268.287,49.574C268.601,49.585 268.917,49.543 269.554,49.506L269.554,49.505ZM298.339,44.412C296.832,44.85 295.441,45.411 294.009,45.643C289.88,46.333 285.712,46.669 281.539,46.65C281.27,46.621 281,46.701 280.778,46.875C280,47.785 279.271,48.749 278.427,49.817C279.646,49.817 280.651,49.889 281.647,49.804C285.282,49.495 288.921,49.204 292.545,48.76C294.275,48.544 295.983,48.148 297.649,47.577C299.152,47.064 299.346,45.808 298.339,44.413L298.339,44.412ZM283.216,43.547C283.767,43.547 284.091,43.567 284.411,43.544C287.08,43.35 289.759,43.261 292.411,42.906C294.09,42.636 295.745,42.192 297.353,41.578C298.384,41.213 298.587,40.538 298.298,39.563C297.963,38.427 297.239,37.84 296.353,38.03C293.486,38.645 290.577,38.971 287.659,39.005C287.098,39.011 286.538,39.066 286.175,39.086L283.216,43.547ZM248.84,39.036C248.551,39.623 248.292,40.228 248.064,40.847C247.792,41.716 247.892,42.002 248.688,42.307C249.493,42.617 250.322,42.838 251.164,42.966C254.598,43.479 258.046,43.254 261.491,43.141C261.802,43.098 262.11,43.031 262.414,42.94C261.858,42.461 261.484,42.119 261.093,41.806C260.496,41.33 259.772,40.985 259.313,40.377C258.839,39.749 258.345,39.684 257.724,39.683C254.808,39.68 251.882,39.898 248.84,39.036Z" fill="#000000"/>
<path d="M268.738,19.148C268.792,18.612 268.71,18.051 269.272,17.847C269.822,17.647 270.238,17.957 270.466,18.505C270.712,19.08 270.905,19.683 271.042,20.304C271.158,20.865 271.06,21.428 270.505,21.684C270.016,21.91 269.485,21.651 269.227,20.977C269.031,20.379 268.868,19.769 268.738,19.148Z" fill="#000000"/>
<path d="M259.912,26.588C260.092,26.731 260.532,26.897 260.602,27.181C260.645,27.39 260.647,27.606 260.609,27.816C260.571,28.025 260.493,28.223 260.381,28.395C259.778,29.132 258.921,29.366 258.065,29.402C257.446,29.429 257.171,28.623 257.591,27.966C258.11,27.154 258.857,26.714 259.912,26.588Z" fill="#000000"/>
<path d="M289.187,32.817C288.795,32.485 288.358,32.296 288.248,31.966C288.159,31.703 288.383,31.136 288.62,30.937C289.1,30.52 289.644,30.21 290.225,30.024C290.529,29.936 291.101,30.159 291.236,30.44C291.291,30.645 291.298,30.861 291.258,31.07C291.218,31.279 291.132,31.473 291.008,31.633C290.501,32.11 289.856,32.4 289.187,32.817Z" fill="#000000"/>
<path d="M275.999,28.516C275.965,27.619 276.558,27.17 277.207,27.507C277.799,27.815 278.479,29.322 278.366,30.074C278.265,30.748 277.685,31.101 277.199,30.714C276.566,30.183 276.136,29.397 275.999,28.516Z" fill="#000000"/>
<path d="M287.437,22.458C287.432,23.262 286.465,24.368 285.765,24.366C285.324,24.364 284.908,23.808 285.126,23.301C285.393,22.653 285.79,22.084 286.286,21.641C286.813,21.205 287.442,21.721 287.437,22.458Z" fill="#000000"/>
<path d="M266.128,34.465C265.382,34.417 264.509,33.412 264.524,32.716C264.531,32.579 264.563,32.444 264.617,32.321C264.672,32.197 264.747,32.088 264.84,31.998C264.932,31.909 265.04,31.842 265.156,31.801C265.272,31.76 265.394,31.746 265.514,31.76C266.102,31.846 266.775,32.841 266.756,33.602C266.743,34.129 266.584,34.505 266.128,34.465Z" fill="#000000"/>
<path d="M513.898,23.238C513.898,29.415 508.912,34.406 502.782,34.406L502.782,39.406C511.692,39.406 518.898,32.159 518.898,23.238L513.898,23.238ZM502.782,34.406C496.652,34.406 491.666,29.415 491.666,23.238L486.666,23.238C486.666,32.159 493.872,39.406 502.782,39.406L502.782,34.406ZM491.666,23.238C491.666,17.061 496.652,12.069 502.782,12.069L502.782,7.069C493.872,7.069 486.666,14.317 486.666,23.238L491.666,23.238ZM502.782,12.069C508.912,12.069 513.898,17.061 513.898,23.238L518.898,23.238C518.898,14.317 511.692,7.069 502.782,7.069L502.782,12.069Z" fill="#000000"/>
<path d="M473.871,67.569L471.378,67.767C471.482,69.067 472.567,70.069 473.871,70.069L473.871,67.569ZM531.694,70.069C533.075,70.069 534.194,68.949 534.194,67.569C534.194,66.188 533.075,65.069 531.694,65.069L531.694,70.069ZM473.782,65.351L471.282,65.351L471.282,65.351L473.782,65.351ZM502.782,36.906L502.782,39.406L502.782,39.406L502.782,36.906ZM531.782,65.351L534.282,65.351L534.282,65.351L531.782,65.351ZM529.202,67.37C529.092,68.747 530.119,69.951 531.495,70.061C532.871,70.171 534.076,69.144 534.186,67.768L529.202,67.37ZM473.871,70.069L531.694,70.069L531.694,65.069L473.871,65.069L473.871,70.069ZM476.363,67.37C476.309,66.698 476.282,66.025 476.282,65.351L471.282,65.351C471.282,66.157 471.314,66.963 471.378,67.767L476.363,67.37ZM476.282,65.351C476.282,58.486 479.062,51.892 484.027,47.022L480.526,43.453C474.613,49.252 471.282,57.128 471.282,65.351L476.282,65.351ZM484.027,47.022C488.993,42.151 495.739,39.406 502.782,39.406L502.782,34.406C494.443,34.406 486.436,37.655 480.526,43.453L484.027,47.022ZM502.782,39.406C506.269,39.406 509.72,40.08 512.939,41.388L514.821,36.755C511.003,35.204 506.912,34.406 502.782,34.406L502.782,39.406ZM512.939,41.388C516.158,42.695 519.079,44.611 521.538,47.022L525.039,43.453C522.112,40.582 518.639,38.307 514.821,36.755L512.939,41.388ZM521.538,47.022C523.996,49.434 525.944,52.294 527.272,55.438L531.878,53.493C530.291,49.735 527.966,46.324 525.039,43.453L521.538,47.022ZM527.272,55.438C528.599,58.583 529.282,61.951 529.282,65.351L534.282,65.351C534.282,61.281 533.465,57.251 531.878,53.493L527.272,55.438ZM529.282,65.351C529.282,66.025 529.255,66.699 529.202,67.37L534.186,67.768C534.25,66.964 534.282,66.158 534.282,65.351L529.282,65.351Z" fill="#000000"/>
<path d="M761.236,30.513C757.924,26.109 754.507,21.705 751.194,17.185C749.538,15.099 747.881,13.012 746.328,10.81C745.293,9.42 743.844,9.652 742.291,9.652C735.976,9.652 729.66,9.652 723.345,9.652C721.896,9.652 719.722,9.188 718.583,10.463C717.134,12.085 715.788,13.94 714.338,15.678C710.301,20.662 706.367,25.645 702.329,30.513C700.569,32.715 703.468,35.96 705.228,33.758C706.16,32.599 707.091,31.44 708.023,30.281C708.023,38.046 708.023,45.927 708.023,53.692C708.023,57.4 709.783,60.645 712.889,61.804C713.096,66.093 716.202,69.569 720.032,69.569C723.759,69.569 726.762,66.44 727.176,62.384C732.145,62.384 737.218,62.384 742.187,62.384C742.187,63.775 742.187,65.165 742.187,66.44C742.187,66.672 742.187,67.02 742.187,67.251C742.187,68.41 743.119,69.569 744.258,69.569C745.397,69.569 746.328,68.526 746.328,67.251C746.328,65.629 746.328,64.006 746.328,62.384C746.639,62.384 746.95,62.384 747.26,62.384C749.434,62.384 751.608,61.804 753.161,59.95C754.714,58.212 755.335,55.894 755.335,53.46C755.335,48.824 755.335,44.188 755.335,39.553C755.335,36.307 755.335,33.062 755.335,29.817C755.646,30.281 755.956,30.629 756.267,31.092C756.888,31.903 757.509,32.831 758.234,33.642C760.098,36.076 762.996,32.831 761.236,30.513ZM712.268,31.208C712.268,31.092 712.268,31.092 712.268,30.976C712.682,31.208 713.096,31.44 713.407,31.556C714.752,32.135 716.305,30.86 717.651,29.817C718.272,30.397 718.997,30.86 719.618,31.44C720.239,31.903 721.068,31.788 721.689,31.44C722.621,30.86 723.552,30.281 724.484,29.701C725.312,30.281 726.037,30.86 726.865,31.44C727.486,31.903 728.315,31.788 728.936,31.44C729.867,30.86 730.799,30.281 731.627,29.701C732.456,30.281 733.387,30.86 734.216,31.44C734.837,31.903 735.665,31.903 736.286,31.44C737.114,30.86 737.943,30.281 738.771,29.701C739.496,30.165 740.117,30.513 740.841,30.976C741.359,31.324 741.98,31.672 742.601,31.672C743.43,31.672 744.154,30.976 744.879,30.513C745.19,30.281 745.604,30.049 745.914,29.817C746.639,30.281 747.364,30.86 748.192,31.324C748.813,31.788 749.641,31.672 750.262,31.324C750.573,31.092 750.884,30.976 751.194,30.745C751.194,35.033 751.194,39.321 751.194,43.609L712.268,43.609C712.268,39.668 712.268,35.38 712.268,31.208ZM719.618,16.142C720.136,15.562 720.654,14.867 721.171,14.287C728.004,14.287 734.733,14.287 741.566,14.287C742.291,14.287 742.912,14.287 743.637,14.287C746.432,17.996 749.227,21.705 752.022,25.413C751.194,25.877 750.366,26.456 749.538,26.92C748.813,26.34 747.985,25.877 747.26,25.297C746.639,24.834 745.811,24.834 745.19,25.297C744.465,25.761 743.637,26.34 742.912,26.804C741.98,26.225 741.048,25.645 740.117,25.066C739.496,24.718 738.667,24.602 738.046,25.066C737.218,25.645 736.39,26.225 735.562,26.804C735.251,26.572 734.837,26.34 734.526,26.109C733.698,25.529 732.766,24.718 731.731,24.834C730.903,24.95 729.971,25.645 729.246,26.109C728.936,26.34 728.625,26.572 728.211,26.688C727.486,26.109 726.658,25.529 725.933,24.95C725.312,24.486 724.484,24.602 723.863,24.95C722.931,25.529 721.999,26.109 721.068,26.572C720.343,25.993 719.618,25.413 718.894,24.95C718.272,24.486 717.341,24.602 716.823,24.95C715.995,25.529 715.167,26.109 714.338,26.688C713.614,26.225 712.889,25.877 712.268,25.413C714.545,22.4 717.03,19.271 719.618,16.142ZM720.136,65.049C718.479,65.049 717.134,63.543 717.134,61.689C717.134,59.834 718.376,58.212 720.136,58.212C721.792,58.212 723.138,59.718 723.138,61.573C723.138,63.427 721.792,65.049 720.136,65.049ZM751.298,54.967C750.987,57.053 749.331,57.864 747.674,57.864C743.74,57.864 739.91,57.864 735.976,57.864C732.766,57.864 729.66,57.864 726.451,57.864C725.209,55.314 722.828,53.576 720.136,53.576C717.548,53.576 715.27,55.083 714.028,57.4C712.682,56.589 712.268,55.198 712.268,53.46C712.268,51.722 712.268,50.099 712.268,48.361L751.298,48.361C751.298,49.52 751.298,50.563 751.298,51.722C751.298,52.88 751.401,53.924 751.298,54.967Z" fill="#000000"/>
</svg>
