<svg width="804" height="114" viewBox="0 0 804 114" fill="none" xmlns="http://www.w3.org/2000/svg" xmlns:xlink="http://www.w3.org/1999/xlink">
<circle cx="260" cy="44" r="44" fill="#A7CB16" fill-opacity="0.5"/>
<path d="M62,35.872L62,38.372C63.039,38.372 63.97,37.729 64.338,36.757C64.706,35.785 64.434,34.686 63.655,33.998L62,35.872ZM2,35.872L0.389,33.96C-0.414,34.637 -0.709,35.743 -0.348,36.73C0.012,37.716 0.95,38.372 2,38.372L2,35.872ZM32.705,10L34.36,8.126C33.431,7.306 32.042,7.29 31.094,8.088L32.705,10ZM25.574,72.5C26.955,72.5 28.074,71.381 28.074,70C28.074,68.619 26.955,67.5 25.574,67.5L25.574,72.5ZM9.706,70L7.206,70C7.206,71.381 8.325,72.5 9.706,72.5L9.706,70ZM9.706,35.872L9.706,33.372C8.325,33.372 7.206,34.491 7.206,35.872L9.706,35.872ZM53.757,35.872L56.257,35.872C56.257,34.491 55.138,33.372 53.757,33.372L53.757,35.872ZM53.757,70L53.757,72.5C55.138,72.5 56.257,71.381 56.257,70L53.757,70ZM37.889,67.5C36.509,67.5 35.389,68.619 35.389,70C35.389,71.381 36.509,72.5 37.889,72.5L37.889,67.5ZM23.074,69.96C23.074,71.34 24.193,72.46 25.574,72.46C26.955,72.46 28.074,71.34 28.074,69.96L23.074,69.96ZM25.574,53.57L25.574,51.07C24.193,51.07 23.074,52.19 23.074,53.57L25.574,53.57ZM37.889,53.57L40.389,53.57C40.389,52.19 39.27,51.07 37.889,51.07L37.889,53.57ZM35.389,69.96C35.389,71.34 36.509,72.46 37.889,72.46C39.27,72.46 40.389,71.34 40.389,69.96L35.389,69.96ZM62,33.372L2,33.372L2,38.372L62,38.372L62,33.372ZM3.611,37.784L34.316,11.912L31.094,8.088L0.389,33.96L3.611,37.784ZM31.05,11.874L60.345,37.746L63.655,33.998L34.36,8.126L31.05,11.874ZM25.574,67.5L9.706,67.5L9.706,72.5L25.574,72.5L25.574,67.5ZM12.206,70L12.206,35.872L7.206,35.872L7.206,70L12.206,70ZM9.706,38.372L53.757,38.372L53.757,33.372L9.706,33.372L9.706,38.372ZM51.257,35.872L51.257,70L56.257,70L56.257,35.872L51.257,35.872ZM53.757,67.5L37.889,67.5L37.889,72.5L53.757,72.5L53.757,67.5ZM28.074,69.96L28.074,53.57L23.074,53.57L23.074,69.96L28.074,69.96ZM25.574,56.07L37.889,56.07L37.889,51.07L25.574,51.07L25.574,56.07ZM35.389,53.57L35.389,69.96L40.389,69.96L40.389,53.57L35.389,53.57Z" fill="#000000"/>
<path d="M501.898,23.669C501.898,29.846 496.912,34.837 490.782,34.837L490.782,39.837C499.692,39.837 506.898,32.589 506.898,23.669L501.898,23.669ZM490.782,34.837C484.652,34.837 479.666,29.846 479.666,23.669L474.666,23.669C474.666,32.589 481.872,39.837 490.782,39.837L490.782,34.837ZM479.666,23.669C479.666,17.491 484.652,12.5 490.782,12.5L490.782,7.5C481.872,7.5 474.666,14.748 474.666,23.669L479.666,23.669ZM490.782,12.5C496.912,12.5 501.898,17.491 501.898,23.669L506.898,23.669C506.898,14.748 499.692,7.5 490.782,7.5L490.782,12.5Z" fill="#000000"/>
<path d="M461.87,67.999L459.378,68.198C459.482,69.498 460.567,70.499 461.87,70.499L461.87,67.999ZM519.694,70.499C521.074,70.499 522.194,69.38 522.194,67.999C522.194,66.619 521.074,65.499 519.694,65.499L519.694,70.499ZM461.782,65.782L459.282,65.782L459.282,65.782L461.782,65.782ZM490.782,37.337L490.782,39.837L490.782,39.837L490.782,37.337ZM519.782,65.782L522.282,65.782L522.282,65.782L519.782,65.782ZM517.202,67.801C517.092,69.178 518.119,70.382 519.495,70.492C520.871,70.602 522.076,69.575 522.186,68.199L517.202,67.801ZM461.87,70.499L519.694,70.499L519.694,65.499L461.87,65.499L461.87,70.499ZM464.362,67.801C464.309,67.129 464.282,66.456 464.282,65.782L459.282,65.782C459.282,66.588 459.314,67.394 459.378,68.198L464.362,67.801ZM464.282,65.782C464.282,58.917 467.062,52.323 472.026,47.453L468.525,43.884C462.613,49.683 459.282,57.559 459.282,65.782L464.282,65.782ZM472.026,47.453C476.993,42.582 483.738,39.837 490.782,39.837L490.782,34.837C482.443,34.837 474.436,38.086 468.525,43.884L472.026,47.453ZM490.782,39.837C494.269,39.837 497.72,40.511 500.939,41.818L502.821,37.186C499.003,35.635 494.912,34.837 490.782,34.837L490.782,39.837ZM500.939,41.818C504.157,43.126 507.079,45.042 509.537,47.453L513.039,43.884C510.112,41.012 506.639,38.737 502.821,37.186L500.939,41.818ZM509.537,47.453C511.996,49.865 513.944,52.725 515.271,55.869L519.878,53.924C518.291,50.166 515.966,46.755 513.039,43.884L509.537,47.453ZM515.271,55.869C516.599,59.013 517.282,62.382 517.282,65.782L522.282,65.782C522.282,61.711 521.465,57.682 519.878,53.924L515.271,55.869ZM517.282,65.782C517.282,66.456 517.255,67.129 517.202,67.801L522.186,68.199C522.25,67.395 522.282,66.588 522.282,65.782L517.282,65.782Z" fill="#000000"/>
<path d="M749.236,30.943C745.923,26.539 742.507,22.135 739.194,17.615C737.538,15.529 735.881,13.443 734.328,11.241C733.293,9.85 731.844,10.082 730.291,10.082C723.975,10.082 717.66,10.082 711.345,10.082C709.896,10.082 707.722,9.619 706.583,10.893C705.133,12.516 703.787,14.37 702.338,16.109C698.301,21.092 694.366,26.076 690.329,30.943C688.569,33.145 691.468,36.39 693.228,34.188C694.159,33.029 695.091,31.87 696.023,30.712C696.023,38.477 696.023,46.357 696.023,54.122C696.023,57.831 697.783,61.076 700.889,62.235C701.096,66.523 704.202,70 708.032,70C711.759,70 714.761,66.871 715.176,62.814C720.145,62.814 725.218,62.814 730.187,62.814C730.187,64.205 730.187,65.596 730.187,66.871C730.187,67.103 730.187,67.45 730.187,67.682C730.187,68.841 731.119,70 732.258,70C733.396,70 734.328,68.957 734.328,67.682C734.328,66.06 734.328,64.437 734.328,62.814C734.639,62.814 734.949,62.814 735.26,62.814C737.434,62.814 739.608,62.235 741.161,60.381C742.714,58.642 743.335,56.324 743.335,53.891C743.335,49.255 743.335,44.619 743.335,39.983C743.335,36.738 743.335,33.493 743.335,30.248C743.646,30.712 743.956,31.059 744.267,31.523C744.888,32.334 745.509,33.261 746.234,34.072C748.097,36.506 750.996,33.261 749.236,30.943ZM700.268,31.639C700.268,31.523 700.268,31.523 700.268,31.407C700.682,31.639 701.096,31.87 701.406,31.986C702.752,32.566 704.305,31.291 705.651,30.248C706.272,30.827 706.997,31.291 707.618,31.87C708.239,32.334 709.067,32.218 709.689,31.87C710.62,31.291 711.552,30.712 712.484,30.132C713.312,30.712 714.037,31.291 714.865,31.87C715.486,32.334 716.314,32.218 716.936,31.87C717.867,31.291 718.799,30.712 719.627,30.132C720.455,30.712 721.387,31.291 722.215,31.87C722.837,32.334 723.665,32.334 724.286,31.87C725.114,31.291 725.942,30.712 726.771,30.132C727.495,30.596 728.117,30.943 728.841,31.407C729.359,31.755 729.98,32.102 730.601,32.102C731.429,32.102 732.154,31.407 732.879,30.943C733.189,30.712 733.603,30.48 733.914,30.248C734.639,30.712 735.363,31.291 736.192,31.755C736.813,32.218 737.641,32.102 738.262,31.755C738.573,31.523 738.883,31.407 739.194,31.175C739.194,35.463 739.194,39.751 739.194,44.039L700.268,44.039C700.268,40.099 700.268,35.811 700.268,31.639ZM707.618,16.572C708.136,15.993 708.653,15.297 709.171,14.718C716.004,14.718 722.733,14.718 729.566,14.718C730.291,14.718 730.912,14.718 731.636,14.718C734.432,18.427 737.227,22.135 740.022,25.844C739.194,26.308 738.366,26.887 737.538,27.351C736.813,26.771 735.985,26.308 735.26,25.728C734.639,25.264 733.811,25.264 733.189,25.728C732.465,26.192 731.636,26.771 730.912,27.235C729.98,26.655 729.048,26.076 728.117,25.496C727.495,25.149 726.667,25.033 726.046,25.496C725.218,26.076 724.39,26.655 723.561,27.235C723.251,27.003 722.837,26.771 722.526,26.539C721.698,25.96 720.766,25.149 719.731,25.264C718.903,25.38 717.971,26.076 717.246,26.539C716.936,26.771 716.625,27.003 716.211,27.119C715.486,26.539 714.658,25.96 713.933,25.38C713.312,24.917 712.484,25.033 711.863,25.38C710.931,25.96 709.999,26.539 709.067,27.003C708.343,26.423 707.618,25.844 706.893,25.38C706.272,24.917 705.34,25.033 704.823,25.38C703.995,25.96 703.166,26.539 702.338,27.119C701.613,26.655 700.889,26.308 700.268,25.844C702.545,22.831 705.03,19.701 707.618,16.572ZM708.136,65.48C706.479,65.48 705.133,63.973 705.133,62.119C705.133,60.265 706.376,58.642 708.136,58.642C709.792,58.642 711.138,60.149 711.138,62.003C711.138,63.858 709.792,65.48 708.136,65.48ZM739.298,55.397C738.987,57.483 737.33,58.295 735.674,58.295C731.74,58.295 727.909,58.295 723.975,58.295C720.766,58.295 717.66,58.295 714.451,58.295C713.209,55.745 710.827,54.006 708.136,54.006C705.547,54.006 703.27,55.513 702.028,57.831C700.682,57.02 700.268,55.629 700.268,53.891C700.268,52.152 700.268,50.53 700.268,48.791L739.298,48.791C739.298,49.95 739.298,50.993 739.298,52.152C739.298,53.311 739.401,54.354 739.298,55.397Z" fill="#000000"/>
<path d="M235.18,60.998C235.094,60.95 235.004,60.913 234.911,60.89C232.681,60.728 231.664,59.367 232.115,56.869C232.379,55.43 232.798,54.032 233.362,52.709C233.715,51.877 234.442,51.252 234.983,50.557C234.804,49.667 234.453,48.711 234.464,47.758C234.475,46.837 234.857,45.921 235.093,44.929C233.334,43.061 233.285,42.661 234.532,39.421C233.842,38.609 233.766,37.626 233.874,36.508C234.172,33.427 234.527,30.364 235.563,27.473C238.196,20.126 242.865,15.085 249.391,12.458C257.316,9.269 265.316,9.221 273.205,12.726C276.85,14.344 280.067,16.758 282.365,20.46C283.274,21.871 284.038,23.397 284.64,25.007C285.438,27.265 286.007,29.632 286.605,31.975C287.021,33.605 287.151,35.255 286.107,36.786C287.082,37.682 287.93,38.575 288.339,39.884C288.762,41.239 288.442,42.418 287.761,43.593C289.008,45.041 289.187,46.738 288.628,48.657C289.684,49.576 290.65,50.632 291.085,52.126C291.337,52.9 291.5,53.709 291.569,54.53C291.701,57.179 290.788,58.354 288.526,58.656C288.472,59.844 288.462,61.028 288.355,62.2C288.138,64.587 286.921,66.136 284.933,66.699C283.041,67.212 281.123,67.59 279.189,67.832C275.564,68.328 271.934,68.79 268.295,69.118C262.301,69.657 256.294,69.902 250.291,69.313C246.938,68.984 243.591,68.565 240.249,68.108C239.287,67.946 238.344,67.666 237.435,67.271C236.889,67.068 236.408,66.685 236.053,66.172C235.698,65.658 235.484,65.037 235.439,64.385C235.314,63.253 235.262,62.109 235.18,60.998ZM284.426,35.447C283.91,32.983 283.491,30.643 282.92,28.351C282.366,25.984 281.415,23.76 280.119,21.803C277.855,18.468 274.837,16.392 271.448,14.945C266.313,12.752 261.001,12.355 255.628,13.366C248.146,14.771 242.168,18.758 238.516,26.627C237.056,29.773 236.375,33.145 235.84,36.693C236.231,36.878 236.636,37.024 237.05,37.131C238.412,37.337 239.782,37.662 241.146,37.636C246.498,37.536 251.849,37.304 257.202,37.151C261.542,37.027 265.882,36.949 270.223,36.844C274.197,36.748 278.173,36.663 282.111,35.952C282.86,35.816 283.601,35.628 284.426,35.447ZM280.745,56.907C280.083,57.489 279.458,57.986 278.884,58.553C277.842,59.582 276.733,59.758 275.519,59.01C275.046,58.745 274.59,58.445 274.153,58.112C273.04,57.19 271.961,57.104 270.789,58.007C270.006,58.582 269.191,59.1 268.35,59.557C267.668,59.975 266.906,60.196 266.131,60.202C265.356,60.207 264.592,59.997 263.905,59.589C263.288,59.243 262.68,58.871 262.093,58.463C261.757,58.2 261.363,58.049 260.956,58.025C260.548,58.001 260.143,58.106 259.784,58.329C259.067,58.753 258.35,59.185 257.668,59.677C257.165,60.073 256.578,60.312 255.968,60.369C255.358,60.426 254.745,60.299 254.191,60.001C253.485,59.655 252.814,59.222 252.189,58.711C251.151,57.83 250.102,57.776 249.005,58.447C248.364,58.839 247.757,59.303 247.142,59.748C245.56,60.895 244.005,60.805 242.477,59.623C242.109,59.338 241.761,59.018 241.411,58.703C240.498,57.882 239.549,57.873 238.596,58.575C238.167,58.891 237.781,59.283 237.438,59.586C237.58,60.618 237.682,61.486 237.819,62.346C238.121,64.232 238.225,64.345 239.85,64.735C239.968,64.764 240.091,64.771 240.211,64.795C245.252,65.762 250.35,66.302 255.461,66.407C263.679,66.636 271.82,65.531 279.953,64.385C281.197,64.21 282.432,63.928 283.658,63.632C284.55,63.416 285.037,62.72 285.124,61.685C285.196,60.834 285.256,59.981 285.326,59.047C283.471,59.279 282.079,58.441 280.745,56.907ZM234.439,58.283C234.993,57.964 235.425,57.746 235.829,57.473C236.246,57.19 236.623,56.832 237.037,56.543C239.039,55.145 240.83,55.272 242.653,56.927C242.906,57.157 243.158,57.39 243.408,57.626C244.227,58.397 245.076,58.462 245.979,57.804C246.617,57.314 247.277,56.864 247.958,56.455C249.774,55.43 251.54,55.442 253.213,56.9C253.637,57.254 254.086,57.569 254.553,57.843C254.885,58.07 255.269,58.18 255.656,58.156C256.043,58.133 256.415,57.978 256.724,57.712C257.391,57.189 258.096,56.732 258.831,56.345C260.286,55.596 261.733,55.59 263.113,56.64C263.482,56.921 263.882,57.15 264.264,57.413C264.773,57.8 265.369,58.012 265.982,58.023C266.594,58.034 267.197,57.844 267.716,57.475C268.489,56.969 269.273,56.484 270.027,55.944C271.64,54.791 273.211,54.849 274.831,55.959C276.821,57.323 276.837,57.293 278.678,55.728C280.22,54.417 281.379,54.373 283.034,55.58C283.496,55.916 283.944,56.281 284.434,56.66C285.074,55.752 285.254,54.266 286.41,54.358C287.312,54.429 288.181,55.043 289.091,55.426C290.001,53.869 289.203,51.235 287.545,50.233C286.196,50.691 284.98,51.228 283.72,51.513C279.016,52.58 274.224,52.764 269.459,53.218C267.13,53.441 264.795,53.115 262.469,53.436C262.028,53.496 261.549,53.18 261.085,53.048C260.631,52.917 260.175,52.691 259.72,52.691C254.893,52.702 250.065,52.825 245.24,52.753C242.938,52.719 240.64,52.317 238.339,52.121C237.9,52.08 237.46,52.145 237.045,52.312C235.349,53.039 234.276,55.411 234.439,58.283L234.439,58.283ZM250.732,39.952C250.746,40.045 250.759,40.137 250.773,40.23C254.034,43.107 257.278,46.008 260.563,48.85C262.259,50.317 262.018,50.838 263.868,48.59C266.027,45.966 268.084,43.236 270.18,40.547C270.358,40.319 270.498,40.052 270.819,39.545L250.732,39.952ZM257.554,49.935C256.305,48.742 255.272,47.787 254.273,46.786C253.813,46.325 253.346,46.226 252.731,46.237C248.233,46.318 243.734,46.835 239.234,46.209C238.686,46.133 238.11,46.283 237.55,46.347C237.006,46.408 236.805,46.829 236.758,47.388C236.696,48.147 236.971,48.684 237.731,48.907C238.665,49.218 239.625,49.413 240.596,49.49C245.825,49.702 251.057,49.845 256.287,50.005C256.601,50.016 256.916,49.973 257.554,49.936L257.554,49.935ZM286.339,44.842C284.832,45.281 283.441,45.842 282.009,46.074C277.88,46.763 273.712,47.1 269.538,47.08C269.27,47.052 269,47.131 268.778,47.306C267.999,48.215 267.271,49.18 266.427,50.248C267.646,50.248 268.651,50.32 269.646,50.235C273.282,49.925 276.921,49.634 280.545,49.19C282.275,48.975 283.983,48.579 285.648,48.007C287.151,47.494 287.346,46.239 286.339,44.843L286.339,44.842ZM271.216,43.977C271.767,43.977 272.091,43.998 272.411,43.974C275.079,43.78 277.759,43.692 280.41,43.337C282.09,43.067 283.745,42.622 285.353,42.008C286.384,41.643 286.586,40.969 286.298,39.993C285.963,38.858 285.239,38.271 284.353,38.46C281.486,39.076 278.576,39.402 275.658,39.435C275.098,39.441 274.538,39.496 274.175,39.516L271.216,43.977ZM236.839,39.467C236.551,40.054 236.292,40.658 236.063,41.278C235.792,42.147 235.892,42.433 236.688,42.738C237.493,43.048 238.322,43.268 239.164,43.397C242.597,43.909 246.046,43.685 249.49,43.572C249.802,43.529 250.11,43.462 250.414,43.371C249.858,42.892 249.484,42.55 249.092,42.237C248.495,41.76 247.772,41.415 247.313,40.807C246.839,40.18 246.345,40.115 245.724,40.114C242.808,40.111 239.882,40.329 236.839,39.467Z" fill="#000000"/>
<path d="M256.738,19.579C256.792,19.043 256.71,18.482 257.272,18.278C257.822,18.078 258.238,18.387 258.465,18.936C258.712,19.511 258.905,20.114 259.042,20.735C259.157,21.295 259.06,21.859 258.505,22.115C258.015,22.341 257.485,22.082 257.227,21.408C257.031,20.81 256.868,20.199 256.738,19.579Z" fill="#000000"/>
<path d="M247.912,27.018C248.092,27.161 248.532,27.328 248.602,27.612C248.645,27.82 248.647,28.037 248.609,28.246C248.57,28.456 248.492,28.654 248.38,28.825C247.778,29.563 246.92,29.797 246.065,29.833C245.446,29.86 245.171,29.054 245.59,28.397C246.11,27.584 246.856,27.145 247.912,27.018Z" fill="#000000"/>
<path d="M277.187,33.248C276.795,32.916 276.358,32.727 276.248,32.396C276.159,32.133 276.383,31.566 276.62,31.367C277.1,30.951 277.644,30.641 278.225,30.455C278.529,30.366 279.101,30.59 279.236,30.871C279.291,31.075 279.298,31.292 279.258,31.501C279.218,31.71 279.132,31.903 279.008,32.064C278.501,32.541 277.856,32.831 277.187,33.248Z" fill="#000000"/>
<path d="M263.999,28.947C263.965,28.049 264.558,27.6 265.207,27.938C265.799,28.246 266.479,29.753 266.366,30.505C266.265,31.179 265.684,31.532 265.199,31.144C264.566,30.614 264.136,29.827 263.999,28.947Z" fill="#000000"/>
<path d="M275.437,22.889C275.432,23.693 274.464,24.798 273.765,24.796C273.324,24.795 272.908,24.239 273.126,23.732C273.393,23.083 273.79,22.515 274.285,22.072C274.813,21.636 275.442,22.152 275.437,22.889Z" fill="#000000"/>
<path d="M254.128,34.896C253.382,34.848 252.509,33.843 252.523,33.147C252.531,33.009 252.563,32.875 252.617,32.751C252.672,32.628 252.747,32.518 252.84,32.429C252.932,32.34 253.04,32.272 253.156,32.231C253.271,32.19 253.393,32.176 253.514,32.19C254.102,32.276 254.775,33.272 254.756,34.032C254.743,34.56 254.584,34.936 254.128,34.896Z" fill="#000000"/>
<rect  x="240" y="104" width="268" height="10" rx="200" fill="#000000"/>
</svg>
