<svg width="164" height="164" viewBox="0 0 164 164" fill="none" xmlns="http://www.w3.org/2000/svg" xmlns:xlink="http://www.w3.org/1999/xlink">
<path d="M53.658,109.28C52.754,109.131 51.826,109.498 51.114,110.075C50.402,110.652 49.876,111.418 49.384,112.189C48.499,113.568 47.686,114.991 46.948,116.453C46.604,117.139 46.271,117.844 46.151,118.602C46,119.569 46.205,120.553 46.409,121.511C46.466,121.778 46.533,122.065 46.737,122.244C46.878,122.35 47.04,122.424 47.212,122.462C49.602,123.152 52.111,123.32 54.571,122.954Z" fill="#000000"/>
<path d="M53.692,109.153C52.144,108.883 50.804,109.914 49.92,111.074C49.429,111.742 48.975,112.435 48.559,113.152C48.113,113.884 47.688,114.631 47.284,115.39C46.868,116.121 46.505,116.881 46.197,117.663C45.919,118.46 45.837,119.312 45.956,120.148C46.01,120.574 46.092,120.998 46.181,121.419C46.253,121.767 46.32,122.15 46.597,122.403C46.874,122.656 47.302,122.72 47.65,122.808C48.061,122.917 48.477,123.008 48.898,123.08C50.794,123.419 52.733,123.446 54.638,123.162C54.906,123.123 54.792,122.718 54.527,122.757C52.156,123.109 49.737,122.957 47.429,122.313C47.266,122.279 47.109,122.224 46.961,122.149C46.814,122.047 46.713,121.892 46.678,121.716C46.577,121.338 46.496,120.955 46.437,120.568C46.294,119.768 46.246,118.954 46.466,118.162C46.676,117.404 47.053,116.702 47.414,116.009C48.134,114.61 48.927,113.251 49.79,111.937C50.663,110.625 51.911,109.19 53.666,109.414C53.81,109.432 53.844,109.183 53.7,109.157L53.692,109.153Z" fill="#000000"/>
<path d="M138.687,135.728C144.471,135.728 149.16,131.039 149.16,125.255C149.16,119.471 144.471,114.782 138.687,114.782C132.903,114.782 128.214,119.471 128.214,125.255C128.214,131.039 132.903,135.728 138.687,135.728Z" fill="#000000"/>
<path d="M148.833,125.255C148.834,127.345 148.189,129.384 146.988,131.093C145.786,132.803 144.086,134.1 142.119,134.807C140.153,135.514 138.016,135.596 136.001,135.043C133.986,134.49 132.191,133.328 130.86,131.717C129.52,130.093 128.717,128.092 128.565,125.991C128.412,123.891 128.916,121.795 130.008,119.994C131.153,118.095 132.89,116.624 134.951,115.806C137.013,114.988 139.285,114.868 141.421,115.465C143.557,116.062 145.438,117.343 146.777,119.111C148.116,120.879 148.838,123.037 148.833,125.255C148.833,125.673 149.489,125.675 149.489,125.255C149.486,123.023 148.792,120.846 147.503,119.023C146.213,117.199 144.389,115.82 142.282,115.077C140.176,114.333 137.89,114.262 135.741,114.872C133.877,115.4 132.189,116.42 130.854,117.825C129.52,119.23 128.588,120.968 128.156,122.858C127.725,124.747 127.809,126.717 128.401,128.562C128.993,130.407 130.071,132.059 131.521,133.344C132.971,134.63 134.74,135.501 136.643,135.868C138.546,136.234 140.512,136.081 142.336,135.426C144.16,134.771 145.773,133.637 147.008,132.144C148.243,130.65 149.053,128.852 149.353,126.938C149.438,126.383 149.482,125.824 149.484,125.263C149.484,124.835 148.833,124.835 148.833,125.255Z" fill="#000000"/>
<path d="M138.687,129.278C140.908,129.278 142.71,127.477 142.71,125.255C142.71,123.033 140.908,121.232 138.687,121.232C136.465,121.232 134.664,123.033 134.664,125.255C134.664,127.477 136.465,129.278 138.687,129.278Z" fill="#FFFFFF"/>
<path d="M142.383,125.255C142.383,126.017 142.148,126.76 141.709,127.383C141.271,128.005 140.651,128.478 139.934,128.735C139.217,128.992 138.439,129.022 137.704,128.82C136.97,128.618 136.316,128.194 135.831,127.607C135.347,127.019 135.056,126.296 134.998,125.537C134.939,124.777 135.117,124.018 135.507,123.364C135.896,122.709 136.478,122.191 137.173,121.879C137.868,121.568 138.642,121.479 139.39,121.624C140.23,121.794 140.986,122.247 141.531,122.908C142.076,123.57 142.377,124.398 142.383,125.255C142.383,125.673 143.039,125.675 143.039,125.255C143.038,124.357 142.76,123.482 142.242,122.749C141.723,122.016 140.991,121.461 140.145,121.161C139.299,120.86 138.381,120.829 137.517,121.071C136.652,121.313 135.884,121.817 135.317,122.513C134.75,123.209 134.413,124.064 134.351,124.959C134.289,125.855 134.506,126.747 134.971,127.515C135.437,128.282 136.129,128.887 136.951,129.246C137.774,129.605 138.688,129.7 139.567,129.519C140.544,129.308 141.42,128.771 142.051,127.996C142.682,127.221 143.031,126.254 143.039,125.255C143.037,124.835 142.385,124.835 142.383,125.255Z" fill="#FFFFFF"/>
<path d="M136.93,113.324C137.925,116.807 139.081,120.239 140.399,123.62C140.573,124.068 140.753,124.527 140.766,125.007C140.825,127.172 137.596,128.21 136.648,126.124C136.294,125.344 135.966,124.551 135.664,123.746C135.407,123.049 134.933,122.155 135.02,121.394C135.063,121.159 135.144,120.932 135.259,120.722C135.86,119.427 136.158,118.013 136.131,116.586Z" fill="#000000"/>
<path d="M136.871,113.347C137.458,115.463 138.112,117.557 138.831,119.631C139.185,120.655 139.554,121.674 139.938,122.688C140.13,123.2 140.351,123.705 140.519,124.223C140.67,124.634 140.706,125.079 140.623,125.509C140.366,126.629 139.105,127.367 137.999,127.129C137.343,126.99 136.935,126.533 136.669,125.942C136.246,125.001 135.892,124.036 135.505,123.082C135.313,122.608 135.11,122.098 135.113,121.583C135.138,121.275 135.229,120.976 135.382,120.707C135.487,120.473 135.585,120.235 135.672,119.992C136.064,118.902 136.255,117.75 136.235,116.592C136.235,116.568 136.225,116.545 136.208,116.528C136.191,116.51 136.167,116.501 136.143,116.501C136.119,116.501 136.095,116.51 136.078,116.528C136.061,116.545 136.051,116.568 136.051,116.592C136.07,117.709 135.891,118.819 135.521,119.872C135.425,120.146 135.313,120.417 135.193,120.681C135.076,120.898 134.992,121.132 134.944,121.375C134.913,121.823 134.986,122.272 135.159,122.687C135.323,123.151 135.523,123.605 135.699,124.066C135.895,124.584 136.104,125.097 136.323,125.604C136.61,126.26 136.892,126.895 137.596,127.192C138.651,127.638 139.981,127.131 140.561,126.167C140.966,125.498 140.909,124.743 140.656,124.027C140.274,122.934 139.836,121.865 139.434,120.776C138.544,118.315 137.731,115.827 136.994,113.311C136.989,113.297 136.978,113.285 136.965,113.278C136.951,113.271 136.935,113.269 136.921,113.274C136.906,113.278 136.894,113.287 136.886,113.3C136.878,113.313 136.875,113.329 136.878,113.344L136.871,113.347Z" fill="#000000"/>
<path d="M124.015,124.684L151.239,124.684C151.239,124.684 153.906,104.488 132.254,101.5L125.711,114.862Z" fill="#A7CB16"/>
<path d="M124.015,124.804C127.558,124.838 131.1,124.858 134.642,124.863C138.185,124.869 141.728,124.872 145.271,124.873L151.239,124.873C151.289,124.872 151.336,124.851 151.371,124.816C151.406,124.781 151.427,124.734 151.428,124.684C151.452,124.502 151.465,124.319 151.48,124.135C151.516,123.643 151.533,123.138 151.534,122.638C151.534,121.889 151.502,121.14 151.438,120.391C151.355,119.455 151.221,118.524 151.036,117.603C150.825,116.552 150.539,115.517 150.181,114.506C149.784,113.391 149.29,112.313 148.705,111.284C147.38,108.946 145.555,106.93 143.361,105.38C142.064,104.467 140.667,103.705 139.198,103.108C137.464,102.404 135.66,101.881 133.817,101.55C133.314,101.457 132.807,101.377 132.3,101.306C132.257,101.295 132.211,101.299 132.17,101.315C132.128,101.332 132.093,101.362 132.069,101.4L131.413,102.731L129.855,105.91L127.963,109.775C127.416,110.889 126.877,112.005 126.334,113.122C126.072,113.662 125.78,114.196 125.544,114.748L125.532,114.77C125.424,114.994 125.757,115.189 125.86,114.966C126.077,114.521 126.296,114.08 126.516,113.636L128.081,110.462C128.715,109.175 129.342,107.886 129.973,106.597L131.613,103.253L132.15,102.156C132.253,101.989 132.339,101.813 132.407,101.629C132.41,101.622 132.414,101.615 132.418,101.608L132.187,101.701C134.112,101.956 136.006,102.4 137.844,103.026C139.381,103.555 140.854,104.256 142.236,105.114C143.443,105.868 144.558,106.761 145.558,107.774C146.458,108.689 147.257,109.699 147.939,110.785C148.564,111.781 149.096,112.832 149.53,113.924C149.93,114.938 150.254,115.979 150.5,117.04C150.718,117.968 150.883,118.908 150.992,119.854C151.078,120.633 151.129,121.417 151.144,122.201C151.154,122.761 151.144,123.32 151.115,123.879C151.1,124.135 151.042,124.407 151.051,124.663C151.051,124.674 151.051,124.686 151.051,124.697L151.239,124.509L140.61,124.52C137.068,124.52 133.525,124.528 129.983,124.543C127.993,124.551 126.004,124.565 124.015,124.584C123.985,124.584 123.956,124.596 123.935,124.617C123.914,124.639 123.902,124.667 123.902,124.697C123.902,124.727 123.914,124.756 123.935,124.777C123.956,124.799 123.985,124.811 124.015,124.811L124.015,124.804Z" fill="#A7CB16"/>
<path d="M125.806,114.782L124.11,124.604L131.49,124.604C132.905,124.604 134.266,124.06 135.291,123.085C136.317,122.111 136.928,120.779 136.999,119.366C137.238,114.572 137.535,108.578 137.685,102.638C135.947,102.067 134.161,101.659 132.348,101.418L125.806,114.782Z" fill="#000000"/>
<path d="M125.65,114.739L125.076,118.06L124.161,123.353L123.953,124.561C123.946,124.586 123.946,124.612 123.951,124.637C123.957,124.662 123.968,124.685 123.984,124.705C123.999,124.725 124.02,124.741 124.043,124.751C124.066,124.762 124.091,124.767 124.117,124.766L131.408,124.766C132.42,124.774 133.416,124.514 134.296,124.014C135.176,123.513 135.908,122.79 136.419,121.916C136.705,121.417 136.914,120.876 137.037,120.314C137.145,119.684 137.201,119.047 137.204,118.408C137.279,116.897 137.353,115.386 137.424,113.875C137.578,110.551 137.714,107.225 137.808,103.897C137.821,103.479 137.831,103.059 137.842,102.641C137.843,102.604 137.832,102.568 137.811,102.538C137.789,102.509 137.758,102.487 137.722,102.477C135.987,101.911 134.203,101.503 132.394,101.26C132.359,101.251 132.323,101.253 132.29,101.266C132.257,101.28 132.229,101.303 132.21,101.334L131.554,102.666L129.998,105.846L128.109,109.716L126.469,113.06C126.205,113.598 125.909,114.131 125.673,114.682L125.663,114.705C125.572,114.892 125.852,115.057 125.944,114.869L126.6,113.537L128.156,110.359L130.052,106.488L131.692,103.146L132.228,102.049L132.392,101.706C132.429,101.648 132.459,101.587 132.483,101.523C132.483,101.523 132.483,101.508 132.492,101.5L132.309,101.575C134.118,101.819 135.902,102.227 137.637,102.794L137.517,102.63C137.435,105.921 137.309,109.213 137.161,112.502C137.094,114.021 137.022,115.539 136.947,117.055L136.843,119.162C136.825,119.769 136.714,120.369 136.515,120.942C136.128,121.964 135.439,122.846 134.541,123.469C133.642,124.093 132.576,124.429 131.482,124.435C130.318,124.435 129.155,124.435 127.991,124.435L125.585,124.435C125.124,124.435 124.64,124.394 124.181,124.435L124.11,124.435L124.274,124.64L124.848,121.319L125.762,116.028L125.97,114.82C126,114.621 125.685,114.533 125.65,114.739Z" fill="#000000"/>
<path d="M64.381,135.726C71.349,135.726 76.998,130.078 76.998,123.11C76.998,116.142 71.349,110.493 64.381,110.493C57.414,110.493 51.765,116.142 51.765,123.11C51.765,130.078 57.414,135.726 64.381,135.726Z" fill="#000000"/>
<path d="M76.673,123.11C76.663,126.263 75.433,129.29 73.24,131.556C71.047,133.821 68.063,135.15 64.912,135.264C61.76,135.377 58.688,134.266 56.338,132.163C53.988,130.061 52.544,127.13 52.308,123.986C52.071,120.841 53.062,117.728 55.071,115.298C57.08,112.867 59.952,111.31 63.085,110.951C66.218,110.592 69.367,111.46 71.874,113.373C74.381,115.286 76.05,118.095 76.531,121.211C76.627,121.839 76.675,122.474 76.673,123.11C76.673,123.53 77.329,123.53 77.329,123.11C77.339,119.768 76.054,116.551 73.744,114.136C71.434,111.72 68.278,110.292 64.939,110.152C61.599,110.012 58.335,111.17 55.831,113.384C53.327,115.597 51.777,118.694 51.506,122.026C51.235,125.357 52.264,128.664 54.378,131.253C56.492,133.842 59.526,135.512 62.844,135.913C66.163,136.314 69.507,135.415 72.177,133.404C74.847,131.393 76.635,128.427 77.165,125.127C77.27,124.46 77.325,123.785 77.329,123.11C77.326,122.692 76.675,122.69 76.673,123.11Z" fill="#000000"/>
<path d="M64.381,127.956C67.058,127.956 69.228,125.786 69.228,123.11C69.228,120.433 67.058,118.264 64.381,118.264C61.705,118.264 59.535,120.433 59.535,123.11C59.535,125.786 61.705,127.956 64.381,127.956Z" fill="#FFFFFF"/>
<path d="M68.903,123.11C68.898,124.272 68.443,125.388 67.634,126.222C66.824,127.057 65.723,127.545 64.562,127.586C63.4,127.626 62.268,127.216 61.402,126.44C60.536,125.664 60.005,124.583 59.918,123.424C59.832,122.265 60.198,121.117 60.939,120.222C61.68,119.326 62.739,118.752 63.894,118.621C65.049,118.489 66.211,118.809 67.134,119.515C68.058,120.22 68.673,121.256 68.85,122.405C68.886,122.638 68.904,122.874 68.903,123.11C68.903,123.53 69.559,123.53 69.559,123.11C69.562,121.771 69.047,120.483 68.122,119.515C67.196,118.548 65.932,117.976 64.595,117.92C63.257,117.864 61.949,118.327 60.946,119.213C59.942,120.1 59.321,121.34 59.212,122.674C59.102,124.008 59.513,125.333 60.359,126.371C61.205,127.409 62.419,128.08 63.748,128.242C65.077,128.404 66.417,128.046 67.488,127.242C68.559,126.438 69.277,125.251 69.492,123.93C69.534,123.659 69.556,123.384 69.559,123.11C69.556,122.69 68.905,122.69 68.903,123.11Z" fill="#FFFFFF"/>
<path d="M76.152,69.812L56.4,69.812C55.663,69.812 55.066,70.408 55.066,71.145L55.066,88.937C55.066,89.674 55.663,90.271 56.4,90.271L76.152,90.271C76.888,90.271 77.485,89.674 77.485,88.937L77.485,71.145C77.485,70.408 76.888,69.812 76.152,69.812Z" fill="#FFFFFF"/>
<path d="M95.492,102.5C94.618,99.447 94.043,96.316 93.775,93.152C93.611,91.12 93.58,88.975 94.52,87.164C93.843,86.931 93.106,87 92.388,87.036C89.256,87.216 86.114,86.911 83.076,86.13C83.185,86.754 83.11,87.397 82.86,87.98C82.609,88.562 82.194,89.059 81.665,89.41C80.873,89.916 79.909,90.044 79.002,90.289C77.278,90.753 75.709,91.655 74.162,92.547C72.89,93.282 71.593,94.034 70.61,95.127C69.954,95.853 69.462,96.714 68.736,97.372Z" fill="#A7CB16"/>
<path d="M95.602,102.474C95.053,100.448 94.623,98.391 94.316,96.314C94.166,95.291 94.049,94.263 93.967,93.232C93.878,92.278 93.859,91.319 93.91,90.362C93.959,89.289 94.227,88.238 94.699,87.273C94.714,87.245 94.723,87.214 94.725,87.183C94.727,87.151 94.722,87.119 94.71,87.09C94.698,87.061 94.68,87.034 94.656,87.013C94.632,86.992 94.604,86.976 94.574,86.968C93.892,86.743 93.173,86.784 92.465,86.825C91.719,86.868 90.969,86.886 90.221,86.874C88.701,86.851 87.185,86.714 85.685,86.464C84.827,86.32 83.977,86.14 83.137,85.925C83.1,85.915 83.061,85.915 83.024,85.926C82.987,85.936 82.954,85.955 82.927,85.982C82.9,86.009 82.88,86.043 82.87,86.079C82.86,86.116 82.86,86.155 82.869,86.192C82.957,86.72 82.905,87.263 82.717,87.765C82.53,88.266 82.214,88.71 81.802,89.052C81.319,89.446 80.713,89.642 80.117,89.797C79.488,89.961 78.854,90.089 78.238,90.3C76.975,90.733 75.794,91.368 74.638,92.029C73.536,92.657 72.416,93.275 71.425,94.072C70.883,94.512 70.395,95.015 69.971,95.569C69.531,96.137 69.118,96.735 68.601,97.239C68.422,97.414 68.69,97.675 68.875,97.511C69.346,97.069 69.77,96.581 70.143,96.053C70.525,95.534 70.959,95.056 71.438,94.625C72.422,93.762 73.595,93.126 74.718,92.476C75.927,91.784 77.159,91.107 78.49,90.672C79.694,90.279 81.064,90.202 82.082,89.378C82.557,88.983 82.918,88.469 83.129,87.888C83.341,87.308 83.394,86.682 83.284,86.074L83.018,86.341C85.951,87.093 88.979,87.407 92.004,87.271C92.824,87.233 93.674,87.107 94.464,87.368L94.341,87.063C93.45,88.813 93.405,90.81 93.552,92.727C93.717,94.847 94.027,96.954 94.479,99.031C94.732,100.212 95.034,101.38 95.384,102.534C95.392,102.563 95.411,102.588 95.437,102.603C95.464,102.617 95.495,102.621 95.523,102.613C95.552,102.605 95.577,102.586 95.592,102.56C95.606,102.534 95.61,102.503 95.602,102.474Z" fill="#A7CB16"/>
<path d="M122.26,124.684L50.428,124.684C50.191,124.684 49.956,124.634 49.738,124.54C49.519,124.445 49.323,124.308 49.16,124.135C48.997,123.962 48.87,123.757 48.789,123.534C48.707,123.311 48.672,123.073 48.685,122.836C48.97,117.939 50.669,104.537 60.606,97.285C72.916,88.303 93.431,88.303 95.427,96.288C97.003,102.59 96.506,113.634 96.227,118.006C96.212,118.244 96.246,118.483 96.326,118.708C96.407,118.933 96.533,119.138 96.696,119.312C96.86,119.486 97.057,119.625 97.276,119.72C97.495,119.814 97.732,119.863 97.97,119.863L122.26,119.863L122.26,123.23Z" fill="#A7CB16"/>
<path d="M122.26,124.561L120.196,124.561L114.62,124.542C111.881,124.533 109.14,124.542 106.4,124.53C103.093,124.53 99.785,124.526 96.478,124.519L85.718,124.519L75.009,124.519L65.239,124.519L57.275,124.519L52.05,124.519C51.009,124.519 49.533,124.763 49.007,123.604C48.718,122.969 48.921,122.054 48.985,121.376C49.057,120.611 49.149,119.846 49.259,119.08C49.535,117.172 49.934,115.283 50.453,113.426C51.731,108.876 53.799,104.471 56.949,100.912C60.352,97.058 64.944,94.484 69.736,92.824C74.238,91.266 79.073,90.439 83.84,90.644C85.821,90.701 87.786,91.02 89.684,91.592C91.173,92.065 92.657,92.76 93.784,93.872C94.273,94.347 94.671,94.909 94.956,95.528C95.327,96.348 95.465,97.303 95.612,98.192C96.048,100.739 96.204,103.333 96.278,105.914C96.35,108.461 96.324,111.01 96.235,113.557C96.199,114.582 96.153,115.607 96.098,116.632C96.048,117.534 95.829,118.542 96.426,119.313C97.023,120.084 97.902,120.068 98.769,120.068L112.16,120.068C115.069,120.068 117.978,120.068 120.888,120.068L122.257,120.068L122.055,119.864L122.055,123.236C122.055,123.288 122.076,123.338 122.113,123.374C122.149,123.411 122.199,123.431 122.251,123.431C122.302,123.431 122.352,123.411 122.389,123.374C122.425,123.338 122.446,123.288 122.446,123.236C122.446,122.113 122.446,120.989 122.446,119.864C122.445,119.811 122.423,119.76 122.386,119.723C122.348,119.685 122.297,119.663 122.244,119.663L116.955,119.654C113.439,119.654 109.923,119.654 106.407,119.654L98.61,119.654C98.407,119.654 98.205,119.654 98.003,119.654C96.967,119.633 96.386,118.813 96.447,117.831C96.575,115.784 96.661,113.736 96.706,111.686C96.762,109.04 96.75,106.392 96.604,103.75C96.47,101.29 96.247,98.802 95.668,96.401C94.918,93.295 91.847,91.724 88.987,90.971C84.78,89.864 80.232,90.059 75.981,90.807C71.061,91.665 66.212,93.395 61.995,96.097C59.832,97.468 57.891,99.161 56.237,101.116C54.68,102.99 53.366,105.053 52.326,107.256C50.522,111.028 49.421,115.128 48.849,119.253C48.746,120.004 48.66,120.758 48.59,121.514C48.529,122.208 48.367,123.025 48.644,123.684C49,124.532 49.81,124.873 50.669,124.873L60.641,124.873L69.625,124.873L80.016,124.873L90.969,124.873C94.492,124.873 98.015,124.87 101.537,124.865L110.774,124.852C113.127,124.852 115.477,124.846 117.826,124.835L121.752,124.824L122.256,124.824C122.286,124.82 122.314,124.806 122.334,124.783C122.355,124.76 122.366,124.73 122.366,124.7C122.366,124.669 122.355,124.64 122.334,124.617C122.314,124.594 122.286,124.58 122.256,124.576L122.26,124.561Z" fill="#A7CB16"/>
<path d="M126.334,74.456C127.228,72.772 127.018,70.71 126.477,68.88C125.936,67.05 125.089,65.31 124.752,63.432C124.414,61.554 124.689,59.416 126.08,58.112C127.064,57.185 128.443,56.826 129.757,56.5C132.414,55.844 135.087,55.188 137.816,54.97C138.267,54.933 138.78,54.933 139.095,55.258C139.285,55.493 139.402,55.778 139.431,56.078C139.815,58.149 139.831,60.273 139.697,62.374C139.592,64.032 139.225,65.944 137.755,66.72C136.318,67.479 134.093,66.999 133.375,68.455C133.181,68.847 133.161,69.297 133.145,69.733L133.027,72.941Z" fill="#A7CB16"/>
<path d="M126.444,74.517C127.246,72.998 127.193,71.219 126.82,69.584C126.403,67.766 125.58,66.076 125.121,64.27C124.732,62.745 124.629,61.038 125.285,59.568C125.601,58.852 126.118,58.242 126.772,57.812C127.477,57.351 128.286,57.088 129.094,56.872C130.972,56.368 132.878,55.916 134.79,55.571C135.767,55.39 136.752,55.259 137.742,55.178C138.104,55.148 138.55,55.101 138.865,55.322C139.223,55.573 139.248,56.142 139.311,56.532C139.639,58.5 139.639,60.511 139.495,62.492C139.4,63.821 139.156,65.444 138.032,66.318C136.991,67.129 135.548,66.922 134.367,67.383C134.08,67.481 133.818,67.643 133.601,67.855C133.384,68.068 133.217,68.326 133.112,68.611C132.961,69.047 132.966,69.525 132.948,69.979L132.893,71.463L132.84,72.947C132.83,73.193 133.214,73.193 133.222,72.947C133.262,71.904 133.3,70.861 133.339,69.818C133.357,69.364 133.36,68.88 133.591,68.472C133.735,68.222 133.947,68.017 134.201,67.881C134.759,67.573 135.43,67.502 136.05,67.402C136.706,67.297 137.376,67.181 137.957,66.843C139.238,66.1 139.662,64.547 139.83,63.176C140.029,61.239 140.029,59.286 139.83,57.349C139.772,56.867 139.708,56.38 139.608,55.904C139.528,55.524 139.372,55.153 139.023,54.948C138.674,54.743 138.285,54.743 137.914,54.766C137.407,54.799 136.901,54.856 136.399,54.922C134.388,55.186 132.415,55.647 130.449,56.134C128.809,56.539 126.962,56.883 125.765,58.176C124.709,59.314 124.366,60.947 124.463,62.461C124.697,66.105 127.5,69.4 126.685,73.149C126.592,73.583 126.442,74.002 126.239,74.397C126.17,74.533 126.373,74.653 126.444,74.517Z" fill="#A7CB16"/>
<path d="M133.145,69.739C133.137,69.328 133.204,68.919 133.343,68.532C132.884,67.896 132.225,67.394 131.457,67.278C130.839,67.186 130.211,67.347 129.629,67.573C128.518,68.014 127.503,68.666 126.641,69.493C127.049,71.16 127.133,72.957 126.334,74.458L133.027,72.947L133.145,69.739Z" fill="#000000"/>
<path d="M133.309,69.739C133.306,69.403 133.35,69.068 133.439,68.744C133.483,68.604 133.537,68.526 133.447,68.399C133.365,68.284 133.275,68.174 133.178,68.071C132.808,67.658 132.334,67.353 131.805,67.188C130.595,66.832 129.248,67.465 128.228,68.078C127.617,68.448 127.046,68.882 126.526,69.372C126.505,69.393 126.489,69.419 126.482,69.448C126.474,69.477 126.475,69.507 126.483,69.536C126.869,71.128 126.975,72.88 126.193,74.376C126.177,74.404 126.17,74.436 126.172,74.468C126.175,74.5 126.186,74.531 126.206,74.556C126.225,74.582 126.252,74.601 126.282,74.611C126.313,74.622 126.346,74.623 126.377,74.615L132.253,73.288L133.073,73.105C133.108,73.095 133.139,73.073 133.161,73.043C133.183,73.014 133.194,72.977 133.193,72.941C133.232,71.871 133.272,70.802 133.312,69.733C133.312,69.523 132.994,69.523 132.984,69.733C132.945,70.802 132.905,71.871 132.865,72.941L132.984,72.777L127.11,74.103L126.29,74.287L126.473,74.527C127.293,72.95 127.205,71.119 126.801,69.443L126.759,69.607C127.673,68.726 128.763,68.051 129.958,67.625C130.569,67.42 131.22,67.324 131.841,67.538C132.393,67.752 132.869,68.126 133.206,68.613L133.189,68.488C133.049,68.889 132.98,69.312 132.986,69.738C132.974,69.948 133.301,69.948 133.309,69.739Z" fill="#000000"/>
<path d="M83.907,90.269L57.339,90.269C56.639,90.269 55.967,90.547 55.471,91.043C54.976,91.538 54.697,92.21 54.697,92.911C54.697,93.465 54.872,94.005 55.195,94.454C55.519,94.903 55.976,95.24 56.501,95.415L56.585,95.443C57.713,95.82 58.794,96.973 58.389,98.09C57.803,99.712 54.448,103.32 54.807,103.32Z" fill="#A7CB16"/>
<path d="M83.907,90.146L82.551,90.133C81.372,90.123 80.191,90.108 79.012,90.103L74.133,90.087C72.325,90.087 70.515,90.087 68.705,90.087L63.584,90.087L59.568,90.087L57.475,90.087C56.935,90.073 56.4,90.204 55.926,90.464C55.411,90.766 55.004,91.22 54.759,91.763C54.515,92.307 54.446,92.913 54.561,93.498C54.688,94.116 55.018,94.674 55.498,95.084C55.735,95.285 56.003,95.447 56.291,95.563C56.569,95.658 56.839,95.775 57.098,95.912C57.644,96.24 58.182,96.78 58.271,97.437C58.335,97.908 58.097,98.336 57.866,98.728C57.329,99.587 56.735,100.409 56.088,101.188C55.803,101.552 55.512,101.915 55.229,102.279C55.03,102.519 54.847,102.772 54.679,103.035C54.578,103.199 54.515,103.495 54.806,103.513C55.055,103.528 55.055,103.138 54.806,103.123C54.884,103.123 54.96,103.241 54.97,103.287C54.999,103.389 54.947,103.302 54.97,103.3C54.989,103.263 54.991,103.259 55.002,103.24C55.066,103.135 55.14,103.035 55.214,102.935C55.443,102.625 55.686,102.325 55.926,102.023C56.56,101.221 57.2,100.42 57.774,99.574C58.304,98.794 58.922,97.887 58.525,96.914C58.258,96.321 57.803,95.832 57.231,95.522C56.984,95.392 56.728,95.282 56.464,95.194C56.165,95.082 55.892,94.911 55.66,94.692C55.298,94.353 55.048,93.912 54.943,93.427C54.838,92.943 54.883,92.438 55.072,91.98C55.261,91.521 55.585,91.131 56,90.861C56.416,90.592 56.904,90.455 57.4,90.469L59.173,90.469L62.896,90.469L67.816,90.469L73.154,90.469C74.804,90.469 76.453,90.459 78.103,90.454C79.374,90.454 80.645,90.438 81.916,90.426L83.822,90.408L83.907,90.408C83.938,90.405 83.966,90.39 83.986,90.367C84.006,90.345 84.018,90.315 84.018,90.284C84.018,90.254 84.006,90.224 83.986,90.202C83.966,90.179 83.938,90.164 83.907,90.161L83.907,90.146Z" fill="#A7CB16"/>
<path d="M95.845,69.231C95.801,69.273 95.765,69.323 95.74,69.379C95.715,69.435 95.702,69.495 95.7,69.556C95.699,69.617 95.709,69.677 95.731,69.734C95.753,69.791 95.786,69.843 95.828,69.887C101.79,71.184 109.401,73.111 114.075,77.267C120.868,83.312 115.661,94.246 112.261,100.632C109.686,105.47 106.976,110.232 104.13,114.916C103.904,115.289 103.668,115.7 103.727,116.132C103.828,116.873 106.013,117.714 106.069,118.461C106.124,119.244 105.291,119.609 104.661,119.773C103.825,119.992 101.691,119.689 100.829,119.753C99.482,119.853 98.056,119.599 97.865,118.026C97.669,116.386 98.41,114.818 98.656,113.234C98.844,112.019 99.03,110.805 99.241,109.595C99.771,106.586 100.458,103.608 101.301,100.671C101.857,98.717 102.464,96.776 103.105,94.848C103.845,92.606 104.438,90.726 106.62,87.153C103.287,87.214 96.058,85.821 91.715,84.729C88.573,83.945 85.28,82.882 83.248,80.36C81.291,77.93 80.904,74.525 81.501,71.461C82.098,68.398 82.728,67.014 84.175,64.245Z" fill="#FFFFFF"/>
<path d="M90.2,42.865C86.319,47.429 83.557,52.836 82.134,58.656C81.623,60.762 81.939,59.875 81.246,61.926C80.97,62.746 80.634,63.566 80.667,64.429C80.713,65.608 81.467,66.672 82.428,67.358C83.389,68.044 84.542,68.399 85.685,68.691C88.344,69.368 91.071,69.742 93.815,69.807C94.828,69.831 95.947,69.772 96.683,69.077C97.546,68.257 97.503,67.045 97.708,65.971C97.921,64.936 98.224,63.923 98.613,62.941C98.94,62.003 99.182,61.036 99.335,60.054C99.712,57.944 99.827,55.771 99.481,53.649C99.025,50.802 97.705,48.036 95.505,46.171Z" fill="#000000"/>
<path d="M90.12,42.778C87.142,46.224 84.809,50.177 83.232,54.45C82.566,56.304 82.026,58.202 81.616,60.129C81.454,60.77 81.257,61.402 81.024,62.022C80.654,63.101 80.276,64.204 80.654,65.336C81.378,67.514 83.689,68.377 85.716,68.888C88.204,69.516 90.752,69.881 93.316,69.977C94.323,70.015 95.44,70.067 96.35,69.559C97.26,69.051 97.595,68.083 97.742,67.099C97.819,66.586 97.88,66.072 97.997,65.564C98.136,64.966 98.307,64.376 98.51,63.796C98.72,63.191 98.956,62.599 99.123,61.979C99.287,61.388 99.4,60.787 99.509,60.185C99.948,57.739 100.053,55.206 99.509,52.765C99.068,50.691 98.129,48.756 96.773,47.125C96.433,46.729 96.062,46.359 95.664,46.02C95.448,45.836 95.133,46.148 95.35,46.335C96.914,47.694 98.081,49.45 98.728,51.419C99.484,53.639 99.63,56.011 99.392,58.336C99.275,59.561 99.055,60.773 98.736,61.961C98.425,63.099 97.936,64.178 97.659,65.329C97.536,65.848 97.462,66.369 97.388,66.894C97.341,67.36 97.228,67.816 97.052,68.25C96.609,69.234 95.643,69.562 94.636,69.626C93.466,69.666 92.295,69.615 91.133,69.474C89.89,69.352 88.654,69.166 87.43,68.916C86.277,68.707 85.142,68.403 84.038,68.008C83.054,67.634 82.126,67.071 81.506,66.204C81.203,65.794 80.994,65.323 80.895,64.823C80.812,64.259 80.861,63.684 81.039,63.143C81.285,62.282 81.633,61.454 81.875,60.595C82.025,60.07 82.116,59.529 82.243,58.999C82.499,57.925 82.795,56.867 83.141,55.811C84.517,51.64 86.583,47.73 89.254,44.244C89.588,43.807 89.933,43.377 90.289,42.957C90.389,42.838 90.218,42.665 90.115,42.784L90.12,42.778Z" fill="#000000"/>
<path d="M100.991,32.982C101.811,34.42 101.072,36.444 102.083,37.751C102.19,37.864 102.273,37.996 102.328,38.142C102.408,38.445 102.183,38.683 101.89,38.845C101.331,39.157 101.362,39.96 101.29,40.511C101.214,41.092 101.186,41.686 101.075,42.261C100.981,42.753 100.775,43.253 100.371,43.554C100.039,43.781 99.64,43.892 99.238,43.868C98.639,43.855 98.072,43.629 97.473,43.599C97.272,43.59 97.045,43.583 96.893,43.718C96.799,43.816 96.733,43.938 96.703,44.07C96.461,44.792 96.23,45.517 96.009,46.246C95.97,46.442 95.874,46.621 95.733,46.761C95.537,46.925 95.256,46.904 95.008,46.87C94.065,46.731 93.159,46.405 92.342,45.913C91.526,45.421 90.816,44.771 90.252,44.001C90.138,43.872 90.072,43.707 90.067,43.534C90.104,43.363 90.195,43.209 90.325,43.093C91.349,41.889 92.066,40.454 92.412,38.912C92.983,36.5 91.891,33.336 93.747,31.321C94.193,30.842 94.772,30.508 95.41,30.365C96.495,30.143 97.621,30.249 98.646,30.668C99.548,31.024 100.714,31.721 100.863,32.779Z" fill="#FFFFFF"/>
<path d="M100.883,33.046C101.573,34.322 101.085,35.859 101.583,37.187C101.635,37.327 101.698,37.463 101.772,37.594C101.865,37.758 101.998,37.892 102.1,38.051C102.347,38.468 101.844,38.614 101.608,38.84C101.167,39.252 101.188,39.936 101.116,40.48C101.063,40.92 101.031,41.361 100.971,41.792C100.939,42.187 100.833,42.572 100.66,42.929C100.209,43.749 99.294,43.737 98.484,43.568C98.085,43.462 97.675,43.407 97.263,43.404C97.101,43.405 96.944,43.46 96.816,43.559C96.688,43.658 96.596,43.797 96.555,43.954C96.402,44.378 96.271,44.815 96.135,45.246C96.068,45.458 96.001,45.671 95.935,45.884C95.89,46.089 95.822,46.288 95.733,46.478C95.53,46.833 95.008,46.684 94.684,46.62C94.307,46.541 93.936,46.431 93.577,46.292C92.523,45.892 91.582,45.244 90.831,44.403C90.713,44.27 90.6,44.134 90.494,43.993C90.387,43.852 90.195,43.637 90.29,43.421C90.4,43.241 90.533,43.076 90.684,42.929C90.81,42.765 90.93,42.614 91.045,42.451C91.271,42.129 91.477,41.792 91.66,41.443C92.362,40.129 92.748,38.669 92.785,37.179C92.814,35.804 92.647,34.391 93.008,33.043C93.175,32.373 93.522,31.762 94.011,31.275C94.616,30.727 95.398,30.415 96.214,30.396C97.066,30.355 97.917,30.506 98.703,30.839C99.323,31.076 99.88,31.453 100.332,31.939C100.544,32.18 100.686,32.473 100.744,32.789C100.773,32.953 101.021,32.884 100.998,32.718C100.793,31.263 99.054,30.488 97.792,30.206C96.935,29.997 96.04,30.007 95.189,30.233C94.447,30.454 93.799,30.916 93.349,31.545C92.47,32.749 92.425,34.306 92.432,35.737C92.432,36.474 92.458,37.213 92.393,37.945C92.31,38.743 92.115,39.525 91.812,40.269C91.494,41.096 91.059,41.873 90.52,42.576C90.31,42.848 89.921,43.147 89.901,43.516C89.882,43.885 90.229,44.242 90.454,44.511C91.486,45.723 92.881,46.57 94.433,46.924C94.785,47.004 95.205,47.112 95.566,47.02C95.968,46.917 96.101,46.556 96.211,46.2C96.348,45.748 96.489,45.297 96.634,44.847L96.855,44.173C96.937,43.929 97.009,43.767 97.295,43.757C98.177,43.726 98.999,44.191 99.889,43.96C100.699,43.749 101.119,43.032 101.265,42.253C101.419,41.433 101.429,40.595 101.557,39.775C101.611,39.447 101.721,39.147 102.013,38.965C102.305,38.783 102.557,38.535 102.521,38.179C102.494,38.006 102.415,37.844 102.297,37.715C102.167,37.557 102.057,37.384 101.969,37.2C101.823,36.868 101.729,36.516 101.69,36.155C101.593,35.408 101.623,34.647 101.475,33.904C101.408,33.552 101.285,33.214 101.111,32.902C101.032,32.761 100.817,32.885 100.894,33.028L100.883,33.046Z" fill="#000000"/>
<path d="M95.94,42.192C96.191,42.484 96.314,42.884 96.476,43.229C96.694,43.695 97.101,44.278 97.649,44.377C97.977,44.436 98.323,44.303 98.643,44.255C98.767,44.237 98.963,44.198 99.013,44.068C98.843,43.996 98.669,43.936 98.49,43.888C97.951,43.704 97.77,43.619 97.477,43.13C97.183,42.642 96.985,41.292 96.855,40.738Z" fill="#000000"/>
<path d="M95.853,42.273C96.114,42.601 96.214,43.034 96.396,43.411C96.552,43.748 96.783,44.045 97.072,44.28C97.218,44.394 97.389,44.475 97.57,44.516C97.751,44.558 97.939,44.56 98.121,44.521C98.334,44.485 98.549,44.439 98.761,44.393C98.839,44.383 98.914,44.356 98.981,44.313C99.047,44.27 99.103,44.213 99.145,44.146C99.165,44.109 99.17,44.066 99.159,44.025C99.149,43.984 99.123,43.95 99.087,43.927C98.736,43.763 98.323,43.724 97.995,43.504C97.744,43.31 97.561,43.042 97.472,42.738C97.242,42.073 97.2,41.364 96.995,40.695C96.984,40.656 96.959,40.623 96.924,40.603C96.889,40.583 96.848,40.578 96.809,40.588C96.77,40.599 96.737,40.624 96.718,40.659C96.698,40.694 96.692,40.735 96.703,40.774C96.819,41.492 96.939,42.258 97.206,42.937C97.318,43.25 97.515,43.527 97.775,43.736C98.116,43.988 98.553,44.024 98.923,44.203L98.866,43.985C98.805,44.1 98.582,44.096 98.471,44.118C98.279,44.165 98.084,44.2 97.888,44.223C97.722,44.224 97.558,44.187 97.408,44.116C97.258,44.044 97.127,43.938 97.024,43.808C96.57,43.307 96.448,42.614 96.012,42.109C95.915,41.995 95.765,42.156 95.848,42.273L95.853,42.273Z" fill="#000000"/>
<path d="M100.391,36.572L100.391,36.554C100.392,36.538 100.392,36.522 100.391,36.506C100.38,36.474 100.363,36.444 100.34,36.418C100.296,36.376 100.237,36.353 100.176,36.352C100.158,36.351 100.139,36.351 100.12,36.352L100.097,36.352C100.072,36.361 100.047,36.373 100.024,36.387C99.978,36.417 99.94,36.456 99.912,36.503C99.886,36.551 99.871,36.604 99.868,36.659C99.863,36.716 99.875,36.772 99.901,36.823C99.913,36.845 99.927,36.866 99.945,36.884C99.953,36.894 99.963,36.903 99.974,36.91C99.984,36.918 99.995,36.926 100.006,36.933C100.056,36.96 100.113,36.97 100.17,36.961C100.203,36.956 100.235,36.946 100.265,36.931C100.288,36.92 100.308,36.904 100.325,36.885C100.339,36.871 100.351,36.856 100.361,36.839C100.38,36.81 100.389,36.776 100.389,36.741C100.39,36.702 100.379,36.663 100.358,36.629L100.334,36.595L100.299,36.57L100.26,36.552C100.238,36.547 100.216,36.547 100.194,36.552C100.18,36.552 100.166,36.556 100.153,36.562C100.14,36.567 100.127,36.574 100.117,36.584C100.106,36.592 100.096,36.602 100.088,36.613C100.073,36.629 100.063,36.648 100.058,36.669L100.074,36.628C100.075,36.632 100.075,36.637 100.074,36.641L100.101,36.606L100.058,36.662L100.086,36.626C100.081,36.631 100.077,36.636 100.071,36.641L100.107,36.613L100.088,36.625L100.13,36.606L100.102,36.615L100.15,36.615L100.124,36.615L100.17,36.615L100.148,36.615L100.189,36.633C100.183,36.631 100.177,36.628 100.173,36.623L100.207,36.651C100.201,36.646 100.195,36.639 100.191,36.633L100.217,36.669C100.212,36.661 100.208,36.653 100.204,36.644L100.22,36.685C100.216,36.675 100.212,36.664 100.211,36.652L100.211,36.697C100.209,36.681 100.209,36.665 100.211,36.649L100.211,36.695C100.214,36.679 100.218,36.664 100.224,36.649L100.207,36.688C100.216,36.67 100.226,36.652 100.237,36.634L100.212,36.669C100.22,36.657 100.229,36.647 100.24,36.639L100.207,36.666C100.216,36.658 100.226,36.651 100.237,36.646L100.201,36.662L100.229,36.654L100.188,36.654L100.216,36.654L100.175,36.654L100.202,36.662L100.166,36.647L100.214,36.666L100.227,36.666L100.193,36.651C100.199,36.652 100.205,36.656 100.209,36.661L100.183,36.639L100.196,36.652L100.176,36.626C100.19,36.649 100.212,36.667 100.237,36.677C100.263,36.687 100.291,36.687 100.317,36.677C100.338,36.67 100.357,36.66 100.373,36.646C100.396,36.621 100.41,36.589 100.411,36.556L100.391,36.572Z" fill="#000000"/>
<path d="M100.747,35.588C100.735,35.508 100.65,35.449 100.583,35.404C100.575,35.404 100.53,35.362 100.519,35.365L100.54,35.381L100.488,35.34C100.46,35.327 100.432,35.315 100.402,35.306C100.276,35.275 100.147,35.26 100.017,35.26L100.096,35.27L100.083,35.27L100.004,35.85C100.086,35.85 100.168,35.837 100.252,35.837C100.334,35.839 100.417,35.846 100.499,35.857L100.419,35.847L100.435,35.847L100.516,35.258C100.374,35.249 100.232,35.249 100.091,35.258L99.883,35.278C99.789,35.283 99.696,35.298 99.605,35.321C99.566,35.331 99.53,35.348 99.497,35.372C99.465,35.397 99.438,35.427 99.418,35.462C99.398,35.497 99.385,35.536 99.38,35.576C99.375,35.616 99.378,35.656 99.389,35.695C99.4,35.734 99.418,35.77 99.444,35.802C99.469,35.833 99.5,35.859 99.536,35.879C99.571,35.898 99.61,35.91 99.65,35.914C99.69,35.918 99.731,35.913 99.769,35.901L99.837,35.882C99.888,35.867 99.933,35.838 99.968,35.797C100.002,35.757 100.025,35.708 100.032,35.655C100.038,35.602 100.03,35.549 100.007,35.501C99.984,35.453 99.948,35.413 99.902,35.385L99.842,35.35L99.689,35.913C99.791,35.903 99.891,35.877 99.992,35.862L99.912,35.873C100.113,35.849 100.317,35.845 100.519,35.864C100.558,35.863 100.597,35.856 100.634,35.84C100.67,35.825 100.703,35.803 100.73,35.775C100.776,35.728 100.805,35.668 100.814,35.603C100.825,35.531 100.809,35.458 100.769,35.398C100.729,35.337 100.669,35.294 100.599,35.275C100.377,35.235 100.15,35.235 99.928,35.275C99.888,35.286 99.851,35.306 99.818,35.332C99.786,35.359 99.76,35.393 99.742,35.43C99.724,35.468 99.714,35.509 99.713,35.551C99.712,35.593 99.72,35.635 99.737,35.673C99.75,35.711 99.772,35.745 99.801,35.773C99.829,35.802 99.863,35.823 99.901,35.837C99.943,35.854 99.989,35.862 100.034,35.859C100.08,35.857 100.124,35.844 100.165,35.823L100.176,35.823L100.107,35.852C100.186,35.833 100.266,35.818 100.347,35.808L100.278,35.816L100.363,35.816C100.393,35.816 100.43,35.816 100.453,35.801C100.476,35.786 100.47,35.793 100.434,35.801L100.494,35.801L100.476,35.801L100.498,35.801C100.545,35.813 100.594,35.813 100.642,35.801C100.681,35.789 100.714,35.762 100.735,35.726C100.755,35.69 100.761,35.648 100.752,35.608L100.747,35.588Z" fill="#000000"/>
<path d="M95.466,36.398L95.486,36.398C95.507,36.398 95.463,36.387 95.486,36.398C95.496,36.407 95.508,36.414 95.52,36.419L95.535,36.433L95.548,36.449C95.564,36.465 95.532,36.424 95.548,36.449C95.556,36.46 95.563,36.472 95.569,36.483L95.579,36.505C95.579,36.516 95.568,36.475 95.579,36.505C95.59,36.536 95.598,36.567 95.602,36.6L95.602,36.565C95.609,36.611 95.609,36.657 95.602,36.703L95.602,36.665L95.602,36.687L95.615,36.654C95.619,36.647 95.625,36.642 95.632,36.638C95.643,36.63 95.643,36.63 95.632,36.638L95.664,36.624L95.65,36.624L95.686,36.624C95.681,36.626 95.676,36.626 95.671,36.624L95.707,36.624L95.699,36.624L95.732,36.639C95.746,36.648 95.759,36.661 95.768,36.675L95.781,36.708C95.78,36.704 95.78,36.7 95.781,36.697L95.781,36.734L95.781,36.772C95.78,36.768 95.78,36.764 95.781,36.761L95.766,36.793L95.766,36.784L95.743,36.811L95.753,36.803L95.725,36.825L95.735,36.825L95.702,36.838L95.715,36.838L95.678,36.838L95.702,36.838L95.664,36.838C95.69,36.845 95.715,36.85 95.742,36.852C95.768,36.852 95.794,36.844 95.817,36.828C95.839,36.813 95.856,36.792 95.866,36.767C95.877,36.742 95.88,36.715 95.875,36.688C95.87,36.662 95.857,36.637 95.838,36.618C95.811,36.593 95.777,36.575 95.741,36.566C95.704,36.558 95.666,36.559 95.63,36.57C95.592,36.582 95.559,36.605 95.534,36.636C95.51,36.668 95.497,36.706 95.496,36.746C95.497,36.783 95.51,36.819 95.534,36.849C95.557,36.878 95.589,36.9 95.625,36.91C95.657,36.918 95.691,36.917 95.723,36.908C95.755,36.898 95.784,36.881 95.807,36.857C95.838,36.814 95.858,36.763 95.864,36.711C95.871,36.658 95.865,36.604 95.847,36.554C95.829,36.47 95.791,36.391 95.737,36.324C95.682,36.256 95.604,36.21 95.519,36.193C95.489,36.185 95.457,36.19 95.43,36.205C95.404,36.22 95.386,36.245 95.377,36.274C95.369,36.303 95.373,36.334 95.388,36.361C95.404,36.387 95.428,36.406 95.458,36.415L95.466,36.398Z" fill="#000000"/>
<path d="M98.525,39.257C98.511,39.403 98.539,39.55 98.605,39.681C98.66,39.818 98.735,39.945 98.826,40.06C98.997,40.283 99.23,40.45 99.496,40.539C99.53,40.548 99.567,40.545 99.599,40.529C99.632,40.513 99.657,40.486 99.671,40.453C99.685,40.42 99.686,40.383 99.675,40.349C99.664,40.314 99.641,40.285 99.61,40.267C99.499,40.22 99.394,40.16 99.295,40.09C99.295,40.09 99.268,40.069 99.282,40.09L99.245,40.059L99.174,39.993C99.132,39.952 99.092,39.908 99.054,39.862L99.017,39.809C99,39.785 98.984,39.76 98.969,39.736C98.938,39.683 98.91,39.628 98.885,39.572C98.866,39.525 98.849,39.476 98.835,39.427C98.821,39.358 98.8,39.289 98.772,39.224C98.758,39.202 98.738,39.184 98.714,39.173C98.691,39.162 98.664,39.158 98.638,39.161C98.612,39.165 98.588,39.176 98.567,39.192C98.547,39.209 98.533,39.232 98.525,39.257Z" fill="#000000"/>
<path d="M101.496,33.197C100.716,33.471 99.95,33.786 99.174,34.071C98.549,34.301 97.877,34.488 97.454,35.055C96.855,35.867 97.001,37.023 96.952,37.982C96.888,39.219 96.878,40.459 96.855,41.695C96.847,42.091 96.814,42.542 96.511,42.783C95.794,43.355 94.553,42.866 93.803,42.601C92.199,42.035 90.533,41.084 89.718,39.529C88.699,37.584 88.042,35.283 88.649,33.162C89.091,31.712 90.031,30.463 91.302,29.636C92.555,28.833 93.995,28.37 95.481,28.292C96.939,28.192 98.489,28.431 99.745,29.221C101.001,30.012 102.787,32.808 101.488,33.194Z" fill="#A7CB16"/>
<path d="M101.457,33.054C100.617,33.338 99.792,33.669 98.956,33.961C98.318,34.184 97.644,34.43 97.241,35.006C96.837,35.581 96.77,36.347 96.757,37.046C96.739,37.884 96.701,38.72 96.68,39.558C96.669,40.018 96.661,40.476 96.657,40.933C96.678,41.342 96.666,41.752 96.621,42.159C96.601,42.321 96.53,42.471 96.418,42.589C96.307,42.707 96.16,42.786 96.001,42.815C95.674,42.878 95.338,42.866 95.017,42.779C94.368,42.623 93.736,42.407 93.127,42.133C92.466,41.856 91.843,41.495 91.274,41.059C90.709,40.627 90.24,40.083 89.897,39.46C89.502,38.73 89.185,37.96 88.95,37.164C88.506,35.629 88.43,33.953 89.1,32.469C90.428,29.525 93.856,28.192 96.936,28.493C97.738,28.565 98.519,28.784 99.241,29.141C99.741,29.398 100.187,29.749 100.553,30.174C100.928,30.593 101.245,31.06 101.495,31.563C101.659,31.891 101.872,32.383 101.752,32.757C101.73,32.825 101.692,32.887 101.641,32.936C101.59,32.986 101.527,33.022 101.459,33.041C101.259,33.103 101.344,33.418 101.546,33.354C102.592,33.026 101.993,31.68 101.626,31.045C101.324,30.524 100.955,30.045 100.527,29.622C100.053,29.166 99.49,28.813 98.874,28.584C97.316,27.967 95.533,27.972 93.918,28.344C92.302,28.716 90.813,29.525 89.746,30.786C88.687,32.028 88.149,33.631 88.242,35.26C88.294,36.12 88.467,36.968 88.754,37.781C89.007,38.582 89.363,39.348 89.811,40.059C90.658,41.32 92.02,42.125 93.41,42.665C94.049,42.912 94.721,43.171 95.405,43.237C96.089,43.303 96.817,43.063 96.991,42.328C97.063,41.909 97.091,41.484 97.075,41.059C97.088,40.567 97.096,40.09 97.108,39.604C97.127,38.732 97.163,37.859 97.183,36.98C97.201,36.219 97.295,35.331 97.946,34.83C98.247,34.617 98.579,34.451 98.93,34.338C99.351,34.174 99.769,34.01 100.186,33.846C100.632,33.668 101.08,33.49 101.531,33.326C101.71,33.262 101.636,32.977 101.452,33.039L101.457,33.054Z" fill="#A7CB16"/>
<path d="M88.785,43.706C89.177,43.365 89.551,42.999 89.92,42.632C90.192,42.361 90.248,42.294 90.613,42.404C91.742,42.743 92.847,43.283 93.915,43.777C94.712,44.146 95.504,44.518 96.299,44.89C96.45,44.961 96.614,44.97 96.758,45.033C97.062,45.162 97.004,45.22 96.995,45.579C96.995,46.194 96.937,46.807 96.819,47.411C96.691,47.988 96.273,48.008 95.705,47.921C94.448,47.739 93.229,47.351 92.097,46.773C91.227,46.328 90.259,45.871 89.572,45.156C89.255,44.828 88.858,44.462 88.665,44.042C88.692,44.064 88.713,44.094 88.724,44.127Z" fill="#A7CB16"/>
<path d="M88.867,43.788C89.155,43.545 89.437,43.296 89.713,43.034L90.074,42.694C90.156,42.617 90.238,42.517 90.357,42.517C90.493,42.533 90.626,42.569 90.751,42.625C90.935,42.686 91.118,42.752 91.299,42.82C91.661,42.958 92.019,43.111 92.373,43.27C93.05,43.575 93.723,43.895 94.395,44.211L95.441,44.703C95.753,44.874 96.077,45.019 96.412,45.136C96.506,45.161 96.724,45.18 96.79,45.266C96.819,45.303 96.806,45.366 96.804,45.42C96.79,45.767 96.783,46.114 96.757,46.46C96.752,46.808 96.697,47.155 96.593,47.488C96.556,47.578 96.491,47.654 96.407,47.704C96.323,47.754 96.226,47.776 96.129,47.765C95.819,47.757 95.511,47.718 95.209,47.649C94.881,47.585 94.553,47.507 94.225,47.414C93.538,47.218 92.87,46.959 92.232,46.638C91.566,46.329 90.926,45.968 90.316,45.559C90.022,45.34 89.748,45.096 89.496,44.829C89.225,44.578 88.996,44.284 88.819,43.959L88.55,44.165L88.581,44.216C88.68,44.413 88.975,44.239 88.877,44.042C88.855,43.998 88.826,43.958 88.791,43.922C88.653,43.773 88.442,43.963 88.522,44.131C88.69,44.444 88.905,44.73 89.16,44.977C89.401,45.239 89.66,45.484 89.934,45.71C90.53,46.146 91.166,46.523 91.833,46.837C92.511,47.191 93.219,47.484 93.949,47.713C94.332,47.829 94.721,47.925 95.113,48.001C95.439,48.08 95.771,48.129 96.106,48.149C96.226,48.158 96.347,48.144 96.462,48.107C96.577,48.069 96.683,48.009 96.775,47.931C96.998,47.713 97.04,47.376 97.086,47.083C97.143,46.686 97.177,46.286 97.188,45.886C97.188,45.658 97.272,45.308 97.16,45.093C97.031,44.844 96.691,44.816 96.455,44.736C96.055,44.576 95.664,44.396 95.284,44.195C94.508,43.837 93.734,43.476 92.957,43.125C92.539,42.937 92.117,42.755 91.689,42.589C91.299,42.44 90.869,42.241 90.451,42.194C90.123,42.158 89.943,42.394 89.738,42.607C89.41,42.955 89.065,43.299 88.708,43.624C88.596,43.724 88.758,43.88 88.872,43.788L88.867,43.788Z" fill="#000000"/>
<path d="M97.219,35.647C97.085,36.997 96.996,38.35 96.909,39.703C96.867,40.378 96.825,41.055 96.785,41.731C96.76,42.153 96.717,42.715 96.293,42.919C96.15,42.989 96.252,43.247 96.402,43.18C96.85,42.999 97.042,42.555 97.109,42.102C97.209,41.433 97.211,40.743 97.25,40.069C97.336,38.593 97.414,37.117 97.457,35.641C97.457,35.488 97.237,35.495 97.222,35.641L97.219,35.647Z" fill="#000000"/>
<path d="M97.977,34.907C98.828,34.658 99.666,34.356 100.491,34.033C100.873,33.882 101.265,33.743 101.639,33.571C101.924,33.44 102.22,33.146 102.079,32.805C102.064,32.762 102.034,32.726 101.994,32.705C101.954,32.684 101.907,32.678 101.864,32.69C101.82,32.702 101.783,32.731 101.759,32.769C101.736,32.808 101.728,32.854 101.737,32.898C101.8,33.217 101.204,33.371 100.994,33.461C100.666,33.607 100.32,33.745 99.979,33.881C99.295,34.155 98.605,34.417 97.918,34.684C97.783,34.737 97.833,34.95 97.979,34.907L97.977,34.907Z" fill="#000000"/>
<path d="M95.763,69.149C95.569,69.347 95.478,69.774 95.737,69.969C95.886,70.042 96.047,70.087 96.212,70.103L96.868,70.258C97.715,70.451 98.557,70.651 99.399,70.864C101.178,71.314 102.946,71.814 104.683,72.411C108.035,73.559 111.456,75.086 114.087,77.523C115.228,78.569 116.093,79.882 116.604,81.344C117.069,82.758 117.268,84.246 117.189,85.733C117.066,88.949 116.023,92.096 114.772,95.035C113.417,98.218 111.735,101.267 110.065,104.284C108.958,106.294 107.826,108.287 106.671,110.264C106.1,111.248 105.523,112.225 104.939,113.196C104.641,113.691 104.343,114.183 104.045,114.672C103.809,115.061 103.54,115.472 103.522,115.941C103.499,116.545 104.063,116.925 104.506,117.234C104.783,117.435 105.072,117.622 105.34,117.834C105.523,117.978 105.777,118.162 105.859,118.388C106.118,119.111 104.962,119.536 104.452,119.617C103.741,119.735 102.976,119.641 102.269,119.6C101.91,119.579 101.55,119.556 101.19,119.553C100.873,119.553 100.558,119.585 100.24,119.579C99.558,119.566 98.764,119.415 98.352,118.824C97.808,118.049 98.024,116.856 98.205,116C98.431,114.946 98.744,113.923 98.91,112.853C99.259,110.61 99.63,108.371 100.117,106.154C100.604,103.937 101.19,101.709 101.837,99.518C102.402,97.604 103.005,95.7 103.648,93.808C104.105,92.446 104.662,91.12 105.316,89.841C105.77,88.962 106.265,88.106 106.78,87.261C106.797,87.232 106.806,87.198 106.806,87.165C106.806,87.131 106.797,87.098 106.781,87.068C106.764,87.039 106.741,87.014 106.712,86.996C106.683,86.979 106.65,86.969 106.616,86.967C104.258,87.004 101.87,86.587 99.555,86.185C96.963,85.736 94.382,85.201 91.83,84.563C89.134,83.888 86.277,83.046 84.201,81.1C82.046,79.077 81.285,76.093 81.475,73.214C81.602,71.612 81.933,70.032 82.459,68.513C82.951,67.064 83.645,65.705 84.35,64.355C84.468,64.129 84.125,63.929 84.007,64.155C83.336,65.378 82.746,66.644 82.239,67.944C81.74,69.304 81.385,70.712 81.18,72.147C80.78,74.994 81.213,78.084 83.02,80.401C84.827,82.718 87.663,83.829 90.4,84.593C93.014,85.326 95.686,85.879 98.354,86.367C100.852,86.825 103.397,87.271 105.939,87.351C106.164,87.351 106.387,87.361 106.611,87.351L106.447,87.059C105.493,88.59 104.662,90.194 103.963,91.856C103.376,93.29 102.917,94.777 102.446,96.25C101.029,100.678 99.809,105.173 99.022,109.762C98.826,110.91 98.658,112.046 98.474,113.188C98.31,114.255 97.931,115.28 97.749,116.346C97.606,117.189 97.506,118.242 98.003,118.997C98.379,119.566 99.02,119.833 99.674,119.923C100.329,120.013 101.019,119.923 101.691,119.956C102.475,119.994 103.261,120.077 104.045,120.046C104.683,120.02 105.381,119.843 105.865,119.402C106.349,118.961 106.392,118.323 105.947,117.857C105.503,117.391 104.899,117.081 104.397,116.674C104.224,116.532 103.976,116.346 103.924,116.114C103.81,115.602 104.307,115.005 104.553,114.598C105.756,112.609 106.936,110.606 108.092,108.588C110.088,105.101 112.074,101.59 113.832,97.98C115.253,95.079 116.517,92.047 117.167,88.87C117.77,85.918 117.823,82.7 116.407,79.957C115.661,78.51 114.547,77.355 113.268,76.368C111.841,75.289 110.297,74.373 108.666,73.636C105.301,72.078 101.706,71.071 98.102,70.241C97.692,70.148 97.282,70.054 96.87,69.964C96.663,69.918 96.455,69.877 96.247,69.834C96.156,69.825 96.066,69.807 95.978,69.78C95.773,69.698 95.794,69.452 95.925,69.311C96.025,69.203 95.868,69.042 95.761,69.147L95.763,69.149Z" fill="#000000"/>
<path d="M127.208,55.773C128.164,54.919 129.522,54.724 130.795,54.566C131.246,54.51 131.725,54.458 132.141,54.645C132.528,54.82 132.797,55.178 133.011,55.548C133.427,56.289 133.652,57.121 133.667,57.971C133.68,58.146 133.654,58.322 133.588,58.486C133.506,58.63 133.398,58.758 133.268,58.861L132.092,59.932Z" fill="#FFFFFF"/>
<path d="M89.285,48.121C92.048,46.858 95.318,47.229 98.157,48.313C100.996,49.397 103.528,51.134 106.162,52.647C108.796,54.161 111.65,55.488 114.69,55.617C116.447,55.691 118.19,55.36 119.938,55.152C121.827,54.924 124.607,55.206 126.51,55.265C126.885,55.276 127.287,55.302 127.584,55.534C128.709,56.409 128.92,59.191 127.786,60.114C127.397,60.431 126.905,60.586 126.424,60.728C121.622,62.148 115.505,63.161 110.497,63.204C106.397,63.238 102.461,62.141 98.664,60.58C94.867,59.019 91.195,56.908 89.432,53.19C89.041,52.37 88.416,49.877 89.285,48.121Z" fill="#000000"/>
<path d="M89.344,48.216C92.284,46.904 95.682,47.452 98.564,48.649C101.621,49.922 104.304,51.891 107.213,53.451C108.617,54.229 110.102,54.852 111.641,55.307C113.228,55.751 114.882,55.905 116.524,55.763C118.126,55.632 119.707,55.288 121.316,55.261C122.775,55.238 124.232,55.352 125.688,55.425C126.027,55.443 126.369,55.448 126.708,55.468C127.033,55.461 127.349,55.578 127.59,55.796C127.923,56.165 128.147,56.619 128.237,57.108C128.445,58.017 128.435,59.37 127.613,59.994C127.026,60.441 126.21,60.588 125.514,60.782C124.786,60.983 124.055,61.171 123.32,61.346C121.768,61.713 120.206,62.024 118.633,62.277C117.059,62.531 115.48,62.723 113.895,62.855C112.36,62.997 110.817,63.042 109.277,62.989C105.932,62.837 102.669,61.944 99.564,60.729C96.957,59.709 94.333,58.477 92.245,56.572C91.238,55.666 90.4,54.588 89.772,53.389C89.274,52.374 89.03,51.254 89.062,50.125C89.057,49.467 89.197,48.816 89.47,48.218C89.585,47.978 89.229,47.768 89.113,48.008C88.519,49.234 88.555,50.684 88.842,51.99C89.103,53.172 89.692,54.225 90.423,55.184C92.132,57.426 94.584,58.948 97.114,60.104C100.142,61.495 103.368,62.597 106.67,63.094C109.9,63.586 113.19,63.353 116.415,62.948C119.621,62.557 122.793,61.927 125.904,61.064C126.605,60.867 127.38,60.701 127.953,60.213C128.314,59.867 128.555,59.414 128.642,58.922C128.865,57.89 128.719,56.618 128.074,55.753C127.924,55.534 127.723,55.355 127.487,55.232C127.149,55.099 126.787,55.037 126.424,55.05C125.704,55.025 124.986,54.979 124.268,54.938C122.803,54.858 121.316,54.774 119.858,54.947C118.07,55.163 116.281,55.501 114.474,55.391C112.806,55.289 111.179,54.817 109.644,54.171C106.518,52.859 103.766,50.84 100.763,49.289C97.898,47.813 94.644,46.751 91.392,47.329C90.646,47.462 89.92,47.689 89.231,48.004C89.091,48.068 89.213,48.272 89.35,48.209L89.344,48.216Z" fill="#000000"/>
<path d="M127.264,55.875C127.534,55.683 127.818,55.511 128.113,55.361C128.426,55.221 128.751,55.111 129.084,55.033C129.753,54.881 130.432,54.777 131.116,54.723C131.49,54.689 131.879,54.694 132.207,54.899C132.486,55.098 132.711,55.363 132.863,55.67C133.237,56.33 133.454,57.067 133.496,57.825C133.527,58.029 133.504,58.239 133.429,58.432C133.322,58.594 133.187,58.737 133.03,58.853C132.678,59.171 132.299,59.475 131.977,59.824C131.867,59.944 132.017,60.17 132.159,60.062C132.527,59.781 132.856,59.445 133.197,59.133C133.475,58.879 133.752,58.65 133.803,58.254C133.903,57.457 133.671,56.567 133.352,55.845C133.032,55.124 132.568,54.45 131.749,54.34C131.341,54.308 130.929,54.329 130.526,54.402C130.137,54.453 129.752,54.514 129.368,54.599C128.594,54.773 127.653,55.061 127.118,55.689C127.038,55.785 127.141,55.949 127.259,55.873L127.264,55.875Z" fill="#000000"/>
<path d="M130.862,56.685C130.078,56.703 129.301,57.2 129.043,57.941C128.786,58.682 129.143,59.611 129.863,59.909C130.146,60.015 130.452,60.04 130.748,59.983C131.044,59.925 131.318,59.786 131.54,59.581C131.757,59.372 131.928,59.119 132.041,58.838C132.154,58.558 132.207,58.258 132.196,57.956C132.207,57.664 132.114,57.378 131.935,57.147C131.743,56.931 131.171,56.655 130.859,56.688Z" fill="#000000"/>
<path d="M130.862,56.58C130.489,56.569 130.119,56.659 129.793,56.84C129.466,57.022 129.194,57.287 129.006,57.61C128.835,57.924 128.76,58.281 128.791,58.637C128.822,58.993 128.957,59.333 129.18,59.612C129.42,59.896 129.749,60.091 130.113,60.166C130.477,60.24 130.856,60.19 131.189,60.024C131.948,59.68 132.364,58.858 132.384,58.056C132.394,57.633 132.296,57.172 131.945,56.908C131.637,56.666 131.254,56.539 130.862,56.55C130.683,56.57 130.677,56.846 130.862,56.836C131.141,56.819 131.4,56.98 131.623,57.131C131.744,57.216 131.842,57.329 131.91,57.461C131.977,57.592 132.012,57.738 132.01,57.885C132.046,58.533 131.787,59.247 131.218,59.604C130.7,59.932 129.995,59.94 129.549,59.483C129.357,59.279 129.226,59.026 129.172,58.751C129.117,58.477 129.14,58.193 129.239,57.931C129.493,57.275 130.186,56.877 130.862,56.805C130.892,56.805 130.92,56.793 130.941,56.772C130.962,56.751 130.974,56.723 130.974,56.693C130.974,56.664 130.962,56.635 130.941,56.614C130.92,56.593 130.892,56.582 130.862,56.582L130.862,56.58Z" fill="#000000"/>
<path d="M105.706,112.286C104.243,112.078 102.667,112.561 101.81,113.749C102.085,113.245 101.706,112.584 101.18,112.351C100.653,112.119 100.05,112.187 99.481,112.269L98.792,112.365C98.748,112.654 98.703,112.946 98.656,113.239C98.41,114.823 97.672,116.396 97.865,118.031C98.056,119.604 99.482,119.858 100.829,119.758C101.691,119.694 103.825,119.997 104.662,119.777C105.291,119.613 106.124,119.244 106.069,118.465C106.013,117.719 103.828,116.878 103.727,116.137C103.668,115.705 103.904,115.294 104.13,114.921C104.659,114.043 105.185,113.165 105.706,112.286Z" fill="#000000"/>
<path d="M92.496,70.876C92.332,71.204 92.209,71.56 92.055,71.896C91.901,72.232 91.727,72.591 91.563,72.932C91.222,73.607 90.849,74.263 90.446,74.9L90.728,74.9L89.97,73.461L89.867,73.713C90.305,73.625 90.764,73.565 91.192,73.438C91.369,73.383 91.346,73.073 91.146,73.096C90.685,73.154 90.228,73.283 89.775,73.38C89.75,73.388 89.727,73.401 89.707,73.418C89.688,73.436 89.672,73.458 89.662,73.482C89.652,73.507 89.648,73.533 89.65,73.559C89.651,73.586 89.659,73.611 89.672,73.634L90.446,75.066C90.461,75.091 90.481,75.111 90.506,75.125C90.531,75.139 90.559,75.146 90.587,75.146C90.616,75.146 90.643,75.139 90.668,75.125C90.693,75.111 90.714,75.091 90.728,75.066C91.129,74.41 91.5,73.738 91.84,73.051C92.003,72.723 92.157,72.385 92.301,72.037C92.462,71.69 92.601,71.333 92.717,70.968C92.753,70.841 92.553,70.753 92.501,70.876L92.496,70.876Z" fill="#A7CB16"/>
<path d="M90.416,76.053C90.205,76.654 90.479,77.308 90.93,77.723C91.466,78.215 92.209,78.399 92.898,78.597C94.423,79.04 95.91,79.599 97.385,80.185C100.337,81.357 103.266,82.653 106.39,83.292C107.289,83.476 108.202,83.578 109.096,83.784C109.321,83.835 109.545,83.891 109.765,83.958C109.946,84.014 110.205,84.078 110.257,84.294C110.328,84.644 109.824,84.95 109.568,85.085C109.546,85.1 109.528,85.12 109.515,85.144C109.502,85.168 109.496,85.194 109.496,85.221C109.496,85.248 109.502,85.274 109.515,85.298C109.528,85.322 109.546,85.342 109.568,85.357C109.841,85.544 110.139,85.693 110.452,85.8L110.352,85.556C106.751,91.795 104.064,98.518 102.374,105.521C101.898,107.495 101.503,109.487 101.19,111.497C101.162,111.679 101.439,111.756 101.467,111.574C102.596,104.475 104.737,97.575 107.822,91.082C108.688,89.259 109.627,87.472 110.639,85.723C110.652,85.701 110.66,85.676 110.662,85.651C110.664,85.626 110.66,85.6 110.651,85.577C110.641,85.553 110.626,85.532 110.607,85.516C110.588,85.499 110.566,85.487 110.541,85.48C110.253,85.38 109.978,85.247 109.721,85.085L109.721,85.357C110.151,85.119 110.841,84.562 110.454,84.011C110.267,83.742 109.885,83.668 109.59,83.589C109.181,83.479 108.77,83.399 108.348,83.328C107.528,83.187 106.708,83.066 105.898,82.879C105.088,82.692 104.334,82.477 103.566,82.223C100.473,81.228 97.532,79.816 94.454,78.779C94.034,78.638 93.612,78.506 93.188,78.384C92.77,78.262 92.343,78.161 91.938,78.005C91.194,77.718 90.359,77.009 90.667,76.116C90.72,75.963 90.479,75.899 90.425,76.05L90.416,76.053Z" fill="#A7CB16"/>
<path d="M104.083,114.078L104.183,114.078L104.224,114.078L104.253,114.078C104.271,114.078 104.268,114.078 104.253,114.078C104.314,114.078 104.375,114.098 104.434,114.111C104.558,114.139 104.676,114.185 104.798,114.219C104.828,114.227 104.859,114.223 104.887,114.209C104.915,114.195 104.937,114.172 104.949,114.143C104.961,114.115 104.963,114.083 104.954,114.054C104.945,114.024 104.925,113.998 104.899,113.982C104.771,113.923 104.634,113.883 104.494,113.862C104.356,113.836 104.215,113.823 104.074,113.823C104.043,113.823 104.012,113.835 103.99,113.858C103.967,113.88 103.955,113.911 103.955,113.942C103.956,113.974 103.968,114.004 103.991,114.026C104.013,114.048 104.043,114.061 104.074,114.062L104.083,114.078Z" fill="#A7CB16"/>
<path d="M103.663,114.893C103.8,114.915 103.936,114.944 104.07,114.98C104.133,114.997 104.197,115.018 104.261,115.038C104.325,115.057 104.399,115.082 104.468,115.097C104.498,115.105 104.53,115.101 104.558,115.088C104.586,115.074 104.608,115.051 104.621,115.023C104.634,114.994 104.636,114.961 104.626,114.931C104.616,114.901 104.596,114.875 104.568,114.859C104.431,114.797 104.286,114.753 104.137,114.729C103.99,114.7 103.842,114.679 103.692,114.665C103.664,114.665 103.637,114.675 103.615,114.693C103.594,114.712 103.58,114.737 103.576,114.765C103.572,114.793 103.579,114.822 103.595,114.845C103.611,114.869 103.635,114.885 103.663,114.892L103.663,114.893Z" fill="#A7CB16"/>
<path d="M103.358,115.638L103.715,115.736L103.894,115.787C103.953,115.806 104.013,115.821 104.074,115.833C104.108,115.843 104.144,115.839 104.175,115.822C104.206,115.805 104.229,115.777 104.238,115.743C104.243,115.726 104.245,115.709 104.243,115.691C104.241,115.674 104.236,115.657 104.228,115.642C104.219,115.627 104.208,115.613 104.194,115.603C104.181,115.592 104.165,115.584 104.148,115.579C104.09,115.56 104.03,115.544 103.969,115.533L103.789,115.489L103.428,115.404C103.399,115.398 103.369,115.404 103.344,115.42C103.318,115.436 103.3,115.461 103.292,115.489C103.284,115.518 103.287,115.549 103.3,115.575C103.314,115.602 103.337,115.622 103.364,115.633L103.358,115.638Z" fill="#A7CB16"/>
<path d="M92.683,57.564C93.416,58.248 94.367,58.576 95.289,58.92C96.33,59.311 97.277,59.809 98.085,60.587C98.202,60.698 98.375,60.524 98.261,60.413C97.5,59.684 96.592,59.124 95.599,58.773C94.638,58.409 93.618,58.108 92.847,57.397C92.737,57.297 92.575,57.459 92.683,57.561L92.683,57.564Z" fill="#A7CB16"/>
<path d="M93.391,35.119C92.913,35.706 92.46,36.316 92.04,36.948C92.016,36.975 91.998,37.006 91.987,37.041C91.976,37.075 91.972,37.112 91.976,37.148C91.994,37.218 92.066,37.259 92.132,37.29C92.465,37.45 92.816,37.566 93.178,37.636C92.991,38.014 92.865,38.418 92.804,38.835C92.796,38.867 92.796,38.9 92.804,38.932C92.849,39.048 93.026,38.981 93.118,38.896C93.772,38.287 94.302,37.557 94.677,36.746C94.708,36.691 94.723,36.628 94.72,36.565C94.709,36.513 94.681,36.465 94.641,36.429C94.339,36.121 93.821,36.246 93.409,36.111C93.546,35.783 93.652,35.443 93.726,35.096C93.715,35.079 93.7,35.064 93.682,35.055C93.664,35.045 93.644,35.04 93.623,35.04C93.603,35.04 93.583,35.045 93.565,35.055C93.547,35.064 93.532,35.079 93.521,35.096Z" fill="#FFFFFF"/>
<path d="M122.26,123.23L122.26,119.858L115.264,119.858C115.256,121.613 115.284,123.239 115.349,124.684L122.26,124.684L122.26,123.23Z" fill="#000000"/>
<path d="M122.423,123.23L122.423,119.858C122.423,119.814 122.405,119.773 122.375,119.742C122.344,119.711 122.302,119.694 122.259,119.694L115.264,119.694C115.221,119.694 115.179,119.711 115.148,119.742C115.117,119.773 115.1,119.814 115.1,119.858C115.1,121.468 115.113,123.077 115.187,124.684C115.187,124.728 115.204,124.77 115.235,124.8C115.266,124.831 115.308,124.848 115.351,124.848L122.262,124.848C122.305,124.848 122.347,124.831 122.378,124.8C122.409,124.77 122.426,124.728 122.426,124.684L122.426,123.23C122.426,123.186 122.409,123.144 122.378,123.114C122.347,123.083 122.305,123.066 122.262,123.066C122.218,123.066 122.177,123.083 122.146,123.114C122.115,123.144 122.098,123.186 122.098,123.23L122.098,124.684L122.262,124.52L115.349,124.52L115.513,124.684C115.441,123.077 115.422,121.468 115.428,119.858L115.264,120.022L122.26,120.022L122.096,119.858L122.096,123.23C122.1,123.27 122.119,123.308 122.149,123.335C122.18,123.362 122.219,123.377 122.26,123.377C122.3,123.377 122.339,123.362 122.37,123.335C122.4,123.308 122.419,123.27 122.423,123.23Z" fill="#000000"/>
<path d="M96.699,82.6C91.989,82.279 87.273,82.095 82.549,82.049C82.267,82.018 81.982,82.071 81.729,82.202C81.604,82.3 81.502,82.424 81.429,82.566C81.356,82.707 81.314,82.863 81.306,83.022C81.157,84.353 82.192,85.524 83.294,86.287C85.385,87.717 87.897,88.403 90.425,88.232C92.947,88.041 95.347,87.067 97.288,85.444C97.815,85.008 98.341,84.449 98.346,83.765C98.351,83.081 97.491,82.453 96.97,82.889Z" fill="#000000"/>
<path d="M96.699,82.474C93.615,82.235 90.526,82.06 87.433,81.951C85.887,81.897 84.34,81.852 82.794,81.834C82.179,81.826 81.529,81.834 81.237,82.477C81.001,82.995 81.046,83.635 81.237,84.163C81.642,85.323 82.648,86.161 83.663,86.787C84.791,87.476 86.03,87.963 87.325,88.225C89.917,88.74 92.605,88.382 94.972,87.209C95.562,86.919 96.127,86.584 96.663,86.205C97.196,85.86 97.677,85.44 98.092,84.96C98.43,84.535 98.697,83.947 98.5,83.402C98.42,83.178 98.279,82.981 98.092,82.832C97.906,82.684 97.682,82.59 97.446,82.563C97.227,82.551 97.012,82.625 96.847,82.769C96.683,82.899 96.903,83.182 97.068,83.058C97.437,82.777 97.888,83.092 98.062,83.45C98.303,83.942 97.954,84.501 97.623,84.859C97.217,85.273 96.766,85.641 96.278,85.956C95.784,86.294 95.265,86.595 94.726,86.856C92.554,87.925 90.098,88.278 87.712,87.865C86.514,87.652 85.36,87.241 84.296,86.651C83.312,86.108 82.328,85.401 81.803,84.385C81.54,83.917 81.457,83.371 81.567,82.846C81.589,82.718 81.647,82.599 81.734,82.502C81.821,82.406 81.934,82.336 82.059,82.302C82.37,82.252 82.685,82.242 82.999,82.271C84.411,82.284 85.821,82.3 87.232,82.335C90.038,82.4 92.843,82.51 95.645,82.663C95.997,82.681 96.349,82.701 96.701,82.722C96.865,82.731 96.865,82.484 96.701,82.471L96.699,82.474Z" fill="#000000"/>
<path d="M119.776,124.684C118.718,115.469 120.542,91.402 122.314,82.295C122.792,79.848 123.417,77.397 124.61,75.209C125.804,73.021 127.633,71.099 129.959,70.199C130.541,69.972 131.169,69.812 131.787,69.903C132.706,70.041 133.468,70.733 133.919,71.543C134.37,72.354 134.565,73.282 134.739,74.195C136.612,83.791 134.985,107.912 134.569,117.717C134.487,119.593 133.683,121.365 132.327,122.663C130.97,123.961 129.165,124.685 127.287,124.684L120.988,124.684Z" fill="#A7CB16"/>
<path d="M119.897,124.684C119.51,121.23 119.569,117.718 119.643,114.247C119.746,109.752 120,105.26 120.345,100.776C120.673,96.522 121.08,92.271 121.627,88.037C121.837,86.412 122.07,84.786 122.36,83.173C122.836,80.524 123.449,77.836 124.729,75.448C125.95,73.165 127.935,71.001 130.488,70.248C131.203,70.036 131.935,70.035 132.587,70.427C133.147,70.785 133.592,71.298 133.868,71.903C134.36,72.913 134.524,74.077 134.698,75.183C135.277,78.869 135.354,82.646 135.384,86.371C135.425,90.963 135.307,95.555 135.139,100.147C134.983,104.396 134.774,108.64 134.56,112.886C134.479,114.484 134.403,116.08 134.332,117.677C134.266,119.381 133.587,121.003 132.419,122.246C131.251,123.489 129.674,124.268 127.977,124.44C127.502,124.486 127.023,124.476 126.546,124.478C125.032,124.478 123.517,124.478 122.003,124.492C121.665,124.492 121.326,124.492 120.988,124.492C120.938,124.492 120.891,124.512 120.855,124.547C120.82,124.582 120.801,124.63 120.801,124.679C120.801,124.729 120.82,124.777 120.855,124.812C120.891,124.847 120.938,124.866 120.988,124.866C122.173,124.866 123.361,124.879 124.546,124.884L126.687,124.884C127.234,124.899 127.782,124.876 128.327,124.816C130.028,124.584 131.598,123.776 132.775,122.526C133.951,121.277 134.663,119.661 134.792,117.949C134.849,117.171 134.865,116.388 134.903,115.609C135.095,111.587 135.308,107.573 135.479,103.545C135.677,98.833 135.831,94.116 135.849,89.4C135.866,85.313 135.821,81.2 135.39,77.136C135.307,76.342 135.205,75.55 135.072,74.763C134.874,73.584 134.665,72.327 134.031,71.291C133.32,70.135 132.118,69.461 130.751,69.73C129.447,69.989 128.209,70.759 127.208,71.611C123.374,74.871 122.377,80.178 121.655,84.911C121.048,88.895 120.642,92.909 120.297,96.922C119.9,101.534 119.607,106.156 119.441,110.78C119.3,114.716 119.218,118.674 119.469,122.605C119.513,123.3 119.571,123.994 119.651,124.684C119.669,124.837 119.909,124.838 119.892,124.684L119.897,124.684Z" fill="#A7CB16"/>
<path d="M76.15,90.107L58.887,90.107C58.067,90.107 57.259,90.107 56.446,90.107C56.286,90.11 56.127,90.081 55.978,90.021C55.83,89.961 55.695,89.873 55.581,89.76C55.468,89.647 55.378,89.513 55.317,89.365C55.257,89.217 55.227,89.058 55.229,88.898C55.229,88.614 55.229,88.332 55.229,88.048L55.229,73.308C55.229,72.59 55.216,71.87 55.229,71.151C55.233,70.842 55.358,70.547 55.576,70.328C55.795,70.109 56.09,69.985 56.4,69.98L75.837,69.98C76.257,69.98 76.657,69.997 76.985,70.323C77.313,70.65 77.328,71.068 77.328,71.499L77.328,88.786L77.328,88.936C77.324,89.245 77.2,89.541 76.981,89.76C76.762,89.979 76.466,90.103 76.157,90.107C76.113,90.107 76.072,90.124 76.041,90.155C76.01,90.185 75.993,90.227 75.993,90.271C75.993,90.314 76.01,90.356 76.041,90.387C76.072,90.417 76.113,90.435 76.157,90.435C77.041,90.417 77.654,89.708 77.654,88.849L77.654,71.474C77.654,71.025 77.631,70.604 77.336,70.225C76.983,69.774 76.477,69.649 75.937,69.649L56.531,69.649C55.826,69.649 55.176,70.01 54.965,70.722C54.902,71.017 54.881,71.32 54.904,71.62L54.904,86.264L54.904,88.898C54.903,89.097 54.941,89.295 55.016,89.48C55.091,89.665 55.202,89.833 55.342,89.975C55.483,90.117 55.65,90.23 55.833,90.307C56.017,90.385 56.215,90.425 56.414,90.426L57.105,90.426L76.15,90.426C76.186,90.418 76.219,90.398 76.242,90.369C76.265,90.34 76.278,90.304 76.278,90.266C76.278,90.229 76.265,90.193 76.242,90.164C76.219,90.135 76.186,90.115 76.15,90.107Z" fill="#000000"/>
<path d="M57.826,115.364C58.357,111.846 59.772,108.519 61.938,105.696C64.103,102.873 66.949,100.645 70.21,99.22C74.049,97.58 78.618,97.118 82.502,98.866C84.266,99.661 85.859,100.878 86.956,102.484C88.053,104.089 88.676,105.988 89.032,107.896C89.4,109.852 89.496,111.851 89.559,113.837C89.597,115.055 89.62,116.275 89.628,117.496C89.628,118.688 89.701,119.881 89.705,121.073L89.705,122.862C89.705,122.913 89.725,122.961 89.76,122.997C89.796,123.032 89.844,123.052 89.895,123.052C89.945,123.052 89.994,123.032 90.029,122.997C90.065,122.961 90.085,122.913 90.085,122.862C90.249,120.402 90.307,117.929 90.249,115.463C90.202,113.29 90.144,111.105 89.836,108.95C89.554,106.971 89.047,104.994 88.052,103.246C87.067,101.517 85.645,100.078 83.927,99.074C80.098,96.834 75.399,96.922 71.299,98.361C67.89,99.6 64.857,101.696 62.493,104.447C60.129,107.197 58.512,110.51 57.799,114.067C57.718,114.487 57.653,114.912 57.6,115.336C57.584,115.461 57.805,115.5 57.823,115.366L57.826,115.364Z" fill="#FFFFFF"/>
<path d="M89.724,124.212C89.744,124.271 89.784,124.321 89.838,124.353C89.887,124.382 89.944,124.396 90.002,124.392C90.058,124.392 90.113,124.378 90.163,124.352C90.213,124.325 90.255,124.287 90.287,124.24C90.306,124.209 90.318,124.175 90.323,124.139C90.328,124.103 90.326,124.066 90.316,124.032C90.307,123.997 90.284,123.968 90.253,123.951C90.222,123.933 90.185,123.929 90.151,123.938C90.116,123.948 90.087,123.97 90.07,124.002C90.052,124.033 90.048,124.069 90.057,124.104L90.057,124.122L90.057,124.087C90.058,124.098 90.058,124.109 90.057,124.12L90.057,124.086C90.056,124.096 90.053,124.107 90.049,124.117L90.062,124.084C90.057,124.096 90.051,124.108 90.043,124.119L90.064,124.091C90.052,124.107 90.039,124.121 90.023,124.133L90.049,124.112C90.033,124.124 90.015,124.135 89.997,124.143L90.028,124.13C90.008,124.138 89.987,124.144 89.966,124.148L89.998,124.148C89.979,124.15 89.96,124.15 89.941,124.148L89.974,124.148C89.961,124.146 89.948,124.143 89.936,124.138L89.966,124.15C89.954,124.145 89.944,124.139 89.934,124.132L89.957,124.15C89.949,124.144 89.942,124.137 89.936,124.128L89.954,124.153L89.938,124.125C89.923,124.099 89.899,124.081 89.87,124.073C89.846,124.064 89.819,124.064 89.795,124.073C89.77,124.083 89.749,124.103 89.737,124.127C89.725,124.152 89.722,124.18 89.729,124.207L89.724,124.212Z" fill="#FFFFFF"/>
<path d="M80.217,114.505C80.206,114.469 80.188,114.435 80.163,114.407C80.138,114.378 80.107,114.355 80.073,114.34C80.038,114.324 80.001,114.316 79.963,114.316C79.925,114.317 79.888,114.325 79.853,114.341C79.766,114.379 79.695,114.445 79.65,114.528C79.606,114.612 79.591,114.709 79.609,114.802C79.666,115.288 79.763,115.769 79.899,116.24C80.019,116.732 80.163,117.201 80.329,117.672C80.481,118.154 80.675,118.622 80.909,119.071C81.031,119.285 81.401,119.143 81.316,118.907C81.07,118.18 80.75,117.485 80.529,116.75C80.417,116.383 80.316,116.014 80.227,115.64C80.185,115.466 80.147,115.292 80.111,115.117C80.09,115.016 80.07,114.916 80.052,114.816C80.03,114.71 80.017,114.718 80.109,114.695C80.147,114.682 80.179,114.656 80.199,114.621C80.219,114.587 80.225,114.546 80.217,114.506L80.217,114.505Z" fill="#FFFFFF"/>
<path d="M75.958,114.505C75.947,114.469 75.929,114.435 75.904,114.407C75.879,114.378 75.848,114.355 75.814,114.34C75.779,114.324 75.742,114.316 75.704,114.316C75.666,114.317 75.629,114.325 75.594,114.341C75.507,114.379 75.436,114.445 75.391,114.528C75.347,114.612 75.332,114.709 75.35,114.802C75.407,115.288 75.504,115.769 75.64,116.24C75.76,116.732 75.904,117.201 76.07,117.672C76.222,118.154 76.416,118.622 76.65,119.071C76.772,119.285 77.142,119.143 77.057,118.907C76.811,118.18 76.491,117.485 76.27,116.75C76.158,116.383 76.057,116.014 75.968,115.64C75.925,115.466 75.888,115.292 75.852,115.117C75.831,115.016 75.811,114.916 75.793,114.816C75.771,114.71 75.758,114.718 75.85,114.695C75.888,114.682 75.92,114.656 75.94,114.621C75.96,114.587 75.966,114.546 75.958,114.506L75.958,114.505Z" fill="#FFFFFF"/>
<path d="M71.699,114.505C71.688,114.469 71.67,114.435 71.645,114.407C71.62,114.378 71.589,114.355 71.555,114.34C71.52,114.324 71.483,114.316 71.445,114.316C71.407,114.317 71.369,114.325 71.335,114.341C71.248,114.379 71.177,114.445 71.132,114.528C71.088,114.612 71.073,114.709 71.091,114.802C71.15,115.288 71.247,115.769 71.381,116.24C71.501,116.732 71.647,117.201 71.811,117.672C71.962,118.154 72.157,118.622 72.391,119.071C72.513,119.285 72.883,119.143 72.798,118.907C72.552,118.18 72.232,117.485 72.011,116.75C71.899,116.383 71.798,116.014 71.709,115.64C71.666,115.466 71.629,115.292 71.593,115.117C71.572,115.016 71.552,114.916 71.534,114.816C71.514,114.71 71.501,114.718 71.591,114.695C71.629,114.682 71.661,114.656 71.681,114.621C71.701,114.587 71.707,114.546 71.699,114.506L71.699,114.505Z" fill="#FFFFFF"/>
<path d="M132.302,71.793C132.42,77.615 132.236,83.446 132,89.264C131.764,95.054 131.474,100.844 131.249,106.634C131.121,109.914 131.028,113.194 131,116.474C131,116.501 131.008,116.527 131.021,116.549C131.034,116.572 131.053,116.591 131.076,116.604C131.099,116.617 131.125,116.624 131.151,116.625C131.177,116.625 131.203,116.618 131.226,116.606C131.431,116.504 131.607,116.788 131.62,116.96C131.606,117.167 131.521,117.363 131.38,117.516C131.154,117.824 130.926,118.101 130.813,118.475C130.709,118.82 130.692,119.184 130.761,119.537C130.831,119.89 130.985,120.221 131.211,120.501C131.313,120.625 131.539,120.456 131.436,120.337C131.153,119.968 131.008,119.513 131.025,119.049C131.043,118.529 131.28,118.15 131.585,117.75C131.813,117.452 132.022,117.094 131.859,116.712C131.723,116.397 131.403,116.191 131.074,116.353L131.302,116.483C131.353,110.654 131.617,104.839 131.912,99.01C132.205,93.222 132.512,87.433 132.605,81.639C132.658,78.359 132.632,75.079 132.528,71.799C132.528,71.769 132.516,71.74 132.495,71.719C132.474,71.698 132.445,71.686 132.415,71.686C132.385,71.686 132.356,71.698 132.335,71.719C132.314,71.74 132.302,71.769 132.302,71.799L132.302,71.793Z" fill="#FFFFFF"/>
<path d="M131.21,121.371C131.158,121.689 131.171,122.014 131.249,122.326C131.26,122.354 131.281,122.377 131.307,122.39C131.334,122.403 131.364,122.406 131.393,122.398C131.422,122.39 131.446,122.372 131.462,122.347C131.478,122.322 131.484,122.291 131.479,122.262C131.404,121.991 131.385,121.708 131.421,121.429C131.429,121.401 131.424,121.371 131.41,121.346C131.396,121.321 131.372,121.302 131.344,121.294C131.316,121.287 131.286,121.291 131.261,121.305C131.236,121.32 131.218,121.343 131.21,121.371Z" fill="#FFFFFF"/>
<path d="M125.399,62.84C125.627,63.591 125.868,64.339 126.108,65.087C126.159,65.251 126.41,65.177 126.357,65.018C126.113,64.272 125.865,63.524 125.613,62.781C125.567,62.648 125.358,62.702 125.399,62.84Z" fill="#FFFFFF"/>
<path d="M128.117,65.73C128.15,65.726 128.18,65.71 128.202,65.686C128.224,65.661 128.236,65.629 128.236,65.596C128.236,65.563 128.224,65.531 128.202,65.506C128.18,65.482 128.15,65.466 128.117,65.462C128.084,65.466 128.054,65.482 128.031,65.506C128.009,65.531 127.997,65.563 127.997,65.596C127.997,65.629 128.009,65.661 128.031,65.686C128.054,65.71 128.084,65.726 128.117,65.73Z" fill="#FFFFFF"/>
<path d="M138.088,107.551C138.809,108.136 139.491,108.766 140.13,109.439C142.02,111.498 143.372,113.993 144.066,116.701C144.327,117.722 144.497,118.765 144.573,119.817C144.584,119.981 144.843,119.981 144.837,119.817C144.686,116.037 143.079,112.306 140.556,109.501C139.862,108.704 139.078,107.988 138.221,107.369C138.114,107.295 137.981,107.466 138.081,107.55L138.088,107.551Z" fill="#FFFFFF"/>
<path d="M144.76,121.36C144.865,121.449 144.988,121.513 145.121,121.55C145.253,121.586 145.392,121.593 145.528,121.569C145.663,121.546 145.792,121.494 145.905,121.416C146.019,121.338 146.113,121.236 146.183,121.117C146.193,121.101 146.199,121.082 146.202,121.063C146.204,121.044 146.203,121.025 146.198,121.006C146.193,120.988 146.185,120.97 146.173,120.955C146.162,120.94 146.147,120.927 146.131,120.917C146.114,120.908 146.096,120.901 146.077,120.899C146.058,120.896 146.038,120.897 146.02,120.902C146.001,120.907 145.984,120.915 145.968,120.927C145.953,120.939 145.94,120.953 145.931,120.97C145.912,121.011 145.886,121.048 145.855,121.081C145.826,121.115 145.792,121.145 145.755,121.17C145.673,121.229 145.578,121.267 145.478,121.281L145.442,121.281L145.343,121.281L145.265,121.281L145.247,121.281L145.211,121.281C145.12,121.262 145.037,121.22 144.968,121.158C144.94,121.132 144.902,121.117 144.864,121.117C144.825,121.117 144.788,121.132 144.76,121.158C144.732,121.186 144.717,121.224 144.717,121.262C144.717,121.301 144.732,121.339 144.76,121.367L144.76,121.36Z" fill="#FFFFFF"/>
<path d="M57.631,83.463C58.943,83.487 60.27,83.494 61.589,83.502C61.627,83.498 61.662,83.48 61.687,83.452C61.713,83.424 61.727,83.387 61.727,83.349C61.727,83.311 61.713,83.274 61.687,83.246C61.662,83.217 61.627,83.199 61.589,83.196C60.277,83.196 58.95,83.21 57.631,83.235C57.603,83.238 57.578,83.252 57.559,83.273C57.54,83.294 57.53,83.321 57.53,83.349C57.53,83.377 57.54,83.404 57.559,83.425C57.578,83.446 57.603,83.46 57.631,83.463Z" fill="#A7CB16"/>
<path d="M57.631,85.262C58.943,85.287 60.27,85.295 61.589,85.301C61.629,85.301 61.668,85.285 61.696,85.257C61.725,85.228 61.741,85.189 61.741,85.149C61.741,85.108 61.725,85.07 61.696,85.041C61.668,85.012 61.629,84.996 61.589,84.996C60.277,84.996 58.95,85.009 57.631,85.036C57.601,85.036 57.572,85.048 57.551,85.069C57.53,85.09 57.518,85.119 57.518,85.149C57.518,85.179 57.53,85.208 57.551,85.229C57.572,85.25 57.601,85.262 57.631,85.262Z" fill="#A7CB16"/>
<path d="M57.631,87.061C58.943,87.087 60.27,87.094 61.589,87.1C61.629,87.1 61.668,87.084 61.696,87.056C61.725,87.027 61.741,86.988 61.741,86.948C61.741,86.907 61.725,86.869 61.696,86.84C61.668,86.811 61.629,86.795 61.589,86.795C60.277,86.795 58.95,86.81 57.631,86.835C57.601,86.835 57.572,86.847 57.551,86.868C57.53,86.889 57.518,86.918 57.518,86.948C57.518,86.978 57.53,87.007 57.551,87.028C57.572,87.049 57.601,87.061 57.631,87.061Z" fill="#A7CB16"/>
<path d="M33.335,53.644C36.166,54.016 39.035,54.003 41.863,53.605C41.884,53.599 41.903,53.589 41.92,53.574C41.936,53.56 41.949,53.541 41.957,53.521C41.965,53.501 41.969,53.479 41.967,53.457C41.966,53.435 41.959,53.414 41.948,53.395C41.372,52.637 41.374,51.478 42.028,50.763C42.352,50.426 42.779,50.208 43.241,50.143C43.704,50.078 44.175,50.17 44.578,50.404C44.692,50.471 44.877,50.356 44.82,50.218C44.083,48.437 43.468,46.446 43.86,44.503C44.188,42.916 45.172,41.387 46.776,40.88C48.518,40.321 50.44,40.936 52.024,41.7C53.493,42.424 54.824,43.398 55.96,44.577C57.253,45.904 58.269,47.476 58.95,49.2C58.968,49.246 59.002,49.284 59.047,49.307C59.091,49.329 59.142,49.334 59.19,49.321C59.238,49.308 59.279,49.277 59.306,49.235C59.332,49.193 59.342,49.142 59.334,49.093C59.147,47.945 58.96,46.332 60.247,45.731C60.787,45.48 61.306,45.682 61.679,46.115C62.107,46.607 62.405,47.25 62.738,47.814L64.05,50.033C64.072,50.067 64.102,50.094 64.138,50.111C64.175,50.128 64.215,50.134 64.254,50.129C64.294,50.123 64.331,50.107 64.362,50.081C64.393,50.056 64.415,50.022 64.427,49.984C64.581,49.503 64.872,49.077 65.264,48.758C65.656,48.44 66.132,48.242 66.635,48.19C67.15,48.159 67.664,48.277 68.113,48.531C68.563,48.785 68.929,49.164 69.169,49.621C69.27,49.812 69.538,49.644 69.452,49.457C69.2,48.92 68.789,48.472 68.276,48.172C67.762,47.873 67.17,47.738 66.577,47.783C65.995,47.846 65.444,48.078 64.992,48.45C64.54,48.822 64.206,49.317 64.03,49.876L64.408,49.826L63.074,47.573C62.858,47.209 62.646,46.843 62.428,46.483C62.267,46.197 62.071,45.933 61.844,45.695C61.634,45.474 61.362,45.32 61.064,45.255C60.766,45.19 60.455,45.216 60.172,45.33C59.886,45.45 59.629,45.631 59.419,45.859C59.209,46.087 59.05,46.357 58.953,46.651C58.673,47.471 58.815,48.365 58.953,49.202L59.337,49.095C58.054,45.845 55.647,43.164 52.554,41.54C50.945,40.702 49.049,40.034 47.217,40.383C45.467,40.711 44.221,42.105 43.698,43.757C43.006,45.943 43.66,48.262 44.518,50.302L44.759,50.117C44.291,49.832 43.739,49.722 43.198,49.805C42.657,49.888 42.163,50.159 41.802,50.57C41.441,50.981 41.237,51.507 41.225,52.054C41.214,52.601 41.395,53.134 41.738,53.561L41.802,53.323C39,53.748 36.153,53.779 33.343,53.415C33.2,53.397 33.202,53.62 33.343,53.638L33.335,53.644Z" fill="#A7CB16"/>
<path d="M25.856,95.94C27.957,95.76 30.073,95.896 32.134,96.343C32.277,96.375 32.387,96.163 32.239,96.092C31.478,95.737 31.639,94.636 32.129,94.124C32.949,93.267 34.384,93.785 35.245,94.288C35.375,94.364 35.56,94.205 35.463,94.069C34.02,92.045 34.909,89.231 36.159,87.345C36.467,86.84 36.879,86.407 37.367,86.074C37.627,85.909 37.921,85.805 38.227,85.772C38.532,85.739 38.842,85.776 39.13,85.882C39.727,86.11 40.285,86.428 40.785,86.825C41.275,87.187 41.728,87.596 42.138,88.047C43.054,89.044 43.747,90.225 44.17,91.512C44.184,91.558 44.215,91.597 44.256,91.62C44.298,91.644 44.347,91.651 44.393,91.64C44.87,91.541 45.038,91.058 45.264,90.689C45.319,90.571 45.404,90.47 45.511,90.396C45.618,90.322 45.743,90.277 45.873,90.267C46.15,90.283 46.415,90.389 46.629,90.567C47.44,91.163 47.955,92.711 49.207,92.409C49.389,92.365 49.307,92.111 49.13,92.134C48.541,92.216 48.08,91.687 47.75,91.274C47.381,90.81 47.053,90.328 46.501,90.062C46.025,89.833 45.476,89.841 45.115,90.27C44.861,90.574 44.729,91.2 44.295,91.289L44.518,91.417C44.117,90.185 43.479,89.043 42.64,88.056C41.804,87.072 40.728,86.161 39.534,85.641C38.924,85.375 38.255,85.278 37.622,85.528C37.052,85.777 36.558,86.173 36.192,86.676C35.395,87.71 34.835,88.907 34.552,90.182C34.248,91.555 34.338,93.042 35.181,94.213L35.399,93.993C34.397,93.421 32.736,92.906 31.849,93.967C31.286,94.639 31.176,95.901 32.096,96.322L32.201,96.073C30.115,95.636 27.974,95.515 25.851,95.714C25.712,95.727 25.709,95.947 25.851,95.933L25.856,95.94Z" fill="#A7CB16"/>
<path d="M117.568,45.111C119.399,45.103 121.23,45.077 123.061,45.09C123.09,45.09 123.118,45.081 123.142,45.064C123.166,45.048 123.185,45.025 123.196,44.998C123.207,44.971 123.21,44.942 123.205,44.913C123.199,44.885 123.186,44.859 123.166,44.838C122.561,44.283 122.848,43.307 123.4,42.825C124.182,42.143 125.421,42.361 126.329,42.597C126.354,42.604 126.381,42.604 126.406,42.599C126.432,42.594 126.456,42.583 126.476,42.567C126.497,42.552 126.514,42.531 126.526,42.508C126.537,42.485 126.544,42.459 126.544,42.433C126.562,40.675 127.018,38.693 128.689,37.786C129.032,37.589 129.414,37.471 129.808,37.441C130.202,37.412 130.597,37.47 130.966,37.613C131.64,37.895 132.138,38.463 132.509,39.076C132.933,39.825 133.263,40.623 133.493,41.453C133.55,41.641 133.862,41.617 133.849,41.405C133.788,40.511 134.984,40.21 135.653,40.488C136.661,40.907 136.95,42.266 137.16,43.211C137.168,43.241 137.185,43.268 137.207,43.29C137.23,43.312 137.258,43.328 137.288,43.336C137.318,43.344 137.35,43.345 137.381,43.337C137.411,43.329 137.439,43.313 137.462,43.291C138.569,42.143 140.563,42.189 141.653,43.33C141.817,43.494 142.05,43.25 141.901,43.084C140.712,41.772 138.429,41.772 137.206,43.035L137.508,43.116C137.294,42.158 137.03,41.08 136.233,40.431C135.921,40.182 135.536,40.04 135.137,40.025C134.738,40.011 134.344,40.125 134.014,40.351C133.841,40.465 133.701,40.622 133.608,40.807C133.514,40.992 133.47,41.198 133.481,41.405L133.837,41.356C133.388,39.891 132.763,38.107 131.294,37.374C129.598,36.526 127.697,37.61 126.888,39.168C126.367,40.17 126.211,41.317 126.201,42.433L126.416,42.269C125.353,41.997 123.956,41.804 123.092,42.663C122.482,43.273 122.226,44.421 122.952,45.044L123.057,44.793C121.227,44.843 119.395,44.856 117.565,44.885C117.538,44.888 117.512,44.902 117.494,44.922C117.476,44.943 117.466,44.97 117.466,44.997C117.466,45.025 117.476,45.052 117.494,45.073C117.512,45.093 117.538,45.107 117.565,45.11L117.568,45.111Z" fill="#A7CB16"/>
<path d="M145.06,89.767L145.716,89.767C145.751,89.767 145.785,89.753 145.81,89.728C145.834,89.703 145.848,89.669 145.848,89.634C145.848,89.599 145.834,89.565 145.81,89.54C145.785,89.515 145.751,89.501 145.716,89.501L145.06,89.501C145.024,89.501 144.99,89.516 144.965,89.541C144.939,89.566 144.925,89.6 144.925,89.636C144.925,89.671 144.939,89.706 144.965,89.731C144.99,89.756 145.024,89.77 145.06,89.77L145.06,89.767Z" fill="#A7CB16"/>
<path d="M12.656,64.468L35.114,64.483C42.561,64.483 50.008,64.483 57.457,64.483C61.659,64.483 65.86,64.48 70.061,64.473C70.095,64.47 70.126,64.453 70.149,64.428C70.172,64.402 70.185,64.369 70.185,64.335C70.185,64.3 70.172,64.267 70.149,64.242C70.126,64.216 70.095,64.2 70.061,64.196C62.574,64.176 55.089,64.186 47.603,64.188C40.155,64.188 32.708,64.191 25.261,64.198L12.656,64.198C12.624,64.201 12.595,64.216 12.574,64.24C12.553,64.264 12.541,64.295 12.541,64.327C12.541,64.358 12.553,64.389 12.574,64.413C12.595,64.437 12.624,64.452 12.656,64.455L12.656,64.468Z" fill="#A7CB16"/>
<path d="M33.112,71.05L48.036,71.068C49.439,71.068 50.843,71.084 52.247,71.068C52.28,71.064 52.31,71.048 52.332,71.024C52.355,70.999 52.367,70.967 52.367,70.934C52.367,70.901 52.355,70.869 52.332,70.844C52.31,70.82 52.28,70.804 52.247,70.8C49.754,70.779 47.258,70.8 44.765,70.8L37.323,70.809L33.113,70.809C33.086,70.812 33.06,70.825 33.042,70.846C33.024,70.867 33.014,70.893 33.014,70.921C33.014,70.949 33.024,70.975 33.042,70.996C33.06,71.017 33.086,71.03 33.113,71.033L33.112,71.05Z" fill="#A7CB16"/>
<path d="M42.05,75.855L43.588,77.397C43.61,77.418 43.639,77.43 43.67,77.43C43.701,77.43 43.73,77.418 43.752,77.397C43.774,77.375 43.786,77.345 43.786,77.315C43.786,77.284 43.774,77.254 43.752,77.233L42.21,75.694C42.189,75.672 42.159,75.66 42.128,75.66C42.098,75.66 42.068,75.672 42.046,75.694C42.025,75.716 42.012,75.745 42.012,75.776C42.012,75.807 42.025,75.836 42.046,75.858L42.05,75.855Z" fill="#A7CB16"/>
<path d="M136.799,55.311C137.236,58.206 137.448,61.132 137.432,64.06C137.432,64.461 137.422,64.862 137.402,65.262C137.386,65.687 137.335,66.118 137.347,66.543C137.347,66.728 137.653,66.787 137.675,66.589C137.759,65.856 137.794,65.119 137.78,64.381C137.793,63.647 137.791,62.905 137.767,62.176C137.716,60.68 137.603,59.184 137.401,57.7C137.294,56.88 137.166,56.06 137.001,55.252C136.973,55.112 136.773,55.176 136.791,55.311L136.799,55.311Z" fill="#FFFFFF"/>
</svg>
