<svg width="164" height="164" viewBox="0 0 164 164" fill="none" xmlns="http://www.w3.org/2000/svg" xmlns:xlink="http://www.w3.org/1999/xlink">
<path d="M53.657,108.849C52.754,108.7 51.826,109.067 51.114,109.644C50.402,110.222 49.876,110.988 49.384,111.758C48.499,113.137 47.686,114.56 46.948,116.022C46.604,116.708 46.271,117.413 46.151,118.171C46,119.138 46.205,120.122 46.409,121.08C46.466,121.347 46.533,121.634 46.737,121.813C46.878,121.919 47.04,121.993 47.212,122.031C49.601,122.722 52.111,122.889 54.571,122.523Z" fill="#000000"/>
<path d="M53.692,108.723C52.144,108.452 50.804,109.484 49.92,110.643C49.429,111.311 48.975,112.005 48.559,112.721C48.113,113.454 47.688,114.2 47.284,114.96C46.868,115.69 46.504,116.45 46.197,117.233C45.919,118.03 45.837,118.882 45.956,119.717C46.01,120.144 46.092,120.567 46.181,120.988C46.253,121.336 46.32,121.72 46.597,121.972C46.874,122.225 47.302,122.289 47.65,122.377C48.061,122.487 48.477,122.577 48.898,122.65C50.794,122.988 52.733,123.016 54.638,122.732C54.905,122.692 54.792,122.287 54.527,122.327C52.156,122.678 49.737,122.527 47.429,121.882C47.266,121.849 47.109,121.793 46.961,121.718C46.814,121.616 46.712,121.461 46.678,121.285C46.577,120.907 46.496,120.524 46.436,120.137C46.294,119.337 46.246,118.523 46.466,117.731C46.676,116.974 47.053,116.272 47.414,115.578C48.133,114.18 48.927,112.82 49.79,111.506C50.663,110.194 51.911,108.759 53.666,108.984C53.81,109.002 53.844,108.752 53.7,108.726L53.692,108.723Z" fill="#000000"/>
<path d="M138.686,135.297C144.471,135.297 149.159,130.608 149.159,124.824C149.159,119.04 144.471,114.351 138.686,114.351C132.902,114.351 128.213,119.04 128.213,124.824C128.213,130.608 132.902,135.297 138.686,135.297Z" fill="#000000"/>
<path d="M148.833,124.824C148.834,126.914 148.19,128.953 146.988,130.663C145.786,132.372 144.086,133.669 142.12,134.376C140.153,135.083 138.016,135.166 136.001,134.613C133.986,134.059 132.191,132.898 130.861,131.286C129.52,129.662 128.718,127.661 128.565,125.56C128.412,123.46 128.916,121.364 130.008,119.563C131.154,117.664 132.89,116.193 134.951,115.375C137.013,114.557 139.286,114.438 141.421,115.035C143.557,115.631 145.439,116.912 146.777,118.68C148.116,120.448 148.838,122.607 148.833,124.824C148.833,125.242 149.489,125.244 149.489,124.824C149.486,122.592 148.792,120.415 147.503,118.592C146.213,116.768 144.389,115.389 142.283,114.646C140.176,113.903 137.89,113.831 135.741,114.441C133.877,114.97 132.189,115.99 130.855,117.395C129.52,118.799 128.588,120.538 128.157,122.427C127.725,124.316 127.81,126.286 128.402,128.131C128.994,129.976 130.071,131.628 131.521,132.914C132.971,134.199 134.741,135.07 136.643,135.437C138.546,135.803 140.512,135.651 142.336,134.995C144.16,134.34 145.773,133.206 147.008,131.713C148.243,130.219 149.053,128.421 149.353,126.507C149.438,125.953 149.482,125.393 149.485,124.832C149.485,124.404 148.833,124.404 148.833,124.824Z" fill="#000000"/>
<path d="M138.686,128.847C140.908,128.847 142.709,127.046 142.709,124.824C142.709,122.603 140.908,120.802 138.686,120.802C136.465,120.802 134.664,122.603 134.664,124.824C134.664,127.046 136.465,128.847 138.686,128.847Z" fill="#FFFFFF"/>
<path d="M142.383,124.824C142.383,125.586 142.148,126.329 141.709,126.952C141.271,127.575 140.651,128.047 139.934,128.305C139.217,128.562 138.439,128.592 137.704,128.39C136.97,128.188 136.316,127.764 135.831,127.176C135.347,126.588 135.056,125.865 134.998,125.106C134.939,124.347 135.117,123.588 135.507,122.933C135.896,122.278 136.478,121.76 137.173,121.449C137.868,121.137 138.642,121.048 139.39,121.193C140.23,121.363 140.986,121.817 141.531,122.478C142.076,123.139 142.377,123.968 142.383,124.824C142.383,125.243 143.039,125.244 143.039,124.824C143.038,123.927 142.76,123.051 142.242,122.318C141.723,121.585 140.991,121.03 140.145,120.73C139.299,120.43 138.381,120.398 137.517,120.64C136.652,120.883 135.884,121.386 135.317,122.082C134.75,122.779 134.413,123.633 134.351,124.529C134.289,125.424 134.506,126.317 134.971,127.084C135.437,127.852 136.129,128.456 136.951,128.815C137.774,129.174 138.688,129.269 139.567,129.088C140.544,128.878 141.42,128.34 142.051,127.565C142.682,126.79 143.031,125.824 143.039,124.824C143.037,124.405 142.385,124.405 142.383,124.824Z" fill="#FFFFFF"/>
<path d="M136.93,112.893C137.925,116.377 139.081,119.809 140.399,123.189C140.573,123.637 140.753,124.096 140.766,124.577C140.825,126.741 137.596,127.78 136.648,125.694C136.294,124.913 135.966,124.12 135.664,123.316C135.407,122.619 134.933,121.725 135.02,120.964C135.063,120.728 135.144,120.501 135.259,120.291C135.86,118.997 136.158,117.582 136.131,116.155Z" fill="#000000"/>
<path d="M136.871,112.916C137.458,115.032 138.111,117.127 138.831,119.201C139.185,120.224 139.554,121.243 139.938,122.258C140.13,122.769 140.351,123.275 140.518,123.793C140.67,124.204 140.706,124.648 140.623,125.078C140.366,126.199 139.105,126.937 137.999,126.699C137.343,126.559 136.935,126.102 136.669,125.511C136.246,124.57 135.892,123.606 135.505,122.651C135.313,122.177 135.11,121.667 135.113,121.152C135.138,120.844 135.229,120.545 135.382,120.277C135.487,120.042 135.585,119.804 135.672,119.562C136.064,118.472 136.255,117.32 136.235,116.162C136.235,116.137 136.225,116.114 136.208,116.097C136.191,116.08 136.167,116.07 136.143,116.07C136.119,116.07 136.095,116.08 136.078,116.097C136.061,116.114 136.051,116.137 136.051,116.162C136.07,117.278 135.89,118.388 135.521,119.442C135.425,119.716 135.313,119.986 135.193,120.25C135.076,120.468 134.991,120.702 134.944,120.944C134.913,121.392 134.986,121.841 135.159,122.256C135.323,122.72 135.523,123.174 135.698,123.635C135.895,124.154 136.104,124.666 136.323,125.174C136.61,125.83 136.892,126.464 137.596,126.761C138.65,127.207 139.98,126.7 140.561,125.736C140.966,125.067 140.909,124.313 140.656,123.596C140.274,122.504 139.836,121.434 139.434,120.345C138.544,117.884 137.731,115.396 136.994,112.88C136.989,112.866 136.978,112.854 136.965,112.847C136.951,112.84 136.935,112.839 136.921,112.843C136.906,112.847 136.893,112.856 136.885,112.869C136.877,112.882 136.875,112.898 136.878,112.913L136.871,112.916Z" fill="#000000"/>
<path d="M124.015,124.253L151.239,124.253C151.239,124.253 153.906,104.057 132.254,101.069L125.711,114.432Z" fill="#A7CB16"/>
<path d="M124.015,124.373C127.557,124.407 131.1,124.427 134.642,124.432C138.185,124.438 141.728,124.441 145.271,124.442L151.239,124.442C151.289,124.441 151.336,124.421 151.371,124.386C151.406,124.35 151.426,124.303 151.428,124.254C151.452,124.072 151.465,123.888 151.48,123.704C151.516,123.212 151.533,122.707 151.534,122.207C151.534,121.458 151.502,120.709 151.437,119.96C151.355,119.024 151.221,118.093 151.036,117.172C150.825,116.121 150.539,115.086 150.181,114.076C149.784,112.961 149.29,111.882 148.705,110.853C147.38,108.516 145.555,106.5 143.36,104.949C142.064,104.037 140.667,103.274 139.198,102.678C137.464,101.973 135.66,101.451 133.817,101.12C133.314,101.026 132.807,100.946 132.3,100.875C132.257,100.865 132.211,100.868 132.17,100.885C132.128,100.901 132.093,100.931 132.069,100.969L131.413,102.3L129.855,105.479L127.962,109.344C127.416,110.458 126.877,111.575 126.334,112.692C126.072,113.231 125.78,113.766 125.543,114.317L125.532,114.34C125.424,114.563 125.757,114.758 125.86,114.535C126.076,114.09 126.296,113.649 126.516,113.205L128.081,110.031C128.715,108.744 129.342,107.455 129.973,106.166L131.613,102.822L132.149,101.725C132.252,101.558 132.339,101.382 132.407,101.198C132.41,101.191 132.414,101.184 132.418,101.177L132.187,101.271C134.112,101.525 136.006,101.969 137.843,102.596C139.381,103.125 140.854,103.825 142.235,104.683C143.443,105.438 144.558,106.33 145.558,107.343C146.458,108.258 147.256,109.268 147.939,110.355C148.564,111.35 149.096,112.401 149.53,113.493C149.929,114.507 150.253,115.548 150.499,116.609C150.718,117.537 150.882,118.477 150.991,119.424C151.078,120.203 151.129,120.987 151.144,121.771C151.154,122.33 151.144,122.889 151.114,123.448C151.1,123.704 151.042,123.976 151.05,124.232C151.051,124.244 151.051,124.255 151.05,124.267L151.239,124.078L140.61,124.09C137.068,124.09 133.525,124.097 129.983,124.113C127.993,124.12 126.004,124.134 124.015,124.154C123.985,124.154 123.956,124.165 123.935,124.187C123.914,124.208 123.902,124.237 123.902,124.267C123.902,124.297 123.914,124.325 123.935,124.347C123.956,124.368 123.985,124.38 124.015,124.38L124.015,124.373Z" fill="#A7CB16"/>
<path d="M125.806,114.351L124.11,124.173L131.49,124.173C132.905,124.173 134.266,123.63 135.291,122.655C136.317,121.68 136.928,120.348 136.999,118.935C137.239,114.142 137.535,108.147 137.685,102.207C135.947,101.637 134.161,101.228 132.348,100.987L125.806,114.351Z" fill="#000000"/>
<path d="M125.65,114.309L125.076,117.63L124.161,122.922L123.953,124.131C123.947,124.155 123.946,124.181 123.951,124.206C123.957,124.231 123.968,124.254 123.984,124.274C124,124.294 124.02,124.31 124.043,124.321C124.066,124.331 124.092,124.336 124.117,124.336L131.408,124.336C132.42,124.343 133.416,124.083 134.296,123.583C135.176,123.083 135.908,122.359 136.419,121.485C136.706,120.986 136.914,120.446 137.037,119.883C137.146,119.254 137.202,118.616 137.204,117.977C137.28,116.466 137.353,114.955 137.424,113.444C137.578,110.12 137.714,106.794 137.808,103.467C137.821,103.048 137.831,102.629 137.842,102.21C137.844,102.174 137.832,102.137 137.811,102.108C137.789,102.078 137.758,102.056 137.722,102.046C135.987,101.48 134.203,101.073 132.394,100.829C132.36,100.82 132.323,100.822 132.29,100.836C132.257,100.849 132.229,100.873 132.21,100.903L131.554,102.235L129.998,105.415L128.109,109.285L126.469,112.629C126.205,113.167 125.91,113.7 125.673,114.251L125.664,114.274C125.572,114.461 125.852,114.627 125.944,114.438L126.6,113.107L128.156,109.928L130.052,106.058L131.692,102.715L132.228,101.618L132.392,101.276C132.429,101.218 132.459,101.156 132.483,101.092C132.483,101.092 132.483,101.077 132.492,101.069L132.309,101.144C134.118,101.388 135.902,101.796 137.637,102.363L137.517,102.199C137.435,105.49 137.309,108.782 137.162,112.072C137.094,113.59 137.022,115.108 136.947,116.624L136.843,118.732C136.825,119.338 136.714,119.938 136.515,120.511C136.128,121.534 135.439,122.415 134.541,123.039C133.642,123.662 132.576,123.999 131.482,124.004C130.318,124.004 129.155,124.004 127.991,124.004L125.585,124.004C125.124,124.004 124.64,123.963 124.181,124.004L124.11,124.004L124.274,124.209L124.848,120.888L125.762,115.598L125.97,114.389C126,114.191 125.685,114.102 125.65,114.309Z" fill="#000000"/>
<path d="M64.382,135.296C71.35,135.296 76.998,129.647 76.998,122.679C76.998,115.711 71.35,110.063 64.382,110.063C57.414,110.063 51.765,115.711 51.765,122.679C51.765,129.647 57.414,135.296 64.382,135.296Z" fill="#000000"/>
<path d="M76.673,122.679C76.664,125.832 75.433,128.859 73.24,131.125C71.048,133.391 68.063,134.72 64.912,134.833C61.761,134.946 58.688,133.835 56.338,131.732C53.989,129.63 52.544,126.699 52.308,123.555C52.072,120.411 53.062,117.297 55.071,114.867C57.08,112.437 59.952,110.879 63.085,110.52C66.218,110.161 69.368,111.029 71.874,112.942C74.381,114.855 76.05,117.664 76.531,120.78C76.627,121.409 76.675,122.043 76.673,122.679C76.673,123.099 77.329,123.099 77.329,122.679C77.339,119.337 76.054,116.121 73.744,113.705C71.434,111.289 68.278,109.862 64.939,109.721C61.6,109.581 58.335,110.739 55.831,112.953C53.327,115.166 51.777,118.264 51.506,121.595C51.235,124.926 52.265,128.233 54.378,130.822C56.492,133.411 59.526,135.082 62.845,135.483C66.163,135.884 69.507,134.985 72.177,132.974C74.847,130.963 76.635,127.996 77.165,124.696C77.27,124.029 77.325,123.355 77.329,122.679C77.326,122.261 76.675,122.259 76.673,122.679Z" fill="#000000"/>
<path d="M64.382,127.525C67.058,127.525 69.228,125.356 69.228,122.679C69.228,120.003 67.058,117.833 64.382,117.833C61.705,117.833 59.536,120.003 59.536,122.679C59.536,125.356 61.705,127.525 64.382,127.525Z" fill="#FFFFFF"/>
<path d="M68.903,122.679C68.898,123.842 68.443,124.957 67.634,125.791C66.824,126.626 65.724,127.115 64.562,127.155C63.4,127.196 62.268,126.785 61.402,126.009C60.536,125.233 60.005,124.153 59.919,122.993C59.832,121.834 60.198,120.686 60.939,119.791C61.681,118.895 62.74,118.322 63.895,118.19C65.05,118.058 66.211,118.379 67.135,119.084C68.059,119.789 68.674,120.825 68.851,121.974C68.886,122.207 68.904,122.443 68.903,122.679C68.903,123.099 69.559,123.099 69.559,122.679C69.562,121.34 69.047,120.052 68.122,119.085C67.196,118.117 65.932,117.546 64.595,117.489C63.257,117.433 61.95,117.896 60.946,118.783C59.943,119.669 59.321,120.909 59.212,122.243C59.102,123.578 59.513,124.903 60.359,125.941C61.205,126.979 62.419,127.649 63.748,127.811C65.077,127.974 66.418,127.615 67.488,126.811C68.559,126.008 69.277,124.821 69.492,123.499C69.534,123.228 69.556,122.954 69.559,122.679C69.556,122.259 68.905,122.259 68.903,122.679Z" fill="#FFFFFF"/>
<path d="M76.152,69.381L56.4,69.381C55.663,69.381 55.066,69.978 55.066,70.714L55.066,88.507C55.066,89.243 55.663,89.84 56.4,89.84L76.152,89.84C76.888,89.84 77.485,89.243 77.485,88.507L77.485,70.714C77.485,69.978 76.888,69.381 76.152,69.381Z" fill="#FFFFFF"/>
<path d="M95.492,102.069C94.618,99.017 94.043,95.886 93.775,92.721C93.611,90.689 93.58,88.544 94.52,86.734C93.843,86.501 93.106,86.57 92.388,86.606C89.256,86.786 86.115,86.48 83.076,85.699C83.185,86.324 83.11,86.967 82.86,87.549C82.609,88.132 82.194,88.629 81.666,88.979C80.873,89.486 79.909,89.614 79.002,89.858C77.279,90.322 75.709,91.224 74.163,92.116C72.89,92.851 71.593,93.604 70.61,94.696C69.954,95.423 69.462,96.284 68.736,96.941Z" fill="#A7CB16"/>
<path d="M95.602,102.043C95.053,100.017 94.623,97.96 94.317,95.883C94.166,94.86 94.049,93.833 93.967,92.802C93.878,91.848 93.859,90.889 93.91,89.932C93.959,88.859 94.227,87.807 94.699,86.842C94.714,86.814 94.723,86.784 94.725,86.752C94.727,86.72 94.722,86.689 94.71,86.659C94.698,86.63 94.68,86.604 94.656,86.582C94.633,86.561 94.605,86.546 94.574,86.537C93.892,86.312 93.174,86.353 92.465,86.394C91.719,86.437 90.969,86.455 90.222,86.443C88.701,86.42 87.185,86.283 85.685,86.033C84.827,85.889 83.978,85.709 83.137,85.494C83.1,85.484 83.061,85.485 83.024,85.495C82.987,85.505 82.954,85.524 82.927,85.551C82.9,85.578 82.881,85.612 82.87,85.649C82.86,85.685 82.86,85.724 82.869,85.761C82.957,86.29 82.905,86.832 82.718,87.334C82.53,87.836 82.214,88.28 81.802,88.621C81.32,89.015 80.713,89.212 80.118,89.366C79.488,89.53 78.855,89.658 78.238,89.869C76.975,90.302 75.795,90.937 74.638,91.598C73.536,92.226 72.416,92.844 71.426,93.641C70.883,94.081 70.395,94.584 69.971,95.139C69.531,95.706 69.118,96.305 68.601,96.808C68.423,96.984 68.69,97.245 68.875,97.081C69.346,96.638 69.771,96.15 70.143,95.623C70.525,95.104 70.959,94.625 71.439,94.194C72.423,93.331 73.595,92.695 74.719,92.046C75.927,91.354 77.159,90.676 78.491,90.242C79.694,89.848 81.064,89.771 82.082,88.948C82.557,88.553 82.919,88.038 83.13,87.458C83.341,86.877 83.394,86.251 83.284,85.643L83.019,85.91C85.952,86.663 88.98,86.976 92.004,86.84C92.824,86.803 93.674,86.676 94.464,86.937L94.341,86.632C93.451,88.382 93.405,90.379 93.552,92.297C93.717,94.417 94.027,96.523 94.479,98.601C94.733,99.782 95.034,100.949 95.384,102.104C95.392,102.133 95.411,102.157 95.438,102.172C95.464,102.187 95.495,102.191 95.524,102.183C95.553,102.175 95.577,102.155 95.592,102.129C95.607,102.103 95.61,102.072 95.602,102.043Z" fill="#A7CB16"/>
<path d="M122.261,124.254L50.429,124.254C50.191,124.253 49.956,124.204 49.738,124.109C49.52,124.015 49.323,123.877 49.16,123.704C48.997,123.531 48.871,123.327 48.789,123.104C48.707,122.88 48.672,122.643 48.685,122.405C48.971,117.508 50.67,104.106 60.606,96.854C72.916,87.872 93.431,87.872 95.427,95.857C97.003,102.16 96.506,113.203 96.227,117.576C96.212,117.814 96.246,118.053 96.326,118.277C96.407,118.502 96.533,118.708 96.697,118.882C96.86,119.056 97.057,119.194 97.276,119.289C97.496,119.384 97.732,119.432 97.971,119.432L122.261,119.432L122.261,122.799Z" fill="#A7CB16"/>
<path d="M122.26,124.13L120.196,124.13L114.62,124.111C111.881,124.103 109.14,124.111 106.4,124.099C103.093,124.099 99.785,124.096 96.478,124.088L85.718,124.088L75.009,124.088L65.239,124.088L57.275,124.088L52.05,124.088C51.009,124.088 49.533,124.332 49.007,123.173C48.718,122.538 48.921,121.623 48.985,120.946C49.057,120.18 49.149,119.415 49.259,118.65C49.535,116.741 49.934,114.852 50.453,112.995C51.731,108.446 53.799,104.041 56.949,100.482C60.352,96.628 64.944,94.053 69.736,92.393C74.238,90.835 79.073,90.009 83.84,90.214C85.821,90.271 87.786,90.589 89.684,91.162C91.173,91.634 92.657,92.329 93.784,93.441C94.273,93.916 94.671,94.478 94.956,95.098C95.327,95.918 95.465,96.872 95.612,97.761C96.048,100.308 96.204,102.902 96.278,105.484C96.35,108.031 96.324,110.579 96.235,113.126C96.199,114.152 96.153,115.177 96.098,116.201C96.048,117.103 95.829,118.112 96.426,118.882C97.023,119.653 97.902,119.637 98.769,119.637L112.16,119.637C115.069,119.637 117.978,119.637 120.888,119.637L122.257,119.637L122.055,119.434L122.055,122.805C122.055,122.857 122.076,122.907 122.113,122.943C122.149,122.98 122.199,123.001 122.251,123.001C122.302,123.001 122.352,122.98 122.389,122.943C122.425,122.907 122.446,122.857 122.446,122.805C122.446,121.682 122.446,120.559 122.446,119.434C122.445,119.38 122.423,119.329 122.386,119.292C122.348,119.254 122.297,119.233 122.244,119.232L116.955,119.224C113.439,119.224 109.923,119.224 106.407,119.224L98.61,119.224C98.407,119.224 98.205,119.224 98.003,119.224C96.967,119.202 96.386,118.382 96.447,117.4C96.575,115.353 96.661,113.305 96.706,111.255C96.762,108.61 96.75,105.961 96.604,103.319C96.47,100.859 96.247,98.371 95.668,95.97C94.918,92.864 91.847,91.293 88.987,90.54C84.78,89.433 80.232,89.628 75.981,90.376C71.061,91.234 66.212,92.964 61.995,95.667C59.832,97.038 57.891,98.73 56.237,100.685C54.68,102.559 53.366,104.622 52.326,106.825C50.522,110.597 49.421,114.697 48.849,118.822C48.746,119.573 48.66,120.327 48.59,121.083C48.529,121.777 48.367,122.594 48.644,123.253C49,124.101 49.81,124.442 50.669,124.442L60.641,124.442L69.625,124.442L80.016,124.442L90.969,124.442C94.492,124.442 98.015,124.439 101.537,124.434L110.774,124.421C113.127,124.421 115.477,124.415 117.826,124.404L121.752,124.393L122.256,124.393C122.286,124.389 122.314,124.375 122.334,124.352C122.355,124.329 122.366,124.3 122.366,124.269C122.366,124.238 122.355,124.209 122.334,124.186C122.314,124.163 122.286,124.149 122.256,124.145L122.26,124.13Z" fill="#A7CB16"/>
<path d="M126.334,74.025C127.228,72.341 127.018,70.28 126.477,68.449C125.936,66.619 125.089,64.879 124.752,63.001C124.414,61.124 124.689,58.985 126.08,57.681C127.064,56.755 128.443,56.395 129.757,56.069C132.414,55.413 135.087,54.757 137.816,54.539C138.267,54.503 138.78,54.503 139.095,54.828C139.285,55.062 139.402,55.347 139.431,55.648C139.815,57.719 139.831,59.843 139.697,61.944C139.592,63.602 139.225,65.514 137.755,66.29C136.319,67.049 134.093,66.568 133.375,68.025C133.181,68.417 133.162,68.866 133.145,69.302L133.027,72.51Z" fill="#A7CB16"/>
<path d="M126.444,74.086C127.246,72.567 127.193,70.788 126.82,69.153C126.403,67.336 125.58,65.645 125.121,63.839C124.732,62.314 124.629,60.607 125.285,59.137C125.601,58.421 126.118,57.811 126.772,57.381C127.477,56.92 128.286,56.658 129.094,56.441C130.972,55.938 132.878,55.485 134.79,55.141C135.767,54.959 136.752,54.828 137.742,54.747C138.104,54.718 138.55,54.67 138.865,54.891C139.223,55.142 139.248,55.711 139.311,56.102C139.639,58.07 139.639,60.08 139.495,62.062C139.4,63.39 139.156,65.014 138.032,65.888C136.991,66.698 135.548,66.491 134.367,66.952C134.08,67.051 133.818,67.212 133.601,67.424C133.384,67.637 133.217,67.895 133.112,68.18C132.961,68.617 132.966,69.094 132.948,69.548L132.893,71.032L132.84,72.517C132.83,72.763 133.214,72.763 133.222,72.517C133.262,71.473 133.3,70.43 133.339,69.387C133.357,68.933 133.36,68.449 133.591,68.041C133.735,67.791 133.947,67.586 134.201,67.451C134.759,67.142 135.43,67.072 136.05,66.972C136.706,66.867 137.376,66.75 137.957,66.412C139.238,65.67 139.662,64.116 139.83,62.745C140.029,60.808 140.029,58.856 139.83,56.919C139.772,56.436 139.708,55.949 139.608,55.474C139.528,55.093 139.372,54.723 139.023,54.518C138.674,54.313 138.285,54.313 137.914,54.336C137.407,54.368 136.901,54.426 136.399,54.491C134.388,54.755 132.415,55.216 130.449,55.703C128.809,56.108 126.962,56.453 125.765,57.745C124.709,58.883 124.366,60.517 124.463,62.03C124.697,65.674 127.5,68.969 126.685,72.718C126.592,73.152 126.442,73.572 126.239,73.966C126.17,74.102 126.373,74.222 126.444,74.086Z" fill="#A7CB16"/>
<path d="M133.145,69.309C133.137,68.898 133.204,68.488 133.343,68.102C132.884,67.465 132.225,66.964 131.457,66.847C130.839,66.755 130.211,66.916 129.629,67.142C128.518,67.583 127.503,68.235 126.641,69.063C127.049,70.729 127.133,72.526 126.334,74.027L133.027,72.517L133.145,69.309Z" fill="#000000"/>
<path d="M133.309,69.309C133.306,68.972 133.35,68.637 133.439,68.313C133.483,68.174 133.537,68.095 133.447,67.969C133.365,67.853 133.275,67.744 133.178,67.641C132.808,67.227 132.334,66.922 131.805,66.757C130.595,66.401 129.248,67.034 128.228,67.647C127.617,68.017 127.046,68.451 126.526,68.941C126.505,68.962 126.489,68.988 126.482,69.017C126.474,69.046 126.475,69.077 126.483,69.105C126.869,70.698 126.975,72.449 126.193,73.945C126.177,73.973 126.17,74.005 126.172,74.037C126.175,74.069 126.186,74.1 126.206,74.125C126.225,74.151 126.252,74.17 126.282,74.18C126.313,74.191 126.346,74.192 126.377,74.184L132.253,72.858L133.073,72.674C133.108,72.664 133.139,72.642 133.161,72.613C133.183,72.583 133.194,72.547 133.193,72.51C133.232,71.441 133.272,70.371 133.312,69.302C133.312,69.092 132.994,69.092 132.984,69.302C132.945,70.371 132.905,71.441 132.865,72.51L132.984,72.346L127.11,73.673L126.29,73.856L126.473,74.096C127.293,72.52 127.205,70.688 126.801,69.012L126.759,69.176C127.673,68.296 128.763,67.62 129.958,67.195C130.569,66.99 131.22,66.893 131.841,67.108C132.393,67.321 132.869,67.695 133.206,68.182L133.189,68.057C133.049,68.459 132.98,68.882 132.986,69.307C132.974,69.517 133.301,69.517 133.309,69.309Z" fill="#000000"/>
<path d="M83.907,89.838L57.339,89.838C56.639,89.838 55.967,90.116 55.471,90.612C54.976,91.107 54.697,91.779 54.697,92.48C54.697,93.034 54.872,93.574 55.195,94.023C55.519,94.473 55.976,94.809 56.501,94.984L56.585,95.012C57.713,95.39 58.794,96.542 58.389,97.659C57.803,99.281 54.448,102.889 54.807,102.889Z" fill="#A7CB16"/>
<path d="M83.907,89.715L82.551,89.702C81.372,89.692 80.191,89.678 79.012,89.673L74.133,89.656C72.325,89.656 70.515,89.656 68.705,89.656L63.585,89.656L59.568,89.656L57.476,89.656C56.935,89.643 56.4,89.773 55.926,90.033C55.412,90.335 55.004,90.789 54.76,91.333C54.515,91.876 54.446,92.483 54.561,93.067C54.688,93.686 55.018,94.244 55.498,94.653C55.735,94.855 56.003,95.016 56.292,95.132C56.569,95.228 56.839,95.345 57.098,95.482C57.645,95.81 58.182,96.349 58.271,97.007C58.335,97.477 58.097,97.905 57.866,98.297C57.329,99.156 56.735,99.978 56.088,100.757C55.803,101.121 55.513,101.484 55.229,101.848C55.031,102.089 54.847,102.341 54.679,102.604C54.578,102.768 54.515,103.065 54.806,103.083C55.055,103.098 55.055,102.707 54.806,102.693C54.884,102.693 54.96,102.811 54.97,102.857C54.999,102.958 54.947,102.871 54.97,102.87C54.989,102.832 54.991,102.829 55.003,102.809C55.066,102.704 55.14,102.604 55.214,102.504C55.444,102.194 55.686,101.894 55.926,101.592C56.561,100.79 57.2,99.99 57.774,99.144C58.304,98.363 58.922,97.456 58.525,96.484C58.258,95.89 57.804,95.401 57.231,95.091C56.985,94.961 56.728,94.852 56.464,94.763C56.165,94.651 55.892,94.481 55.66,94.261C55.298,93.922 55.048,93.481 54.943,92.997C54.838,92.512 54.883,92.007 55.072,91.549C55.261,91.091 55.585,90.701 56.001,90.431C56.416,90.161 56.905,90.024 57.4,90.038L59.173,90.038L62.896,90.038L67.816,90.038L73.154,90.038C74.804,90.038 76.454,90.029 78.104,90.024C79.375,90.024 80.646,90.007 81.917,89.996L83.822,89.978L83.907,89.978C83.938,89.974 83.966,89.96 83.986,89.937C84.007,89.914 84.018,89.884 84.018,89.854C84.018,89.823 84.007,89.794 83.986,89.771C83.966,89.748 83.938,89.734 83.907,89.73L83.907,89.715Z" fill="#A7CB16"/>
<path d="M95.845,68.8C95.8,68.842 95.765,68.892 95.74,68.948C95.715,69.004 95.702,69.064 95.7,69.125C95.699,69.186 95.709,69.247 95.731,69.303C95.753,69.36 95.786,69.412 95.828,69.456C101.79,70.754 109.401,72.681 114.075,76.836C120.868,82.881 115.661,93.815 112.261,100.201C109.686,105.039 106.976,109.801 104.13,114.486C103.904,114.858 103.668,115.27 103.727,115.701C103.828,116.442 106.013,117.284 106.069,118.03C106.124,118.814 105.291,119.178 104.661,119.342C103.825,119.561 101.691,119.258 100.829,119.322C99.482,119.422 98.055,119.168 97.865,117.595C97.668,115.955 98.41,114.387 98.656,112.803C98.844,111.588 99.03,110.374 99.241,109.164C99.771,106.155 100.458,103.177 101.301,100.241C101.857,98.286 102.464,96.346 103.105,94.417C103.845,92.175 104.438,90.296 106.62,86.722C103.287,86.783 96.058,85.39 91.715,84.298C88.573,83.514 85.28,82.452 83.248,79.929C81.291,77.499 80.904,74.094 81.501,71.031C82.098,67.967 82.728,66.583 84.175,63.815Z" fill="#FFFFFF"/>
<path d="M90.2,42.434C86.319,46.998 83.557,52.406 82.135,58.226C81.623,60.331 81.939,59.444 81.246,61.496C80.97,62.316 80.634,63.136 80.667,63.998C80.713,65.178 81.467,66.242 82.428,66.927C83.389,67.613 84.542,67.969 85.685,68.261C88.344,68.937 91.071,69.311 93.815,69.376C94.828,69.401 95.947,69.341 96.683,68.646C97.546,67.826 97.503,66.614 97.708,65.54C97.921,64.506 98.224,63.492 98.613,62.511C98.94,61.572 99.182,60.605 99.335,59.623C99.712,57.514 99.827,55.341 99.481,53.219C99.025,50.372 97.705,47.605 95.505,45.74Z" fill="#000000"/>
<path d="M90.12,42.347C87.142,45.793 84.809,49.747 83.232,54.019C82.566,55.874 82.026,57.771 81.616,59.698C81.454,60.34 81.257,60.972 81.024,61.591C80.653,62.67 80.276,63.774 80.653,64.905C81.378,67.083 83.689,67.946 85.716,68.458C88.204,69.085 90.752,69.45 93.316,69.547C94.323,69.584 95.44,69.637 96.35,69.128C97.26,68.62 97.595,67.652 97.742,66.668C97.819,66.155 97.88,65.642 97.996,65.133C98.136,64.535 98.307,63.945 98.51,63.365C98.72,62.76 98.956,62.168 99.123,61.548C99.287,60.958 99.4,60.356 99.509,59.754C99.948,57.309 100.053,54.775 99.509,52.335C99.068,50.261 98.129,48.325 96.773,46.695C96.433,46.298 96.062,45.929 95.664,45.589C95.448,45.406 95.133,45.717 95.35,45.904C96.914,47.263 98.081,49.02 98.728,50.988C99.484,53.209 99.63,55.58 99.392,57.906C99.274,59.13 99.055,60.342 98.736,61.53C98.425,62.668 97.936,63.748 97.659,64.899C97.536,65.417 97.462,65.939 97.388,66.463C97.341,66.929 97.228,67.386 97.052,67.82C96.609,68.804 95.643,69.132 94.636,69.196C93.466,69.235 92.295,69.184 91.133,69.043C89.89,68.921 88.654,68.735 87.43,68.485C86.276,68.276 85.142,67.972 84.038,67.577C83.054,67.203 82.126,66.64 81.506,65.773C81.203,65.364 80.994,64.892 80.895,64.392C80.812,63.829 80.861,63.254 81.039,62.713C81.285,61.852 81.633,61.024 81.875,60.164C82.025,59.639 82.116,59.098 82.243,58.568C82.498,57.494 82.795,56.436 83.141,55.38C84.517,51.21 86.583,47.3 89.254,43.813C89.588,43.376 89.933,42.947 90.288,42.526C90.389,42.408 90.218,42.234 90.115,42.354L90.12,42.347Z" fill="#000000"/>
<path d="M100.991,32.551C101.811,33.99 101.072,36.013 102.084,37.321C102.19,37.433 102.273,37.566 102.328,37.711C102.408,38.014 102.184,38.252 101.89,38.414C101.331,38.726 101.362,39.53 101.29,40.081C101.214,40.661 101.187,41.255 101.075,41.831C100.982,42.323 100.775,42.823 100.372,43.123C100.039,43.35 99.64,43.461 99.238,43.438C98.64,43.425 98.072,43.198 97.474,43.169C97.272,43.159 97.046,43.152 96.893,43.287C96.799,43.385 96.734,43.507 96.703,43.639C96.461,44.361 96.23,45.086 96.009,45.816C95.97,46.011 95.874,46.19 95.734,46.331C95.537,46.495 95.256,46.473 95.009,46.439C94.065,46.3 93.159,45.975 92.343,45.482C91.526,44.99 90.816,44.34 90.253,43.571C90.138,43.441 90.072,43.276 90.067,43.103C90.105,42.933 90.195,42.778 90.325,42.662C91.349,41.458 92.066,40.024 92.413,38.482C92.983,36.069 91.891,32.906 93.748,30.89C94.193,30.411 94.773,30.078 95.411,29.934C96.495,29.712 97.622,29.818 98.646,30.237C99.548,30.593 100.714,31.29 100.864,32.348Z" fill="#FFFFFF"/>
<path d="M100.883,32.615C101.574,33.891 101.085,35.428 101.583,36.756C101.635,36.897 101.698,37.033 101.772,37.163C101.865,37.327 101.998,37.462 102.1,37.621C102.348,38.037 101.844,38.183 101.608,38.409C101.167,38.821 101.188,39.505 101.116,40.049C101.064,40.489 101.031,40.93 100.972,41.361C100.939,41.756 100.833,42.142 100.66,42.498C100.209,43.318 99.294,43.307 98.484,43.138C98.086,43.032 97.676,42.977 97.264,42.974C97.102,42.975 96.944,43.029 96.816,43.128C96.688,43.228 96.597,43.366 96.555,43.523C96.403,43.948 96.271,44.384 96.135,44.815C96.068,45.027 96.001,45.24 95.935,45.453C95.89,45.658 95.822,45.857 95.734,46.047C95.53,46.403 95.009,46.254 94.684,46.19C94.307,46.11 93.937,46 93.577,45.862C92.523,45.461 91.582,44.813 90.832,43.972C90.713,43.84 90.6,43.703 90.494,43.562C90.387,43.421 90.195,43.206 90.29,42.99C90.401,42.81 90.533,42.645 90.684,42.498C90.81,42.334 90.93,42.183 91.045,42.021C91.272,41.698 91.477,41.361 91.66,41.012C92.363,39.698 92.748,38.238 92.785,36.748C92.814,35.374 92.647,33.96 93.008,32.612C93.175,31.942 93.522,31.331 94.012,30.844C94.617,30.297 95.398,29.985 96.214,29.965C97.067,29.924 97.917,30.075 98.704,30.408C99.323,30.646 99.88,31.022 100.332,31.508C100.544,31.749 100.686,32.043 100.744,32.358C100.773,32.522 101.021,32.453 100.998,32.287C100.793,30.833 99.055,30.057 97.792,29.775C96.935,29.567 96.041,29.576 95.189,29.803C94.447,30.023 93.799,30.485 93.349,31.115C92.47,32.319 92.426,33.875 92.432,35.307C92.432,36.043 92.458,36.783 92.393,37.514C92.311,38.312 92.115,39.095 91.812,39.838C91.495,40.665 91.059,41.442 90.52,42.145C90.31,42.418 89.921,42.716 89.902,43.085C89.882,43.454 90.23,43.812 90.454,44.081C91.486,45.293 92.881,46.139 94.433,46.493C94.786,46.573 95.205,46.682 95.566,46.59C95.968,46.486 96.101,46.126 96.211,45.77C96.349,45.317 96.49,44.866 96.634,44.417L96.855,43.743C96.937,43.498 97.009,43.336 97.295,43.326C98.177,43.295 98.999,43.761 99.889,43.53C100.699,43.318 101.119,42.601 101.265,41.822C101.419,41.002 101.429,40.164 101.557,39.344C101.611,39.016 101.721,38.716 102.013,38.534C102.305,38.352 102.558,38.104 102.521,37.749C102.494,37.575 102.416,37.414 102.297,37.284C102.167,37.126 102.057,36.953 101.969,36.769C101.823,36.438 101.729,36.085 101.69,35.725C101.593,34.977 101.623,34.216 101.475,33.473C101.408,33.122 101.285,32.784 101.111,32.471C101.032,32.33 100.818,32.455 100.895,32.597L100.883,32.615Z" fill="#000000"/>
<path d="M95.94,41.762C96.191,42.053 96.314,42.454 96.476,42.798C96.694,43.264 97.101,43.848 97.649,43.946C97.977,44.005 98.323,43.872 98.643,43.825C98.767,43.807 98.962,43.767 99.013,43.638C98.843,43.565 98.669,43.505 98.49,43.457C97.951,43.274 97.77,43.188 97.477,42.7C97.183,42.211 96.985,40.861 96.855,40.307Z" fill="#000000"/>
<path d="M95.853,41.842C96.114,42.17 96.214,42.603 96.396,42.98C96.552,43.318 96.783,43.615 97.072,43.849C97.218,43.964 97.388,44.044 97.57,44.086C97.751,44.127 97.939,44.129 98.121,44.091C98.334,44.054 98.549,44.009 98.761,43.963C98.839,43.953 98.914,43.925 98.981,43.883C99.047,43.84 99.103,43.782 99.144,43.715C99.165,43.678 99.17,43.635 99.159,43.594C99.149,43.554 99.123,43.519 99.087,43.497C98.736,43.333 98.323,43.293 97.995,43.074C97.744,42.88 97.561,42.612 97.472,42.308C97.242,41.642 97.199,40.934 96.994,40.264C96.984,40.226 96.959,40.193 96.924,40.173C96.889,40.153 96.848,40.147 96.809,40.158C96.77,40.168 96.737,40.194 96.717,40.228C96.697,40.263 96.692,40.304 96.703,40.343C96.819,41.061 96.939,41.827 97.206,42.506C97.318,42.82 97.515,43.096 97.775,43.305C98.116,43.558 98.552,43.594 98.923,43.772L98.866,43.554C98.805,43.669 98.582,43.666 98.47,43.687C98.279,43.734 98.084,43.769 97.888,43.792C97.722,43.794 97.558,43.757 97.408,43.685C97.258,43.613 97.127,43.508 97.024,43.377C96.57,42.877 96.448,42.183 96.012,41.678C95.915,41.565 95.764,41.726 95.848,41.842L95.853,41.842Z" fill="#000000"/>
<path d="M100.391,36.141L100.391,36.123C100.392,36.107 100.392,36.092 100.391,36.076C100.38,36.043 100.363,36.013 100.34,35.987C100.296,35.945 100.237,35.922 100.176,35.922C100.157,35.92 100.139,35.92 100.12,35.922L100.097,35.922C100.072,35.931 100.047,35.942 100.024,35.956C99.978,35.986 99.94,36.026 99.912,36.072C99.886,36.12 99.871,36.174 99.868,36.228C99.863,36.285 99.874,36.342 99.901,36.392C99.912,36.414 99.927,36.435 99.945,36.453C99.953,36.463 99.963,36.472 99.974,36.479C99.984,36.488 99.994,36.495 100.005,36.502C100.056,36.529 100.113,36.539 100.169,36.53C100.203,36.526 100.235,36.516 100.265,36.501C100.287,36.489 100.308,36.473 100.325,36.455C100.339,36.441 100.351,36.425 100.361,36.409C100.379,36.379 100.389,36.345 100.389,36.31C100.39,36.271 100.379,36.232 100.358,36.199L100.333,36.164L100.299,36.14L100.26,36.122C100.238,36.116 100.216,36.116 100.194,36.122C100.18,36.122 100.166,36.125 100.153,36.132C100.14,36.136 100.127,36.143 100.117,36.153C100.106,36.161 100.096,36.171 100.087,36.182C100.073,36.198 100.063,36.217 100.058,36.238L100.074,36.197C100.075,36.201 100.075,36.206 100.074,36.21L100.101,36.176L100.058,36.232L100.086,36.195C100.081,36.201 100.076,36.206 100.071,36.21L100.107,36.182L100.087,36.194L100.13,36.176L100.102,36.184L100.15,36.184L100.124,36.184L100.169,36.184L100.148,36.184L100.189,36.202C100.183,36.2 100.177,36.197 100.173,36.192L100.207,36.22C100.201,36.215 100.195,36.209 100.191,36.202L100.217,36.238C100.212,36.23 100.208,36.222 100.204,36.214L100.22,36.255C100.216,36.244 100.212,36.233 100.21,36.222L100.21,36.266C100.209,36.25 100.209,36.234 100.21,36.218L100.21,36.264C100.214,36.249 100.218,36.233 100.224,36.218L100.207,36.258C100.216,36.239 100.226,36.221 100.237,36.204L100.212,36.238C100.22,36.227 100.229,36.217 100.24,36.209L100.207,36.235C100.216,36.227 100.226,36.221 100.237,36.215L100.201,36.232L100.229,36.223L100.188,36.223L100.215,36.223L100.174,36.223L100.202,36.232L100.166,36.217L100.214,36.235L100.227,36.235L100.192,36.22C100.199,36.222 100.204,36.225 100.209,36.23L100.183,36.209L100.196,36.222L100.176,36.195C100.19,36.219 100.211,36.237 100.237,36.246C100.263,36.256 100.291,36.256 100.317,36.246C100.338,36.24 100.356,36.229 100.373,36.215C100.396,36.191 100.41,36.159 100.411,36.125L100.391,36.141Z" fill="#000000"/>
<path d="M100.747,35.157C100.735,35.077 100.65,35.018 100.583,34.974C100.575,34.974 100.53,34.931 100.519,34.934L100.54,34.951L100.488,34.91C100.46,34.896 100.432,34.885 100.402,34.875C100.276,34.844 100.147,34.829 100.017,34.829L100.096,34.839L100.083,34.839L100.004,35.42C100.086,35.42 100.168,35.407 100.252,35.407C100.334,35.408 100.417,35.415 100.499,35.426L100.419,35.417L100.435,35.417L100.516,34.828C100.374,34.818 100.232,34.818 100.091,34.828L99.883,34.847C99.789,34.853 99.696,34.867 99.605,34.89C99.566,34.9 99.53,34.918 99.497,34.942C99.465,34.966 99.438,34.997 99.418,35.032C99.398,35.067 99.385,35.105 99.38,35.145C99.375,35.185 99.378,35.226 99.389,35.265C99.4,35.304 99.418,35.34 99.444,35.371C99.469,35.403 99.5,35.429 99.536,35.448C99.571,35.467 99.61,35.479 99.65,35.483C99.69,35.487 99.731,35.483 99.769,35.471L99.837,35.451C99.888,35.436 99.933,35.407 99.968,35.367C100.002,35.327 100.025,35.277 100.032,35.225C100.038,35.172 100.03,35.118 100.007,35.07C99.984,35.022 99.948,34.982 99.902,34.954L99.842,34.92L99.689,35.482C99.791,35.472 99.891,35.446 99.992,35.431L99.912,35.443C100.113,35.418 100.317,35.415 100.519,35.433C100.558,35.433 100.597,35.425 100.634,35.41C100.67,35.395 100.703,35.372 100.73,35.344C100.776,35.297 100.805,35.237 100.814,35.172C100.825,35.101 100.809,35.028 100.769,34.967C100.729,34.907 100.669,34.863 100.599,34.844C100.377,34.805 100.15,34.805 99.928,34.844C99.888,34.855 99.851,34.875 99.818,34.902C99.786,34.929 99.76,34.962 99.742,35C99.724,35.038 99.714,35.079 99.713,35.121C99.712,35.163 99.72,35.204 99.737,35.243C99.75,35.28 99.772,35.314 99.801,35.343C99.829,35.371 99.863,35.393 99.901,35.407C99.943,35.424 99.989,35.431 100.034,35.429C100.08,35.426 100.124,35.414 100.165,35.392L100.176,35.392L100.107,35.421C100.186,35.402 100.266,35.388 100.347,35.377L100.278,35.385L100.363,35.385C100.393,35.385 100.43,35.385 100.453,35.371C100.476,35.356 100.47,35.362 100.434,35.371L100.494,35.371L100.476,35.371L100.498,35.371C100.545,35.382 100.594,35.382 100.642,35.371C100.681,35.358 100.714,35.331 100.735,35.295C100.755,35.26 100.761,35.217 100.752,35.177L100.747,35.157Z" fill="#000000"/>
<path d="M95.466,35.968L95.486,35.968C95.507,35.968 95.463,35.956 95.486,35.968C95.496,35.976 95.508,35.983 95.52,35.989L95.535,36.002L95.548,36.018C95.565,36.035 95.532,35.994 95.548,36.018C95.556,36.03 95.563,36.041 95.569,36.053L95.579,36.074C95.579,36.086 95.568,36.045 95.579,36.074C95.59,36.105 95.598,36.137 95.602,36.169L95.602,36.135C95.609,36.181 95.609,36.227 95.602,36.273L95.602,36.235L95.602,36.256L95.615,36.223C95.62,36.217 95.625,36.211 95.632,36.207C95.643,36.199 95.643,36.199 95.632,36.207L95.665,36.194L95.65,36.194L95.686,36.194C95.681,36.196 95.676,36.196 95.671,36.194L95.707,36.194L95.699,36.194L95.732,36.209C95.747,36.218 95.759,36.23 95.768,36.245L95.781,36.278C95.78,36.274 95.78,36.27 95.781,36.266L95.781,36.304L95.781,36.342C95.78,36.338 95.78,36.334 95.781,36.33L95.766,36.363L95.766,36.353L95.743,36.381L95.753,36.373L95.725,36.394L95.735,36.394L95.702,36.407L95.715,36.407L95.678,36.407L95.702,36.407L95.665,36.407C95.69,36.415 95.716,36.42 95.742,36.422C95.769,36.421 95.795,36.413 95.817,36.398C95.839,36.383 95.856,36.361 95.866,36.337C95.877,36.312 95.88,36.284 95.875,36.258C95.87,36.231 95.857,36.207 95.838,36.187C95.811,36.162 95.777,36.144 95.741,36.136C95.704,36.128 95.666,36.129 95.63,36.14C95.592,36.151 95.559,36.174 95.535,36.206C95.51,36.237 95.497,36.276 95.496,36.315C95.497,36.353 95.51,36.389 95.534,36.418C95.557,36.448 95.589,36.469 95.625,36.479C95.658,36.487 95.691,36.486 95.723,36.477C95.755,36.468 95.784,36.451 95.807,36.427C95.838,36.383 95.858,36.333 95.865,36.28C95.871,36.227 95.865,36.173 95.847,36.123C95.829,36.039 95.791,35.961 95.737,35.894C95.682,35.826 95.605,35.779 95.519,35.763C95.489,35.755 95.457,35.759 95.43,35.774C95.405,35.79 95.386,35.814 95.378,35.843C95.37,35.872 95.374,35.904 95.389,35.93C95.404,35.957 95.429,35.976 95.458,35.984L95.466,35.968Z" fill="#000000"/>
<path d="M98.525,38.826C98.511,38.972 98.539,39.12 98.605,39.251C98.66,39.387 98.735,39.515 98.827,39.63C98.997,39.852 99.23,40.019 99.496,40.109C99.53,40.118 99.567,40.114 99.599,40.098C99.632,40.082 99.657,40.055 99.671,40.022C99.685,39.989 99.687,39.952 99.675,39.918C99.664,39.884 99.641,39.855 99.61,39.836C99.499,39.789 99.394,39.73 99.296,39.659C99.296,39.659 99.268,39.638 99.282,39.659L99.245,39.628L99.174,39.562C99.132,39.521 99.092,39.477 99.055,39.431L99.017,39.379C99,39.354 98.984,39.33 98.969,39.305C98.938,39.252 98.91,39.197 98.886,39.141C98.866,39.094 98.849,39.046 98.835,38.997C98.821,38.927 98.8,38.859 98.772,38.793C98.758,38.771 98.738,38.753 98.714,38.742C98.691,38.731 98.664,38.727 98.638,38.731C98.612,38.734 98.588,38.745 98.568,38.762C98.547,38.779 98.533,38.801 98.525,38.826Z" fill="#000000"/>
<path d="M101.496,32.766C100.715,33.04 99.95,33.355 99.174,33.64C98.549,33.87 97.877,34.057 97.454,34.624C96.855,35.436 97.001,36.592 96.952,37.552C96.888,38.788 96.878,40.028 96.855,41.265C96.847,41.66 96.814,42.111 96.511,42.352C95.794,42.924 94.552,42.436 93.803,42.17C92.199,41.604 90.533,40.653 89.718,39.098C88.699,37.153 88.042,34.852 88.648,32.732C89.091,31.281 90.031,30.033 91.302,29.206C92.555,28.403 93.995,27.939 95.481,27.861C96.939,27.761 98.488,28 99.745,28.791C101.001,29.581 102.787,32.377 101.488,32.763Z" fill="#A7CB16"/>
<path d="M101.457,32.623C100.617,32.907 99.792,33.238 98.956,33.53C98.318,33.753 97.644,33.999 97.24,34.575C96.837,35.151 96.77,35.917 96.757,36.615C96.739,37.453 96.701,38.29 96.68,39.128C96.669,39.587 96.661,40.045 96.657,40.502C96.678,40.911 96.666,41.322 96.621,41.729C96.601,41.89 96.53,42.04 96.418,42.158C96.307,42.276 96.16,42.356 96.001,42.385C95.674,42.448 95.338,42.435 95.017,42.349C94.368,42.193 93.736,41.976 93.127,41.703C92.466,41.425 91.843,41.064 91.274,40.628C90.709,40.196 90.24,39.652 89.897,39.029C89.502,38.299 89.185,37.53 88.95,36.733C88.506,35.198 88.43,33.522 89.1,32.038C90.428,29.094 93.856,27.761 96.935,28.063C97.738,28.134 98.519,28.354 99.241,28.71C99.741,28.967 100.187,29.318 100.553,29.744C100.928,30.162 101.245,30.629 101.495,31.133C101.659,31.461 101.872,31.953 101.752,32.327C101.73,32.394 101.692,32.456 101.641,32.505C101.59,32.555 101.527,32.591 101.459,32.61C101.258,32.673 101.344,32.988 101.545,32.924C102.592,32.596 101.993,31.249 101.626,30.614C101.324,30.093 100.955,29.615 100.527,29.191C100.053,28.736 99.49,28.382 98.874,28.153C97.316,27.536 95.533,27.541 93.918,27.913C92.302,28.286 90.813,29.094 89.746,30.355C88.687,31.598 88.149,33.2 88.242,34.829C88.294,35.689 88.466,36.538 88.753,37.35C89.007,38.151 89.363,38.917 89.811,39.628C90.658,40.889 92.02,41.694 93.409,42.234C94.049,42.482 94.721,42.741 95.405,42.806C96.089,42.872 96.817,42.632 96.991,41.898C97.063,41.479 97.091,41.053 97.075,40.628C97.088,40.136 97.096,39.659 97.108,39.174C97.127,38.301 97.163,37.429 97.183,36.55C97.201,35.789 97.295,34.9 97.946,34.4C98.247,34.186 98.579,34.021 98.93,33.908C99.351,33.744 99.769,33.58 100.186,33.416C100.632,33.237 101.08,33.06 101.531,32.896C101.709,32.832 101.636,32.546 101.452,32.609L101.457,32.623Z" fill="#A7CB16"/>
<path d="M88.785,43.275C89.177,42.934 89.551,42.568 89.92,42.201C90.192,41.93 90.248,41.863 90.613,41.973C91.742,42.312 92.847,42.852 93.915,43.346C94.712,43.715 95.504,44.087 96.299,44.459C96.45,44.53 96.614,44.54 96.758,44.602C97.062,44.731 97.004,44.789 96.995,45.148C96.995,45.763 96.937,46.376 96.819,46.98C96.691,47.557 96.273,47.577 95.706,47.49C94.448,47.308 93.229,46.92 92.098,46.342C91.227,45.897 90.259,45.44 89.572,44.725C89.255,44.397 88.859,44.031 88.665,43.611C88.693,43.633 88.713,43.663 88.724,43.697Z" fill="#A7CB16"/>
<path d="M88.866,43.357C89.155,43.115 89.437,42.865 89.713,42.603L90.074,42.263C90.156,42.186 90.238,42.086 90.357,42.086C90.493,42.102 90.626,42.139 90.751,42.195C90.935,42.255 91.118,42.321 91.299,42.39C91.661,42.527 92.019,42.68 92.373,42.839C93.05,43.144 93.723,43.464 94.395,43.78L95.441,44.272C95.752,44.443 96.077,44.588 96.412,44.705C96.506,44.73 96.724,44.75 96.789,44.835C96.819,44.873 96.806,44.935 96.804,44.989C96.789,45.337 96.783,45.683 96.757,46.029C96.752,46.378 96.696,46.724 96.593,47.057C96.556,47.148 96.491,47.224 96.407,47.274C96.323,47.324 96.225,47.345 96.128,47.334C95.819,47.327 95.51,47.288 95.208,47.218C94.88,47.154 94.552,47.076 94.224,46.983C93.537,46.788 92.87,46.528 92.232,46.208C91.566,45.898 90.926,45.538 90.316,45.128C90.022,44.91 89.748,44.666 89.496,44.399C89.225,44.147 88.996,43.853 88.819,43.528L88.55,43.734L88.581,43.785C88.68,43.982 88.975,43.808 88.876,43.611C88.854,43.567 88.826,43.527 88.791,43.492C88.653,43.343 88.442,43.533 88.522,43.7C88.689,44.014 88.905,44.299 89.16,44.546C89.401,44.808 89.66,45.053 89.934,45.279C90.529,45.715 91.165,46.092 91.833,46.406C92.511,46.76 93.219,47.053 93.949,47.282C94.332,47.398 94.72,47.494 95.113,47.57C95.439,47.649 95.771,47.698 96.105,47.718C96.226,47.728 96.347,47.713 96.462,47.676C96.577,47.638 96.683,47.579 96.775,47.5C96.998,47.282 97.04,46.946 97.086,46.652C97.143,46.255 97.177,45.856 97.188,45.455C97.188,45.227 97.271,44.878 97.16,44.663C97.03,44.413 96.691,44.386 96.455,44.305C96.055,44.146 95.664,43.965 95.284,43.764C94.508,43.406 93.734,43.046 92.957,42.695C92.538,42.506 92.117,42.324 91.689,42.158C91.299,42.009 90.869,41.811 90.451,41.763C90.123,41.727 89.942,41.963 89.737,42.176C89.409,42.524 89.065,42.869 88.707,43.193C88.596,43.293 88.758,43.449 88.871,43.357L88.866,43.357Z" fill="#000000"/>
<path d="M97.219,35.216C97.085,36.566 96.996,37.919 96.909,39.272C96.867,39.948 96.825,40.624 96.785,41.301C96.76,41.722 96.717,42.285 96.293,42.488C96.15,42.559 96.252,42.816 96.402,42.749C96.85,42.569 97.042,42.124 97.109,41.671C97.209,41.002 97.211,40.312 97.25,39.638C97.336,38.162 97.414,36.686 97.457,35.21C97.457,35.057 97.237,35.064 97.222,35.21L97.219,35.216Z" fill="#000000"/>
<path d="M97.977,34.477C98.828,34.228 99.666,33.926 100.491,33.603C100.873,33.452 101.265,33.312 101.639,33.14C101.924,33.009 102.219,32.715 102.078,32.374C102.064,32.331 102.034,32.296 101.994,32.274C101.954,32.253 101.907,32.248 101.864,32.26C101.82,32.272 101.782,32.3 101.759,32.339C101.735,32.377 101.728,32.424 101.737,32.468C101.8,32.786 101.204,32.94 100.994,33.03C100.666,33.176 100.32,33.314 99.979,33.45C99.295,33.724 98.605,33.986 97.918,34.254C97.783,34.306 97.832,34.519 97.978,34.477L97.977,34.477Z" fill="#000000"/>
<path d="M95.763,68.718C95.569,68.917 95.477,69.343 95.737,69.538C95.886,69.611 96.047,69.657 96.212,69.673L96.868,69.827C97.714,70.02 98.557,70.22 99.399,70.434C101.178,70.883 102.946,71.383 104.683,71.98C108.035,73.128 111.456,74.655 114.086,77.092C115.228,78.139 116.093,79.451 116.604,80.913C117.069,82.327 117.267,83.815 117.189,85.302C117.066,88.518 116.023,91.665 114.772,94.604C113.417,97.787 111.735,100.836 110.065,103.854C108.958,105.863 107.826,107.856 106.67,109.833C106.1,110.817 105.522,111.795 104.938,112.765C104.641,113.261 104.343,113.753 104.045,114.241C103.809,114.63 103.54,115.042 103.522,115.511C103.499,116.114 104.063,116.495 104.506,116.803C104.783,117.005 105.071,117.192 105.34,117.403C105.522,117.548 105.777,117.731 105.859,117.958C106.118,118.681 104.961,119.106 104.451,119.186C103.741,119.304 102.975,119.211 102.269,119.17C101.909,119.148 101.55,119.125 101.189,119.122C100.873,119.122 100.558,119.155 100.24,119.148C99.558,119.135 98.764,118.984 98.352,118.394C97.808,117.618 98.024,116.426 98.205,115.57C98.431,114.515 98.744,113.492 98.91,112.423C99.259,110.179 99.63,107.941 100.117,105.723C100.604,103.506 101.189,101.279 101.837,99.088C102.401,97.173 103.005,95.27 103.648,93.377C104.104,92.015 104.662,90.689 105.316,89.41C105.77,88.531 106.265,87.675 106.78,86.83C106.797,86.801 106.806,86.768 106.806,86.734C106.806,86.7 106.797,86.667 106.781,86.638C106.764,86.608 106.74,86.583 106.712,86.566C106.683,86.548 106.65,86.538 106.616,86.537C104.258,86.573 101.87,86.156 99.554,85.755C96.963,85.305 94.382,84.771 91.83,84.133C89.134,83.457 86.277,82.616 84.201,80.669C82.046,78.647 81.285,75.662 81.475,72.784C81.602,71.181 81.933,69.601 82.459,68.082C82.951,66.634 83.645,65.274 84.35,63.925C84.468,63.698 84.125,63.498 84.007,63.724C83.336,64.947 82.746,66.213 82.239,67.513C81.74,68.873 81.385,70.282 81.18,71.716C80.78,74.563 81.213,77.653 83.02,79.97C84.827,82.288 87.663,83.398 90.4,84.162C93.014,84.895 95.686,85.448 98.354,85.937C100.852,86.394 103.397,86.84 105.939,86.921C106.164,86.921 106.387,86.93 106.611,86.921L106.447,86.629C105.493,88.159 104.662,89.763 103.963,91.426C103.376,92.859 102.916,94.347 102.446,95.819C101.029,100.247 99.809,104.743 99.021,109.331C98.826,110.479 98.657,111.616 98.474,112.757C98.31,113.825 97.931,114.85 97.749,115.916C97.606,116.759 97.506,117.812 98.003,118.566C98.379,119.135 99.02,119.402 99.674,119.493C100.329,119.583 101.019,119.493 101.691,119.525C102.475,119.563 103.261,119.647 104.045,119.616C104.683,119.589 105.381,119.412 105.865,118.971C106.349,118.53 106.392,117.892 105.947,117.426C105.503,116.961 104.899,116.651 104.397,116.244C104.223,116.101 103.976,115.916 103.923,115.683C103.81,115.171 104.307,114.574 104.553,114.168C105.756,112.179 106.935,110.175 108.092,108.157C110.088,104.67 112.074,101.159 113.832,97.549C115.252,94.648 116.517,91.616 117.166,88.439C117.77,85.487 117.822,82.27 116.407,79.526C115.661,78.079 114.547,76.925 113.268,75.938C111.841,74.858 110.297,73.942 108.666,73.205C105.301,71.647 101.706,70.64 98.101,69.811C97.691,69.717 97.281,69.624 96.87,69.533C96.663,69.487 96.455,69.446 96.247,69.404C96.155,69.394 96.065,69.376 95.978,69.35C95.773,69.268 95.794,69.022 95.925,68.881C96.025,68.772 95.868,68.612 95.761,68.717L95.763,68.718Z" fill="#000000"/>
<path d="M127.208,55.342C128.164,54.488 129.522,54.293 130.795,54.135C131.246,54.08 131.725,54.027 132.141,54.214C132.528,54.39 132.797,54.747 133.01,55.118C133.426,55.858 133.652,56.691 133.666,57.54C133.68,57.715 133.653,57.892 133.588,58.055C133.506,58.2 133.397,58.327 133.268,58.431L132.092,59.502Z" fill="#FFFFFF"/>
<path d="M89.285,47.69C92.048,46.427 95.318,46.798 98.157,47.882C100.996,48.966 103.528,50.703 106.162,52.217C108.796,53.73 111.65,55.057 114.69,55.187C116.447,55.26 118.19,54.929 119.938,54.721C121.827,54.493 124.607,54.775 126.51,54.834C126.885,54.845 127.287,54.872 127.584,55.103C128.709,55.979 128.92,58.76 127.786,59.683C127.397,60 126.905,60.156 126.424,60.297C121.622,61.717 115.505,62.731 110.497,62.773C106.397,62.808 102.461,61.71 98.664,60.149C94.867,58.588 91.195,56.477 89.432,52.759C89.041,51.939 88.416,49.447 89.285,47.69Z" fill="#000000"/>
<path d="M89.344,47.785C92.284,46.473 95.682,47.021 98.564,48.218C101.621,49.491 104.304,51.461 107.213,53.02C108.617,53.799 110.102,54.421 111.641,54.877C113.228,55.32 114.882,55.475 116.524,55.333C118.126,55.201 119.707,54.857 121.316,54.831C122.775,54.808 124.232,54.921 125.688,54.995C126.027,55.013 126.369,55.018 126.708,55.037C127.033,55.03 127.349,55.147 127.59,55.365C127.923,55.734 128.147,56.189 128.237,56.677C128.445,57.586 128.435,58.939 127.613,59.564C127.026,60.01 126.21,60.157 125.514,60.351C124.786,60.552 124.055,60.74 123.32,60.915C121.768,61.282 120.206,61.593 118.633,61.847C117.059,62.1 115.48,62.293 113.895,62.424C112.36,62.566 110.817,62.611 109.277,62.558C105.932,62.406 102.669,61.514 99.564,60.298C96.957,59.278 94.333,58.047 92.245,56.141C91.238,55.236 90.4,54.158 89.772,52.958C89.274,51.944 89.03,50.824 89.062,49.694C89.057,49.036 89.197,48.385 89.47,47.787C89.585,47.547 89.229,47.338 89.113,47.577C88.519,48.804 88.555,50.253 88.842,51.559C89.103,52.741 89.692,53.794 90.423,54.754C92.132,56.996 94.584,58.517 97.114,59.674C100.142,61.064 103.368,62.166 106.67,62.663C109.9,63.155 113.19,62.922 116.415,62.517C119.621,62.126 122.793,61.497 125.904,60.633C126.605,60.436 127.38,60.271 127.953,59.782C128.314,59.436 128.555,58.984 128.642,58.491C128.865,57.46 128.719,56.187 128.074,55.323C127.924,55.103 127.723,54.924 127.487,54.801C127.149,54.668 126.787,54.606 126.424,54.619C125.704,54.595 124.986,54.549 124.268,54.508C122.803,54.427 121.316,54.344 119.858,54.516C118.07,54.732 116.281,55.07 114.474,54.96C112.806,54.859 111.179,54.386 109.644,53.74C106.518,52.428 103.766,50.409 100.763,48.858C97.898,47.382 94.644,46.321 91.392,46.898C90.646,47.031 89.92,47.258 89.231,47.574C89.091,47.638 89.213,47.841 89.35,47.779L89.344,47.785Z" fill="#000000"/>
<path d="M127.264,55.444C127.534,55.252 127.818,55.081 128.113,54.931C128.426,54.791 128.751,54.681 129.084,54.603C129.753,54.45 130.432,54.347 131.116,54.293C131.49,54.258 131.879,54.263 132.207,54.468C132.486,54.667 132.711,54.932 132.863,55.239C133.237,55.899 133.453,56.637 133.496,57.394C133.526,57.599 133.503,57.808 133.429,58.001C133.322,58.164 133.187,58.307 133.03,58.422C132.677,58.741 132.299,59.044 131.977,59.393C131.867,59.513 132.017,59.739 132.159,59.631C132.527,59.351 132.856,59.014 133.197,58.703C133.474,58.449 133.752,58.219 133.802,57.824C133.903,57.027 133.671,56.136 133.351,55.415C133.032,54.693 132.568,54.019 131.749,53.909C131.34,53.877 130.929,53.898 130.526,53.971C130.137,54.022 129.752,54.083 129.368,54.168C128.594,54.342 127.652,54.631 127.118,55.259C127.037,55.354 127.141,55.518 127.259,55.443L127.264,55.444Z" fill="#000000"/>
<path d="M130.862,56.254C130.078,56.272 129.301,56.769 129.043,57.511C128.786,58.252 129.143,59.18 129.863,59.479C130.146,59.584 130.452,59.61 130.748,59.552C131.044,59.494 131.318,59.355 131.539,59.151C131.757,58.941 131.928,58.688 132.041,58.408C132.154,58.128 132.206,57.827 132.195,57.525C132.206,57.234 132.114,56.947 131.935,56.717C131.743,56.5 131.17,56.225 130.859,56.258Z" fill="#000000"/>
<path d="M130.862,56.149C130.489,56.139 130.12,56.229 129.793,56.41C129.466,56.591 129.194,56.857 129.006,57.179C128.835,57.493 128.76,57.851 128.791,58.207C128.822,58.563 128.957,58.902 129.18,59.182C129.42,59.465 129.749,59.66 130.113,59.735C130.477,59.81 130.856,59.76 131.189,59.593C131.948,59.249 132.365,58.427 132.384,57.625C132.394,57.202 132.296,56.741 131.945,56.477C131.637,56.235 131.254,56.109 130.862,56.12C130.684,56.139 130.677,56.415 130.862,56.405C131.141,56.389 131.4,56.549 131.623,56.7C131.744,56.785 131.842,56.898 131.91,57.03C131.977,57.161 132.012,57.307 132.01,57.455C132.046,58.103 131.787,58.816 131.218,59.174C130.7,59.502 129.995,59.51 129.549,59.052C129.357,58.848 129.227,58.595 129.172,58.321C129.117,58.047 129.14,57.762 129.239,57.501C129.493,56.845 130.187,56.446 130.862,56.374C130.892,56.374 130.92,56.362 130.941,56.341C130.962,56.32 130.974,56.292 130.974,56.262C130.974,56.233 130.962,56.205 130.941,56.184C130.92,56.163 130.892,56.151 130.862,56.151L130.862,56.149Z" fill="#000000"/>
<path d="M105.706,111.855C104.243,111.647 102.667,112.131 101.81,113.318C102.085,112.815 101.706,112.154 101.18,111.921C100.653,111.688 100.05,111.757 99.481,111.839L98.792,111.934C98.748,112.224 98.703,112.515 98.656,112.808C98.41,114.392 97.672,115.965 97.865,117.6C98.056,119.173 99.483,119.427 100.829,119.327C101.692,119.263 103.825,119.567 104.662,119.347C105.291,119.183 106.125,118.814 106.069,118.035C106.013,117.289 103.829,116.447 103.727,115.706C103.668,115.275 103.904,114.863 104.13,114.491C104.659,113.613 105.185,112.734 105.706,111.855Z" fill="#000000"/>
<path d="M92.496,70.445C92.332,70.773 92.209,71.129 92.055,71.465C91.901,71.802 91.727,72.161 91.563,72.502C91.222,73.177 90.849,73.833 90.446,74.47L90.728,74.47L89.97,73.03L89.867,73.283C90.305,73.194 90.764,73.135 91.192,73.007C91.369,72.953 91.346,72.643 91.146,72.666C90.685,72.723 90.228,72.853 89.775,72.95C89.75,72.957 89.727,72.97 89.707,72.988C89.688,73.006 89.672,73.027 89.662,73.052C89.652,73.076 89.648,73.103 89.65,73.129C89.651,73.155 89.659,73.181 89.672,73.204L90.446,74.636C90.46,74.66 90.481,74.68 90.506,74.694C90.531,74.709 90.559,74.716 90.587,74.716C90.615,74.716 90.643,74.709 90.668,74.694C90.693,74.68 90.714,74.66 90.728,74.636C91.129,73.98 91.5,73.308 91.84,72.62C92.003,72.292 92.156,71.954 92.301,71.607C92.462,71.259 92.601,70.902 92.717,70.537C92.753,70.411 92.553,70.322 92.501,70.445L92.496,70.445Z" fill="#A7CB16"/>
<path d="M90.416,75.623C90.205,76.223 90.479,76.877 90.93,77.292C91.466,77.784 92.209,77.968 92.898,78.166C94.423,78.609 95.91,79.168 97.385,79.754C100.337,80.927 103.266,82.222 106.39,82.862C107.289,83.045 108.202,83.147 109.096,83.354C109.321,83.405 109.545,83.46 109.765,83.528C109.946,83.583 110.205,83.647 110.257,83.864C110.328,84.213 109.824,84.52 109.568,84.654C109.546,84.669 109.528,84.689 109.515,84.713C109.502,84.737 109.496,84.763 109.496,84.79C109.496,84.817 109.502,84.844 109.515,84.867C109.528,84.891 109.546,84.911 109.568,84.926C109.841,85.114 110.139,85.263 110.452,85.369L110.352,85.125C106.751,91.364 104.064,98.088 102.374,105.09C101.898,107.065 101.503,109.057 101.19,111.066C101.162,111.248 101.439,111.325 101.467,111.143C102.596,104.045 104.737,97.144 107.822,90.652C108.688,88.828 109.627,87.042 110.639,85.292C110.652,85.27 110.66,85.246 110.662,85.221C110.664,85.195 110.66,85.17 110.651,85.146C110.641,85.123 110.626,85.102 110.607,85.085C110.588,85.068 110.566,85.056 110.541,85.049C110.253,84.949 109.978,84.817 109.721,84.654L109.721,84.926C110.151,84.689 110.841,84.131 110.454,83.58C110.267,83.311 109.885,83.237 109.59,83.159C109.181,83.049 108.77,82.968 108.348,82.898C107.528,82.757 106.708,82.635 105.898,82.448C105.088,82.261 104.334,82.047 103.566,81.792C100.473,80.797 97.532,79.385 94.454,78.348C94.034,78.207 93.612,78.076 93.188,77.953C92.77,77.832 92.343,77.73 91.938,77.574C91.194,77.287 90.359,76.579 90.667,75.685C90.72,75.533 90.479,75.469 90.425,75.619L90.416,75.623Z" fill="#A7CB16"/>
<path d="M104.083,113.648L104.183,113.648L104.224,113.648L104.253,113.648C104.271,113.648 104.268,113.648 104.253,113.648C104.314,113.648 104.374,113.668 104.433,113.681C104.558,113.709 104.676,113.755 104.798,113.789C104.828,113.796 104.859,113.792 104.887,113.779C104.915,113.765 104.936,113.741 104.949,113.713C104.961,113.684 104.963,113.653 104.953,113.623C104.944,113.593 104.925,113.568 104.899,113.551C104.77,113.493 104.634,113.452 104.494,113.431C104.356,113.406 104.215,113.393 104.074,113.392C104.043,113.392 104.012,113.405 103.99,113.427C103.967,113.45 103.955,113.48 103.955,113.512C103.955,113.543 103.968,113.573 103.991,113.596C104.013,113.618 104.043,113.631 104.074,113.632L104.083,113.648Z" fill="#A7CB16"/>
<path d="M103.663,114.463C103.8,114.485 103.936,114.514 104.07,114.55C104.134,114.566 104.197,114.587 104.261,114.607C104.325,114.627 104.399,114.651 104.468,114.666C104.498,114.674 104.53,114.671 104.558,114.657C104.586,114.644 104.608,114.621 104.621,114.592C104.634,114.563 104.636,114.531 104.626,114.5C104.616,114.47 104.596,114.444 104.568,114.428C104.431,114.366 104.286,114.323 104.137,114.299C103.99,114.269 103.842,114.248 103.692,114.235C103.664,114.234 103.637,114.244 103.615,114.263C103.594,114.281 103.58,114.307 103.576,114.335C103.573,114.363 103.579,114.391 103.595,114.415C103.611,114.438 103.635,114.455 103.663,114.461L103.663,114.463Z" fill="#A7CB16"/>
<path d="M103.358,115.208L103.715,115.306L103.894,115.357C103.953,115.375 104.013,115.391 104.074,115.403C104.108,115.412 104.144,115.408 104.175,115.391C104.206,115.375 104.229,115.346 104.238,115.313C104.243,115.296 104.245,115.278 104.243,115.261C104.241,115.244 104.236,115.227 104.228,115.212C104.219,115.196 104.208,115.183 104.194,115.172C104.181,115.161 104.165,115.153 104.148,115.149C104.09,115.129 104.03,115.114 103.969,115.103L103.789,115.058L103.428,114.973C103.399,114.968 103.369,114.974 103.344,114.99C103.318,115.005 103.3,115.03 103.292,115.059C103.284,115.087 103.287,115.118 103.3,115.145C103.314,115.171 103.337,115.192 103.364,115.203L103.358,115.208Z" fill="#A7CB16"/>
<path d="M92.683,57.133C93.416,57.817 94.367,58.145 95.289,58.49C96.331,58.88 97.277,59.379 98.085,60.156C98.202,60.267 98.376,60.094 98.261,59.982C97.5,59.253 96.593,58.694 95.599,58.342C94.638,57.978 93.618,57.678 92.847,56.966C92.737,56.866 92.575,57.029 92.683,57.13L92.683,57.133Z" fill="#A7CB16"/>
<path d="M93.391,34.688C92.913,35.275 92.46,35.885 92.04,36.517C92.016,36.544 91.998,36.576 91.987,36.61C91.976,36.645 91.972,36.681 91.976,36.717C91.994,36.787 92.066,36.828 92.132,36.86C92.465,37.019 92.816,37.135 93.178,37.206C92.991,37.583 92.865,37.988 92.804,38.404C92.796,38.436 92.796,38.469 92.804,38.501C92.849,38.618 93.026,38.55 93.118,38.465C93.772,37.856 94.302,37.126 94.677,36.315C94.708,36.26 94.723,36.198 94.72,36.135C94.709,36.082 94.681,36.035 94.641,35.999C94.339,35.69 93.821,35.815 93.409,35.68C93.546,35.353 93.652,35.013 93.726,34.665C93.715,34.648 93.7,34.634 93.682,34.624C93.664,34.614 93.644,34.609 93.623,34.609C93.603,34.609 93.583,34.614 93.565,34.624C93.547,34.634 93.532,34.648 93.521,34.665Z" fill="#FFFFFF"/>
<path d="M122.26,122.799L122.26,119.427L115.264,119.427C115.256,121.182 115.284,122.809 115.349,124.254L122.26,124.254L122.26,122.799Z" fill="#000000"/>
<path d="M122.423,122.799L122.423,119.427C122.423,119.384 122.405,119.342 122.375,119.311C122.344,119.28 122.302,119.263 122.259,119.263L115.264,119.263C115.221,119.263 115.179,119.28 115.148,119.311C115.117,119.342 115.1,119.384 115.1,119.427C115.1,121.038 115.113,122.647 115.187,124.254C115.187,124.297 115.204,124.339 115.235,124.37C115.266,124.4 115.308,124.418 115.351,124.418L122.262,124.418C122.305,124.418 122.347,124.4 122.378,124.37C122.409,124.339 122.426,124.297 122.426,124.254L122.426,122.799C122.426,122.756 122.409,122.714 122.378,122.683C122.347,122.652 122.305,122.635 122.262,122.635C122.218,122.635 122.177,122.652 122.146,122.683C122.115,122.714 122.098,122.756 122.098,122.799L122.098,124.254L122.262,124.09L115.349,124.09L115.513,124.254C115.441,122.647 115.422,121.038 115.428,119.427L115.264,119.591L122.26,119.591L122.096,119.427L122.096,122.799C122.1,122.839 122.119,122.877 122.149,122.904C122.18,122.932 122.219,122.947 122.26,122.947C122.3,122.947 122.339,122.932 122.37,122.904C122.4,122.877 122.419,122.839 122.423,122.799Z" fill="#000000"/>
<path d="M96.699,82.169C91.989,81.848 87.273,81.664 82.55,81.618C82.267,81.588 81.982,81.641 81.73,81.771C81.604,81.869 81.502,81.994 81.429,82.135C81.356,82.277 81.314,82.432 81.306,82.591C81.157,83.923 82.192,85.094 83.294,85.856C85.385,87.287 87.897,87.972 90.425,87.801C92.947,87.611 95.347,86.636 97.288,85.013C97.815,84.577 98.341,84.018 98.346,83.334C98.351,82.65 97.492,82.022 96.97,82.458Z" fill="#000000"/>
<path d="M96.7,82.043C93.615,81.804 90.527,81.629 87.434,81.52C85.887,81.466 84.34,81.422 82.794,81.404C82.179,81.396 81.53,81.404 81.238,82.047C81.001,82.565 81.046,83.204 81.238,83.733C81.643,84.892 82.648,85.73 83.663,86.357C84.791,87.046 86.03,87.532 87.325,87.795C89.917,88.309 92.606,87.951 94.973,86.778C95.562,86.489 96.127,86.153 96.663,85.774C97.196,85.429 97.677,85.01 98.092,84.53C98.43,84.105 98.697,83.516 98.5,82.972C98.42,82.747 98.279,82.55 98.093,82.402C97.906,82.253 97.682,82.16 97.446,82.132C97.227,82.12 97.012,82.194 96.847,82.339C96.683,82.468 96.903,82.752 97.069,82.627C97.438,82.347 97.889,82.662 98.062,83.019C98.303,83.511 97.954,84.07 97.623,84.428C97.217,84.843 96.766,85.211 96.278,85.525C95.784,85.863 95.265,86.164 94.727,86.425C92.554,87.494 90.098,87.847 87.712,87.434C86.514,87.221 85.36,86.811 84.296,86.22C83.312,85.678 82.328,84.971 81.803,83.954C81.541,83.487 81.457,82.94 81.567,82.416C81.589,82.287 81.647,82.168 81.734,82.072C81.821,81.975 81.934,81.906 82.059,81.871C82.37,81.821 82.686,81.811 82.999,81.84C84.411,81.853 85.821,81.869 87.232,81.904C90.038,81.97 92.843,82.079 95.645,82.232C95.997,82.25 96.349,82.27 96.701,82.291C96.865,82.301 96.865,82.053 96.701,82.04L96.7,82.043Z" fill="#000000"/>
<path d="M119.776,124.253C118.718,115.038 120.542,90.971 122.315,81.864C122.792,79.418 123.417,76.966 124.611,74.778C125.805,72.59 127.633,70.668 129.959,69.768C130.541,69.541 131.169,69.381 131.787,69.473C132.706,69.61 133.468,70.302 133.919,71.113C134.37,71.923 134.565,72.851 134.739,73.764C136.612,83.36 134.985,107.481 134.569,117.287C134.487,119.163 133.684,120.934 132.327,122.232C130.97,123.53 129.165,124.254 127.287,124.253L120.988,124.253Z" fill="#A7CB16"/>
<path d="M119.897,124.254C119.51,120.8 119.569,117.287 119.643,113.817C119.746,109.322 120.001,104.83 120.345,100.346C120.673,96.092 121.08,91.841 121.627,87.606C121.837,85.981 122.07,84.356 122.361,82.742C122.836,80.093 123.45,77.405 124.729,75.018C125.951,72.735 127.935,70.57 130.488,69.817C131.203,69.606 131.935,69.604 132.588,69.996C133.148,70.355 133.592,70.867 133.868,71.472C134.36,72.482 134.524,73.647 134.698,74.752C135.277,78.439 135.354,82.216 135.384,85.94C135.425,90.532 135.307,95.124 135.139,99.716C134.984,103.965 134.774,108.21 134.561,112.456C134.48,114.053 134.404,115.65 134.333,117.246C134.267,118.95 133.587,120.573 132.419,121.816C131.252,123.058 129.674,123.837 127.978,124.009C127.502,124.055 127.023,124.045 126.546,124.047C125.032,124.047 123.517,124.047 122.003,124.062C121.665,124.062 121.326,124.062 120.988,124.062C120.938,124.062 120.891,124.082 120.856,124.117C120.821,124.152 120.801,124.199 120.801,124.249C120.801,124.298 120.821,124.346 120.856,124.381C120.891,124.416 120.938,124.436 120.988,124.436C122.174,124.436 123.361,124.449 124.547,124.454L126.687,124.454C127.234,124.468 127.782,124.445 128.327,124.385C130.028,124.154 131.598,123.346 132.775,122.096C133.952,120.846 134.664,119.23 134.792,117.518C134.849,116.741 134.866,115.957 134.903,115.178C135.095,111.157 135.308,107.142 135.479,103.114C135.677,98.402 135.832,93.686 135.85,88.969C135.866,84.882 135.822,80.769 135.39,76.705C135.307,75.911 135.205,75.119 135.072,74.332C134.874,73.153 134.665,71.897 134.031,70.86C133.321,69.704 132.119,69.03 130.751,69.299C129.447,69.558 128.209,70.329 127.208,71.18C123.374,74.44 122.377,79.747 121.655,84.48C121.049,88.464 120.642,92.479 120.297,96.492C119.901,101.103 119.607,105.725 119.441,110.35C119.3,114.286 119.218,118.243 119.469,122.174C119.514,122.87 119.571,123.563 119.651,124.254C119.669,124.406 119.909,124.408 119.892,124.254L119.897,124.254Z" fill="#A7CB16"/>
<path d="M76.15,89.676L58.888,89.676C58.068,89.676 57.259,89.676 56.446,89.676C56.286,89.679 56.127,89.65 55.978,89.59C55.83,89.531 55.695,89.442 55.581,89.329C55.468,89.217 55.378,89.082 55.317,88.934C55.257,88.786 55.227,88.627 55.229,88.467C55.229,88.183 55.229,87.901 55.229,87.618L55.229,72.877C55.229,72.159 55.216,71.439 55.229,70.721C55.233,70.412 55.358,70.116 55.576,69.897C55.795,69.679 56.09,69.554 56.4,69.55L75.837,69.55C76.257,69.55 76.657,69.566 76.985,69.893C77.313,70.219 77.328,70.637 77.328,71.068L77.328,88.356L77.328,88.505C77.324,88.814 77.2,89.11 76.981,89.329C76.762,89.548 76.466,89.673 76.157,89.676C76.113,89.676 76.072,89.693 76.041,89.724C76.01,89.755 75.993,89.796 75.993,89.84C75.993,89.883 76.01,89.925 76.041,89.956C76.072,89.987 76.113,90.004 76.157,90.004C77.041,89.986 77.654,89.277 77.654,88.418L77.654,71.044C77.654,70.594 77.631,70.173 77.336,69.794C76.983,69.343 76.477,69.219 75.937,69.219L56.531,69.219C55.826,69.219 55.176,69.579 54.965,70.291C54.902,70.586 54.881,70.889 54.904,71.19L54.904,85.833L54.904,88.467C54.903,88.667 54.941,88.865 55.016,89.049C55.091,89.234 55.202,89.403 55.342,89.545C55.483,89.687 55.65,89.799 55.834,89.877C56.017,89.954 56.215,89.995 56.414,89.996L57.105,89.996L76.15,89.996C76.186,89.988 76.219,89.967 76.242,89.938C76.265,89.909 76.278,89.873 76.278,89.836C76.278,89.799 76.265,89.763 76.242,89.734C76.219,89.705 76.186,89.684 76.15,89.676Z" fill="#000000"/>
<path d="M57.826,114.934C58.357,111.415 59.772,108.089 61.937,105.265C64.103,102.442 66.949,100.214 70.21,98.789C74.049,97.149 78.618,96.687 82.502,98.435C84.266,99.231 85.859,100.447 86.956,102.053C88.053,103.659 88.676,105.558 89.032,107.465C89.4,109.421 89.496,111.421 89.559,113.407C89.597,114.625 89.62,115.844 89.628,117.065C89.628,118.258 89.701,119.45 89.705,120.642L89.705,122.432C89.705,122.482 89.725,122.53 89.76,122.566C89.796,122.602 89.844,122.622 89.895,122.622C89.945,122.622 89.994,122.602 90.029,122.566C90.065,122.53 90.085,122.482 90.085,122.432C90.249,119.972 90.307,117.498 90.249,115.032C90.202,112.859 90.144,110.674 89.836,108.519C89.554,106.54 89.047,104.564 88.052,102.816C87.067,101.086 85.645,99.647 83.927,98.643C80.098,96.403 75.399,96.492 71.299,97.93C67.89,99.169 64.857,101.265 62.493,104.016C60.128,106.767 58.512,110.08 57.798,113.636C57.718,114.056 57.652,114.481 57.6,114.906C57.584,115.03 57.805,115.07 57.823,114.935L57.826,114.934Z" fill="#FFFFFF"/>
<path d="M89.724,123.781C89.743,123.841 89.784,123.891 89.837,123.922C89.887,123.952 89.944,123.965 90.001,123.962C90.058,123.961 90.113,123.947 90.163,123.921C90.213,123.894 90.255,123.856 90.287,123.809C90.305,123.778 90.318,123.744 90.323,123.708C90.328,123.672 90.326,123.636 90.316,123.601C90.307,123.566 90.284,123.537 90.253,123.52C90.222,123.502 90.185,123.498 90.151,123.507C90.116,123.517 90.087,123.54 90.069,123.571C90.052,123.602 90.047,123.639 90.057,123.673L90.057,123.691L90.057,123.657C90.058,123.668 90.058,123.679 90.057,123.689L90.057,123.655C90.056,123.666 90.053,123.676 90.049,123.686L90.062,123.653C90.057,123.666 90.05,123.677 90.042,123.688L90.064,123.66C90.052,123.676 90.038,123.69 90.023,123.703L90.049,123.681C90.033,123.694 90.015,123.704 89.996,123.712L90.028,123.699C90.007,123.708 89.987,123.714 89.965,123.717L89.998,123.717C89.979,123.72 89.96,123.72 89.941,123.717L89.973,123.717C89.96,123.716 89.948,123.712 89.936,123.707L89.965,123.719C89.954,123.715 89.943,123.708 89.934,123.701L89.957,123.719C89.949,123.713 89.941,123.706 89.936,123.698L89.954,123.722L89.937,123.694C89.923,123.669 89.898,123.65 89.87,123.642C89.846,123.634 89.819,123.634 89.795,123.642C89.769,123.652 89.749,123.672 89.736,123.697C89.724,123.721 89.722,123.75 89.729,123.776L89.724,123.781Z" fill="#FFFFFF"/>
<path d="M80.217,114.074C80.206,114.038 80.188,114.004 80.163,113.976C80.138,113.947 80.107,113.925 80.073,113.909C80.038,113.893 80.001,113.886 79.963,113.886C79.925,113.886 79.887,113.894 79.853,113.91C79.766,113.948 79.695,114.014 79.65,114.098C79.606,114.182 79.591,114.278 79.609,114.371C79.666,114.858 79.763,115.339 79.899,115.809C80.019,116.301 80.163,116.77 80.329,117.241C80.48,117.724 80.675,118.192 80.909,118.64C81.031,118.855 81.401,118.712 81.316,118.476C81.07,117.749 80.75,117.054 80.529,116.319C80.417,115.952 80.316,115.583 80.227,115.209C80.184,115.035 80.147,114.861 80.111,114.686C80.09,114.585 80.07,114.485 80.052,114.386C80.03,114.279 80.017,114.287 80.109,114.264C80.147,114.252 80.179,114.225 80.199,114.191C80.219,114.156 80.225,114.115 80.217,114.076L80.217,114.074Z" fill="#FFFFFF"/>
<path d="M75.958,114.074C75.947,114.038 75.929,114.004 75.904,113.976C75.879,113.947 75.848,113.925 75.813,113.909C75.779,113.893 75.741,113.886 75.703,113.886C75.666,113.886 75.628,113.894 75.594,113.91C75.507,113.948 75.435,114.014 75.391,114.098C75.347,114.182 75.332,114.278 75.349,114.371C75.407,114.858 75.504,115.339 75.64,115.809C75.759,116.301 75.904,116.77 76.069,117.241C76.221,117.724 76.416,118.192 76.65,118.64C76.771,118.855 77.142,118.712 77.057,118.476C76.811,117.749 76.491,117.054 76.27,116.319C76.158,115.952 76.056,115.583 75.968,115.209C75.925,115.035 75.887,114.861 75.851,114.686C75.831,114.585 75.811,114.485 75.792,114.386C75.771,114.279 75.758,114.287 75.85,114.264C75.888,114.252 75.92,114.225 75.94,114.191C75.959,114.156 75.966,114.115 75.958,114.076L75.958,114.074Z" fill="#FFFFFF"/>
<path d="M71.699,114.074C71.688,114.038 71.67,114.004 71.645,113.976C71.62,113.947 71.589,113.925 71.555,113.909C71.52,113.893 71.483,113.886 71.445,113.886C71.407,113.886 71.369,113.894 71.335,113.91C71.248,113.948 71.177,114.014 71.132,114.098C71.088,114.182 71.073,114.278 71.091,114.371C71.15,114.857 71.247,115.338 71.381,115.809C71.501,116.301 71.647,116.77 71.811,117.241C71.962,117.724 72.157,118.192 72.391,118.64C72.513,118.855 72.883,118.712 72.798,118.476C72.552,117.749 72.232,117.054 72.011,116.319C71.899,115.952 71.798,115.583 71.709,115.209C71.666,115.035 71.629,114.861 71.593,114.686C71.572,114.585 71.552,114.485 71.533,114.386C71.514,114.279 71.501,114.287 71.591,114.264C71.629,114.252 71.661,114.225 71.681,114.191C71.701,114.156 71.707,114.115 71.699,114.076L71.699,114.074Z" fill="#FFFFFF"/>
<path d="M132.302,71.362C132.42,77.184 132.236,83.016 132,88.833C131.764,94.624 131.474,100.413 131.249,106.204C131.121,109.484 131.028,112.764 131,116.044C131,116.07 131.007,116.096 131.021,116.119C131.034,116.141 131.053,116.16 131.076,116.173C131.099,116.187 131.124,116.194 131.151,116.194C131.177,116.194 131.203,116.188 131.226,116.175C131.431,116.073 131.607,116.357 131.62,116.529C131.606,116.736 131.521,116.933 131.38,117.085C131.154,117.394 130.926,117.671 130.813,118.045C130.709,118.389 130.692,118.754 130.761,119.107C130.83,119.46 130.985,119.79 131.211,120.07C131.313,120.195 131.539,120.026 131.436,119.906C131.153,119.538 131.008,119.083 131.024,118.619C131.042,118.099 131.28,117.72 131.585,117.32C131.813,117.021 132.022,116.664 131.859,116.282C131.723,115.967 131.403,115.76 131.074,115.922L131.302,116.052C131.352,110.223 131.617,104.408 131.912,98.579C132.205,92.792 132.512,87.003 132.605,81.209C132.658,77.929 132.632,74.649 132.528,71.369C132.528,71.339 132.516,71.31 132.495,71.289C132.474,71.267 132.445,71.255 132.415,71.255C132.385,71.255 132.356,71.267 132.335,71.289C132.314,71.31 132.302,71.339 132.302,71.369L132.302,71.362Z" fill="#FFFFFF"/>
<path d="M131.21,120.941C131.158,121.258 131.171,121.583 131.249,121.895C131.26,121.923 131.28,121.946 131.307,121.959C131.334,121.973 131.364,121.976 131.393,121.968C131.422,121.96 131.446,121.941 131.462,121.916C131.478,121.891 131.484,121.861 131.479,121.831C131.404,121.56 131.384,121.277 131.421,120.998C131.428,120.97 131.424,120.941 131.41,120.916C131.395,120.89 131.372,120.872 131.344,120.864C131.316,120.856 131.286,120.86 131.261,120.875C131.236,120.889 131.217,120.913 131.21,120.941Z" fill="#FFFFFF"/>
<path d="M125.399,62.409C125.627,63.16 125.868,63.908 126.108,64.656C126.159,64.82 126.41,64.746 126.357,64.587C126.113,63.841 125.865,63.093 125.613,62.35C125.567,62.217 125.358,62.271 125.399,62.409Z" fill="#FFFFFF"/>
<path d="M128.117,65.299C128.15,65.295 128.18,65.28 128.202,65.255C128.224,65.23 128.236,65.198 128.236,65.165C128.236,65.132 128.224,65.1 128.202,65.075C128.18,65.051 128.15,65.035 128.117,65.031C128.084,65.035 128.053,65.051 128.031,65.075C128.009,65.1 127.997,65.132 127.997,65.165C127.997,65.198 128.009,65.23 128.031,65.255C128.053,65.28 128.084,65.295 128.117,65.299Z" fill="#FFFFFF"/>
<path d="M138.088,107.121C138.808,107.705 139.49,108.336 140.13,109.008C142.02,111.068 143.372,113.562 144.066,116.27C144.327,117.292 144.496,118.334 144.572,119.386C144.584,119.55 144.843,119.55 144.836,119.386C144.686,115.606 143.078,111.875 140.556,109.07C139.862,108.273 139.078,107.558 138.221,106.938C138.114,106.865 137.981,107.035 138.081,107.119L138.088,107.121Z" fill="#FFFFFF"/>
<path d="M144.759,120.929C144.864,121.018 144.988,121.083 145.12,121.119C145.253,121.155 145.392,121.162 145.528,121.139C145.663,121.116 145.792,121.063 145.905,120.985C146.018,120.907 146.113,120.805 146.183,120.687C146.193,120.67 146.199,120.652 146.202,120.633C146.204,120.614 146.203,120.594 146.198,120.576C146.193,120.557 146.185,120.54 146.173,120.524C146.162,120.509 146.147,120.496 146.13,120.487C146.114,120.477 146.096,120.471 146.076,120.468C146.057,120.465 146.038,120.466 146.02,120.471C146.001,120.476 145.984,120.485 145.968,120.496C145.953,120.508 145.94,120.522 145.93,120.539C145.911,120.58 145.886,120.618 145.855,120.651C145.826,120.684 145.792,120.714 145.755,120.739C145.673,120.798 145.578,120.837 145.478,120.851L145.442,120.851L145.343,120.851L145.265,120.851L145.246,120.851L145.21,120.851C145.12,120.831 145.037,120.789 144.968,120.728C144.939,120.701 144.902,120.687 144.864,120.687C144.825,120.687 144.788,120.701 144.759,120.728C144.732,120.755 144.717,120.793 144.717,120.832C144.717,120.871 144.732,120.908 144.759,120.936L144.759,120.929Z" fill="#FFFFFF"/>
<path d="M57.631,83.032C58.943,83.057 60.27,83.063 61.589,83.072C61.627,83.068 61.662,83.05 61.687,83.021C61.713,82.993 61.727,82.956 61.727,82.918C61.727,82.88 61.713,82.843 61.687,82.815C61.662,82.787 61.627,82.769 61.589,82.765C60.277,82.765 58.95,82.78 57.631,82.804C57.604,82.808 57.578,82.821 57.559,82.842C57.541,82.863 57.53,82.89 57.53,82.918C57.53,82.946 57.541,82.973 57.559,82.994C57.578,83.015 57.604,83.029 57.631,83.032Z" fill="#A7CB16"/>
<path d="M57.631,84.831C58.943,84.856 60.27,84.864 61.589,84.871C61.629,84.871 61.668,84.855 61.696,84.826C61.725,84.797 61.741,84.759 61.741,84.718C61.741,84.678 61.725,84.639 61.696,84.61C61.668,84.582 61.629,84.566 61.589,84.566C60.277,84.566 58.95,84.579 57.631,84.605C57.601,84.605 57.572,84.617 57.551,84.638C57.53,84.659 57.518,84.688 57.518,84.718C57.518,84.748 57.53,84.777 57.551,84.798C57.572,84.819 57.601,84.831 57.631,84.831Z" fill="#A7CB16"/>
<path d="M57.631,86.63C58.943,86.657 60.27,86.663 61.589,86.67C61.629,86.67 61.668,86.654 61.696,86.625C61.725,86.597 61.741,86.558 61.741,86.517C61.741,86.477 61.725,86.438 61.696,86.409C61.668,86.381 61.629,86.365 61.589,86.365C60.277,86.365 58.95,86.38 57.631,86.404C57.601,86.404 57.572,86.416 57.551,86.437C57.53,86.458 57.518,86.487 57.518,86.517C57.518,86.547 57.53,86.576 57.551,86.597C57.572,86.619 57.601,86.63 57.631,86.63Z" fill="#A7CB16"/>
<path d="M33.335,53.214C36.166,53.585 39.035,53.572 41.863,53.174C41.884,53.169 41.904,53.158 41.92,53.144C41.936,53.129 41.949,53.111 41.957,53.091C41.966,53.07 41.969,53.048 41.968,53.026C41.966,53.005 41.959,52.983 41.948,52.965C41.373,52.207 41.374,51.047 42.029,50.332C42.352,49.996 42.779,49.777 43.242,49.712C43.704,49.647 44.175,49.739 44.579,49.973C44.692,50.04 44.877,49.926 44.82,49.788C44.084,48.007 43.469,46.016 43.861,44.072C44.189,42.485 45.173,40.956 46.776,40.45C48.518,39.89 50.44,40.505 52.024,41.27C53.493,41.994 54.825,42.967 55.96,44.146C57.254,45.474 58.27,47.045 58.95,48.769C58.968,48.816 59.003,48.854 59.047,48.876C59.091,48.899 59.143,48.904 59.19,48.89C59.238,48.877 59.28,48.846 59.306,48.804C59.333,48.762 59.343,48.712 59.334,48.663C59.147,47.515 58.96,45.901 60.247,45.301C60.787,45.05 61.307,45.252 61.679,45.685C62.107,46.177 62.406,46.819 62.739,47.384L64.051,49.603C64.072,49.636 64.103,49.663 64.139,49.68C64.175,49.697 64.215,49.703 64.255,49.698C64.294,49.693 64.332,49.676 64.362,49.651C64.393,49.625 64.416,49.591 64.428,49.553C64.582,49.072 64.872,48.646 65.264,48.328C65.656,48.009 66.133,47.812 66.635,47.759C67.151,47.728 67.664,47.847 68.114,48.101C68.563,48.355 68.93,48.733 69.169,49.191C69.271,49.381 69.538,49.214 69.453,49.027C69.2,48.489 68.79,48.041 68.276,47.742C67.763,47.443 67.17,47.307 66.578,47.352C65.996,47.416 65.445,47.648 64.993,48.019C64.54,48.391 64.206,48.886 64.031,49.445L64.408,49.396L63.075,47.143C62.858,46.778 62.647,46.413 62.429,46.052C62.267,45.766 62.071,45.502 61.845,45.265C61.635,45.043 61.363,44.89 61.065,44.825C60.766,44.759 60.455,44.785 60.172,44.899C59.886,45.02 59.63,45.2 59.42,45.428C59.21,45.656 59.051,45.926 58.953,46.221C58.673,47.041 58.816,47.935 58.953,48.771L59.337,48.664C58.054,45.415 55.647,42.734 52.554,41.109C50.945,40.271 49.049,39.603 47.218,39.953C45.468,40.281 44.221,41.675 43.698,43.326C43.006,45.512 43.66,47.831 44.518,49.871L44.759,49.686C44.292,49.402 43.739,49.291 43.198,49.374C42.658,49.457 42.163,49.728 41.802,50.14C41.442,50.551 41.238,51.076 41.226,51.623C41.214,52.17 41.396,52.704 41.738,53.13L41.802,52.892C39.001,53.317 36.153,53.348 33.343,52.984C33.201,52.966 33.202,53.189 33.343,53.207L33.335,53.214Z" fill="#A7CB16"/>
<path d="M25.856,95.509C27.957,95.33 30.073,95.466 32.134,95.913C32.277,95.944 32.387,95.732 32.239,95.662C31.478,95.306 31.639,94.206 32.129,93.694C32.949,92.836 34.384,93.354 35.245,93.858C35.375,93.933 35.56,93.774 35.463,93.638C34.02,91.614 34.909,88.8 36.159,86.914C36.467,86.409 36.879,85.976 37.367,85.643C37.627,85.478 37.921,85.375 38.227,85.342C38.532,85.308 38.842,85.346 39.13,85.451C39.727,85.679 40.285,85.997 40.785,86.394C41.275,86.757 41.728,87.166 42.138,87.616C43.055,88.613 43.747,89.795 44.17,91.081C44.184,91.127 44.215,91.166 44.256,91.19C44.298,91.214 44.347,91.221 44.393,91.209C44.87,91.111 45.038,90.627 45.264,90.258C45.319,90.14 45.404,90.039 45.511,89.965C45.618,89.891 45.743,89.847 45.873,89.837C46.15,89.853 46.415,89.958 46.629,90.137C47.44,90.732 47.955,92.28 49.207,91.978C49.389,91.934 49.307,91.68 49.13,91.703C48.541,91.785 48.08,91.257 47.75,90.844C47.381,90.379 47.053,89.897 46.501,89.632C46.025,89.402 45.476,89.41 45.115,89.84C44.861,90.143 44.729,90.77 44.295,90.858L44.518,90.986C44.117,89.754 43.48,88.613 42.64,87.626C41.804,86.642 40.728,85.73 39.534,85.21C38.924,84.944 38.255,84.848 37.622,85.097C37.052,85.346 36.558,85.742 36.192,86.245C35.395,87.28 34.835,88.477 34.552,89.751C34.248,91.124 34.338,92.611 35.181,93.782L35.399,93.563C34.397,92.99 32.736,92.475 31.849,93.536C31.286,94.209 31.176,95.47 32.097,95.891L32.201,95.642C30.115,95.205 27.974,95.084 25.851,95.283C25.712,95.296 25.709,95.516 25.851,95.503L25.856,95.509Z" fill="#A7CB16"/>
<path d="M117.569,44.681C119.399,44.673 121.231,44.646 123.061,44.659C123.09,44.659 123.118,44.65 123.142,44.634C123.166,44.617 123.185,44.594 123.196,44.568C123.207,44.541 123.21,44.511 123.205,44.483C123.2,44.454 123.186,44.428 123.166,44.407C122.561,43.853 122.848,42.877 123.401,42.395C124.183,41.712 125.421,41.931 126.33,42.167C126.355,42.173 126.381,42.174 126.407,42.169C126.432,42.163 126.456,42.153 126.477,42.137C126.497,42.121 126.514,42.101 126.526,42.077C126.538,42.054 126.544,42.029 126.544,42.003C126.562,40.245 127.018,38.262 128.69,37.355C129.032,37.158 129.414,37.04 129.808,37.011C130.202,36.981 130.598,37.04 130.966,37.183C131.64,37.465 132.138,38.032 132.509,38.646C132.933,39.394 133.264,40.193 133.493,41.022C133.55,41.211 133.862,41.186 133.849,40.974C133.788,40.081 134.984,39.779 135.653,40.058C136.662,40.476 136.95,41.835 137.16,42.78C137.169,42.81 137.185,42.838 137.208,42.86C137.23,42.882 137.258,42.898 137.288,42.906C137.319,42.914 137.351,42.914 137.381,42.906C137.411,42.898 137.439,42.882 137.462,42.86C138.569,41.712 140.563,41.758 141.654,42.9C141.818,43.064 142.051,42.819 141.901,42.654C140.712,41.342 138.429,41.342 137.206,42.605L137.508,42.685C137.295,41.727 137.031,40.65 136.234,40C135.921,39.751 135.537,39.609 135.137,39.595C134.738,39.58 134.344,39.694 134.015,39.92C133.842,40.034 133.701,40.191 133.608,40.376C133.514,40.561 133.471,40.767 133.482,40.974L133.837,40.925C133.388,39.461 132.763,37.676 131.294,36.943C129.598,36.095 127.697,37.179 126.889,38.737C126.367,39.739 126.211,40.886 126.202,42.003L126.416,41.839C125.354,41.566 123.956,41.373 123.092,42.232C122.482,42.842 122.226,43.99 122.953,44.614L123.058,44.363C121.228,44.412 119.396,44.425 117.565,44.454C117.538,44.458 117.513,44.471 117.494,44.492C117.476,44.512 117.466,44.539 117.466,44.567C117.466,44.594 117.476,44.621 117.494,44.642C117.513,44.663 117.538,44.676 117.565,44.679L117.569,44.681Z" fill="#A7CB16"/>
<path d="M145.06,89.336L145.716,89.336C145.751,89.336 145.785,89.322 145.81,89.298C145.835,89.273 145.849,89.239 145.849,89.204C145.849,89.168 145.835,89.135 145.81,89.11C145.785,89.085 145.751,89.071 145.716,89.071L145.06,89.071C145.024,89.071 144.99,89.085 144.965,89.11C144.939,89.135 144.925,89.17 144.925,89.205C144.925,89.241 144.939,89.275 144.965,89.3C144.99,89.326 145.024,89.34 145.06,89.34L145.06,89.336Z" fill="#A7CB16"/>
<path d="M12.656,64.038L35.114,64.053C42.561,64.053 50.009,64.053 57.458,64.053C61.659,64.053 65.86,64.049 70.061,64.043C70.095,64.039 70.127,64.023 70.15,63.997C70.173,63.972 70.185,63.938 70.185,63.904C70.185,63.87 70.173,63.837 70.15,63.811C70.127,63.785 70.095,63.769 70.061,63.766C62.574,63.746 55.089,63.756 47.603,63.757C40.155,63.757 32.708,63.761 25.261,63.767L12.656,63.767C12.624,63.771 12.595,63.786 12.574,63.81C12.553,63.833 12.541,63.864 12.541,63.896C12.541,63.928 12.553,63.958 12.574,63.982C12.595,64.006 12.624,64.021 12.656,64.025L12.656,64.038Z" fill="#A7CB16"/>
<path d="M33.112,70.619L48.036,70.637C49.439,70.637 50.843,70.654 52.247,70.637C52.28,70.633 52.31,70.618 52.332,70.593C52.355,70.569 52.367,70.537 52.367,70.503C52.367,70.47 52.355,70.438 52.332,70.414C52.31,70.389 52.28,70.373 52.247,70.37C49.754,70.349 47.258,70.37 44.765,70.37L37.323,70.378L33.113,70.378C33.086,70.381 33.06,70.395 33.042,70.415C33.024,70.436 33.014,70.463 33.014,70.49C33.014,70.518 33.024,70.545 33.042,70.565C33.06,70.586 33.086,70.599 33.113,70.603L33.112,70.619Z" fill="#A7CB16"/>
<path d="M42.05,75.424L43.588,76.966C43.61,76.988 43.64,77 43.67,77C43.701,77 43.731,76.988 43.752,76.966C43.774,76.944 43.786,76.915 43.786,76.884C43.786,76.853 43.774,76.824 43.752,76.802L42.211,75.263C42.189,75.242 42.159,75.229 42.129,75.229C42.098,75.229 42.068,75.242 42.047,75.263C42.025,75.285 42.013,75.315 42.013,75.345C42.013,75.376 42.025,75.406 42.047,75.427L42.05,75.424Z" fill="#A7CB16"/>
<path d="M136.799,54.88C137.236,57.776 137.448,60.701 137.432,63.629C137.432,64.031 137.422,64.431 137.402,64.831C137.386,65.256 137.335,65.687 137.347,66.112C137.347,66.298 137.653,66.357 137.675,66.158C137.759,65.426 137.794,64.688 137.78,63.951C137.793,63.216 137.791,62.475 137.766,61.745C137.716,60.249 137.602,58.754 137.401,57.269C137.294,56.449 137.166,55.629 137.001,54.821C136.973,54.681 136.773,54.745 136.791,54.88L136.799,54.88Z" fill="#FFFFFF"/>
</svg>
