<svg width="50" height="50" viewBox="0 0 50 50" fill="none" xmlns="http://www.w3.org/2000/svg" xmlns:xlink="http://www.w3.org/1999/xlink">
<path d="M12.694,8.378C12.694,10.658 10.828,12.532 8.495,12.532L8.495,16.532C13.01,16.532 16.694,12.895 16.694,8.378L12.694,8.378ZM8.495,12.532C6.163,12.532 4.297,10.658 4.297,8.378L0.297,8.378C0.297,12.895 3.981,16.532 8.495,16.532L8.495,12.532ZM4.297,8.378C4.297,6.098 6.163,4.224 8.495,4.224L8.495,0.224C3.981,0.224 0.297,3.861 0.297,8.378L4.297,8.378ZM8.495,4.224C10.828,4.224 12.694,6.098 12.694,8.378L16.694,8.378C16.694,3.861 13.01,0.224 8.495,0.224L8.495,4.224Z" transform="rotate(-119.087 8.495 8.378)" fill="#FCFCFC"/>
<path d="M12.694,41.622C12.694,43.902 10.828,45.776 8.495,45.776L8.495,49.776C13.01,49.776 16.694,46.139 16.694,41.622L12.694,41.622ZM8.495,45.776C6.163,45.776 4.297,43.902 4.297,41.622L0.297,41.622C0.297,46.139 3.981,49.776 8.495,49.776L8.495,45.776ZM4.297,41.622C4.297,39.342 6.163,37.468 8.495,37.468L8.495,33.468C3.981,33.468 0.297,37.105 0.297,41.622L4.297,41.622ZM8.495,37.468C10.828,37.468 12.694,39.342 12.694,41.622L16.694,41.622C16.694,37.105 13.01,33.468 8.495,33.468L8.495,37.468Z" transform="rotate(-119.087 8.495 41.622)" fill="#FCFCFC"/>
<path d="M45.703,25C45.703,27.28 43.837,29.154 41.505,29.154L41.505,33.154C46.019,33.154 49.703,29.517 49.703,25L45.703,25ZM41.505,29.154C39.172,29.154 37.306,27.28 37.306,25L33.306,25C33.306,29.517 36.99,33.154 41.505,33.154L41.505,29.154ZM37.306,25C37.306,22.72 39.172,20.846 41.505,20.846L41.505,16.846C36.99,16.846 33.306,20.483 33.306,25L37.306,25ZM41.505,20.846C43.837,20.846 45.703,22.72 45.703,25L49.703,25C49.703,20.483 46.019,16.846 41.505,16.846L41.505,20.846Z" transform="rotate(-119.087 41.505 25)" fill="#FCFCFC"/>
<path d="M15.996,9.916C15.009,9.419 13.807,9.816 13.31,10.803C12.813,11.789 13.21,12.992 14.197,13.488L15.996,9.916ZM33.984,23.452C34.971,23.949 36.173,23.552 36.67,22.566C37.167,21.579 36.77,20.377 35.783,19.88L33.984,23.452ZM14.197,13.488L33.984,23.452L35.783,19.88L15.996,9.916L14.197,13.488Z" fill="#FCFCFC"/>
<path d="M13.16,37.034C12.174,37.53 11.776,38.733 12.273,39.719C12.77,40.706 13.973,41.103 14.959,40.606L13.16,37.034ZM36.84,29.588C37.826,29.091 38.223,27.889 37.727,26.902C37.23,25.916 36.027,25.519 35.041,26.016L36.84,29.588ZM14.959,40.606L36.84,29.588L35.041,26.016L13.16,37.034L14.959,40.606Z" fill="#FCFCFC"/>
</svg>
