<svg width="50" height="50" viewBox="0 0 50 50" fill="none" xmlns="http://www.w3.org/2000/svg" xmlns:xlink="http://www.w3.org/1999/xlink">
<path d="M12.694,7.775C12.694,10.055 10.828,11.929 8.495,11.929L8.495,15.929C13.01,15.929 16.694,12.292 16.694,7.775L12.694,7.775ZM8.495,11.929C6.163,11.929 4.297,10.055 4.297,7.775L0.297,7.775C0.297,12.292 3.981,15.929 8.495,15.929L8.495,11.929ZM4.297,7.775C4.297,5.495 6.163,3.622 8.495,3.622L8.495,-0.378C3.981,-0.378 0.297,3.258 0.297,7.775L4.297,7.775ZM8.495,3.622C10.828,3.622 12.694,5.495 12.694,7.775L16.694,7.775C16.694,3.258 13.01,-0.378 8.495,-0.378L8.495,3.622Z" transform="rotate(-119.087 8.495 7.775)" fill="#FCFCFC"/>
<path d="M12.694,41.019C12.694,43.299 10.828,45.173 8.495,45.173L8.495,49.173C13.01,49.173 16.694,45.536 16.694,41.019L12.694,41.019ZM8.495,45.173C6.163,45.173 4.297,43.299 4.297,41.019L0.297,41.019C0.297,45.536 3.981,49.173 8.495,49.173L8.495,45.173ZM4.297,41.019C4.297,38.739 6.163,36.865 8.495,36.865L8.495,32.865C3.981,32.865 0.297,36.502 0.297,41.019L4.297,41.019ZM8.495,36.865C10.828,36.865 12.694,38.739 12.694,41.019L16.694,41.019C16.694,36.502 13.01,32.865 8.495,32.865L8.495,36.865Z" transform="rotate(-119.087 8.495 41.019)" fill="#FCFCFC"/>
<path d="M45.703,24.397C45.703,26.677 43.837,28.551 41.505,28.551L41.505,32.551C46.019,32.551 49.703,28.914 49.703,24.397L45.703,24.397ZM41.505,28.551C39.172,28.551 37.306,26.677 37.306,24.397L33.306,24.397C33.306,28.914 36.99,32.551 41.505,32.551L41.505,28.551ZM37.306,24.397C37.306,22.117 39.172,20.243 41.505,20.243L41.505,16.243C36.99,16.243 33.306,19.88 33.306,24.397L37.306,24.397ZM41.505,20.243C43.837,20.243 45.703,22.117 45.703,24.397L49.703,24.397C49.703,19.88 46.019,16.243 41.505,16.243L41.505,20.243Z" transform="rotate(-119.087 41.505 24.397)" fill="#FCFCFC"/>
<path d="M15.996,9.313C15.009,8.816 13.807,9.213 13.31,10.2C12.813,11.186 13.21,12.389 14.197,12.885L15.996,9.313ZM33.984,22.85C34.971,23.346 36.173,22.949 36.67,21.963C37.167,20.976 36.77,19.774 35.783,19.277L33.984,22.85ZM14.197,12.885L33.984,22.85L35.783,19.277L15.996,9.313L14.197,12.885Z" fill="#FCFCFC"/>
<path d="M13.16,36.431C12.174,36.928 11.776,38.13 12.273,39.117C12.77,40.103 13.973,40.5 14.959,40.003L13.16,36.431ZM36.84,28.985C37.826,28.489 38.223,27.286 37.727,26.299C37.23,25.313 36.027,24.916 35.041,25.413L36.84,28.985ZM14.959,40.003L36.84,28.985L35.041,25.413L13.16,36.431L14.959,40.003Z" fill="#FCFCFC"/>
</svg>
