<svg width="64" height="64" viewBox="0 0 64 64" fill="none" xmlns="http://www.w3.org/2000/svg" xmlns:xlink="http://www.w3.org/1999/xlink">
<path d="M41.898,15.669C41.898,21.846 36.912,26.837 30.782,26.837L30.782,31.837C39.692,31.837 46.898,24.589 46.898,15.669L41.898,15.669ZM30.782,26.837C24.652,26.837 19.666,21.846 19.666,15.669L14.666,15.669C14.666,24.589 21.872,31.837 30.782,31.837L30.782,26.837ZM19.666,15.669C19.666,9.491 24.652,4.5 30.782,4.5L30.782,-0.5C21.872,-0.5 14.666,6.748 14.666,15.669L19.666,15.669ZM30.782,4.5C36.912,4.5 41.898,9.491 41.898,15.669L46.898,15.669C46.898,6.748 39.692,-0.5 30.782,-0.5L30.782,4.5Z" fill="#000000"/>
<path d="M1.87,59.999L-0.622,60.198C-0.518,61.498 0.567,62.499 1.87,62.499L1.87,59.999ZM59.694,62.499C61.074,62.499 62.194,61.38 62.194,59.999C62.194,58.619 61.074,57.499 59.694,57.499L59.694,62.499ZM1.782,57.782L-0.718,57.782L-0.718,57.782L1.782,57.782ZM30.782,29.337L30.782,31.837L30.782,31.837L30.782,29.337ZM59.782,57.782L62.282,57.782L62.282,57.782L59.782,57.782ZM57.202,59.801C57.092,61.178 58.119,62.382 59.495,62.492C60.871,62.602 62.076,61.575 62.186,60.199L57.202,59.801ZM1.87,62.499L59.694,62.499L59.694,57.499L1.87,57.499L1.87,62.499ZM4.362,59.801C4.309,59.129 4.282,58.456 4.282,57.782L-0.718,57.782C-0.718,58.588 -0.686,59.394 -0.622,60.198L4.362,59.801ZM4.282,57.782C4.282,50.917 7.062,44.323 12.027,39.453L8.525,35.884C2.613,41.683 -0.718,49.559 -0.718,57.782L4.282,57.782ZM12.027,39.453C16.993,34.582 23.738,31.837 30.782,31.837L30.782,26.837C22.443,26.837 14.436,30.086 8.525,35.884L12.027,39.453ZM30.782,31.837C34.269,31.837 37.72,32.511 40.939,33.818L42.821,29.186C39.003,27.635 34.912,26.837 30.782,26.837L30.782,31.837ZM40.939,33.818C44.157,35.126 47.079,37.042 49.537,39.453L53.039,35.884C50.112,33.012 46.639,30.737 42.821,29.186L40.939,33.818ZM49.537,39.453C51.996,41.865 53.944,44.725 55.271,47.869L59.878,45.924C58.291,42.166 55.966,38.755 53.039,35.884L49.537,39.453ZM55.271,47.869C56.599,51.013 57.282,54.382 57.282,57.782L62.282,57.782C62.282,53.711 61.465,49.682 59.878,45.924L55.271,47.869ZM57.282,57.782C57.282,58.456 57.255,59.129 57.202,59.801L62.186,60.199C62.25,59.395 62.282,58.588 62.282,57.782L57.282,57.782Z" fill="#000000"/>
</svg>
