<svg width="64" height="64" viewBox="0 0 64 64" fill="none" xmlns="http://www.w3.org/2000/svg" xmlns:xlink="http://www.w3.org/1999/xlink">
<path d="M41.898,15.238C41.898,21.415 36.912,26.406 30.782,26.406L30.782,31.406C39.692,31.406 46.898,24.159 46.898,15.238L41.898,15.238ZM30.782,26.406C24.652,26.406 19.666,21.415 19.666,15.238L14.666,15.238C14.666,24.159 21.872,31.406 30.782,31.406L30.782,26.406ZM19.666,15.238C19.666,9.061 24.652,4.069 30.782,4.069L30.782,-0.931C21.872,-0.931 14.666,6.317 14.666,15.238L19.666,15.238ZM30.782,4.069C36.912,4.069 41.898,9.061 41.898,15.238L46.898,15.238C46.898,6.317 39.692,-0.931 30.782,-0.931L30.782,4.069Z" fill="#000000"/>
<path d="M1.87,59.569L-0.622,59.767C-0.518,61.067 0.567,62.069 1.87,62.069L1.87,59.569ZM59.694,62.069C61.074,62.069 62.194,60.949 62.194,59.569C62.194,58.188 61.074,57.069 59.694,57.069L59.694,62.069ZM1.782,57.351L-0.718,57.351L-0.718,57.351L1.782,57.351ZM30.782,28.906L30.782,31.406L30.782,31.406L30.782,28.906ZM59.782,57.351L62.282,57.351L62.282,57.351L59.782,57.351ZM57.202,59.37C57.092,60.747 58.119,61.951 59.495,62.061C60.871,62.171 62.076,61.144 62.186,59.768L57.202,59.37ZM1.87,62.069L59.694,62.069L59.694,57.069L1.87,57.069L1.87,62.069ZM4.362,59.37C4.309,58.698 4.282,58.025 4.282,57.351L-0.718,57.351C-0.718,58.157 -0.686,58.963 -0.622,59.767L4.362,59.37ZM4.282,57.351C4.282,50.486 7.062,43.892 12.026,39.022L8.525,35.453C2.613,41.252 -0.718,49.128 -0.718,57.351L4.282,57.351ZM12.026,39.022C16.993,34.151 23.738,31.406 30.782,31.406L30.782,26.406C22.443,26.406 14.436,29.655 8.525,35.453L12.026,39.022ZM30.782,31.406C34.269,31.406 37.72,32.08 40.939,33.388L42.821,28.755C39.003,27.204 34.912,26.406 30.782,26.406L30.782,31.406ZM40.939,33.388C44.157,34.695 47.079,36.611 49.537,39.022L53.039,35.453C50.112,32.582 46.639,30.307 42.821,28.755L40.939,33.388ZM49.537,39.022C51.996,41.434 53.944,44.294 55.271,47.438L59.878,45.493C58.291,41.735 55.966,38.324 53.039,35.453L49.537,39.022ZM55.271,47.438C56.599,50.583 57.282,53.951 57.282,57.351L62.282,57.351C62.282,53.281 61.465,49.251 59.878,45.493L55.271,47.438ZM57.282,57.351C57.282,58.025 57.255,58.699 57.202,59.37L62.186,59.768C62.25,58.964 62.282,58.158 62.282,57.351L57.282,57.351Z" fill="#000000"/>
</svg>
