<svg width="390" height="424" viewBox="0 0 390 424" fill="none" xmlns="http://www.w3.org/2000/svg" xmlns:xlink="http://www.w3.org/1999/xlink">
<path d="M154.71,201.151C154.71,201.151 182.373,171.411 195.759,155.875C204.682,128.356 197.542,95.951 174.788,74.203L102.503,3.628C98.934,0.077 93.581,0.077 89.566,3.186C85.102,6.737 85.102,12.951 88.672,16.945L157.384,87.965C161.399,91.96 160.954,98.174 156.49,101.725L155.597,102.613C151.582,105.722 145.781,105.722 142.211,101.725L74.396,27.598C70.826,24.047 65.024,23.604 61.009,26.71L60.564,27.153C56.549,30.704 56.101,36.475 59.226,40.912L124.371,115.926C127.941,119.92 127.496,126.135 123.478,129.243L122.585,130.132C118.57,133.683 112.323,132.795 108.753,128.8L45.84,52.455C42.27,48.461 36.469,47.572 32.009,51.124L31.564,51.566C27.549,54.675 27.101,60.443 30.226,64.883L91.8,144.336C94.925,148.33 94.477,154.101 90.462,157.206L89.121,158.541C84.658,162.092 78.411,161.204 75.29,156.767L17.285,77.314C14.16,72.874 7.468,71.989 3.454,75.54C-0.116,78.649 -1.01,83.974 1.67,88.411L59.675,174.077C81.088,205.591 121.692,215.799 154.713,201.151L154.71,201.151Z" transform="rotate(0 99.799 104.313)" fill="#FFFFFF"/>
<path d="M257.333,244.205C251.532,252.193 245.285,261.073 239.038,270.393C233.685,278.381 227.884,286.372 222.083,294.806C237.252,315.668 254.208,337.862 274.731,362.275C335.416,433.738 355.499,425.75 365.315,417.316C375.131,408.882 386.731,390.682 326.498,318.777C301.509,289.481 278.306,265.513 257.335,244.205L257.333,244.205Z" transform="rotate(0 297.665 333.446)" fill="#FFFFFF"/>
<path d="M278.751,224.675C287.673,234.883 303.735,233.551 310.875,222.013L372.003,123.917C394.757,88.853 396.095,44.021 374.679,8.511C369.771,0.523 358.171,-0.365 352.369,7.18C352.369,7.18 291.689,88.408 223.422,167.417C169.88,228.675 109.644,287.261 83.319,318.775C22.637,390.681 34.237,408.881 44.501,417.315C54.317,425.749 74.396,433.737 135.077,361.831C191.741,294.363 222.976,240.211 256.441,198.487L278.751,224.675Z" transform="rotate(0 213.094 212.331)" fill="#FFFFFF"/>
</svg>
