<svg width="40" height="40" viewBox="0 0 40 40" fill="none" xmlns="http://www.w3.org/2000/svg" xmlns:xlink="http://www.w3.org/1999/xlink">
<path d="M20,12.188C18.455,12.188 16.944,12.646 15.66,13.504C14.375,14.363 13.374,15.583 12.782,17.01C12.191,18.438 12.036,20.009 12.338,21.524C12.639,23.04 13.383,24.432 14.476,25.524C15.568,26.617 16.96,27.361 18.476,27.662C19.991,27.964 21.562,27.809 22.99,27.218C24.417,26.626 25.637,25.625 26.496,24.34C27.354,23.056 27.813,21.545 27.813,20C27.813,17.928 26.989,15.941 25.524,14.476C24.059,13.011 22.072,12.188 20,12.188ZM20,25.938C18.826,25.938 17.678,25.589 16.701,24.937C15.725,24.284 14.964,23.357 14.514,22.272C14.065,21.187 13.947,19.993 14.177,18.842C14.406,17.69 14.971,16.632 15.802,15.802C16.632,14.971 17.69,14.406 18.842,14.177C19.993,13.947 21.187,14.065 22.272,14.514C23.357,14.964 24.284,15.725 24.937,16.701C25.589,17.678 25.938,18.826 25.938,20C25.938,21.575 25.312,23.085 24.198,24.198C23.085,25.312 21.575,25.938 20,25.938Z" fill="#A7CB16" stroke="#A7CB16" stroke-width="0.5" stroke-miterlimit="3.999327"/>
<path d="M37.812,15L35.022,15C34.957,15 34.894,14.979 34.841,14.941C34.788,14.903 34.749,14.849 34.728,14.787C34.547,14.272 34.338,13.766 34.103,13.272C34.074,13.214 34.063,13.148 34.074,13.083C34.084,13.019 34.114,12.959 34.159,12.912L36.131,10.938C36.334,10.734 36.496,10.493 36.605,10.228C36.715,9.962 36.772,9.678 36.772,9.391C36.772,9.103 36.715,8.819 36.605,8.553C36.496,8.288 36.334,8.047 36.131,7.844L32.153,3.869C31.95,3.666 31.709,3.504 31.443,3.394C31.178,3.285 30.894,3.228 30.606,3.228C30.319,3.228 30.034,3.285 29.769,3.394C29.504,3.504 29.263,3.666 29.059,3.869L27.087,5.841C27.041,5.886 26.981,5.916 26.917,5.926C26.852,5.937 26.786,5.926 26.728,5.897C26.234,5.662 25.728,5.453 25.212,5.272C25.151,5.251 25.097,5.212 25.059,5.159C25.021,5.106 25,5.043 25,4.978L25,2.188C25,1.607 24.77,1.051 24.359,0.641C23.949,0.23 23.393,0 22.812,0L17.188,0C16.607,0 16.051,0.23 15.641,0.641C15.23,1.051 15,1.607 15,2.188L15,4.978C15,5.043 14.979,5.106 14.941,5.159C14.903,5.212 14.849,5.251 14.787,5.272C14.272,5.453 13.766,5.662 13.272,5.897C13.214,5.926 13.148,5.937 13.083,5.926C13.019,5.916 12.959,5.886 12.912,5.841L10.938,3.869C10.734,3.666 10.493,3.504 10.228,3.394C9.962,3.285 9.678,3.228 9.391,3.228C9.103,3.228 8.819,3.285 8.553,3.394C8.288,3.504 8.047,3.666 7.844,3.869L3.869,7.847C3.666,8.05 3.504,8.291 3.395,8.557C3.285,8.822 3.228,9.106 3.228,9.394C3.228,9.681 3.285,9.966 3.395,10.231C3.504,10.496 3.666,10.737 3.869,10.941L5.841,12.912C5.886,12.959 5.916,13.019 5.926,13.083C5.937,13.148 5.926,13.214 5.897,13.272C5.662,13.766 5.453,14.272 5.272,14.787C5.251,14.849 5.212,14.903 5.159,14.941C5.106,14.979 5.043,15 4.978,15L2.188,15C1.607,15 1.051,15.23 0.641,15.641C0.23,16.051 0,16.607 0,17.188L0,22.812C0,23.393 0.23,23.949 0.641,24.359C1.051,24.77 1.607,25 2.188,25L4.978,25C5.043,25 5.106,25.021 5.159,25.059C5.212,25.097 5.251,25.151 5.272,25.212C5.453,25.728 5.662,26.234 5.897,26.728C5.926,26.786 5.937,26.852 5.926,26.917C5.916,26.981 5.886,27.041 5.841,27.087L3.869,29.062C3.666,29.266 3.504,29.507 3.395,29.772C3.285,30.038 3.228,30.322 3.228,30.609C3.228,30.897 3.285,31.181 3.395,31.447C3.504,31.712 3.666,31.953 3.869,32.156L7.847,36.134C8.05,36.338 8.291,36.499 8.557,36.609C8.822,36.719 9.106,36.775 9.394,36.775C9.681,36.775 9.966,36.719 10.231,36.609C10.496,36.499 10.737,36.338 10.941,36.134L12.912,34.162C12.959,34.117 13.019,34.087 13.083,34.077C13.148,34.067 13.214,34.077 13.272,34.106C13.766,34.341 14.272,34.55 14.787,34.731C14.849,34.752 14.903,34.792 14.941,34.844C14.979,34.897 15,34.96 15,35.025L15,37.812C15,38.393 15.23,38.949 15.641,39.359C16.051,39.77 16.607,40 17.188,40L22.812,40C23.393,40 23.949,39.77 24.359,39.359C24.77,38.949 25,38.393 25,37.812L25,35.022C25,34.957 25.021,34.894 25.059,34.841C25.097,34.788 25.151,34.749 25.212,34.728C25.728,34.547 26.234,34.338 26.728,34.103C26.786,34.074 26.852,34.063 26.917,34.074C26.981,34.084 27.041,34.114 27.087,34.159L29.062,36.131C29.266,36.334 29.507,36.496 29.772,36.605C30.038,36.715 30.322,36.772 30.609,36.772C30.897,36.772 31.181,36.715 31.447,36.605C31.712,36.496 31.953,36.334 32.156,36.131L36.134,32.153C36.338,31.95 36.499,31.709 36.609,31.443C36.719,31.178 36.775,30.894 36.775,30.606C36.775,30.319 36.719,30.034 36.609,29.769C36.499,29.504 36.338,29.263 36.134,29.059L34.162,27.087C34.117,27.041 34.087,26.981 34.077,26.917C34.067,26.852 34.077,26.786 34.106,26.728C34.341,26.234 34.55,25.728 34.731,25.212C34.752,25.151 34.792,25.097 34.844,25.059C34.897,25.021 34.96,25 35.025,25L37.812,25C38.393,25 38.949,24.77 39.359,24.359C39.77,23.949 40,23.393 40,22.812L40,17.188C40,16.607 39.77,16.051 39.359,15.641C38.949,15.23 38.393,15 37.812,15ZM38.125,22.812C38.125,22.895 38.092,22.975 38.033,23.033C37.975,23.092 37.895,23.125 37.812,23.125L35.022,23.125C34.569,23.126 34.127,23.267 33.757,23.529C33.388,23.792 33.109,24.163 32.959,24.591C32.799,25.044 32.616,25.488 32.409,25.922C32.211,26.331 32.146,26.791 32.221,27.239C32.297,27.687 32.51,28.101 32.831,28.422L34.803,30.394C34.861,30.452 34.894,30.532 34.894,30.614C34.894,30.697 34.861,30.776 34.803,30.834L30.828,34.806C30.77,34.864 30.69,34.897 30.608,34.897C30.525,34.897 30.446,34.864 30.387,34.806L28.416,32.834C28.094,32.513 27.681,32.3 27.233,32.224C26.785,32.149 26.325,32.214 25.916,32.412C25.481,32.619 25.035,32.803 24.581,32.963C24.154,33.113 23.784,33.392 23.522,33.761C23.26,34.13 23.119,34.572 23.119,35.025L23.119,37.812C23.119,37.895 23.086,37.975 23.027,38.033C22.969,38.092 22.889,38.125 22.806,38.125L17.188,38.125C17.105,38.125 17.025,38.092 16.967,38.033C16.908,37.975 16.875,37.895 16.875,37.812L16.875,35.022C16.874,34.569 16.733,34.127 16.471,33.757C16.208,33.388 15.837,33.109 15.409,32.959C14.956,32.799 14.512,32.616 14.078,32.409C13.669,32.211 13.209,32.146 12.761,32.221C12.313,32.297 11.899,32.51 11.578,32.831L9.606,34.803C9.548,34.861 9.468,34.894 9.386,34.894C9.303,34.894 9.224,34.861 9.166,34.803L5.194,30.828C5.136,30.77 5.103,30.69 5.103,30.608C5.103,30.525 5.136,30.446 5.194,30.387L7.166,28.416C7.487,28.094 7.7,27.681 7.776,27.233C7.851,26.785 7.786,26.325 7.588,25.916C7.381,25.481 7.197,25.035 7.037,24.581C6.887,24.156 6.608,23.787 6.239,23.526C5.87,23.266 5.43,23.125 4.978,23.125L2.188,23.125C2.105,23.125 2.025,23.092 1.967,23.033C1.908,22.975 1.875,22.895 1.875,22.812L1.875,17.188C1.875,17.105 1.908,17.025 1.967,16.967C2.025,16.908 2.105,16.875 2.188,16.875L4.978,16.875C5.431,16.874 5.873,16.733 6.243,16.471C6.612,16.208 6.891,15.837 7.041,15.409C7.201,14.956 7.384,14.512 7.591,14.078C7.789,13.669 7.854,13.209 7.779,12.761C7.703,12.313 7.49,11.899 7.169,11.578L5.197,9.606C5.139,9.548 5.106,9.469 5.106,9.386C5.106,9.303 5.139,9.224 5.197,9.166L9.172,5.194C9.23,5.136 9.31,5.103 9.392,5.103C9.475,5.103 9.554,5.136 9.612,5.194L11.584,7.166C11.906,7.487 12.319,7.7 12.767,7.776C13.215,7.851 13.675,7.786 14.084,7.588C14.519,7.381 14.965,7.197 15.419,7.037C15.844,6.887 16.213,6.608 16.474,6.239C16.734,5.87 16.875,5.43 16.875,4.978L16.875,2.188C16.875,2.105 16.908,2.025 16.967,1.967C17.025,1.908 17.105,1.875 17.188,1.875L22.812,1.875C22.895,1.875 22.975,1.908 23.033,1.967C23.092,2.025 23.125,2.105 23.125,2.188L23.125,4.978C23.126,5.431 23.267,5.873 23.529,6.243C23.792,6.612 24.163,6.891 24.591,7.041C25.044,7.201 25.488,7.384 25.922,7.591C26.331,7.789 26.791,7.854 27.239,7.779C27.687,7.703 28.101,7.49 28.422,7.169L30.394,5.197C30.452,5.139 30.532,5.106 30.614,5.106C30.697,5.106 30.776,5.139 30.834,5.197L34.812,9.175C34.871,9.234 34.903,9.313 34.903,9.395C34.903,9.478 34.871,9.557 34.812,9.616L32.841,11.588C32.519,11.909 32.306,12.322 32.231,12.77C32.155,13.218 32.221,13.679 32.419,14.088C32.625,14.522 32.809,14.968 32.969,15.422C33.119,15.849 33.398,16.219 33.767,16.481C34.137,16.743 34.578,16.884 35.031,16.884L37.812,16.884C37.895,16.884 37.975,16.917 38.033,16.976C38.092,17.035 38.125,17.114 38.125,17.197L38.125,22.812Z" fill="#A7CB16" stroke="#A7CB16" stroke-width="0.5" stroke-miterlimit="3.999327"/>
</svg>
