<svg width="114" height="132" viewBox="0 0 114 132" fill="none" xmlns="http://www.w3.org/2000/svg" xmlns:xlink="http://www.w3.org/1999/xlink">
<path d="M44.259,61.953C44.259,61.953 52.289,52.752 56.175,47.945C58.765,39.431 56.693,29.405 50.088,22.677L29.105,0.842C28.069,-0.257 26.515,-0.257 25.35,0.705C24.054,1.804 24.054,3.726 25.091,4.962L45.036,26.935C46.201,28.171 46.072,30.093 44.776,31.192L44.517,31.467C43.352,32.428 41.668,32.428 40.631,31.192L20.947,8.258C19.91,7.159 18.226,7.022 17.061,7.983L16.932,8.12C15.766,9.219 15.636,11.004 16.543,12.377L35.453,35.586C36.489,36.821 36.36,38.744 35.194,39.706L34.934,39.981C33.769,41.079 31.956,40.804 30.92,39.569L12.658,15.948C11.621,14.713 9.937,14.438 8.643,15.536L8.514,15.673C7.348,16.635 7.218,18.42 8.125,19.793L25.999,44.375C26.906,45.611 26.776,47.396 25.61,48.357L25.221,48.77C23.925,49.869 22.112,49.594 21.206,48.221L4.369,23.639C3.462,22.266 1.519,21.992 0.354,23.091C-0.682,24.052 -0.941,25.7 -0.164,27.073L16.674,53.577C22.889,63.326 34.675,66.485 44.26,61.953L44.259,61.953Z" fill="#FFFFFF"/>
<path d="M74.048,75.273C72.364,77.745 70.551,80.492 68.738,83.375C67.184,85.847 65.5,88.319 63.816,90.929C68.219,97.383 73.141,104.249 79.099,111.803C96.714,133.912 102.543,131.441 105.393,128.831C108.242,126.222 111.609,120.591 94.125,98.345C86.871,89.281 80.136,81.866 74.049,75.273L74.048,75.273Z" fill="#FFFFFF"/>
<path d="M80.265,69.231C82.855,72.389 87.518,71.977 89.59,68.407L107.334,38.058C113.939,27.209 114.327,13.339 108.111,2.353C106.686,-0.119 103.319,-0.394 101.635,1.941C101.635,1.941 84.021,27.072 64.205,51.516C48.663,70.468 31.178,88.594 23.537,98.344C5.923,120.591 9.29,126.222 12.269,128.831C15.119,131.441 20.947,133.912 38.561,111.665C55.009,90.791 64.075,74.038 73.789,61.129L80.265,69.231Z" fill="#FFFFFF"/>
</svg>
