<svg width="40" height="40" viewBox="0 0 40 40" fill="none" xmlns="http://www.w3.org/2000/svg" xmlns:xlink="http://www.w3.org/1999/xlink">
<path d="M20,11.584C18.455,11.584 16.944,12.043 15.66,12.901C14.375,13.76 13.374,14.98 12.782,16.407C12.191,17.835 12.036,19.406 12.338,20.921C12.639,22.437 13.383,23.829 14.476,24.921C15.568,26.014 16.96,26.758 18.476,27.059C19.991,27.361 21.562,27.206 22.99,26.615C24.417,26.023 25.637,25.022 26.496,23.737C27.354,22.453 27.813,20.942 27.813,19.397C27.813,17.325 26.989,15.338 25.524,13.873C24.059,12.408 22.072,11.584 20,11.584ZM20,25.334C18.826,25.334 17.678,24.986 16.701,24.334C15.725,23.681 14.964,22.754 14.514,21.669C14.065,20.584 13.947,19.39 14.177,18.239C14.406,17.087 14.971,16.029 15.802,15.199C16.632,14.368 17.69,13.803 18.842,13.574C19.993,13.344 21.187,13.462 22.272,13.911C23.357,14.361 24.284,15.122 24.937,16.098C25.589,17.075 25.938,18.223 25.938,19.397C25.938,20.972 25.312,22.482 24.198,23.595C23.085,24.709 21.575,25.334 20,25.334Z" fill="#A7CB16" stroke="#A7CB16" stroke-width="0.5" stroke-miterlimit="3.999327"/>
<path d="M37.812,14.397L35.022,14.397C34.957,14.396 34.894,14.376 34.841,14.338C34.788,14.3 34.749,14.246 34.728,14.184C34.547,13.669 34.338,13.163 34.103,12.669C34.074,12.611 34.063,12.545 34.074,12.48C34.084,12.416 34.114,12.356 34.159,12.309L36.131,10.334C36.334,10.131 36.496,9.89 36.605,9.625C36.715,9.359 36.772,9.075 36.772,8.788C36.772,8.5 36.715,8.216 36.605,7.95C36.496,7.685 36.334,7.444 36.131,7.241L32.153,3.266C31.95,3.063 31.709,2.901 31.443,2.791C31.178,2.682 30.894,2.625 30.606,2.625C30.319,2.625 30.034,2.682 29.769,2.791C29.504,2.901 29.263,3.063 29.059,3.266L27.087,5.238C27.041,5.283 26.981,5.313 26.917,5.323C26.852,5.333 26.786,5.323 26.728,5.294C26.234,5.059 25.728,4.85 25.212,4.669C25.151,4.648 25.097,4.609 25.059,4.556C25.021,4.503 25,4.44 25,4.375L25,1.584C25,1.004 24.77,0.448 24.359,0.038C23.949,-0.373 23.393,-0.603 22.812,-0.603L17.188,-0.603C16.607,-0.603 16.051,-0.373 15.641,0.038C15.23,0.448 15,1.004 15,1.584L15,4.375C15,4.44 14.979,4.503 14.941,4.556C14.903,4.609 14.849,4.648 14.788,4.669C14.272,4.85 13.766,5.059 13.272,5.294C13.214,5.323 13.148,5.333 13.083,5.323C13.019,5.313 12.959,5.283 12.913,5.238L10.938,3.266C10.734,3.063 10.493,2.901 10.228,2.791C9.962,2.682 9.678,2.625 9.391,2.625C9.103,2.625 8.819,2.682 8.553,2.791C8.288,2.901 8.047,3.063 7.844,3.266L3.869,7.244C3.666,7.447 3.504,7.688 3.395,7.954C3.285,8.219 3.228,8.503 3.228,8.791C3.228,9.078 3.285,9.362 3.395,9.628C3.504,9.893 3.666,10.134 3.869,10.338L5.841,12.309C5.886,12.356 5.916,12.416 5.926,12.48C5.937,12.545 5.926,12.611 5.897,12.669C5.662,13.163 5.453,13.669 5.272,14.184C5.251,14.246 5.212,14.3 5.159,14.338C5.106,14.376 5.043,14.396 4.978,14.397L2.188,14.397C1.607,14.397 1.051,14.627 0.641,15.038C0.23,15.448 0,16.004 0,16.584L0,22.209C0,22.79 0.23,23.346 0.641,23.756C1.051,24.167 1.607,24.397 2.188,24.397L4.978,24.397C5.043,24.397 5.106,24.418 5.159,24.456C5.212,24.494 5.251,24.548 5.272,24.609C5.453,25.125 5.662,25.631 5.897,26.125C5.926,26.183 5.937,26.249 5.926,26.314C5.916,26.378 5.886,26.438 5.841,26.484L3.869,28.459C3.666,28.663 3.504,28.904 3.395,29.169C3.285,29.435 3.228,29.719 3.228,30.006C3.228,30.294 3.285,30.578 3.395,30.844C3.504,31.109 3.666,31.35 3.869,31.553L7.847,35.531C8.05,35.735 8.291,35.896 8.557,36.006C8.822,36.116 9.106,36.172 9.394,36.172C9.681,36.172 9.966,36.116 10.231,36.006C10.496,35.896 10.738,35.735 10.941,35.531L12.913,33.559C12.959,33.514 13.019,33.484 13.083,33.474C13.148,33.464 13.214,33.474 13.272,33.503C13.766,33.738 14.272,33.947 14.788,34.128C14.849,34.149 14.903,34.189 14.941,34.241C14.979,34.294 15,34.357 15,34.422L15,37.209C15,37.79 15.23,38.346 15.641,38.756C16.051,39.167 16.607,39.397 17.188,39.397L22.812,39.397C23.393,39.397 23.949,39.167 24.359,38.756C24.77,38.346 25,37.79 25,37.209L25,34.419C25,34.354 25.021,34.291 25.059,34.238C25.097,34.185 25.151,34.146 25.212,34.125C25.728,33.944 26.234,33.735 26.728,33.5C26.786,33.471 26.852,33.46 26.917,33.471C26.981,33.481 27.041,33.511 27.087,33.556L29.062,35.528C29.266,35.731 29.507,35.893 29.772,36.002C30.038,36.112 30.322,36.169 30.609,36.169C30.897,36.169 31.181,36.112 31.447,36.002C31.712,35.893 31.953,35.731 32.156,35.528L36.134,31.55C36.338,31.347 36.499,31.106 36.609,30.84C36.719,30.575 36.775,30.291 36.775,30.003C36.775,29.716 36.719,29.431 36.609,29.166C36.499,28.901 36.338,28.66 36.134,28.456L34.162,26.484C34.117,26.438 34.087,26.378 34.077,26.314C34.067,26.249 34.077,26.183 34.106,26.125C34.341,25.631 34.55,25.125 34.731,24.609C34.752,24.548 34.792,24.494 34.844,24.456C34.897,24.418 34.96,24.397 35.025,24.397L37.812,24.397C38.393,24.397 38.949,24.167 39.359,23.756C39.77,23.346 40,22.79 40,22.209L40,16.584C40,16.004 39.77,15.448 39.359,15.038C38.949,14.627 38.393,14.397 37.812,14.397ZM38.125,22.209C38.125,22.292 38.092,22.372 38.033,22.43C37.975,22.489 37.895,22.522 37.812,22.522L35.022,22.522C34.569,22.523 34.127,22.664 33.757,22.926C33.388,23.189 33.109,23.56 32.959,23.988C32.799,24.441 32.616,24.885 32.409,25.319C32.211,25.728 32.146,26.188 32.221,26.636C32.297,27.084 32.51,27.498 32.831,27.819L34.803,29.791C34.861,29.849 34.894,29.929 34.894,30.011C34.894,30.094 34.861,30.173 34.803,30.231L30.828,34.203C30.77,34.261 30.69,34.294 30.608,34.294C30.525,34.294 30.446,34.261 30.387,34.203L28.416,32.231C28.094,31.91 27.681,31.697 27.233,31.621C26.785,31.546 26.325,31.611 25.916,31.809C25.481,32.016 25.035,32.2 24.581,32.36C24.154,32.51 23.784,32.789 23.522,33.158C23.26,33.527 23.119,33.969 23.119,34.422L23.119,37.209C23.119,37.292 23.086,37.372 23.027,37.43C22.969,37.489 22.889,37.522 22.806,37.522L17.188,37.522C17.105,37.522 17.025,37.489 16.967,37.43C16.908,37.372 16.875,37.292 16.875,37.209L16.875,34.419C16.874,33.966 16.733,33.524 16.471,33.154C16.208,32.785 15.837,32.506 15.409,32.356C14.956,32.196 14.512,32.013 14.078,31.806C13.669,31.608 13.209,31.543 12.761,31.618C12.313,31.694 11.899,31.907 11.578,32.228L9.606,34.2C9.548,34.258 9.468,34.291 9.386,34.291C9.303,34.291 9.224,34.258 9.166,34.2L5.194,30.225C5.136,30.167 5.103,30.087 5.103,30.005C5.103,29.922 5.136,29.843 5.194,29.784L7.166,27.813C7.487,27.491 7.7,27.078 7.776,26.63C7.851,26.182 7.786,25.722 7.587,25.313C7.381,24.878 7.197,24.432 7.038,23.978C6.887,23.553 6.608,23.184 6.239,22.923C5.87,22.663 5.43,22.522 4.978,22.522L2.188,22.522C2.105,22.522 2.025,22.489 1.967,22.43C1.908,22.372 1.875,22.292 1.875,22.209L1.875,16.584C1.875,16.502 1.908,16.422 1.967,16.363C2.025,16.305 2.105,16.272 2.188,16.272L4.978,16.272C5.431,16.271 5.873,16.13 6.243,15.868C6.612,15.605 6.891,15.234 7.041,14.806C7.201,14.353 7.384,13.909 7.591,13.475C7.789,13.066 7.854,12.606 7.779,12.158C7.703,11.71 7.49,11.296 7.169,10.975L5.197,9.003C5.139,8.945 5.106,8.865 5.106,8.783C5.106,8.7 5.139,8.621 5.197,8.563L9.172,4.591C9.23,4.533 9.31,4.5 9.392,4.5C9.475,4.5 9.554,4.533 9.613,4.591L11.584,6.563C11.906,6.884 12.319,7.097 12.767,7.173C13.215,7.248 13.675,7.182 14.084,6.984C14.519,6.778 14.965,6.594 15.419,6.434C15.844,6.284 16.213,6.005 16.474,5.636C16.734,5.267 16.875,4.827 16.875,4.375L16.875,1.584C16.875,1.502 16.908,1.422 16.967,1.364C17.025,1.305 17.105,1.272 17.188,1.272L22.812,1.272C22.895,1.272 22.975,1.305 23.033,1.364C23.092,1.422 23.125,1.502 23.125,1.584L23.125,4.375C23.126,4.828 23.267,5.27 23.529,5.64C23.792,6.009 24.163,6.288 24.591,6.438C25.044,6.597 25.488,6.781 25.922,6.988C26.331,7.186 26.791,7.251 27.239,7.176C27.687,7.1 28.101,6.887 28.422,6.566L30.394,4.594C30.452,4.536 30.532,4.503 30.614,4.503C30.697,4.503 30.776,4.536 30.834,4.594L34.812,8.572C34.871,8.631 34.903,8.71 34.903,8.792C34.903,8.875 34.871,8.954 34.812,9.013L32.841,10.984C32.519,11.306 32.306,11.719 32.231,12.167C32.155,12.615 32.221,13.076 32.419,13.484C32.625,13.919 32.809,14.365 32.969,14.819C33.119,15.246 33.398,15.616 33.767,15.878C34.137,16.14 34.578,16.281 35.031,16.281L37.812,16.281C37.895,16.281 37.975,16.314 38.033,16.373C38.092,16.431 38.125,16.511 38.125,16.594L38.125,22.209Z" fill="#A7CB16" stroke="#A7CB16" stroke-width="0.5" stroke-miterlimit="3.999327"/>
</svg>
