<svg width="388" height="424" viewBox="0 0 388 424" fill="none" xmlns="http://www.w3.org/2000/svg" xmlns:xlink="http://www.w3.org/1999/xlink">
<path d="M152.92,200.358C152.92,200.358 180.454,170.601 193.779,155.056C202.661,127.521 195.554,95.098 172.905,73.338L100.955,2.723C97.401,-0.83 92.073,-0.83 88.077,2.28C83.634,5.834 83.634,12.051 87.188,16.047L155.581,87.108C159.577,91.105 159.134,97.322 154.692,100.875L153.803,101.764C149.806,104.875 144.032,104.875 140.478,100.875L72.977,26.707C69.424,23.153 63.649,22.71 59.653,25.818L59.21,26.261C55.213,29.814 54.767,35.589 57.878,40.028L122.721,115.085C126.274,119.082 125.831,125.299 121.832,128.41L120.943,129.299C116.947,132.852 110.729,131.963 107.176,127.967L44.554,51.578C41.001,47.581 35.226,46.692 30.787,50.245L30.344,50.688C26.348,53.799 25.901,59.57 29.012,64.013L90.301,143.511C93.412,147.507 92.966,153.281 88.969,156.389L87.634,157.724C83.192,161.277 76.974,160.388 73.867,155.949L16.13,76.451C13.02,72.008 6.36,71.122 2.363,74.676C-1.19,77.786 -2.079,83.115 0.588,87.554L58.325,173.269C79.639,204.8 120.055,215.014 152.923,200.358L152.92,200.358Z" fill="#FFFFFF"/>
<path d="M255.067,243.437C249.293,251.43 243.075,260.315 236.857,269.64C231.529,277.632 225.754,285.628 219.98,294.067C235.079,314.941 251.957,337.147 272.385,361.574C332.789,433.078 352.779,425.085 362.55,416.646C372.32,408.207 383.867,389.997 323.912,318.051C299.038,288.738 275.943,264.757 255.069,243.437L255.067,243.437Z" fill="#FFFFFF"/>
<path d="M276.385,223.895C285.267,234.109 301.255,232.777 308.363,221.231L369.207,123.081C391.855,87.997 393.187,43.139 371.871,7.609C366.985,-0.384 355.439,-1.273 349.665,6.277C349.665,6.277 289.263,87.551 221.313,166.605C168.019,227.897 108.062,286.517 81.859,318.051C21.458,389.997 33.004,408.207 43.221,416.645C52.992,425.085 72.977,433.077 133.378,361.131C189.779,293.623 220.87,239.441 254.179,197.693L276.385,223.895Z" fill="#FFFFFF"/>
</svg>
