<svg width="116" height="132" viewBox="0 0 116 132" fill="none" xmlns="http://www.w3.org/2000/svg" xmlns:xlink="http://www.w3.org/1999/xlink">
<path d="M45.256,61.679C45.256,61.679 53.342,52.474 57.255,47.665C59.863,39.147 57.776,29.117 51.125,22.385L29.997,0.54C28.953,-0.559 27.388,-0.559 26.215,0.403C24.91,1.502 24.91,3.426 25.954,4.662L46.038,26.645C47.211,27.881 47.081,29.805 45.777,30.904L45.516,31.179C44.342,32.141 42.647,32.141 41.603,30.904L21.781,7.959C20.737,6.86 19.042,6.723 17.868,7.684L17.738,7.821C16.564,8.921 16.433,10.707 17.347,12.08L36.388,35.3C37.432,36.536 37.302,38.46 36.127,39.422L35.866,39.697C34.693,40.796 32.867,40.521 31.823,39.285L13.434,15.653C12.391,14.417 10.695,14.142 9.391,15.241L9.261,15.378C8.088,16.341 7.957,18.126 8.87,19.5L26.868,44.094C27.782,45.33 27.651,47.116 26.477,48.077L26.085,48.491C24.78,49.59 22.955,49.315 22.042,47.941L5.087,23.348C4.174,21.974 2.218,21.7 1.045,22.799C0.001,23.761 -0.26,25.41 0.523,26.783L17.478,53.3C23.737,63.054 35.605,66.214 45.257,61.68L45.256,61.679Z" fill="#FFFFFF"/>
<path d="M75.253,75.006C73.557,77.479 71.731,80.227 69.905,83.112C68.341,85.585 66.645,88.058 64.949,90.669C69.383,97.127 74.339,103.996 80.338,111.553C98.076,133.673 103.946,131.2 106.816,128.59C109.685,125.979 113.076,120.346 95.469,98.089C88.165,89.021 81.383,81.602 75.253,75.006L75.253,75.006Z" fill="#FFFFFF"/>
<path d="M81.513,68.961C84.121,72.121 88.816,71.709 90.903,68.137L108.771,37.773C115.422,26.92 115.813,13.043 109.553,2.051C108.118,-0.421 104.728,-0.696 103.032,1.639C103.032,1.639 85.295,26.782 65.341,51.238C49.691,70.199 32.084,88.334 24.389,98.089C6.652,120.346 10.043,125.979 13.043,128.59C15.912,131.2 21.781,133.673 39.518,111.416C56.081,90.532 65.211,73.77 74.992,60.855L81.513,68.961Z" fill="#FFFFFF"/>
</svg>
