<svg width="42" height="42" viewBox="0 0 42 42" fill="none" xmlns="http://www.w3.org/2000/svg" xmlns:xlink="http://www.w3.org/1999/xlink">
<path d="M32.75,40.882L9.313,40.882C8.009,40.882 6.722,40.584 5.551,40.01C4.38,39.437 3.355,38.604 2.555,37.575C1.754,36.545 1.2,35.347 0.933,34.07C0.666,32.794 0.695,31.474 1.016,30.21L5.766,10.819C5.851,10.473 6.053,10.166 6.337,9.95C6.622,9.734 6.971,9.621 7.328,9.632L33.5,9.632C33.845,9.616 34.185,9.715 34.468,9.913C34.75,10.111 34.96,10.396 35.063,10.726L40.969,29.726C41.373,31.016 41.466,32.384 41.24,33.717C41.015,35.05 40.478,36.311 39.672,37.397C38.88,38.488 37.838,39.373 36.634,39.98C35.43,40.586 34.098,40.895 32.75,40.882ZM8.5,12.757L3.985,30.96C3.784,31.763 3.767,32.601 3.937,33.412C4.108,34.222 4.459,34.983 4.966,35.637C5.473,36.292 6.122,36.823 6.865,37.19C7.607,37.557 8.422,37.751 9.25,37.757L32.688,37.757C33.538,37.758 34.377,37.558 35.134,37.172C35.892,36.786 36.548,36.226 37.047,35.538C37.561,34.846 37.904,34.042 38.048,33.192C38.191,32.342 38.132,31.47 37.875,30.647L32.375,12.757L8.5,12.757Z" fill="#A7CB16"/>
<path d="M27.25,22.132C26.836,22.132 26.438,21.967 26.145,21.674C25.852,21.381 25.688,20.984 25.688,20.569L25.688,8.069C25.688,6.826 25.194,5.634 24.315,4.755C23.435,3.876 22.243,3.382 21,3.382C19.757,3.382 18.565,3.876 17.685,4.755C16.806,5.634 16.313,6.826 16.313,8.069L16.313,20.569C16.313,20.984 16.148,21.381 15.855,21.674C15.562,21.967 15.164,22.132 14.75,22.132C14.336,22.132 13.938,21.967 13.645,21.674C13.352,21.381 13.188,20.984 13.188,20.569L13.188,8.069C13.188,5.997 14.011,4.01 15.476,2.545C16.941,1.08 18.928,0.257 21,0.257C23.072,0.257 25.059,1.08 26.524,2.545C27.989,4.01 28.813,5.997 28.813,8.069L28.813,20.569C28.813,20.984 28.648,21.381 28.355,21.674C28.062,21.967 27.664,22.132 27.25,22.132Z" fill="#A7CB16"/>
</svg>
