<svg width="42" height="42" viewBox="0 0 42 42" fill="none" xmlns="http://www.w3.org/2000/svg" xmlns:xlink="http://www.w3.org/1999/xlink">
<path d="M16.313,31.507C13.222,31.507 10.201,30.59 7.632,28.874C5.062,27.157 3.06,24.716 1.877,21.861C0.694,19.006 0.385,15.865 0.988,12.834C1.591,9.803 3.079,7.018 5.264,4.833C7.449,2.648 10.233,1.16 13.264,0.557C16.295,-0.046 19.437,0.264 22.292,1.446C25.147,2.629 27.587,4.632 29.304,7.201C31.021,9.771 31.938,12.792 31.938,15.882C31.938,17.934 31.533,19.966 30.748,21.861C29.963,23.757 28.812,25.479 27.361,26.93C25.91,28.381 24.188,29.532 22.292,30.317C20.396,31.103 18.364,31.507 16.313,31.507ZM16.313,3.382C13.84,3.382 11.423,4.115 9.368,5.488C7.312,6.862 5.71,8.814 4.764,11.098C3.818,13.382 3.57,15.896 4.053,18.32C4.535,20.745 5.726,22.972 7.474,24.721C9.222,26.469 11.449,27.659 13.874,28.142C16.299,28.624 18.812,28.376 21.096,27.43C23.38,26.484 25.332,24.882 26.706,22.826C28.079,20.771 28.813,18.354 28.813,15.882C28.813,12.567 27.495,9.387 25.151,7.043C22.807,4.699 19.628,3.382 16.313,3.382Z" fill="#A7CB16"/>
<path d="M39.75,40.882C39.544,40.883 39.341,40.844 39.15,40.766C38.96,40.688 38.787,40.574 38.641,40.429L26.141,27.929C25.995,27.783 25.879,27.61 25.801,27.42C25.722,27.229 25.681,27.025 25.681,26.819C25.681,26.613 25.722,26.409 25.801,26.219C25.879,26.029 25.995,25.856 26.141,25.71C26.286,25.564 26.459,25.449 26.65,25.37C26.84,25.291 27.044,25.25 27.25,25.25C27.456,25.25 27.66,25.291 27.85,25.37C28.041,25.449 28.214,25.564 28.359,25.71L40.859,38.21C41.006,38.355 41.122,38.528 41.201,38.718C41.281,38.909 41.322,39.113 41.322,39.319C41.322,39.526 41.281,39.73 41.201,39.92C41.122,40.111 41.006,40.284 40.859,40.429C40.713,40.574 40.54,40.688 40.35,40.766C40.16,40.844 39.956,40.883 39.75,40.882Z" fill="#A7CB16"/>
</svg>
