<svg width="42" height="34" viewBox="0 0 42 34" fill="none" xmlns="http://www.w3.org/2000/svg" xmlns:xlink="http://www.w3.org/1999/xlink">
<path d="M39.75,5.632L13.188,5.632C12.773,5.632 12.376,5.467 12.083,5.174C11.79,4.881 11.625,4.484 11.625,4.069C11.625,3.655 11.79,3.258 12.083,2.964C12.376,2.671 12.773,2.507 13.188,2.507L39.75,2.507C40.164,2.507 40.562,2.671 40.855,2.964C41.148,3.258 41.313,3.655 41.313,4.069C41.313,4.484 41.148,4.881 40.855,5.174C40.562,5.467 40.164,5.632 39.75,5.632Z" fill="#A7CB16"/>
<path d="M6.938,5.632L2.25,5.632C1.836,5.632 1.438,5.467 1.145,5.174C0.852,4.881 0.688,4.484 0.688,4.069C0.688,3.655 0.852,3.258 1.145,2.964C1.438,2.671 1.836,2.507 2.25,2.507L6.938,2.507C7.352,2.507 7.749,2.671 8.042,2.964C8.335,3.258 8.5,3.655 8.5,4.069C8.5,4.484 8.335,4.881 8.042,5.174C7.749,5.467 7.352,5.632 6.938,5.632Z" fill="#A7CB16"/>
<path d="M28.813,18.132L2.25,18.132C1.836,18.132 1.438,17.967 1.145,17.674C0.852,17.381 0.688,16.984 0.688,16.569C0.688,16.155 0.852,15.758 1.145,15.464C1.438,15.171 1.836,15.007 2.25,15.007L28.813,15.007C29.227,15.007 29.624,15.171 29.917,15.464C30.21,15.758 30.375,16.155 30.375,16.569C30.375,16.984 30.21,17.381 29.917,17.674C29.624,17.967 29.227,18.132 28.813,18.132Z" fill="#A7CB16"/>
<path d="M13.188,30.632L2.25,30.632C1.836,30.632 1.438,30.467 1.145,30.174C0.852,29.881 0.688,29.484 0.688,29.069C0.688,28.655 0.852,28.258 1.145,27.964C1.438,27.671 1.836,27.507 2.25,27.507L13.188,27.507C13.602,27.507 13.999,27.671 14.292,27.964C14.585,28.258 14.75,28.655 14.75,29.069C14.75,29.484 14.585,29.881 14.292,30.174C13.999,30.467 13.602,30.632 13.188,30.632Z" fill="#A7CB16"/>
<path d="M10.063,8.757C9.135,8.757 8.229,8.482 7.458,7.967C6.687,7.452 6.087,6.72 5.732,5.863C5.377,5.007 5.284,4.064 5.465,3.155C5.646,2.246 6.092,1.41 6.748,0.755C7.404,0.099 8.239,-0.347 9.148,-0.528C10.057,-0.709 11,-0.616 11.856,-0.261C12.713,0.093 13.445,0.694 13.96,1.465C14.475,2.236 14.75,3.142 14.75,4.069C14.75,5.313 14.256,6.505 13.377,7.384C12.498,8.263 11.306,8.757 10.063,8.757ZM10.063,2.507C9.753,2.507 9.451,2.598 9.194,2.77C8.937,2.942 8.737,3.186 8.619,3.471C8.501,3.757 8.47,4.071 8.53,4.374C8.59,4.677 8.739,4.956 8.958,5.174C9.176,5.393 9.455,5.542 9.758,5.602C10.061,5.662 10.375,5.631 10.66,5.513C10.946,5.395 11.19,5.194 11.362,4.937C11.533,4.68 11.625,4.378 11.625,4.069C11.625,3.655 11.46,3.258 11.167,2.964C10.874,2.671 10.477,2.507 10.063,2.507Z" fill="#A7CB16"/>
<path d="M31.938,21.257C31.01,21.257 30.104,20.982 29.333,20.467C28.562,19.952 27.962,19.22 27.607,18.363C27.252,17.507 27.159,16.564 27.34,15.655C27.521,14.746 27.967,13.91 28.623,13.255C29.279,12.599 30.114,12.153 31.023,11.972C31.932,11.791 32.875,11.884 33.731,12.239C34.588,12.593 35.32,13.194 35.835,13.965C36.35,14.736 36.625,15.642 36.625,16.569C36.625,17.813 36.131,19.005 35.252,19.884C34.373,20.763 33.181,21.257 31.938,21.257ZM31.938,15.007C31.628,15.007 31.326,15.098 31.069,15.27C30.812,15.442 30.612,15.686 30.494,15.971C30.376,16.257 30.345,16.571 30.405,16.874C30.465,17.177 30.614,17.456 30.833,17.674C31.051,17.893 31.33,18.042 31.633,18.102C31.936,18.162 32.25,18.131 32.535,18.013C32.821,17.895 33.065,17.694 33.237,17.437C33.408,17.18 33.5,16.878 33.5,16.569C33.5,16.155 33.335,15.758 33.042,15.464C32.749,15.171 32.352,15.007 31.938,15.007Z" fill="#A7CB16"/>
<path d="M16.313,33.757C15.385,33.757 14.479,33.482 13.708,32.967C12.937,32.452 12.337,31.72 11.982,30.863C11.627,30.007 11.534,29.064 11.715,28.155C11.896,27.246 12.342,26.41 12.998,25.755C13.654,25.099 14.489,24.653 15.398,24.472C16.307,24.291 17.25,24.384 18.106,24.739C18.963,25.093 19.695,25.694 20.21,26.465C20.725,27.236 21,28.142 21,29.069C21,30.313 20.506,31.505 19.627,32.384C18.748,33.263 17.556,33.757 16.313,33.757ZM16.313,27.507C16.003,27.507 15.701,27.598 15.444,27.77C15.187,27.942 14.987,28.186 14.869,28.471C14.751,28.757 14.72,29.071 14.78,29.374C14.84,29.677 14.989,29.956 15.208,30.174C15.426,30.393 15.705,30.542 16.008,30.602C16.311,30.662 16.625,30.631 16.91,30.513C17.196,30.395 17.44,30.194 17.612,29.937C17.783,29.68 17.875,29.378 17.875,29.069C17.875,28.655 17.71,28.258 17.417,27.964C17.124,27.671 16.727,27.507 16.313,27.507Z" fill="#A7CB16"/>
<path d="M39.75,18.132L35.063,18.132C34.648,18.132 34.251,17.967 33.958,17.674C33.665,17.381 33.5,16.984 33.5,16.569C33.5,16.155 33.665,15.758 33.958,15.464C34.251,15.171 34.648,15.007 35.063,15.007L39.75,15.007C40.164,15.007 40.562,15.171 40.855,15.464C41.148,15.758 41.313,16.155 41.313,16.569C41.313,16.984 41.148,17.381 40.855,17.674C40.562,17.967 40.164,18.132 39.75,18.132Z" fill="#A7CB16"/>
<path d="M39.75,30.632L19.438,30.632C19.023,30.632 18.626,30.467 18.333,30.174C18.04,29.881 17.875,29.484 17.875,29.069C17.875,28.655 18.04,28.258 18.333,27.964C18.626,27.671 19.023,27.507 19.438,27.507L39.75,27.507C40.164,27.507 40.562,27.671 40.855,27.964C41.148,28.258 41.313,28.655 41.313,29.069C41.313,29.484 41.148,29.881 40.855,30.174C40.562,30.467 40.164,30.632 39.75,30.632Z" fill="#A7CB16"/>
</svg>
