<svg width="42" height="36" viewBox="0 0 42 36" fill="none" xmlns="http://www.w3.org/2000/svg" xmlns:xlink="http://www.w3.org/1999/xlink">
<path d="M39.75,6.063L13.188,6.063C12.773,6.063 12.376,5.898 12.083,5.605C11.79,5.312 11.625,4.914 11.625,4.5C11.625,4.086 11.79,3.688 12.083,3.395C12.376,3.102 12.773,2.938 13.188,2.938L39.75,2.938C40.164,2.938 40.562,3.102 40.855,3.395C41.148,3.688 41.313,4.086 41.313,4.5C41.313,4.914 41.148,5.312 40.855,5.605C40.562,5.898 40.164,6.063 39.75,6.063Z" fill="#A7CB16"/>
<path d="M6.938,6.063L2.25,6.063C1.836,6.063 1.438,5.898 1.145,5.605C0.852,5.312 0.688,4.914 0.688,4.5C0.688,4.086 0.852,3.688 1.145,3.395C1.438,3.102 1.836,2.938 2.25,2.938L6.938,2.938C7.352,2.938 7.749,3.102 8.042,3.395C8.335,3.688 8.5,4.086 8.5,4.5C8.5,4.914 8.335,5.312 8.042,5.605C7.749,5.898 7.352,6.063 6.938,6.063Z" fill="#A7CB16"/>
<path d="M28.813,18.563L2.25,18.563C1.836,18.563 1.438,18.398 1.145,18.105C0.852,17.812 0.688,17.414 0.688,17C0.688,16.586 0.852,16.188 1.145,15.895C1.438,15.602 1.836,15.438 2.25,15.438L28.813,15.438C29.227,15.438 29.624,15.602 29.917,15.895C30.21,16.188 30.375,16.586 30.375,17C30.375,17.414 30.21,17.812 29.917,18.105C29.624,18.398 29.227,18.563 28.813,18.563Z" fill="#A7CB16"/>
<path d="M13.188,31.063L2.25,31.063C1.836,31.063 1.438,30.898 1.145,30.605C0.852,30.312 0.688,29.914 0.688,29.5C0.688,29.086 0.852,28.688 1.145,28.395C1.438,28.102 1.836,27.938 2.25,27.938L13.188,27.938C13.602,27.938 13.999,28.102 14.292,28.395C14.585,28.688 14.75,29.086 14.75,29.5C14.75,29.914 14.585,30.312 14.292,30.605C13.999,30.898 13.602,31.063 13.188,31.063Z" fill="#A7CB16"/>
<path d="M10.063,9.188C9.135,9.188 8.229,8.913 7.458,8.398C6.687,7.882 6.087,7.15 5.732,6.294C5.377,5.437 5.284,4.495 5.465,3.586C5.646,2.676 6.092,1.841 6.748,1.185C7.403,0.53 8.239,0.083 9.148,-0.097C10.057,-0.278 11,-0.185 11.856,0.169C12.713,0.524 13.445,1.125 13.96,1.896C14.475,2.667 14.75,3.573 14.75,4.5C14.75,5.743 14.256,6.935 13.377,7.815C12.498,8.694 11.306,9.188 10.063,9.188ZM10.063,2.938C9.753,2.938 9.451,3.029 9.194,3.201C8.937,3.373 8.737,3.617 8.619,3.902C8.501,4.188 8.47,4.502 8.53,4.805C8.59,5.108 8.739,5.386 8.958,5.605C9.176,5.823 9.455,5.972 9.758,6.032C10.061,6.093 10.375,6.062 10.66,5.944C10.946,5.825 11.19,5.625 11.362,5.368C11.533,5.111 11.625,4.809 11.625,4.5C11.625,4.086 11.46,3.688 11.167,3.395C10.874,3.102 10.477,2.938 10.063,2.938Z" fill="#A7CB16"/>
<path d="M31.938,21.688C31.01,21.688 30.104,21.413 29.333,20.898C28.562,20.382 27.962,19.65 27.607,18.794C27.252,17.937 27.159,16.995 27.34,16.086C27.521,15.176 27.967,14.341 28.623,13.685C29.278,13.03 30.114,12.583 31.023,12.403C31.932,12.222 32.875,12.315 33.731,12.669C34.588,13.024 35.32,13.625 35.835,14.396C36.35,15.167 36.625,16.073 36.625,17C36.625,18.243 36.131,19.435 35.252,20.315C34.373,21.194 33.181,21.688 31.938,21.688ZM31.938,15.438C31.628,15.438 31.326,15.529 31.069,15.701C30.812,15.873 30.612,16.117 30.494,16.402C30.376,16.688 30.345,17.002 30.405,17.305C30.465,17.608 30.614,17.886 30.833,18.105C31.051,18.323 31.33,18.472 31.633,18.532C31.936,18.593 32.25,18.562 32.535,18.444C32.821,18.325 33.065,18.125 33.237,17.868C33.408,17.611 33.5,17.309 33.5,17C33.5,16.586 33.335,16.188 33.042,15.895C32.749,15.602 32.352,15.438 31.938,15.438Z" fill="#A7CB16"/>
<path d="M16.313,34.188C15.385,34.188 14.479,33.913 13.708,33.398C12.937,32.882 12.337,32.15 11.982,31.294C11.627,30.437 11.534,29.495 11.715,28.586C11.896,27.676 12.342,26.841 12.998,26.185C13.653,25.53 14.489,25.083 15.398,24.903C16.307,24.722 17.25,24.815 18.106,25.169C18.963,25.524 19.695,26.125 20.21,26.896C20.725,27.667 21,28.573 21,29.5C21,30.743 20.506,31.935 19.627,32.815C18.748,33.694 17.556,34.188 16.313,34.188ZM16.313,27.938C16.003,27.938 15.701,28.029 15.444,28.201C15.187,28.373 14.987,28.617 14.869,28.902C14.751,29.188 14.72,29.502 14.78,29.805C14.84,30.108 14.989,30.386 15.208,30.605C15.426,30.823 15.705,30.972 16.008,31.032C16.311,31.093 16.625,31.062 16.91,30.944C17.196,30.825 17.44,30.625 17.612,30.368C17.783,30.111 17.875,29.809 17.875,29.5C17.875,29.086 17.71,28.688 17.417,28.395C17.124,28.102 16.727,27.938 16.313,27.938Z" fill="#A7CB16"/>
<path d="M39.75,18.563L35.063,18.563C34.648,18.563 34.251,18.398 33.958,18.105C33.665,17.812 33.5,17.414 33.5,17C33.5,16.586 33.665,16.188 33.958,15.895C34.251,15.602 34.648,15.438 35.063,15.438L39.75,15.438C40.164,15.438 40.562,15.602 40.855,15.895C41.148,16.188 41.313,16.586 41.313,17C41.313,17.414 41.148,17.812 40.855,18.105C40.562,18.398 40.164,18.563 39.75,18.563Z" fill="#A7CB16"/>
<path d="M39.75,31.063L19.438,31.063C19.023,31.063 18.626,30.898 18.333,30.605C18.04,30.312 17.875,29.914 17.875,29.5C17.875,29.086 18.04,28.688 18.333,28.395C18.626,28.102 19.023,27.938 19.438,27.938L39.75,27.938C40.164,27.938 40.562,28.102 40.855,28.395C41.148,28.688 41.313,29.086 41.313,29.5C41.313,29.914 41.148,30.312 40.855,30.605C40.562,30.898 40.164,31.063 39.75,31.063Z" fill="#A7CB16"/>
</svg>
