<svg width="42" height="42" viewBox="0 0 42 42" fill="none" xmlns="http://www.w3.org/2000/svg" xmlns:xlink="http://www.w3.org/1999/xlink">
<path d="M32.75,41.312L9.312,41.312C8.009,41.312 6.722,41.014 5.551,40.441C4.379,39.868 3.355,39.035 2.554,38.005C1.754,36.976 1.199,35.777 0.933,34.501C0.666,33.225 0.694,31.904 1.016,30.641L5.766,11.25C5.851,10.903 6.053,10.596 6.337,10.38C6.621,10.164 6.971,10.052 7.328,10.062L33.5,10.062C33.845,10.047 34.185,10.145 34.468,10.343C34.75,10.541 34.959,10.827 35.063,11.156L40.969,30.156C41.373,31.447 41.466,32.814 41.24,34.148C41.015,35.481 40.477,36.742 39.672,37.828C38.88,38.919 37.838,39.804 36.634,40.41C35.43,41.016 34.098,41.326 32.75,41.312ZM8.5,13.187L3.984,31.391C3.783,32.194 3.767,33.032 3.937,33.842C4.107,34.652 4.459,35.414 4.966,36.068C5.473,36.723 6.122,37.253 6.864,37.62C7.606,37.988 8.422,38.181 9.25,38.187L32.688,38.187C33.538,38.189 34.376,37.988 35.134,37.603C35.892,37.217 36.548,36.657 37.047,35.969C37.561,35.276 37.903,34.473 38.047,33.623C38.191,32.773 38.132,31.901 37.875,31.078L32.375,13.187L8.5,13.187Z" fill="#A7CB16"/>
<path d="M27.25,22.563C26.836,22.563 26.438,22.398 26.145,22.105C25.852,21.812 25.688,21.414 25.688,21L25.688,8.5C25.688,7.257 25.194,6.065 24.315,5.185C23.435,4.306 22.243,3.813 21,3.813C19.757,3.813 18.565,4.306 17.685,5.185C16.806,6.065 16.313,7.257 16.313,8.5L16.313,21C16.313,21.414 16.148,21.812 15.855,22.105C15.562,22.398 15.164,22.563 14.75,22.563C14.336,22.563 13.938,22.398 13.645,22.105C13.352,21.812 13.188,21.414 13.188,21L13.188,8.5C13.188,6.428 14.011,4.441 15.476,2.976C16.941,1.511 18.928,0.688 21,0.688C23.072,0.688 25.059,1.511 26.524,2.976C27.989,4.441 28.813,6.428 28.813,8.5L28.813,21C28.813,21.414 28.648,21.812 28.355,22.105C28.062,22.398 27.664,22.563 27.25,22.563Z" fill="#A7CB16"/>
</svg>
