<svg width="42" height="42" viewBox="0 0 42 42" fill="none" xmlns="http://www.w3.org/2000/svg" xmlns:xlink="http://www.w3.org/1999/xlink">
<path d="M16.313,31.938C13.222,31.938 10.201,31.021 7.632,29.304C5.062,27.587 3.059,25.147 1.877,22.292C0.694,19.437 0.385,16.295 0.988,13.264C1.591,10.233 3.079,7.449 5.264,5.264C7.449,3.079 10.233,1.591 13.264,0.988C16.295,0.385 19.437,0.694 22.292,1.877C25.147,3.06 27.587,5.062 29.304,7.632C31.021,10.201 31.938,13.222 31.938,16.313C31.938,18.364 31.533,20.396 30.748,22.292C29.963,24.188 28.812,25.91 27.361,27.361C25.91,28.812 24.188,29.963 22.292,30.748C20.396,31.533 18.364,31.938 16.313,31.938ZM16.313,3.813C13.84,3.813 11.423,4.546 9.368,5.919C7.312,7.293 5.71,9.245 4.764,11.529C3.818,13.813 3.57,16.326 4.053,18.751C4.535,21.176 5.726,23.403 7.474,25.151C9.222,26.899 11.449,28.09 13.874,28.572C16.299,29.055 18.812,28.807 21.096,27.861C23.38,26.915 25.332,25.313 26.706,23.257C28.079,21.202 28.813,18.785 28.813,16.313C28.813,12.997 27.495,9.818 25.151,7.474C22.807,5.129 19.628,3.813 16.313,3.813Z" fill="#A7CB16"/>
<path d="M39.75,41.313C39.544,41.314 39.341,41.274 39.15,41.197C38.96,41.119 38.787,41.004 38.641,40.859L26.141,28.359C25.995,28.214 25.879,28.041 25.801,27.85C25.722,27.66 25.681,27.456 25.681,27.25C25.681,27.044 25.722,26.84 25.801,26.65C25.879,26.459 25.995,26.286 26.141,26.141C26.286,25.995 26.459,25.879 26.65,25.801C26.84,25.722 27.044,25.681 27.25,25.681C27.456,25.681 27.66,25.722 27.85,25.801C28.041,25.879 28.214,25.995 28.359,26.141L40.859,38.641C41.006,38.786 41.122,38.959 41.201,39.149C41.281,39.34 41.322,39.544 41.322,39.75C41.322,39.956 41.281,40.161 41.201,40.351C41.122,40.541 41.006,40.714 40.859,40.859C40.713,41.004 40.54,41.119 40.35,41.197C40.16,41.274 39.956,41.314 39.75,41.313Z" fill="#A7CB16"/>
</svg>
