<svg width="40" height="40" viewBox="0 0 40 40" fill="none" xmlns="http://www.w3.org/2000/svg" xmlns:xlink="http://www.w3.org/1999/xlink">
<path d="M19.55,37.859L2.444,37.859C4.434,35.296 5.512,32.126 5.503,28.864L5.503,0.935L31.891,0.935L31.891,15.663C31.891,15.868 31.971,16.063 32.113,16.207C32.255,16.352 32.448,16.433 32.649,16.433C32.851,16.433 33.043,16.352 33.186,16.207C33.328,16.063 33.408,15.868 33.408,15.663L33.408,0.166C33.408,0.065 33.388,-0.035 33.35,-0.128C33.312,-0.222 33.256,-0.306 33.186,-0.378C33.115,-0.449 33.032,-0.506 32.94,-0.545C32.848,-0.583 32.749,-0.603 32.649,-0.603L4.745,-0.603C4.645,-0.603 4.546,-0.583 4.454,-0.545C4.362,-0.506 4.279,-0.449 4.208,-0.378C4.138,-0.306 4.082,-0.222 4.044,-0.128C4.006,-0.035 3.986,0.065 3.986,0.166L3.986,28.864C3.991,30.577 3.661,32.274 3.015,33.857C2.368,35.439 1.419,36.876 0.222,38.084C0.116,38.191 0.044,38.329 0.015,38.478C-0.015,38.627 0,38.782 0.058,38.922C0.115,39.063 0.212,39.183 0.337,39.267C0.462,39.352 0.608,39.397 0.758,39.397L19.55,39.397C19.751,39.397 19.944,39.316 20.086,39.172C20.228,39.027 20.308,38.832 20.308,38.628C20.308,38.424 20.228,38.228 20.086,38.084C19.944,37.94 19.751,37.859 19.55,37.859Z" fill="#A7CB16" stroke="#A7CB16" stroke-width="0.5" stroke-miterlimit="3.999327"/>
<path d="M27.395,9.086L10,9.086C9.798,9.086 9.606,9.167 9.463,9.311C9.321,9.455 9.241,9.651 9.241,9.855C9.241,10.059 9.321,10.255 9.463,10.399C9.606,10.543 9.798,10.624 10,10.624L27.395,10.624C27.596,10.624 27.789,10.543 27.931,10.399C28.073,10.255 28.153,10.059 28.153,9.855C28.153,9.651 28.073,9.455 27.931,9.311C27.789,9.167 27.596,9.086 27.395,9.086Z" fill="#A7CB16" stroke="#A7CB16" stroke-width="0.5" stroke-miterlimit="3.999327"/>
<path d="M28.153,15.067C28.153,14.966 28.134,14.866 28.096,14.773C28.057,14.679 28.002,14.595 27.931,14.523C27.861,14.452 27.777,14.395 27.685,14.356C27.593,14.318 27.494,14.298 27.395,14.298L10,14.298C9.798,14.298 9.606,14.379 9.463,14.523C9.321,14.667 9.241,14.863 9.241,15.067C9.241,15.271 9.321,15.467 9.463,15.611C9.606,15.755 9.798,15.836 10,15.836L27.395,15.836C27.494,15.836 27.593,15.816 27.685,15.778C27.777,15.739 27.861,15.683 27.931,15.611C28.002,15.54 28.057,15.455 28.096,15.361C28.134,15.268 28.153,15.168 28.153,15.067Z" fill="#A7CB16" stroke="#A7CB16" stroke-width="0.5" stroke-miterlimit="3.999327"/>
<path d="M20.592,20.279C20.592,20.178 20.573,20.078 20.535,19.985C20.497,19.891 20.441,19.806 20.37,19.735C20.3,19.664 20.216,19.607 20.124,19.568C20.032,19.53 19.934,19.51 19.834,19.51L10,19.51C9.798,19.51 9.606,19.591 9.463,19.735C9.321,19.879 9.241,20.075 9.241,20.279C9.241,20.483 9.321,20.679 9.463,20.823C9.606,20.967 9.798,21.048 10,21.048L19.834,21.048C19.934,21.048 20.032,21.028 20.124,20.99C20.216,20.951 20.3,20.894 20.37,20.823C20.441,20.752 20.497,20.667 20.535,20.573C20.573,20.48 20.592,20.38 20.592,20.279Z" fill="#A7CB16" stroke="#A7CB16" stroke-width="0.5" stroke-miterlimit="3.999327"/>
<path d="M10,24.721C9.798,24.721 9.606,24.802 9.463,24.947C9.321,25.091 9.241,25.287 9.241,25.491C9.241,25.695 9.321,25.89 9.463,26.035C9.606,26.179 9.798,26.26 10,26.26L16.185,26.26C16.386,26.26 16.579,26.179 16.721,26.035C16.863,25.89 16.943,25.695 16.943,25.491C16.943,25.287 16.863,25.091 16.721,24.947C16.579,24.802 16.386,24.721 16.185,24.721L10,24.721Z" fill="#A7CB16" stroke="#A7CB16" stroke-width="0.5" stroke-miterlimit="3.999327"/>
<path d="M37.132,22.422C35.864,21.133 34.27,20.223 32.527,19.79C30.783,19.358 28.955,19.42 27.244,19.97C25.532,20.52 24.003,21.536 22.822,22.909C21.642,24.281 20.856,25.956 20.55,27.75L19.948,27.139C19.805,26.995 19.613,26.914 19.412,26.914C19.21,26.914 19.018,26.995 18.875,27.139C18.733,27.283 18.653,27.479 18.653,27.683C18.653,27.887 18.733,28.082 18.875,28.227L20.62,29.997C20.763,30.141 20.956,30.221 21.157,30.221C21.358,30.221 21.551,30.141 21.694,29.997L23.439,28.227C23.581,28.082 23.661,27.887 23.661,27.683C23.661,27.479 23.581,27.283 23.439,27.139C23.297,26.995 23.104,26.914 22.903,26.914C22.702,26.914 22.509,26.995 22.367,27.139L22.194,27.314C22.661,25.525 23.696,23.943 25.14,22.813C26.583,21.682 28.355,21.067 30.178,21.063C32.002,21.059 33.776,21.665 35.225,22.789C36.674,23.912 37.717,25.489 38.191,27.275C38.666,29.062 38.546,30.957 37.849,32.667C37.153,34.376 35.92,35.805 34.341,36.731C32.762,37.657 30.926,38.028 29.118,37.787C27.31,37.546 25.631,36.705 24.342,35.397C24.2,35.253 24.007,35.172 23.806,35.172C23.605,35.172 23.412,35.253 23.27,35.397C23.128,35.541 23.048,35.737 23.048,35.941C23.048,36.145 23.128,36.34 23.27,36.485C25.108,38.348 27.601,39.394 30.2,39.394C32.799,39.393 35.291,38.345 37.129,36.481C38.967,34.617 39.999,32.089 40,29.452C40,26.816 38.969,24.287 37.132,22.422Z" fill="#A7CB16" stroke="#A7CB16" stroke-width="0.5" stroke-miterlimit="3.999327"/>
<path d="M30.201,22.793C30.102,22.793 30.003,22.813 29.911,22.852C29.819,22.89 29.735,22.947 29.665,23.018C29.594,23.09 29.539,23.175 29.501,23.268C29.462,23.361 29.443,23.461 29.443,23.562L29.443,29.453C29.444,29.657 29.524,29.853 29.666,29.998L32.414,32.786C32.556,32.928 32.749,33.008 32.949,33.007C33.149,33.007 33.341,32.926 33.483,32.782C33.624,32.639 33.704,32.444 33.705,32.241C33.705,32.038 33.627,31.843 33.486,31.698L30.959,29.135L30.959,23.562C30.959,23.461 30.94,23.361 30.902,23.268C30.864,23.175 30.808,23.09 30.737,23.018C30.667,22.947 30.583,22.89 30.491,22.852C30.399,22.813 30.301,22.793 30.201,22.793Z" fill="#A7CB16" stroke="#A7CB16" stroke-width="0.5" stroke-miterlimit="3.999327"/>
</svg>
