<svg width="40" height="40" viewBox="0 0 40 40" fill="none" xmlns="http://www.w3.org/2000/svg" xmlns:xlink="http://www.w3.org/1999/xlink">
<path d="M19.55,38.462L2.444,38.462C4.434,35.899 5.512,32.729 5.503,29.467L5.503,1.538L31.891,1.538L31.891,16.267C31.891,16.471 31.971,16.666 32.113,16.81C32.255,16.955 32.448,17.036 32.649,17.036C32.851,17.036 33.043,16.955 33.186,16.81C33.328,16.666 33.408,16.471 33.408,16.267L33.408,0.769C33.408,0.668 33.388,0.568 33.35,0.475C33.312,0.381 33.256,0.297 33.186,0.225C33.115,0.154 33.032,0.097 32.94,0.059C32.848,0.02 32.749,0 32.649,0L4.745,0C4.645,0 4.546,0.02 4.454,0.059C4.362,0.097 4.279,0.154 4.208,0.225C4.138,0.297 4.082,0.381 4.044,0.475C4.006,0.568 3.986,0.668 3.986,0.769L3.986,29.467C3.991,31.18 3.661,32.877 3.015,34.46C2.368,36.042 1.419,37.479 0.222,38.687C0.116,38.794 0.044,38.932 0.015,39.081C-0.015,39.23 0,39.385 0.058,39.525C0.115,39.666 0.212,39.786 0.337,39.87C0.462,39.955 0.608,40 0.758,40L19.55,40C19.751,40 19.944,39.919 20.086,39.775C20.228,39.63 20.308,39.435 20.308,39.231C20.308,39.027 20.228,38.831 20.086,38.687C19.944,38.543 19.751,38.462 19.55,38.462Z" fill="#A7CB16" stroke="#A7CB16" stroke-width="0.5" stroke-miterlimit="3.999327"/>
<path d="M27.395,9.689L9.999,9.689C9.798,9.689 9.605,9.77 9.463,9.914C9.321,10.059 9.241,10.254 9.241,10.458C9.241,10.662 9.321,10.858 9.463,11.002C9.605,11.146 9.798,11.227 9.999,11.227L27.395,11.227C27.596,11.227 27.789,11.146 27.931,11.002C28.073,10.858 28.153,10.662 28.153,10.458C28.153,10.254 28.073,10.059 27.931,9.914C27.789,9.77 27.596,9.689 27.395,9.689Z" fill="#A7CB16" stroke="#A7CB16" stroke-width="0.5" stroke-miterlimit="3.999327"/>
<path d="M28.153,15.67C28.153,15.569 28.133,15.469 28.095,15.376C28.057,15.282 28.001,15.198 27.931,15.126C27.861,15.055 27.777,14.998 27.685,14.959C27.593,14.921 27.494,14.901 27.395,14.901L9.999,14.901C9.798,14.901 9.605,14.982 9.463,15.126C9.321,15.27 9.241,15.466 9.241,15.67C9.241,15.874 9.321,16.07 9.463,16.214C9.605,16.358 9.798,16.439 9.999,16.439L27.395,16.439C27.494,16.439 27.593,16.419 27.685,16.381C27.777,16.342 27.861,16.286 27.931,16.214C28.001,16.143 28.057,16.058 28.095,15.964C28.133,15.871 28.153,15.771 28.153,15.67Z" fill="#A7CB16" stroke="#A7CB16" stroke-width="0.5" stroke-miterlimit="3.999327"/>
<path d="M20.592,20.882C20.592,20.781 20.573,20.681 20.534,20.588C20.496,20.494 20.441,20.409 20.37,20.338C20.3,20.266 20.216,20.21 20.124,20.171C20.032,20.133 19.933,20.113 19.834,20.113L9.999,20.113C9.798,20.113 9.605,20.194 9.463,20.338C9.321,20.482 9.241,20.678 9.241,20.882C9.241,21.086 9.321,21.282 9.463,21.426C9.605,21.57 9.798,21.651 9.999,21.651L19.834,21.651C19.933,21.651 20.032,21.631 20.124,21.593C20.216,21.554 20.3,21.497 20.37,21.426C20.441,21.354 20.496,21.27 20.534,21.176C20.573,21.083 20.592,20.983 20.592,20.882Z" fill="#A7CB16" stroke="#A7CB16" stroke-width="0.5" stroke-miterlimit="3.999327"/>
<path d="M9.999,25.325C9.798,25.325 9.605,25.406 9.463,25.55C9.321,25.694 9.241,25.89 9.241,26.094C9.241,26.298 9.321,26.493 9.463,26.638C9.605,26.782 9.798,26.863 9.999,26.863L16.185,26.863C16.386,26.863 16.579,26.782 16.721,26.638C16.863,26.493 16.943,26.298 16.943,26.094C16.943,25.89 16.863,25.694 16.721,25.55C16.579,25.406 16.386,25.325 16.185,25.325L9.999,25.325Z" fill="#A7CB16" stroke="#A7CB16" stroke-width="0.5" stroke-miterlimit="3.999327"/>
<path d="M37.132,23.025C35.864,21.736 34.271,20.826 32.527,20.393C30.783,19.961 28.955,20.023 27.244,20.573C25.532,21.123 24.003,22.139 22.822,23.512C21.642,24.884 20.856,26.559 20.55,28.353L19.948,27.742C19.806,27.598 19.613,27.517 19.412,27.517C19.211,27.517 19.018,27.598 18.876,27.742C18.733,27.886 18.654,28.082 18.654,28.286C18.654,28.49 18.733,28.685 18.876,28.83L20.621,30.6C20.763,30.744 20.956,30.824 21.157,30.824C21.358,30.824 21.551,30.744 21.694,30.6L23.439,28.83C23.581,28.685 23.661,28.49 23.661,28.286C23.661,28.082 23.581,27.886 23.439,27.742C23.297,27.598 23.104,27.517 22.903,27.517C22.702,27.517 22.509,27.598 22.367,27.742L22.195,27.917C22.661,26.128 23.696,24.546 25.14,23.416C26.584,22.285 28.355,21.67 30.179,21.666C32.002,21.661 33.776,22.268 35.225,23.391C36.674,24.515 37.717,26.092 38.191,27.878C38.666,29.665 38.546,31.56 37.85,33.27C37.153,34.979 35.92,36.408 34.341,37.334C32.762,38.26 30.926,38.631 29.118,38.39C27.31,38.149 25.631,37.308 24.342,36C24.2,35.856 24.007,35.775 23.806,35.775C23.605,35.775 23.412,35.856 23.27,36C23.128,36.144 23.048,36.34 23.048,36.544C23.048,36.748 23.128,36.943 23.27,37.088C25.109,38.951 27.601,39.997 30.2,39.997C32.799,39.996 35.291,38.948 37.129,37.084C38.967,35.22 39.999,32.692 40,30.055C40.001,27.419 38.969,24.89 37.132,23.025Z" fill="#A7CB16" stroke="#A7CB16" stroke-width="0.5" stroke-miterlimit="3.999327"/>
<path d="M30.201,23.396C30.102,23.396 30.003,23.416 29.911,23.455C29.819,23.493 29.735,23.55 29.665,23.621C29.595,23.693 29.539,23.778 29.501,23.871C29.463,23.964 29.443,24.064 29.443,24.165L29.443,30.056C29.444,30.26 29.524,30.456 29.666,30.601L32.414,33.389C32.556,33.531 32.749,33.611 32.949,33.61C33.149,33.61 33.341,33.529 33.483,33.385C33.624,33.242 33.704,33.047 33.705,32.844C33.706,32.641 33.627,32.446 33.486,32.301L30.96,29.738L30.96,24.165C30.96,24.064 30.94,23.964 30.902,23.871C30.864,23.778 30.808,23.693 30.738,23.621C30.667,23.55 30.584,23.493 30.492,23.455C30.399,23.416 30.301,23.396 30.201,23.396Z" fill="#A7CB16" stroke="#A7CB16" stroke-width="0.5" stroke-miterlimit="3.999327"/>
</svg>
