<svg width="66" height="66" viewBox="0 0 66 66" fill="none" xmlns="http://www.w3.org/2000/svg" xmlns:xlink="http://www.w3.org/1999/xlink">
<path d="M62,27.442L62,29.942C63.039,29.942 63.97,29.298 64.338,28.326C64.706,27.354 64.434,26.256 63.655,25.568L62,27.442ZM2,27.442L0.389,25.53C-0.414,26.206 -0.708,27.313 -0.348,28.299C0.012,29.285 0.95,29.942 2,29.942L2,27.442ZM32.705,1.569L34.36,-0.305C33.431,-1.125 32.042,-1.141 31.094,-0.342L32.705,1.569ZM25.574,64.069C26.955,64.069 28.074,62.95 28.074,61.569C28.074,60.189 26.955,59.069 25.574,59.069L25.574,64.069ZM9.706,61.569L7.206,61.569C7.206,62.95 8.325,64.069 9.706,64.069L9.706,61.569ZM9.706,27.442L9.706,24.942C8.325,24.942 7.206,26.061 7.206,27.442L9.706,27.442ZM53.757,27.442L56.257,27.442C56.257,26.061 55.138,24.942 53.757,24.942L53.757,27.442ZM53.757,61.569L53.757,64.069C55.138,64.069 56.257,62.95 56.257,61.569L53.757,61.569ZM37.889,59.069C36.509,59.069 35.389,60.189 35.389,61.569C35.389,62.95 36.509,64.069 37.889,64.069L37.889,59.069ZM23.074,61.529C23.074,62.91 24.193,64.029 25.574,64.029C26.955,64.029 28.074,62.91 28.074,61.529L23.074,61.529ZM25.574,45.14L25.574,42.64C24.193,42.64 23.074,43.759 23.074,45.14L25.574,45.14ZM37.889,45.14L40.389,45.14C40.389,43.759 39.27,42.64 37.889,42.64L37.889,45.14ZM35.389,61.529C35.389,62.91 36.509,64.029 37.889,64.029C39.27,64.029 40.389,62.91 40.389,61.529L35.389,61.529ZM62,24.942L2,24.942L2,29.942L62,29.942L62,24.942ZM3.611,29.353L34.316,3.481L31.094,-0.342L0.389,25.53L3.611,29.353ZM31.05,3.443L60.345,29.315L63.655,25.568L34.36,-0.305L31.05,3.443ZM25.574,59.069L9.706,59.069L9.706,64.069L25.574,64.069L25.574,59.069ZM12.206,61.569L12.206,27.442L7.206,27.442L7.206,61.569L12.206,61.569ZM9.706,29.942L53.757,29.942L53.757,24.942L9.706,24.942L9.706,29.942ZM51.257,27.442L51.257,61.569L56.257,61.569L56.257,27.442L51.257,27.442ZM53.757,59.069L37.889,59.069L37.889,64.069L53.757,64.069L53.757,59.069ZM28.074,61.529L28.074,45.14L23.074,45.14L23.074,61.529L28.074,61.529ZM25.574,47.64L37.889,47.64L37.889,42.64L25.574,42.64L25.574,47.64ZM35.389,45.14L35.389,61.529L40.389,61.529L40.389,45.14L35.389,45.14Z" fill="#000000"/>
</svg>
