<svg width="66" height="66" viewBox="0 0 66 66" fill="none" xmlns="http://www.w3.org/2000/svg" xmlns:xlink="http://www.w3.org/1999/xlink">
<path d="M62,27.872L62,30.372C63.039,30.372 63.97,29.729 64.338,28.757C64.706,27.785 64.434,26.686 63.655,25.998L62,27.872ZM2,27.872L0.389,25.96C-0.414,26.637 -0.708,27.743 -0.348,28.73C0.012,29.716 0.95,30.372 2,30.372L2,27.872ZM32.705,2L34.36,0.126C33.431,-0.694 32.042,-0.71 31.094,0.088L32.705,2ZM25.574,64.5C26.955,64.5 28.074,63.381 28.074,62C28.074,60.619 26.955,59.5 25.574,59.5L25.574,64.5ZM9.706,62L7.206,62C7.206,63.381 8.326,64.5 9.706,64.5L9.706,62ZM9.706,27.872L9.706,25.372C8.326,25.372 7.206,26.491 7.206,27.872L9.706,27.872ZM53.757,27.872L56.257,27.872C56.257,26.491 55.138,25.372 53.757,25.372L53.757,27.872ZM53.757,62L53.757,64.5C55.138,64.5 56.257,63.381 56.257,62L53.757,62ZM37.889,59.5C36.509,59.5 35.389,60.619 35.389,62C35.389,63.381 36.509,64.5 37.889,64.5L37.889,59.5ZM23.074,61.96C23.074,63.34 24.193,64.46 25.574,64.46C26.955,64.46 28.074,63.34 28.074,61.96L23.074,61.96ZM25.574,45.57L25.574,43.07C24.193,43.07 23.074,44.19 23.074,45.57L25.574,45.57ZM37.889,45.57L40.389,45.57C40.389,44.19 39.27,43.07 37.889,43.07L37.889,45.57ZM35.389,61.96C35.389,63.34 36.509,64.46 37.889,64.46C39.27,64.46 40.389,63.34 40.389,61.96L35.389,61.96ZM62,25.372L2,25.372L2,30.372L62,30.372L62,25.372ZM3.611,29.784L34.316,3.912L31.094,0.088L0.389,25.96L3.611,29.784ZM31.05,3.874L60.345,29.746L63.655,25.998L34.36,0.126L31.05,3.874ZM25.574,59.5L9.706,59.5L9.706,64.5L25.574,64.5L25.574,59.5ZM12.206,62L12.206,27.872L7.206,27.872L7.206,62L12.206,62ZM9.706,30.372L53.757,30.372L53.757,25.372L9.706,25.372L9.706,30.372ZM51.257,27.872L51.257,62L56.257,62L56.257,27.872L51.257,27.872ZM53.757,59.5L37.889,59.5L37.889,64.5L53.757,64.5L53.757,59.5ZM28.074,61.96L28.074,45.57L23.074,45.57L23.074,61.96L28.074,61.96ZM25.574,48.07L37.889,48.07L37.889,43.07L25.574,43.07L25.574,48.07ZM35.389,45.57L35.389,61.96L40.389,61.96L40.389,45.57L35.389,45.57Z" fill="#000000"/>
</svg>
