<svg width="34" height="44" viewBox="0 0 34 44" fill="none" xmlns="http://www.w3.org/2000/svg" xmlns:xlink="http://www.w3.org/1999/xlink">
<path d="M18.063,2.05C18.063,0.005 15.429,-0.766 14.268,0.93C3.625,16.487 18.75,17.187 18.75,24.75C18.75,27.812 16.248,30.29 13.177,30.249C10.155,30.211 7.75,27.691 7.75,24.668L7.75,17.32C7.75,15.455 5.475,14.55 4.19,15.902C1.889,18.318 -0.5,22.458 -0.5,27.5C-0.5,36.598 6.902,44 16,44C25.098,44 32.5,36.598 32.5,27.5C32.5,12.866 18.063,10.914 18.063,2.05L18.063,2.05Z" fill="#A7CB16"/>
</svg>
