<svg width="60" height="60" viewBox="0 0 60 60" fill="none" xmlns="http://www.w3.org/2000/svg" xmlns:xlink="http://www.w3.org/1999/xlink">
<path d="M59.236,20.943C55.923,16.539 52.507,12.135 49.194,7.615C47.538,5.529 45.881,3.443 44.328,1.241C43.293,-0.15 41.844,0.082 40.291,0.082C33.975,0.082 27.66,0.082 21.345,0.082C19.896,0.082 17.722,-0.381 16.583,0.893C15.133,2.516 13.788,4.37 12.338,6.109C8.301,11.092 4.367,16.076 0.329,20.943C-1.431,23.145 1.468,26.39 3.228,24.188C4.159,23.029 5.091,21.87 6.023,20.712C6.023,28.477 6.023,36.357 6.023,44.122C6.023,47.831 7.783,51.076 10.889,52.235C11.096,56.523 14.202,60 18.032,60C21.759,60 24.761,56.871 25.176,52.814C30.145,52.814 35.218,52.814 40.187,52.814C40.187,54.205 40.187,55.596 40.187,56.871C40.187,57.103 40.187,57.45 40.187,57.682C40.187,58.841 41.119,60 42.258,60C43.396,60 44.328,58.957 44.328,57.682C44.328,56.06 44.328,54.437 44.328,52.814C44.639,52.814 44.949,52.814 45.26,52.814C47.434,52.814 49.608,52.235 51.161,50.381C52.714,48.642 53.335,46.324 53.335,43.891C53.335,39.255 53.335,34.619 53.335,29.983C53.335,26.738 53.335,23.493 53.335,20.248C53.646,20.712 53.956,21.059 54.267,21.523C54.888,22.334 55.509,23.261 56.234,24.072C58.097,26.506 60.996,23.261 59.236,20.943ZM10.268,21.639C10.268,21.523 10.268,21.523 10.268,21.407C10.682,21.639 11.096,21.87 11.406,21.986C12.752,22.566 14.305,21.291 15.651,20.248C16.272,20.827 16.997,21.291 17.618,21.87C18.239,22.334 19.067,22.218 19.689,21.87C20.62,21.291 21.552,20.712 22.484,20.132C23.312,20.712 24.037,21.291 24.865,21.87C25.486,22.334 26.314,22.218 26.936,21.87C27.867,21.291 28.799,20.712 29.627,20.132C30.455,20.712 31.387,21.291 32.215,21.87C32.837,22.334 33.665,22.334 34.286,21.87C35.114,21.291 35.942,20.712 36.771,20.132C37.495,20.596 38.117,20.943 38.841,21.407C39.359,21.755 39.98,22.102 40.601,22.102C41.429,22.102 42.154,21.407 42.879,20.943C43.189,20.712 43.603,20.48 43.914,20.248C44.639,20.712 45.363,21.291 46.192,21.755C46.813,22.218 47.641,22.102 48.262,21.755C48.573,21.523 48.883,21.407 49.194,21.175C49.194,25.463 49.194,29.751 49.194,34.039L10.268,34.039C10.268,30.099 10.268,25.811 10.268,21.639ZM17.618,6.572C18.136,5.993 18.653,5.297 19.171,4.718C26.004,4.718 32.733,4.718 39.566,4.718C40.291,4.718 40.912,4.718 41.636,4.718C44.432,8.427 47.227,12.135 50.022,15.844C49.194,16.308 48.366,16.887 47.538,17.351C46.813,16.771 45.985,16.308 45.26,15.728C44.639,15.264 43.811,15.264 43.189,15.728C42.465,16.192 41.636,16.771 40.912,17.235C39.98,16.655 39.048,16.076 38.117,15.496C37.495,15.149 36.667,15.033 36.046,15.496C35.218,16.076 34.39,16.655 33.561,17.235C33.251,17.003 32.837,16.771 32.526,16.539C31.698,15.96 30.766,15.149 29.731,15.264C28.903,15.38 27.971,16.076 27.246,16.539C26.936,16.771 26.625,17.003 26.211,17.119C25.486,16.539 24.658,15.96 23.933,15.38C23.312,14.917 22.484,15.033 21.863,15.38C20.931,15.96 19.999,16.539 19.067,17.003C18.343,16.423 17.618,15.844 16.893,15.38C16.272,14.917 15.34,15.033 14.823,15.38C13.995,15.96 13.166,16.539 12.338,17.119C11.613,16.655 10.889,16.308 10.268,15.844C12.545,12.831 15.03,9.701 17.618,6.572ZM18.136,55.48C16.479,55.48 15.133,53.973 15.133,52.119C15.133,50.265 16.376,48.642 18.136,48.642C19.792,48.642 21.138,50.149 21.138,52.003C21.138,53.858 19.792,55.48 18.136,55.48ZM49.298,45.397C48.987,47.483 47.33,48.295 45.674,48.295C41.74,48.295 37.909,48.295 33.975,48.295C30.766,48.295 27.66,48.295 24.451,48.295C23.209,45.745 20.827,44.006 18.136,44.006C15.548,44.006 13.27,45.513 12.028,47.831C10.682,47.02 10.268,45.629 10.268,43.891C10.268,42.152 10.268,40.53 10.268,38.791L49.298,38.791C49.298,39.95 49.298,40.993 49.298,42.152C49.298,43.311 49.401,44.354 49.298,45.397Z" fill="#000000"/>
</svg>
