<svg width="36" height="32" viewBox="0 0 36 32" fill="none" xmlns="http://www.w3.org/2000/svg" xmlns:xlink="http://www.w3.org/1999/xlink">
<path d="M25.95,0.821C30.703,0.821 34.566,4.641 34.566,9.358C34.566,11.781 33.544,13.963 31.912,15.517L18,29.372L3.844,15.267C2.363,13.732 1.444,11.651 1.444,9.358C1.444,4.641 5.297,0.821 10.059,0.821C13.641,0.821 16.706,2.985 18.009,6.074C19.294,2.995 22.369,0.821 25.95,0.821ZM25.95,-0.603C22.781,-0.603 19.875,0.858 18,3.263C16.125,0.858 13.219,-0.603 10.05,-0.603C4.509,-0.603 0,3.864 0,9.358C0,11.938 0.994,14.389 2.803,16.257L16.978,30.38L18,31.397L19.022,30.38L32.925,16.525C34.894,14.648 36,12.095 36,9.358C36,3.864 31.491,-0.603 25.95,-0.603Z" fill="#A7CB16" stroke="#A7CB16" stroke-width="1" stroke-miterlimit="3.999327"/>
</svg>
