<svg width="40" height="36" viewBox="0 0 40 36" fill="none" xmlns="http://www.w3.org/2000/svg" xmlns:xlink="http://www.w3.org/1999/xlink">
<path d="M38.333,29.995C38.333,32.297 36.468,34.162 34.167,34.162L4.167,34.162C1.865,34.162 0,32.297 0,29.995L0,5.828C0,3.988 1.493,2.495 3.333,2.495L20.142,2.495L26.892,0.05C27.319,-0.106 27.792,0.115 27.948,0.541L28.659,2.495L31.667,2.495C33.507,2.495 35,3.988 35,5.828L35,7.495C36.841,7.495 38.333,8.988 38.333,10.828L38.333,29.995ZM3.333,4.162C2.413,4.162 1.667,4.908 1.667,5.828C1.667,6.748 2.413,7.495 3.333,7.495L6.204,7.495L6.362,7.495C6.372,7.491 6.379,7.482 6.39,7.477L15.542,4.162L3.333,4.162ZM27.565,4.313L26.68,1.876L24.97,2.495L24.972,2.495L20.377,4.162L20.369,4.162L11.17,7.495L28.722,7.495L27.565,4.313ZM33.333,5.828C33.333,4.908 32.587,4.162 31.667,4.162L29.264,4.162L30.476,7.495L33.333,7.495L33.333,5.828ZM35,9.162L3.333,9.162C2.723,9.162 2.158,8.986 1.667,8.699L1.667,29.995C1.667,31.376 2.787,32.495 4.167,32.495L34.167,32.495C35.547,32.495 36.667,31.376 36.667,29.995L36.667,24.162L33.333,24.162C31.492,24.162 30,22.669 30,20.828C30,18.988 31.492,17.495 33.333,17.495L36.667,17.495L36.667,10.828C36.667,9.908 35.92,9.162 35,9.162ZM36.667,22.495L36.667,19.162L33.333,19.162C32.413,19.162 31.667,19.908 31.667,20.828C31.667,21.748 32.413,22.495 33.333,22.495L36.667,22.495ZM33.333,19.995L35,19.995L35,21.662L33.333,21.662L33.333,19.995Z" clip-rule="evenodd" fill-rule="evenodd" fill="#A7CB16" stroke="#A7CB16" stroke-width="0.5" stroke-miterlimit="3.999327"/>
</svg>
