<svg width="40" height="34" viewBox="0 0 40 34" fill="none" xmlns="http://www.w3.org/2000/svg" xmlns:xlink="http://www.w3.org/1999/xlink">
<path d="M38.333,29.392C38.333,31.694 36.468,33.559 34.167,33.559L4.167,33.559C1.865,33.559 0,31.694 0,29.392L0,5.225C0,3.384 1.493,1.892 3.333,1.892L20.142,1.892L26.892,-0.553C27.319,-0.709 27.792,-0.488 27.948,-0.062L28.659,1.892L31.667,1.892C33.507,1.892 35,3.384 35,5.225L35,6.892C36.841,6.892 38.333,8.384 38.333,10.225L38.333,29.392ZM3.333,3.559C2.413,3.559 1.667,4.305 1.667,5.225C1.667,6.145 2.413,6.892 3.333,6.892L6.204,6.892L6.362,6.892C6.373,6.888 6.379,6.879 6.39,6.874L15.542,3.559L3.333,3.559ZM27.565,3.709L26.68,1.273L24.97,1.892L24.972,1.892L20.377,3.559L20.369,3.559L11.17,6.892L28.722,6.892L27.565,3.709ZM33.333,5.225C33.333,4.305 32.587,3.559 31.667,3.559L29.264,3.559L30.476,6.892L33.333,6.892L33.333,5.225ZM35,8.559L3.333,8.559C2.723,8.559 2.158,8.383 1.667,8.096L1.667,29.392C1.667,30.773 2.787,31.892 4.167,31.892L34.167,31.892C35.547,31.892 36.667,30.773 36.667,29.392L36.667,23.559L33.333,23.559C31.492,23.559 30,22.066 30,20.225C30,18.384 31.492,16.892 33.333,16.892L36.667,16.892L36.667,10.225C36.667,9.305 35.92,8.559 35,8.559ZM36.667,21.892L36.667,18.559L33.333,18.559C32.413,18.559 31.667,19.305 31.667,20.225C31.667,21.145 32.413,21.892 33.333,21.892L36.667,21.892ZM33.333,19.392L35,19.392L35,21.059L33.333,21.059L33.333,19.392Z" clip-rule="evenodd" fill-rule="evenodd" fill="#A7CB16" stroke="#A7CB16" stroke-width="0.5" stroke-miterlimit="3.999327"/>
</svg>
