<svg width="36" height="32" viewBox="0 0 36 32" fill="none" xmlns="http://www.w3.org/2000/svg" xmlns:xlink="http://www.w3.org/1999/xlink">
<path d="M25.95,1.424C30.703,1.424 34.566,5.244 34.566,9.961C34.566,12.384 33.544,14.566 31.912,16.12L18,29.975L3.844,15.871C2.362,14.335 1.444,12.254 1.444,9.961C1.444,5.244 5.297,1.424 10.059,1.424C13.641,1.424 16.706,3.588 18.009,6.677C19.294,3.598 22.369,1.424 25.95,1.424ZM25.95,0C22.781,0 19.875,1.461 18,3.866C16.125,1.461 13.219,0 10.05,0C4.509,0 0,4.467 0,9.961C0,12.541 0.994,14.992 2.803,16.86L16.978,30.983L18,32L19.022,30.983L32.925,17.128C34.894,15.251 36,12.698 36,9.961C36,4.467 31.491,0 25.95,0Z" fill="#A7CB16" stroke="#A7CB16" stroke-width="1" stroke-miterlimit="3.999327"/>
</svg>
