<svg width="60" height="60" viewBox="0 0 60 60" fill="none" xmlns="http://www.w3.org/2000/svg" xmlns:xlink="http://www.w3.org/1999/xlink">
<path d="M59.236,20.513C55.923,16.109 52.507,11.705 49.194,7.185C47.538,5.099 45.881,3.012 44.328,0.81C43.293,-0.58 41.844,-0.348 40.291,-0.348C33.975,-0.348 27.66,-0.348 21.345,-0.348C19.896,-0.348 17.722,-0.812 16.583,0.463C15.133,2.085 13.787,3.94 12.338,5.678C8.301,10.662 4.366,15.645 0.329,20.513C-1.431,22.715 1.468,25.96 3.228,23.758C4.159,22.599 5.091,21.44 6.023,20.281C6.023,28.046 6.023,35.927 6.023,43.692C6.023,47.4 7.783,50.645 10.889,51.804C11.096,56.093 14.202,59.569 18.032,59.569C21.759,59.569 24.761,56.44 25.176,52.384C30.145,52.384 35.218,52.384 40.187,52.384C40.187,53.775 40.187,55.165 40.187,56.44C40.187,56.672 40.187,57.02 40.187,57.251C40.187,58.41 41.119,59.569 42.258,59.569C43.396,59.569 44.328,58.526 44.328,57.251C44.328,55.629 44.328,54.006 44.328,52.384C44.639,52.384 44.949,52.384 45.26,52.384C47.434,52.384 49.608,51.804 51.161,49.95C52.714,48.212 53.335,45.894 53.335,43.46C53.335,38.824 53.335,34.188 53.335,29.553C53.335,26.307 53.335,23.062 53.335,19.817C53.646,20.281 53.956,20.629 54.267,21.092C54.888,21.903 55.509,22.831 56.234,23.642C58.097,26.076 60.996,22.831 59.236,20.513ZM10.268,21.208C10.268,21.092 10.268,21.092 10.268,20.976C10.682,21.208 11.096,21.44 11.406,21.556C12.752,22.135 14.305,20.86 15.651,19.817C16.272,20.397 16.997,20.86 17.618,21.44C18.239,21.903 19.067,21.788 19.689,21.44C20.62,20.86 21.552,20.281 22.484,19.701C23.312,20.281 24.037,20.86 24.865,21.44C25.486,21.903 26.314,21.788 26.936,21.44C27.867,20.86 28.799,20.281 29.627,19.701C30.455,20.281 31.387,20.86 32.215,21.44C32.837,21.903 33.665,21.903 34.286,21.44C35.114,20.86 35.942,20.281 36.771,19.701C37.495,20.165 38.117,20.513 38.841,20.976C39.359,21.324 39.98,21.672 40.601,21.672C41.429,21.672 42.154,20.976 42.879,20.513C43.189,20.281 43.603,20.049 43.914,19.817C44.639,20.281 45.363,20.86 46.192,21.324C46.813,21.788 47.641,21.672 48.262,21.324C48.573,21.092 48.883,20.976 49.194,20.745C49.194,25.033 49.194,29.321 49.194,33.609L10.268,33.609C10.268,29.668 10.268,25.38 10.268,21.208ZM17.618,6.142C18.136,5.562 18.653,4.867 19.171,4.287C26.004,4.287 32.733,4.287 39.566,4.287C40.291,4.287 40.912,4.287 41.636,4.287C44.432,7.996 47.227,11.705 50.022,15.413C49.194,15.877 48.366,16.456 47.538,16.92C46.813,16.34 45.985,15.877 45.26,15.297C44.639,14.834 43.811,14.834 43.189,15.297C42.465,15.761 41.636,16.34 40.912,16.804C39.98,16.225 39.048,15.645 38.117,15.066C37.495,14.718 36.667,14.602 36.046,15.066C35.218,15.645 34.39,16.225 33.561,16.804C33.251,16.572 32.837,16.34 32.526,16.109C31.698,15.529 30.766,14.718 29.731,14.834C28.903,14.95 27.971,15.645 27.246,16.109C26.936,16.34 26.625,16.572 26.211,16.688C25.486,16.109 24.658,15.529 23.933,14.95C23.312,14.486 22.484,14.602 21.863,14.95C20.931,15.529 19.999,16.109 19.067,16.572C18.343,15.993 17.618,15.413 16.893,14.95C16.272,14.486 15.34,14.602 14.823,14.95C13.995,15.529 13.166,16.109 12.338,16.688C11.613,16.225 10.889,15.877 10.268,15.413C12.545,12.4 15.03,9.271 17.618,6.142ZM18.136,55.049C16.479,55.049 15.133,53.543 15.133,51.689C15.133,49.834 16.376,48.212 18.136,48.212C19.792,48.212 21.138,49.718 21.138,51.573C21.138,53.427 19.792,55.049 18.136,55.049ZM49.298,44.967C48.987,47.053 47.33,47.864 45.674,47.864C41.74,47.864 37.909,47.864 33.975,47.864C30.766,47.864 27.66,47.864 24.451,47.864C23.209,45.314 20.827,43.576 18.136,43.576C15.547,43.576 13.27,45.083 12.028,47.4C10.682,46.589 10.268,45.198 10.268,43.46C10.268,41.722 10.268,40.099 10.268,38.361L49.298,38.361C49.298,39.52 49.298,40.563 49.298,41.722C49.298,42.88 49.401,43.924 49.298,44.967Z" fill="#000000"/>
</svg>
