<svg width="30" height="20" viewBox="0 0 30 20" fill="none" xmlns="http://www.w3.org/2000/svg" xmlns:xlink="http://www.w3.org/1999/xlink">
<path d="M27.966,4.443C24.143,1.178 19.315,-0.603 14.265,-0.603C9.201,-0.603 4.359,1.189 0.532,4.471L0.207,4.75C-0.056,4.975 -0.071,5.376 0.175,5.621L2.428,7.868C2.647,8.086 2.997,8.101 3.234,7.902L3.513,7.668C6.527,5.136 10.31,3.758 14.265,3.758C18.207,3.758 21.979,5.127 24.988,7.643L25.267,7.876C25.504,8.074 25.853,8.059 26.071,7.841L28.325,5.593C28.571,5.348 28.555,4.947 28.292,4.722L27.966,4.443ZM14.265,6.337C17.447,6.337 20.502,7.392 22.991,9.347L23.342,9.623C23.623,9.843 23.647,10.258 23.395,10.51L21.133,12.765C20.924,12.974 20.593,12.998 20.356,12.821L20.08,12.617C18.4,11.367 16.373,10.697 14.265,10.697C12.145,10.697 10.107,11.376 8.42,12.639L8.144,12.846C7.907,13.024 7.575,13 7.365,12.791L5.104,10.537C4.852,10.286 4.876,9.872 5.155,9.651L5.505,9.375C8,7.402 11.068,6.337 14.265,6.337ZM14.265,13.276C15.544,13.276 16.787,13.612 17.882,14.253L18.326,14.513C18.662,14.71 18.721,15.17 18.446,15.445L14.657,19.223C14.425,19.455 14.048,19.455 13.815,19.223L10.051,15.47C9.776,15.196 9.834,14.738 10.167,14.539L10.606,14.278C11.711,13.621 12.97,13.276 14.265,13.276Z" clip-rule="evenodd" fill-rule="evenodd" fill="#FFFFFF"/>
</svg>
