<svg width="30" height="20" viewBox="0 0 30 20" fill="none" xmlns="http://www.w3.org/2000/svg" xmlns:xlink="http://www.w3.org/1999/xlink">
<path d="M27.966,5.046C24.143,1.781 19.315,0 14.265,0C9.201,0 4.359,1.792 0.532,5.074L0.207,5.353C-0.056,5.578 -0.071,5.979 0.175,6.224L2.428,8.471C2.647,8.689 2.997,8.704 3.234,8.505L3.513,8.271C6.527,5.739 10.31,4.361 14.265,4.361C18.207,4.361 21.979,5.729 24.988,8.246L25.267,8.479C25.504,8.677 25.853,8.662 26.071,8.444L28.325,6.196C28.571,5.951 28.555,5.55 28.292,5.325L27.966,5.046ZM14.265,6.94C17.447,6.94 20.502,7.995 22.991,9.95L23.342,10.226C23.623,10.446 23.647,10.861 23.395,11.113L21.133,13.368C20.924,13.577 20.593,13.601 20.356,13.424L20.08,13.22C18.399,11.97 16.373,11.3 14.265,11.3C12.145,11.3 10.107,11.979 8.42,13.242L8.144,13.449C7.907,13.627 7.575,13.603 7.365,13.394L5.104,11.14C4.852,10.888 4.876,10.475 5.155,10.254L5.505,9.977C8,8.005 11.068,6.94 14.265,6.94ZM14.265,13.879C15.544,13.879 16.787,14.215 17.882,14.856L18.326,15.116C18.662,15.313 18.721,15.773 18.446,16.048L14.657,19.826C14.425,20.058 14.048,20.058 13.815,19.826L10.051,16.073C9.776,15.799 9.834,15.34 10.167,15.142L10.606,14.881C11.711,14.224 12.97,13.879 14.265,13.879Z" clip-rule="evenodd" fill-rule="evenodd" fill="#FFFFFF"/>
</svg>
