<svg width="30" height="20" viewBox="0 0 30 20" fill="none" xmlns="http://www.w3.org/2000/svg" xmlns:xlink="http://www.w3.org/1999/xlink">
<path d="M27.966,4.615C24.143,1.35 19.315,-0.431 14.265,-0.431C9.201,-0.431 4.359,1.361 0.532,4.643L0.207,4.922C-0.056,5.148 -0.071,5.548 0.175,5.793L2.428,8.04C2.647,8.259 2.997,8.274 3.234,8.075L3.513,7.84C6.527,5.308 10.31,3.93 14.265,3.93C18.207,3.93 21.979,5.299 24.988,7.815L25.267,8.048C25.504,8.246 25.853,8.231 26.071,8.013L28.325,5.765C28.571,5.52 28.555,5.119 28.292,4.894L27.966,4.615ZM14.265,6.509C17.447,6.509 20.502,7.564 22.991,9.519L23.342,9.795C23.623,10.016 23.647,10.431 23.395,10.682L21.133,12.937C20.924,13.146 20.593,13.17 20.356,12.994L20.08,12.789C18.4,11.54 16.373,10.87 14.265,10.87C12.145,10.87 10.107,11.548 8.42,12.812L8.144,13.018C7.907,13.196 7.575,13.173 7.365,12.963L5.104,10.709C4.852,10.458 4.876,10.044 5.155,9.823L5.505,9.547C8,7.575 11.068,6.509 14.265,6.509ZM14.265,13.449C15.544,13.449 16.787,13.785 17.882,14.425L18.326,14.685C18.662,14.882 18.721,15.343 18.446,15.618L14.657,19.395C14.425,19.627 14.048,19.627 13.815,19.395L10.051,15.642C9.776,15.368 9.834,14.91 10.167,14.711L10.606,14.451C11.711,13.794 12.97,13.449 14.265,13.449Z" clip-rule="evenodd" fill-rule="evenodd" fill="#000000"/>
</svg>
