<svg width="46" height="40" viewBox="0 0 46 40" fill="none" xmlns="http://www.w3.org/2000/svg" xmlns:xlink="http://www.w3.org/1999/xlink">
<path d="M23,6.169L21.641,7.637C22.408,8.347 23.592,8.347 24.358,7.637L23,6.169ZM6.172,21.744L4.813,23.212L4.813,23.212L6.172,21.744ZM23,37.319L21.641,38.787C22.408,39.497 23.592,39.497 24.358,38.787L23,37.319ZM39.828,21.744L41.187,23.212L41.187,23.212L39.828,21.744ZM24.359,4.702C18.945,-0.31 10.227,-0.31 4.813,4.702L7.53,7.637C11.41,4.045 17.761,4.045 21.641,7.637L24.359,4.702ZM4.813,4.702C-0.689,9.795 -0.689,18.119 4.813,23.212L7.53,20.277C3.739,16.767 3.739,11.147 7.53,7.637L4.813,4.702ZM4.813,23.212L21.641,38.787L24.358,35.852L7.53,20.276L4.813,23.212ZM24.358,38.787L41.187,23.212L38.47,20.276L21.641,35.852L24.358,38.787ZM41.187,23.212C46.689,18.119 46.689,9.795 41.187,4.702L38.469,7.637C42.261,11.147 42.261,16.767 38.469,20.277L41.187,23.212ZM41.187,4.702C35.773,-0.31 27.055,-0.308 21.641,4.701L24.358,7.637C28.239,4.046 34.59,4.045 38.469,7.637L41.187,4.702Z" fill="#A7CB16"/>
</svg>
