<svg width="46" height="38" viewBox="0 0 46 38" fill="none" xmlns="http://www.w3.org/2000/svg" xmlns:xlink="http://www.w3.org/1999/xlink">
<path d="M23,4.6L21.641,6.068C22.408,6.777 23.592,6.777 24.358,6.068L23,4.6ZM6.172,20.175L4.813,21.643L4.813,21.643L6.172,20.175ZM23,35.75L21.642,37.218C22.408,37.927 23.592,37.927 24.359,37.218L23,35.75ZM39.828,20.175L41.187,21.643L41.187,21.643L39.828,20.175ZM24.359,3.132C18.945,-1.879 10.227,-1.879 4.813,3.132L7.531,6.068C11.411,2.476 17.761,2.476 21.641,6.068L24.359,3.132ZM4.813,3.132C-0.689,8.226 -0.689,16.55 4.813,21.643L7.531,18.707C3.739,15.197 3.739,9.578 7.531,6.068L4.813,3.132ZM4.813,21.643L21.642,37.218L24.359,34.282L7.53,18.707L4.813,21.643ZM24.359,37.218L41.187,21.643L38.47,18.707L21.642,34.282L24.359,37.218ZM41.187,21.643C46.689,16.55 46.689,8.226 41.187,3.132L38.47,6.068C42.261,9.578 42.261,15.197 38.47,18.707L41.187,21.643ZM41.187,3.132C35.773,-1.879 27.055,-1.877 21.642,3.132L24.358,6.068C28.239,2.477 34.59,2.476 38.47,6.068L41.187,3.132Z" fill="#A7CB16"/>
</svg>
